%TF.GenerationSoftware,KiCad,Pcbnew,8.0.4*%
%TF.CreationDate,2024-09-10T03:21:52+03:00*%
%TF.ProjectId,silakka54,73696c61-6b6b-4613-9534-2e6b69636164,rev?*%
%TF.SameCoordinates,Original*%
%TF.FileFunction,Drillmap*%
%TF.FilePolarity,Positive*%
%FSLAX45Y45*%
G04 Gerber Fmt 4.5, Leading zero omitted, Abs format (unit mm)*
G04 Created by KiCad (PCBNEW 8.0.4) date 2024-09-10 03:21:52*
%MOMM*%
%LPD*%
G01*
G04 APERTURE LIST*
%ADD10C,0.050000*%
%ADD11C,0.100000*%
%ADD12C,0.200000*%
G04 APERTURE END LIST*
D10*
X10953750Y-2619375D02*
X13096875Y-2619375D01*
X13335000Y-2857500D01*
X14525625Y-2857500D01*
X14644687Y-3095625D01*
X16549687Y-3095625D01*
X16668750Y-3214687D01*
X16668750Y-5595937D01*
X16549687Y-5715000D01*
X14882812Y-5715000D01*
X14820000Y-5780000D01*
X14820000Y-9100000D01*
X14940000Y-9220000D01*
X15440000Y-9220000D01*
X15960000Y-9520000D01*
X15954375Y-11787187D01*
X15716250Y-11906250D01*
X14644687Y-13811250D01*
X14525625Y-13930312D01*
X14287500Y-13930312D01*
X12620625Y-12977812D01*
X12501562Y-12977812D01*
X12025312Y-12977812D01*
X10715625Y-12620625D01*
X8929688Y-12620625D01*
X8810625Y-12501562D01*
X8810625Y-11191875D01*
X8691563Y-11072813D01*
X8096250Y-11072813D01*
X7739062Y-10834688D01*
X6786562Y-10834688D01*
X6548437Y-11072813D01*
X3214687Y-11072813D01*
X2857500Y-10715625D01*
X2857500Y-3214687D01*
X3214687Y-2857500D01*
X6667500Y-2857500D01*
X6786562Y-2738438D01*
X7620000Y-2738438D01*
X7858125Y-2500313D01*
X10834688Y-2500313D01*
X10953750Y-2619375D01*
D11*
X3314687Y-10596563D02*
G75*
G02*
X3114687Y-10596563I-100000J0D01*
G01*
X3114687Y-10596563D02*
G75*
G02*
X3314687Y-10596563I100000J0D01*
G01*
X8910625Y-6905625D02*
G75*
G02*
X8710625Y-6905625I-100000J0D01*
G01*
X8710625Y-6905625D02*
G75*
G02*
X8910625Y-6905625I100000J0D01*
G01*
X9267813Y-12263437D02*
G75*
G02*
X9067813Y-12263437I-100000J0D01*
G01*
X9067813Y-12263437D02*
G75*
G02*
X9267813Y-12263437I100000J0D01*
G01*
X8910625Y-10715625D02*
G75*
G02*
X8710625Y-10715625I-100000J0D01*
G01*
X8710625Y-10715625D02*
G75*
G02*
X8910625Y-10715625I100000J0D01*
G01*
X12720625Y-3452812D02*
G75*
G02*
X12520625Y-3452812I-100000J0D01*
G01*
X12520625Y-3452812D02*
G75*
G02*
X12720625Y-3452812I100000J0D01*
G01*
X14387500Y-8929688D02*
G75*
G02*
X14187500Y-8929688I-100000J0D01*
G01*
X14187500Y-8929688D02*
G75*
G02*
X14387500Y-8929688I100000J0D01*
G01*
X12720625Y-9882188D02*
G75*
G02*
X12520625Y-9882188I-100000J0D01*
G01*
X12520625Y-9882188D02*
G75*
G02*
X12720625Y-9882188I100000J0D01*
G01*
X3314687Y-6905625D02*
G75*
G02*
X3114687Y-6905625I-100000J0D01*
G01*
X3114687Y-6905625D02*
G75*
G02*
X3314687Y-6905625I100000J0D01*
G01*
X13077812Y-12858750D02*
G75*
G02*
X12877812Y-12858750I-100000J0D01*
G01*
X12877812Y-12858750D02*
G75*
G02*
X13077812Y-12858750I100000J0D01*
G01*
X3314687Y-3214687D02*
G75*
G02*
X3114687Y-3214687I-100000J0D01*
G01*
X3114687Y-3214687D02*
G75*
G02*
X3314687Y-3214687I100000J0D01*
G01*
D12*
D11*
X4033125Y-3318750D02*
X4063125Y-3348750D01*
X4063125Y-3318750D02*
X4033125Y-3348750D01*
X4747500Y-5223750D02*
X4777500Y-5253750D01*
X4777500Y-5223750D02*
X4747500Y-5253750D01*
X4985625Y-6890625D02*
X5015625Y-6920625D01*
X5015625Y-6890625D02*
X4985625Y-6920625D01*
X4985625Y-8795625D02*
X5015625Y-8825625D01*
X5015625Y-8795625D02*
X4985625Y-8825625D01*
X5938125Y-3318750D02*
X5968125Y-3348750D01*
X5968125Y-3318750D02*
X5938125Y-3348750D01*
X6890625Y-4985625D02*
X6920625Y-5015625D01*
X6920625Y-4985625D02*
X6890625Y-5015625D01*
X6890625Y-6890625D02*
X6920625Y-6920625D01*
X6920625Y-6890625D02*
X6890625Y-6920625D01*
X6890625Y-8557500D02*
X6920625Y-8587500D01*
X6920625Y-8557500D02*
X6890625Y-8587500D01*
X7843125Y-3080625D02*
X7873125Y-3110625D01*
X7873125Y-3080625D02*
X7843125Y-3110625D01*
X8795625Y-2902500D02*
X8825625Y-2932500D01*
X8825625Y-2902500D02*
X8795625Y-2932500D01*
X8795625Y-4747500D02*
X8825625Y-4777500D01*
X8825625Y-4747500D02*
X8795625Y-4777500D01*
X8795625Y-6652500D02*
X8825625Y-6682500D01*
X8825625Y-6652500D02*
X8795625Y-6682500D01*
X8795625Y-8557500D02*
X8825625Y-8587500D01*
X8825625Y-8557500D02*
X8795625Y-8587500D01*
X9748125Y-2842500D02*
X9778125Y-2872500D01*
X9778125Y-2842500D02*
X9748125Y-2872500D01*
X10700625Y-4747500D02*
X10730625Y-4777500D01*
X10730625Y-4747500D02*
X10700625Y-4777500D01*
X10700625Y-6652500D02*
X10730625Y-6682500D01*
X10730625Y-6652500D02*
X10700625Y-6682500D01*
X10700625Y-8557500D02*
X10730625Y-8587500D01*
X10730625Y-8557500D02*
X10700625Y-8587500D01*
X10938750Y-10700625D02*
X10968750Y-10730625D01*
X10968750Y-10700625D02*
X10938750Y-10730625D01*
X11653125Y-3080625D02*
X11683125Y-3110625D01*
X11683125Y-3080625D02*
X11653125Y-3110625D01*
X12605625Y-4985625D02*
X12635625Y-5015625D01*
X12635625Y-4985625D02*
X12605625Y-5015625D01*
X12605625Y-6890625D02*
X12635625Y-6920625D01*
X12635625Y-6890625D02*
X12605625Y-6920625D01*
X12605625Y-8795625D02*
X12635625Y-8825625D01*
X12635625Y-8795625D02*
X12605625Y-8825625D01*
X13558125Y-3318750D02*
X13588125Y-3348750D01*
X13588125Y-3318750D02*
X13558125Y-3348750D01*
X14034375Y-5223750D02*
X14064375Y-5253750D01*
X14064375Y-5223750D02*
X14034375Y-5253750D01*
X14256827Y-4731827D02*
X14286827Y-4761827D01*
X14286827Y-4731827D02*
X14256827Y-4761827D01*
X14272500Y-10224375D02*
X14302500Y-10254375D01*
X14302500Y-10224375D02*
X14272500Y-10254375D01*
X14325000Y-4365000D02*
X14355000Y-4395000D01*
X14355000Y-4365000D02*
X14325000Y-4395000D01*
X14498198Y-4057794D02*
X14528198Y-4087794D01*
X14528198Y-4057794D02*
X14498198Y-4087794D01*
X14505000Y-9785000D02*
X14535000Y-9815000D01*
X14535000Y-9785000D02*
X14505000Y-9815000D01*
X14510625Y-11415000D02*
X14540625Y-11445000D01*
X14540625Y-11415000D02*
X14510625Y-11445000D01*
X14785000Y-9705000D02*
X14815000Y-9735000D01*
X14815000Y-9705000D02*
X14785000Y-9735000D01*
X15005000Y-10485000D02*
X15035000Y-10515000D01*
X15035000Y-10485000D02*
X15005000Y-10515000D01*
X15105937Y-3675937D02*
X15135937Y-3705937D01*
X15135937Y-3675937D02*
X15105937Y-3705937D01*
X15305000Y-10225000D02*
X15335000Y-10255000D01*
X15335000Y-10225000D02*
X15305000Y-10255000D01*
X15385000Y-10205000D02*
X15415000Y-10235000D01*
X15415000Y-10205000D02*
X15385000Y-10235000D01*
X15425000Y-9865000D02*
X15455000Y-9895000D01*
X15455000Y-9865000D02*
X15425000Y-9895000D01*
X15685000Y-5405000D02*
X15715000Y-5435000D01*
X15715000Y-5405000D02*
X15685000Y-5435000D01*
X15825000Y-10285000D02*
X15855000Y-10315000D01*
X15855000Y-10285000D02*
X15825000Y-10315000D01*
X3645875Y-8810625D02*
G75*
G02*
X3565875Y-8810625I-40000J0D01*
G01*
X3565875Y-8810625D02*
G75*
G02*
X3645875Y-8810625I40000J0D01*
G01*
X3645875Y-10715625D02*
G75*
G02*
X3565875Y-10715625I-40000J0D01*
G01*
X3565875Y-10715625D02*
G75*
G02*
X3645875Y-10715625I40000J0D01*
G01*
X3680875Y-5000625D02*
G75*
G02*
X3600875Y-5000625I-40000J0D01*
G01*
X3600875Y-5000625D02*
G75*
G02*
X3680875Y-5000625I40000J0D01*
G01*
X3730875Y-6905625D02*
G75*
G02*
X3650875Y-6905625I-40000J0D01*
G01*
X3650875Y-6905625D02*
G75*
G02*
X3730875Y-6905625I40000J0D01*
G01*
X4407875Y-8810625D02*
G75*
G02*
X4327875Y-8810625I-40000J0D01*
G01*
X4327875Y-8810625D02*
G75*
G02*
X4407875Y-8810625I40000J0D01*
G01*
X4407875Y-10715625D02*
G75*
G02*
X4327875Y-10715625I-40000J0D01*
G01*
X4327875Y-10715625D02*
G75*
G02*
X4407875Y-10715625I40000J0D01*
G01*
X4442875Y-5000625D02*
G75*
G02*
X4362875Y-5000625I-40000J0D01*
G01*
X4362875Y-5000625D02*
G75*
G02*
X4442875Y-5000625I40000J0D01*
G01*
X4492875Y-6905625D02*
G75*
G02*
X4412875Y-6905625I-40000J0D01*
G01*
X4412875Y-6905625D02*
G75*
G02*
X4492875Y-6905625I40000J0D01*
G01*
X5550875Y-8810625D02*
G75*
G02*
X5470875Y-8810625I-40000J0D01*
G01*
X5470875Y-8810625D02*
G75*
G02*
X5550875Y-8810625I40000J0D01*
G01*
X5550875Y-10715625D02*
G75*
G02*
X5470875Y-10715625I-40000J0D01*
G01*
X5470875Y-10715625D02*
G75*
G02*
X5550875Y-10715625I40000J0D01*
G01*
X5585875Y-5000625D02*
G75*
G02*
X5505875Y-5000625I-40000J0D01*
G01*
X5505875Y-5000625D02*
G75*
G02*
X5585875Y-5000625I40000J0D01*
G01*
X5585875Y-6905625D02*
G75*
G02*
X5505875Y-6905625I-40000J0D01*
G01*
X5505875Y-6905625D02*
G75*
G02*
X5585875Y-6905625I40000J0D01*
G01*
X6312875Y-8810625D02*
G75*
G02*
X6232875Y-8810625I-40000J0D01*
G01*
X6232875Y-8810625D02*
G75*
G02*
X6312875Y-8810625I40000J0D01*
G01*
X6312875Y-10715625D02*
G75*
G02*
X6232875Y-10715625I-40000J0D01*
G01*
X6232875Y-10715625D02*
G75*
G02*
X6312875Y-10715625I40000J0D01*
G01*
X6347875Y-5000625D02*
G75*
G02*
X6267875Y-5000625I-40000J0D01*
G01*
X6267875Y-5000625D02*
G75*
G02*
X6347875Y-5000625I40000J0D01*
G01*
X6347875Y-6905625D02*
G75*
G02*
X6267875Y-6905625I-40000J0D01*
G01*
X6267875Y-6905625D02*
G75*
G02*
X6347875Y-6905625I40000J0D01*
G01*
X7435875Y-8572500D02*
G75*
G02*
X7355875Y-8572500I-40000J0D01*
G01*
X7355875Y-8572500D02*
G75*
G02*
X7435875Y-8572500I40000J0D01*
G01*
X7455875Y-10477500D02*
G75*
G02*
X7375875Y-10477500I-40000J0D01*
G01*
X7375875Y-10477500D02*
G75*
G02*
X7455875Y-10477500I40000J0D01*
G01*
X7490875Y-4762500D02*
G75*
G02*
X7410875Y-4762500I-40000J0D01*
G01*
X7410875Y-4762500D02*
G75*
G02*
X7490875Y-4762500I40000J0D01*
G01*
X7515875Y-6667500D02*
G75*
G02*
X7435875Y-6667500I-40000J0D01*
G01*
X7435875Y-6667500D02*
G75*
G02*
X7515875Y-6667500I40000J0D01*
G01*
X8197875Y-8572500D02*
G75*
G02*
X8117875Y-8572500I-40000J0D01*
G01*
X8117875Y-8572500D02*
G75*
G02*
X8197875Y-8572500I40000J0D01*
G01*
X8217875Y-10477500D02*
G75*
G02*
X8137875Y-10477500I-40000J0D01*
G01*
X8137875Y-10477500D02*
G75*
G02*
X8217875Y-10477500I40000J0D01*
G01*
X8252875Y-4762500D02*
G75*
G02*
X8172875Y-4762500I-40000J0D01*
G01*
X8172875Y-4762500D02*
G75*
G02*
X8252875Y-4762500I40000J0D01*
G01*
X8277875Y-6667500D02*
G75*
G02*
X8197875Y-6667500I-40000J0D01*
G01*
X8197875Y-6667500D02*
G75*
G02*
X8277875Y-6667500I40000J0D01*
G01*
X9360875Y-8334375D02*
G75*
G02*
X9280875Y-8334375I-40000J0D01*
G01*
X9280875Y-8334375D02*
G75*
G02*
X9360875Y-8334375I40000J0D01*
G01*
X9360875Y-6429375D02*
G75*
G02*
X9280875Y-6429375I-40000J0D01*
G01*
X9280875Y-6429375D02*
G75*
G02*
X9360875Y-6429375I40000J0D01*
G01*
X9395875Y-4524375D02*
G75*
G02*
X9315875Y-4524375I-40000J0D01*
G01*
X9315875Y-4524375D02*
G75*
G02*
X9395875Y-4524375I40000J0D01*
G01*
X9422125Y-10239375D02*
G75*
G02*
X9342125Y-10239375I-40000J0D01*
G01*
X9342125Y-10239375D02*
G75*
G02*
X9422125Y-10239375I40000J0D01*
G01*
X9599000Y-12382500D02*
G75*
G02*
X9519000Y-12382500I-40000J0D01*
G01*
X9519000Y-12382500D02*
G75*
G02*
X9599000Y-12382500I40000J0D01*
G01*
X10122875Y-8334375D02*
G75*
G02*
X10042875Y-8334375I-40000J0D01*
G01*
X10042875Y-8334375D02*
G75*
G02*
X10122875Y-8334375I40000J0D01*
G01*
X10122875Y-6429375D02*
G75*
G02*
X10042875Y-6429375I-40000J0D01*
G01*
X10042875Y-6429375D02*
G75*
G02*
X10122875Y-6429375I40000J0D01*
G01*
X10157875Y-4524375D02*
G75*
G02*
X10077875Y-4524375I-40000J0D01*
G01*
X10077875Y-4524375D02*
G75*
G02*
X10157875Y-4524375I40000J0D01*
G01*
X10184125Y-10239375D02*
G75*
G02*
X10104125Y-10239375I-40000J0D01*
G01*
X10104125Y-10239375D02*
G75*
G02*
X10184125Y-10239375I40000J0D01*
G01*
X10361000Y-12382500D02*
G75*
G02*
X10281000Y-12382500I-40000J0D01*
G01*
X10281000Y-12382500D02*
G75*
G02*
X10361000Y-12382500I40000J0D01*
G01*
X11265875Y-8572500D02*
G75*
G02*
X11185875Y-8572500I-40000J0D01*
G01*
X11185875Y-8572500D02*
G75*
G02*
X11265875Y-8572500I40000J0D01*
G01*
X11300875Y-4762500D02*
G75*
G02*
X11220875Y-4762500I-40000J0D01*
G01*
X11220875Y-4762500D02*
G75*
G02*
X11300875Y-4762500I40000J0D01*
G01*
X11300875Y-6667500D02*
G75*
G02*
X11220875Y-6667500I-40000J0D01*
G01*
X11220875Y-6667500D02*
G75*
G02*
X11300875Y-6667500I40000J0D01*
G01*
X11300875Y-10477500D02*
G75*
G02*
X11220875Y-10477500I-40000J0D01*
G01*
X11220875Y-10477500D02*
G75*
G02*
X11300875Y-10477500I40000J0D01*
G01*
X11518175Y-12512956D02*
G75*
G02*
X11438175Y-12512956I-40000J0D01*
G01*
X11438175Y-12512956D02*
G75*
G02*
X11518175Y-12512956I40000J0D01*
G01*
X12027875Y-8572500D02*
G75*
G02*
X11947875Y-8572500I-40000J0D01*
G01*
X11947875Y-8572500D02*
G75*
G02*
X12027875Y-8572500I40000J0D01*
G01*
X12062875Y-4762500D02*
G75*
G02*
X11982875Y-4762500I-40000J0D01*
G01*
X11982875Y-4762500D02*
G75*
G02*
X12062875Y-4762500I40000J0D01*
G01*
X12062875Y-6667500D02*
G75*
G02*
X11982875Y-6667500I-40000J0D01*
G01*
X11982875Y-6667500D02*
G75*
G02*
X12062875Y-6667500I40000J0D01*
G01*
X12062875Y-10477500D02*
G75*
G02*
X11982875Y-10477500I-40000J0D01*
G01*
X11982875Y-10477500D02*
G75*
G02*
X12062875Y-10477500I40000J0D01*
G01*
X12254210Y-12710176D02*
G75*
G02*
X12174210Y-12710176I-40000J0D01*
G01*
X12174210Y-12710176D02*
G75*
G02*
X12254210Y-12710176I40000J0D01*
G01*
X13140750Y-12266517D02*
G75*
G02*
X13060750Y-12266517I-40000J0D01*
G01*
X13060750Y-12266517D02*
G75*
G02*
X13140750Y-12266517I40000J0D01*
G01*
X13170875Y-8810625D02*
G75*
G02*
X13090875Y-8810625I-40000J0D01*
G01*
X13090875Y-8810625D02*
G75*
G02*
X13170875Y-8810625I40000J0D01*
G01*
X13170875Y-6905625D02*
G75*
G02*
X13090875Y-6905625I-40000J0D01*
G01*
X13090875Y-6905625D02*
G75*
G02*
X13170875Y-6905625I40000J0D01*
G01*
X13255875Y-5000625D02*
G75*
G02*
X13175875Y-5000625I-40000J0D01*
G01*
X13175875Y-5000625D02*
G75*
G02*
X13255875Y-5000625I40000J0D01*
G01*
X13327375Y-10715625D02*
G75*
G02*
X13247375Y-10715625I-40000J0D01*
G01*
X13247375Y-10715625D02*
G75*
G02*
X13327375Y-10715625I40000J0D01*
G01*
X13521750Y-11606605D02*
G75*
G02*
X13441750Y-11606605I-40000J0D01*
G01*
X13441750Y-11606605D02*
G75*
G02*
X13521750Y-11606605I40000J0D01*
G01*
X13932875Y-8810625D02*
G75*
G02*
X13852875Y-8810625I-40000J0D01*
G01*
X13852875Y-8810625D02*
G75*
G02*
X13932875Y-8810625I40000J0D01*
G01*
X13932875Y-6905625D02*
G75*
G02*
X13852875Y-6905625I-40000J0D01*
G01*
X13852875Y-6905625D02*
G75*
G02*
X13932875Y-6905625I40000J0D01*
G01*
X14017875Y-5000625D02*
G75*
G02*
X13937875Y-5000625I-40000J0D01*
G01*
X13937875Y-5000625D02*
G75*
G02*
X14017875Y-5000625I40000J0D01*
G01*
X14089375Y-10715625D02*
G75*
G02*
X14009375Y-10715625I-40000J0D01*
G01*
X14009375Y-10715625D02*
G75*
G02*
X14089375Y-10715625I40000J0D01*
G01*
X14808875Y-3223125D02*
X14808875Y-3323125D01*
X14758875Y-3273125D02*
X14858875Y-3273125D01*
X14808875Y-3477125D02*
X14808875Y-3577125D01*
X14758875Y-3527125D02*
X14858875Y-3527125D01*
X14808875Y-3731125D02*
X14808875Y-3831125D01*
X14758875Y-3781125D02*
X14858875Y-3781125D01*
X14808875Y-3985125D02*
X14808875Y-4085125D01*
X14758875Y-4035125D02*
X14858875Y-4035125D01*
X14808875Y-4239125D02*
X14808875Y-4339125D01*
X14758875Y-4289125D02*
X14858875Y-4289125D01*
X14808875Y-4493125D02*
X14808875Y-4593125D01*
X14758875Y-4543125D02*
X14858875Y-4543125D01*
X14808875Y-4747125D02*
X14808875Y-4847125D01*
X14758875Y-4797125D02*
X14858875Y-4797125D01*
X14808875Y-5001125D02*
X14808875Y-5101125D01*
X14758875Y-5051125D02*
X14858875Y-5051125D01*
X14808875Y-5255125D02*
X14808875Y-5355125D01*
X14758875Y-5305125D02*
X14858875Y-5305125D01*
X15062875Y-5255125D02*
X15062875Y-5355125D01*
X15012875Y-5305125D02*
X15112875Y-5305125D01*
X15316875Y-5255125D02*
X15316875Y-5355125D01*
X15266875Y-5305125D02*
X15366875Y-5305125D01*
X15570875Y-5255125D02*
X15570875Y-5355125D01*
X15520875Y-5305125D02*
X15620875Y-5305125D01*
X15824875Y-5255125D02*
X15824875Y-5355125D01*
X15774875Y-5305125D02*
X15874875Y-5305125D01*
X16078875Y-5255125D02*
X16078875Y-5355125D01*
X16028875Y-5305125D02*
X16128875Y-5305125D01*
X16332875Y-3223125D02*
X16332875Y-3323125D01*
X16282875Y-3273125D02*
X16382875Y-3273125D01*
X16332875Y-3477125D02*
X16332875Y-3577125D01*
X16282875Y-3527125D02*
X16382875Y-3527125D01*
X16332875Y-3731125D02*
X16332875Y-3831125D01*
X16282875Y-3781125D02*
X16382875Y-3781125D01*
X16332875Y-3985125D02*
X16332875Y-4085125D01*
X16282875Y-4035125D02*
X16382875Y-4035125D01*
X16332875Y-4239125D02*
X16332875Y-4339125D01*
X16282875Y-4289125D02*
X16382875Y-4289125D01*
X16332875Y-4493125D02*
X16332875Y-4593125D01*
X16282875Y-4543125D02*
X16382875Y-4543125D01*
X16332875Y-4747125D02*
X16332875Y-4847125D01*
X16282875Y-4797125D02*
X16382875Y-4797125D01*
X16332875Y-5001125D02*
X16332875Y-5101125D01*
X16282875Y-5051125D02*
X16382875Y-5051125D01*
X16332875Y-5255125D02*
X16332875Y-5355125D01*
X16282875Y-5305125D02*
X16382875Y-5305125D01*
D12*
X3115777Y-14244296D02*
X3115777Y-14044296D01*
X3115777Y-14044296D02*
X3163396Y-14044296D01*
X3163396Y-14044296D02*
X3191967Y-14053820D01*
X3191967Y-14053820D02*
X3211015Y-14072868D01*
X3211015Y-14072868D02*
X3220539Y-14091915D01*
X3220539Y-14091915D02*
X3230062Y-14130010D01*
X3230062Y-14130010D02*
X3230062Y-14158582D01*
X3230062Y-14158582D02*
X3220539Y-14196677D01*
X3220539Y-14196677D02*
X3211015Y-14215725D01*
X3211015Y-14215725D02*
X3191967Y-14234772D01*
X3191967Y-14234772D02*
X3163396Y-14244296D01*
X3163396Y-14244296D02*
X3115777Y-14244296D01*
X3315777Y-14244296D02*
X3315777Y-14110963D01*
X3315777Y-14149058D02*
X3325301Y-14130010D01*
X3325301Y-14130010D02*
X3334824Y-14120487D01*
X3334824Y-14120487D02*
X3353872Y-14110963D01*
X3353872Y-14110963D02*
X3372920Y-14110963D01*
X3439586Y-14244296D02*
X3439586Y-14110963D01*
X3439586Y-14044296D02*
X3430062Y-14053820D01*
X3430062Y-14053820D02*
X3439586Y-14063344D01*
X3439586Y-14063344D02*
X3449110Y-14053820D01*
X3449110Y-14053820D02*
X3439586Y-14044296D01*
X3439586Y-14044296D02*
X3439586Y-14063344D01*
X3563396Y-14244296D02*
X3544348Y-14234772D01*
X3544348Y-14234772D02*
X3534824Y-14215725D01*
X3534824Y-14215725D02*
X3534824Y-14044296D01*
X3668158Y-14244296D02*
X3649110Y-14234772D01*
X3649110Y-14234772D02*
X3639586Y-14215725D01*
X3639586Y-14215725D02*
X3639586Y-14044296D01*
X3896729Y-14244296D02*
X3896729Y-14044296D01*
X3896729Y-14044296D02*
X3963396Y-14187153D01*
X3963396Y-14187153D02*
X4030062Y-14044296D01*
X4030062Y-14044296D02*
X4030062Y-14244296D01*
X4211015Y-14244296D02*
X4211015Y-14139534D01*
X4211015Y-14139534D02*
X4201491Y-14120487D01*
X4201491Y-14120487D02*
X4182443Y-14110963D01*
X4182443Y-14110963D02*
X4144348Y-14110963D01*
X4144348Y-14110963D02*
X4125301Y-14120487D01*
X4211015Y-14234772D02*
X4191967Y-14244296D01*
X4191967Y-14244296D02*
X4144348Y-14244296D01*
X4144348Y-14244296D02*
X4125301Y-14234772D01*
X4125301Y-14234772D02*
X4115777Y-14215725D01*
X4115777Y-14215725D02*
X4115777Y-14196677D01*
X4115777Y-14196677D02*
X4125301Y-14177630D01*
X4125301Y-14177630D02*
X4144348Y-14168106D01*
X4144348Y-14168106D02*
X4191967Y-14168106D01*
X4191967Y-14168106D02*
X4211015Y-14158582D01*
X4306253Y-14110963D02*
X4306253Y-14310963D01*
X4306253Y-14120487D02*
X4325301Y-14110963D01*
X4325301Y-14110963D02*
X4363396Y-14110963D01*
X4363396Y-14110963D02*
X4382444Y-14120487D01*
X4382444Y-14120487D02*
X4391967Y-14130010D01*
X4391967Y-14130010D02*
X4401491Y-14149058D01*
X4401491Y-14149058D02*
X4401491Y-14206201D01*
X4401491Y-14206201D02*
X4391967Y-14225249D01*
X4391967Y-14225249D02*
X4382444Y-14234772D01*
X4382444Y-14234772D02*
X4363396Y-14244296D01*
X4363396Y-14244296D02*
X4325301Y-14244296D01*
X4325301Y-14244296D02*
X4306253Y-14234772D01*
X4487205Y-14225249D02*
X4496729Y-14234772D01*
X4496729Y-14234772D02*
X4487205Y-14244296D01*
X4487205Y-14244296D02*
X4477682Y-14234772D01*
X4477682Y-14234772D02*
X4487205Y-14225249D01*
X4487205Y-14225249D02*
X4487205Y-14244296D01*
X4487205Y-14120487D02*
X4496729Y-14130010D01*
X4496729Y-14130010D02*
X4487205Y-14139534D01*
X4487205Y-14139534D02*
X4477682Y-14130010D01*
X4477682Y-14130010D02*
X4487205Y-14120487D01*
X4487205Y-14120487D02*
X4487205Y-14139534D01*
D11*
X2825000Y-14557812D02*
X2855000Y-14587812D01*
X2855000Y-14557812D02*
X2825000Y-14587812D01*
D12*
X3153872Y-14464296D02*
X3172920Y-14464296D01*
X3172920Y-14464296D02*
X3191967Y-14473820D01*
X3191967Y-14473820D02*
X3201491Y-14483344D01*
X3201491Y-14483344D02*
X3211015Y-14502391D01*
X3211015Y-14502391D02*
X3220539Y-14540487D01*
X3220539Y-14540487D02*
X3220539Y-14588106D01*
X3220539Y-14588106D02*
X3211015Y-14626201D01*
X3211015Y-14626201D02*
X3201491Y-14645249D01*
X3201491Y-14645249D02*
X3191967Y-14654772D01*
X3191967Y-14654772D02*
X3172920Y-14664296D01*
X3172920Y-14664296D02*
X3153872Y-14664296D01*
X3153872Y-14664296D02*
X3134824Y-14654772D01*
X3134824Y-14654772D02*
X3125301Y-14645249D01*
X3125301Y-14645249D02*
X3115777Y-14626201D01*
X3115777Y-14626201D02*
X3106253Y-14588106D01*
X3106253Y-14588106D02*
X3106253Y-14540487D01*
X3106253Y-14540487D02*
X3115777Y-14502391D01*
X3115777Y-14502391D02*
X3125301Y-14483344D01*
X3125301Y-14483344D02*
X3134824Y-14473820D01*
X3134824Y-14473820D02*
X3153872Y-14464296D01*
X3306253Y-14645249D02*
X3315777Y-14654772D01*
X3315777Y-14654772D02*
X3306253Y-14664296D01*
X3306253Y-14664296D02*
X3296729Y-14654772D01*
X3296729Y-14654772D02*
X3306253Y-14645249D01*
X3306253Y-14645249D02*
X3306253Y-14664296D01*
X3382443Y-14464296D02*
X3506253Y-14464296D01*
X3506253Y-14464296D02*
X3439586Y-14540487D01*
X3439586Y-14540487D02*
X3468158Y-14540487D01*
X3468158Y-14540487D02*
X3487205Y-14550010D01*
X3487205Y-14550010D02*
X3496729Y-14559534D01*
X3496729Y-14559534D02*
X3506253Y-14578582D01*
X3506253Y-14578582D02*
X3506253Y-14626201D01*
X3506253Y-14626201D02*
X3496729Y-14645249D01*
X3496729Y-14645249D02*
X3487205Y-14654772D01*
X3487205Y-14654772D02*
X3468158Y-14664296D01*
X3468158Y-14664296D02*
X3411015Y-14664296D01*
X3411015Y-14664296D02*
X3391967Y-14654772D01*
X3391967Y-14654772D02*
X3382443Y-14645249D01*
X3630062Y-14464296D02*
X3649110Y-14464296D01*
X3649110Y-14464296D02*
X3668158Y-14473820D01*
X3668158Y-14473820D02*
X3677682Y-14483344D01*
X3677682Y-14483344D02*
X3687205Y-14502391D01*
X3687205Y-14502391D02*
X3696729Y-14540487D01*
X3696729Y-14540487D02*
X3696729Y-14588106D01*
X3696729Y-14588106D02*
X3687205Y-14626201D01*
X3687205Y-14626201D02*
X3677682Y-14645249D01*
X3677682Y-14645249D02*
X3668158Y-14654772D01*
X3668158Y-14654772D02*
X3649110Y-14664296D01*
X3649110Y-14664296D02*
X3630062Y-14664296D01*
X3630062Y-14664296D02*
X3611015Y-14654772D01*
X3611015Y-14654772D02*
X3601491Y-14645249D01*
X3601491Y-14645249D02*
X3591967Y-14626201D01*
X3591967Y-14626201D02*
X3582443Y-14588106D01*
X3582443Y-14588106D02*
X3582443Y-14540487D01*
X3582443Y-14540487D02*
X3591967Y-14502391D01*
X3591967Y-14502391D02*
X3601491Y-14483344D01*
X3601491Y-14483344D02*
X3611015Y-14473820D01*
X3611015Y-14473820D02*
X3630062Y-14464296D01*
X3820539Y-14464296D02*
X3839586Y-14464296D01*
X3839586Y-14464296D02*
X3858634Y-14473820D01*
X3858634Y-14473820D02*
X3868158Y-14483344D01*
X3868158Y-14483344D02*
X3877682Y-14502391D01*
X3877682Y-14502391D02*
X3887205Y-14540487D01*
X3887205Y-14540487D02*
X3887205Y-14588106D01*
X3887205Y-14588106D02*
X3877682Y-14626201D01*
X3877682Y-14626201D02*
X3868158Y-14645249D01*
X3868158Y-14645249D02*
X3858634Y-14654772D01*
X3858634Y-14654772D02*
X3839586Y-14664296D01*
X3839586Y-14664296D02*
X3820539Y-14664296D01*
X3820539Y-14664296D02*
X3801491Y-14654772D01*
X3801491Y-14654772D02*
X3791967Y-14645249D01*
X3791967Y-14645249D02*
X3782443Y-14626201D01*
X3782443Y-14626201D02*
X3772920Y-14588106D01*
X3772920Y-14588106D02*
X3772920Y-14540487D01*
X3772920Y-14540487D02*
X3782443Y-14502391D01*
X3782443Y-14502391D02*
X3791967Y-14483344D01*
X3791967Y-14483344D02*
X3801491Y-14473820D01*
X3801491Y-14473820D02*
X3820539Y-14464296D01*
X3972920Y-14664296D02*
X3972920Y-14530963D01*
X3972920Y-14550010D02*
X3982443Y-14540487D01*
X3982443Y-14540487D02*
X4001491Y-14530963D01*
X4001491Y-14530963D02*
X4030063Y-14530963D01*
X4030063Y-14530963D02*
X4049110Y-14540487D01*
X4049110Y-14540487D02*
X4058634Y-14559534D01*
X4058634Y-14559534D02*
X4058634Y-14664296D01*
X4058634Y-14559534D02*
X4068158Y-14540487D01*
X4068158Y-14540487D02*
X4087205Y-14530963D01*
X4087205Y-14530963D02*
X4115777Y-14530963D01*
X4115777Y-14530963D02*
X4134824Y-14540487D01*
X4134824Y-14540487D02*
X4144348Y-14559534D01*
X4144348Y-14559534D02*
X4144348Y-14664296D01*
X4239586Y-14664296D02*
X4239586Y-14530963D01*
X4239586Y-14550010D02*
X4249110Y-14540487D01*
X4249110Y-14540487D02*
X4268158Y-14530963D01*
X4268158Y-14530963D02*
X4296729Y-14530963D01*
X4296729Y-14530963D02*
X4315777Y-14540487D01*
X4315777Y-14540487D02*
X4325301Y-14559534D01*
X4325301Y-14559534D02*
X4325301Y-14664296D01*
X4325301Y-14559534D02*
X4334825Y-14540487D01*
X4334825Y-14540487D02*
X4353872Y-14530963D01*
X4353872Y-14530963D02*
X4382444Y-14530963D01*
X4382444Y-14530963D02*
X4401491Y-14540487D01*
X4401491Y-14540487D02*
X4411015Y-14559534D01*
X4411015Y-14559534D02*
X4411015Y-14664296D01*
X4801491Y-14454772D02*
X4630063Y-14711915D01*
X5058634Y-14464296D02*
X5077682Y-14464296D01*
X5077682Y-14464296D02*
X5096729Y-14473820D01*
X5096729Y-14473820D02*
X5106253Y-14483344D01*
X5106253Y-14483344D02*
X5115777Y-14502391D01*
X5115777Y-14502391D02*
X5125301Y-14540487D01*
X5125301Y-14540487D02*
X5125301Y-14588106D01*
X5125301Y-14588106D02*
X5115777Y-14626201D01*
X5115777Y-14626201D02*
X5106253Y-14645249D01*
X5106253Y-14645249D02*
X5096729Y-14654772D01*
X5096729Y-14654772D02*
X5077682Y-14664296D01*
X5077682Y-14664296D02*
X5058634Y-14664296D01*
X5058634Y-14664296D02*
X5039587Y-14654772D01*
X5039587Y-14654772D02*
X5030063Y-14645249D01*
X5030063Y-14645249D02*
X5020539Y-14626201D01*
X5020539Y-14626201D02*
X5011015Y-14588106D01*
X5011015Y-14588106D02*
X5011015Y-14540487D01*
X5011015Y-14540487D02*
X5020539Y-14502391D01*
X5020539Y-14502391D02*
X5030063Y-14483344D01*
X5030063Y-14483344D02*
X5039587Y-14473820D01*
X5039587Y-14473820D02*
X5058634Y-14464296D01*
X5211015Y-14645249D02*
X5220539Y-14654772D01*
X5220539Y-14654772D02*
X5211015Y-14664296D01*
X5211015Y-14664296D02*
X5201491Y-14654772D01*
X5201491Y-14654772D02*
X5211015Y-14645249D01*
X5211015Y-14645249D02*
X5211015Y-14664296D01*
X5344348Y-14464296D02*
X5363396Y-14464296D01*
X5363396Y-14464296D02*
X5382444Y-14473820D01*
X5382444Y-14473820D02*
X5391968Y-14483344D01*
X5391968Y-14483344D02*
X5401491Y-14502391D01*
X5401491Y-14502391D02*
X5411015Y-14540487D01*
X5411015Y-14540487D02*
X5411015Y-14588106D01*
X5411015Y-14588106D02*
X5401491Y-14626201D01*
X5401491Y-14626201D02*
X5391968Y-14645249D01*
X5391968Y-14645249D02*
X5382444Y-14654772D01*
X5382444Y-14654772D02*
X5363396Y-14664296D01*
X5363396Y-14664296D02*
X5344348Y-14664296D01*
X5344348Y-14664296D02*
X5325301Y-14654772D01*
X5325301Y-14654772D02*
X5315777Y-14645249D01*
X5315777Y-14645249D02*
X5306253Y-14626201D01*
X5306253Y-14626201D02*
X5296729Y-14588106D01*
X5296729Y-14588106D02*
X5296729Y-14540487D01*
X5296729Y-14540487D02*
X5306253Y-14502391D01*
X5306253Y-14502391D02*
X5315777Y-14483344D01*
X5315777Y-14483344D02*
X5325301Y-14473820D01*
X5325301Y-14473820D02*
X5344348Y-14464296D01*
X5601491Y-14664296D02*
X5487206Y-14664296D01*
X5544348Y-14664296D02*
X5544348Y-14464296D01*
X5544348Y-14464296D02*
X5525301Y-14492868D01*
X5525301Y-14492868D02*
X5506253Y-14511915D01*
X5506253Y-14511915D02*
X5487206Y-14521439D01*
X5791967Y-14664296D02*
X5677682Y-14664296D01*
X5734825Y-14664296D02*
X5734825Y-14464296D01*
X5734825Y-14464296D02*
X5715777Y-14492868D01*
X5715777Y-14492868D02*
X5696729Y-14511915D01*
X5696729Y-14511915D02*
X5677682Y-14521439D01*
X5906253Y-14550010D02*
X5887206Y-14540487D01*
X5887206Y-14540487D02*
X5877682Y-14530963D01*
X5877682Y-14530963D02*
X5868158Y-14511915D01*
X5868158Y-14511915D02*
X5868158Y-14502391D01*
X5868158Y-14502391D02*
X5877682Y-14483344D01*
X5877682Y-14483344D02*
X5887206Y-14473820D01*
X5887206Y-14473820D02*
X5906253Y-14464296D01*
X5906253Y-14464296D02*
X5944348Y-14464296D01*
X5944348Y-14464296D02*
X5963396Y-14473820D01*
X5963396Y-14473820D02*
X5972920Y-14483344D01*
X5972920Y-14483344D02*
X5982444Y-14502391D01*
X5982444Y-14502391D02*
X5982444Y-14511915D01*
X5982444Y-14511915D02*
X5972920Y-14530963D01*
X5972920Y-14530963D02*
X5963396Y-14540487D01*
X5963396Y-14540487D02*
X5944348Y-14550010D01*
X5944348Y-14550010D02*
X5906253Y-14550010D01*
X5906253Y-14550010D02*
X5887206Y-14559534D01*
X5887206Y-14559534D02*
X5877682Y-14569058D01*
X5877682Y-14569058D02*
X5868158Y-14588106D01*
X5868158Y-14588106D02*
X5868158Y-14626201D01*
X5868158Y-14626201D02*
X5877682Y-14645249D01*
X5877682Y-14645249D02*
X5887206Y-14654772D01*
X5887206Y-14654772D02*
X5906253Y-14664296D01*
X5906253Y-14664296D02*
X5944348Y-14664296D01*
X5944348Y-14664296D02*
X5963396Y-14654772D01*
X5963396Y-14654772D02*
X5972920Y-14645249D01*
X5972920Y-14645249D02*
X5982444Y-14626201D01*
X5982444Y-14626201D02*
X5982444Y-14588106D01*
X5982444Y-14588106D02*
X5972920Y-14569058D01*
X5972920Y-14569058D02*
X5963396Y-14559534D01*
X5963396Y-14559534D02*
X5944348Y-14550010D01*
X6058634Y-14464296D02*
X6058634Y-14502391D01*
X6134825Y-14464296D02*
X6134825Y-14502391D01*
X6430063Y-14740487D02*
X6420539Y-14730963D01*
X6420539Y-14730963D02*
X6401491Y-14702391D01*
X6401491Y-14702391D02*
X6391968Y-14683344D01*
X6391968Y-14683344D02*
X6382444Y-14654772D01*
X6382444Y-14654772D02*
X6372920Y-14607153D01*
X6372920Y-14607153D02*
X6372920Y-14569058D01*
X6372920Y-14569058D02*
X6382444Y-14521439D01*
X6382444Y-14521439D02*
X6391968Y-14492868D01*
X6391968Y-14492868D02*
X6401491Y-14473820D01*
X6401491Y-14473820D02*
X6420539Y-14445249D01*
X6420539Y-14445249D02*
X6430063Y-14435725D01*
X6487206Y-14464296D02*
X6611015Y-14464296D01*
X6611015Y-14464296D02*
X6544348Y-14540487D01*
X6544348Y-14540487D02*
X6572920Y-14540487D01*
X6572920Y-14540487D02*
X6591968Y-14550010D01*
X6591968Y-14550010D02*
X6601491Y-14559534D01*
X6601491Y-14559534D02*
X6611015Y-14578582D01*
X6611015Y-14578582D02*
X6611015Y-14626201D01*
X6611015Y-14626201D02*
X6601491Y-14645249D01*
X6601491Y-14645249D02*
X6591968Y-14654772D01*
X6591968Y-14654772D02*
X6572920Y-14664296D01*
X6572920Y-14664296D02*
X6515777Y-14664296D01*
X6515777Y-14664296D02*
X6496729Y-14654772D01*
X6496729Y-14654772D02*
X6487206Y-14645249D01*
X6725301Y-14550010D02*
X6706253Y-14540487D01*
X6706253Y-14540487D02*
X6696729Y-14530963D01*
X6696729Y-14530963D02*
X6687206Y-14511915D01*
X6687206Y-14511915D02*
X6687206Y-14502391D01*
X6687206Y-14502391D02*
X6696729Y-14483344D01*
X6696729Y-14483344D02*
X6706253Y-14473820D01*
X6706253Y-14473820D02*
X6725301Y-14464296D01*
X6725301Y-14464296D02*
X6763396Y-14464296D01*
X6763396Y-14464296D02*
X6782444Y-14473820D01*
X6782444Y-14473820D02*
X6791968Y-14483344D01*
X6791968Y-14483344D02*
X6801491Y-14502391D01*
X6801491Y-14502391D02*
X6801491Y-14511915D01*
X6801491Y-14511915D02*
X6791968Y-14530963D01*
X6791968Y-14530963D02*
X6782444Y-14540487D01*
X6782444Y-14540487D02*
X6763396Y-14550010D01*
X6763396Y-14550010D02*
X6725301Y-14550010D01*
X6725301Y-14550010D02*
X6706253Y-14559534D01*
X6706253Y-14559534D02*
X6696729Y-14569058D01*
X6696729Y-14569058D02*
X6687206Y-14588106D01*
X6687206Y-14588106D02*
X6687206Y-14626201D01*
X6687206Y-14626201D02*
X6696729Y-14645249D01*
X6696729Y-14645249D02*
X6706253Y-14654772D01*
X6706253Y-14654772D02*
X6725301Y-14664296D01*
X6725301Y-14664296D02*
X6763396Y-14664296D01*
X6763396Y-14664296D02*
X6782444Y-14654772D01*
X6782444Y-14654772D02*
X6791968Y-14645249D01*
X6791968Y-14645249D02*
X6801491Y-14626201D01*
X6801491Y-14626201D02*
X6801491Y-14588106D01*
X6801491Y-14588106D02*
X6791968Y-14569058D01*
X6791968Y-14569058D02*
X6782444Y-14559534D01*
X6782444Y-14559534D02*
X6763396Y-14550010D01*
X7039587Y-14664296D02*
X7039587Y-14464296D01*
X7125301Y-14664296D02*
X7125301Y-14559534D01*
X7125301Y-14559534D02*
X7115777Y-14540487D01*
X7115777Y-14540487D02*
X7096730Y-14530963D01*
X7096730Y-14530963D02*
X7068158Y-14530963D01*
X7068158Y-14530963D02*
X7049110Y-14540487D01*
X7049110Y-14540487D02*
X7039587Y-14550010D01*
X7249110Y-14664296D02*
X7230063Y-14654772D01*
X7230063Y-14654772D02*
X7220539Y-14645249D01*
X7220539Y-14645249D02*
X7211015Y-14626201D01*
X7211015Y-14626201D02*
X7211015Y-14569058D01*
X7211015Y-14569058D02*
X7220539Y-14550010D01*
X7220539Y-14550010D02*
X7230063Y-14540487D01*
X7230063Y-14540487D02*
X7249110Y-14530963D01*
X7249110Y-14530963D02*
X7277682Y-14530963D01*
X7277682Y-14530963D02*
X7296730Y-14540487D01*
X7296730Y-14540487D02*
X7306253Y-14550010D01*
X7306253Y-14550010D02*
X7315777Y-14569058D01*
X7315777Y-14569058D02*
X7315777Y-14626201D01*
X7315777Y-14626201D02*
X7306253Y-14645249D01*
X7306253Y-14645249D02*
X7296730Y-14654772D01*
X7296730Y-14654772D02*
X7277682Y-14664296D01*
X7277682Y-14664296D02*
X7249110Y-14664296D01*
X7430063Y-14664296D02*
X7411015Y-14654772D01*
X7411015Y-14654772D02*
X7401491Y-14635725D01*
X7401491Y-14635725D02*
X7401491Y-14464296D01*
X7582444Y-14654772D02*
X7563396Y-14664296D01*
X7563396Y-14664296D02*
X7525301Y-14664296D01*
X7525301Y-14664296D02*
X7506253Y-14654772D01*
X7506253Y-14654772D02*
X7496730Y-14635725D01*
X7496730Y-14635725D02*
X7496730Y-14559534D01*
X7496730Y-14559534D02*
X7506253Y-14540487D01*
X7506253Y-14540487D02*
X7525301Y-14530963D01*
X7525301Y-14530963D02*
X7563396Y-14530963D01*
X7563396Y-14530963D02*
X7582444Y-14540487D01*
X7582444Y-14540487D02*
X7591968Y-14559534D01*
X7591968Y-14559534D02*
X7591968Y-14578582D01*
X7591968Y-14578582D02*
X7496730Y-14597630D01*
X7668158Y-14654772D02*
X7687206Y-14664296D01*
X7687206Y-14664296D02*
X7725301Y-14664296D01*
X7725301Y-14664296D02*
X7744349Y-14654772D01*
X7744349Y-14654772D02*
X7753872Y-14635725D01*
X7753872Y-14635725D02*
X7753872Y-14626201D01*
X7753872Y-14626201D02*
X7744349Y-14607153D01*
X7744349Y-14607153D02*
X7725301Y-14597630D01*
X7725301Y-14597630D02*
X7696730Y-14597630D01*
X7696730Y-14597630D02*
X7677682Y-14588106D01*
X7677682Y-14588106D02*
X7668158Y-14569058D01*
X7668158Y-14569058D02*
X7668158Y-14559534D01*
X7668158Y-14559534D02*
X7677682Y-14540487D01*
X7677682Y-14540487D02*
X7696730Y-14530963D01*
X7696730Y-14530963D02*
X7725301Y-14530963D01*
X7725301Y-14530963D02*
X7744349Y-14540487D01*
X7820539Y-14740487D02*
X7830063Y-14730963D01*
X7830063Y-14730963D02*
X7849111Y-14702391D01*
X7849111Y-14702391D02*
X7858634Y-14683344D01*
X7858634Y-14683344D02*
X7868158Y-14654772D01*
X7868158Y-14654772D02*
X7877682Y-14607153D01*
X7877682Y-14607153D02*
X7877682Y-14569058D01*
X7877682Y-14569058D02*
X7868158Y-14521439D01*
X7868158Y-14521439D02*
X7858634Y-14492868D01*
X7858634Y-14492868D02*
X7849111Y-14473820D01*
X7849111Y-14473820D02*
X7830063Y-14445249D01*
X7830063Y-14445249D02*
X7820539Y-14435725D01*
D11*
X2855000Y-14836812D02*
G75*
G02*
X2775000Y-14836812I-40000J0D01*
G01*
X2775000Y-14836812D02*
G75*
G02*
X2855000Y-14836812I40000J0D01*
G01*
D12*
X3153872Y-14728296D02*
X3172920Y-14728296D01*
X3172920Y-14728296D02*
X3191967Y-14737820D01*
X3191967Y-14737820D02*
X3201491Y-14747344D01*
X3201491Y-14747344D02*
X3211015Y-14766391D01*
X3211015Y-14766391D02*
X3220539Y-14804487D01*
X3220539Y-14804487D02*
X3220539Y-14852106D01*
X3220539Y-14852106D02*
X3211015Y-14890201D01*
X3211015Y-14890201D02*
X3201491Y-14909249D01*
X3201491Y-14909249D02*
X3191967Y-14918772D01*
X3191967Y-14918772D02*
X3172920Y-14928296D01*
X3172920Y-14928296D02*
X3153872Y-14928296D01*
X3153872Y-14928296D02*
X3134824Y-14918772D01*
X3134824Y-14918772D02*
X3125301Y-14909249D01*
X3125301Y-14909249D02*
X3115777Y-14890201D01*
X3115777Y-14890201D02*
X3106253Y-14852106D01*
X3106253Y-14852106D02*
X3106253Y-14804487D01*
X3106253Y-14804487D02*
X3115777Y-14766391D01*
X3115777Y-14766391D02*
X3125301Y-14747344D01*
X3125301Y-14747344D02*
X3134824Y-14737820D01*
X3134824Y-14737820D02*
X3153872Y-14728296D01*
X3306253Y-14909249D02*
X3315777Y-14918772D01*
X3315777Y-14918772D02*
X3306253Y-14928296D01*
X3306253Y-14928296D02*
X3296729Y-14918772D01*
X3296729Y-14918772D02*
X3306253Y-14909249D01*
X3306253Y-14909249D02*
X3306253Y-14928296D01*
X3430062Y-14814010D02*
X3411015Y-14804487D01*
X3411015Y-14804487D02*
X3401491Y-14794963D01*
X3401491Y-14794963D02*
X3391967Y-14775915D01*
X3391967Y-14775915D02*
X3391967Y-14766391D01*
X3391967Y-14766391D02*
X3401491Y-14747344D01*
X3401491Y-14747344D02*
X3411015Y-14737820D01*
X3411015Y-14737820D02*
X3430062Y-14728296D01*
X3430062Y-14728296D02*
X3468158Y-14728296D01*
X3468158Y-14728296D02*
X3487205Y-14737820D01*
X3487205Y-14737820D02*
X3496729Y-14747344D01*
X3496729Y-14747344D02*
X3506253Y-14766391D01*
X3506253Y-14766391D02*
X3506253Y-14775915D01*
X3506253Y-14775915D02*
X3496729Y-14794963D01*
X3496729Y-14794963D02*
X3487205Y-14804487D01*
X3487205Y-14804487D02*
X3468158Y-14814010D01*
X3468158Y-14814010D02*
X3430062Y-14814010D01*
X3430062Y-14814010D02*
X3411015Y-14823534D01*
X3411015Y-14823534D02*
X3401491Y-14833058D01*
X3401491Y-14833058D02*
X3391967Y-14852106D01*
X3391967Y-14852106D02*
X3391967Y-14890201D01*
X3391967Y-14890201D02*
X3401491Y-14909249D01*
X3401491Y-14909249D02*
X3411015Y-14918772D01*
X3411015Y-14918772D02*
X3430062Y-14928296D01*
X3430062Y-14928296D02*
X3468158Y-14928296D01*
X3468158Y-14928296D02*
X3487205Y-14918772D01*
X3487205Y-14918772D02*
X3496729Y-14909249D01*
X3496729Y-14909249D02*
X3506253Y-14890201D01*
X3506253Y-14890201D02*
X3506253Y-14852106D01*
X3506253Y-14852106D02*
X3496729Y-14833058D01*
X3496729Y-14833058D02*
X3487205Y-14823534D01*
X3487205Y-14823534D02*
X3468158Y-14814010D01*
X3630062Y-14728296D02*
X3649110Y-14728296D01*
X3649110Y-14728296D02*
X3668158Y-14737820D01*
X3668158Y-14737820D02*
X3677682Y-14747344D01*
X3677682Y-14747344D02*
X3687205Y-14766391D01*
X3687205Y-14766391D02*
X3696729Y-14804487D01*
X3696729Y-14804487D02*
X3696729Y-14852106D01*
X3696729Y-14852106D02*
X3687205Y-14890201D01*
X3687205Y-14890201D02*
X3677682Y-14909249D01*
X3677682Y-14909249D02*
X3668158Y-14918772D01*
X3668158Y-14918772D02*
X3649110Y-14928296D01*
X3649110Y-14928296D02*
X3630062Y-14928296D01*
X3630062Y-14928296D02*
X3611015Y-14918772D01*
X3611015Y-14918772D02*
X3601491Y-14909249D01*
X3601491Y-14909249D02*
X3591967Y-14890201D01*
X3591967Y-14890201D02*
X3582443Y-14852106D01*
X3582443Y-14852106D02*
X3582443Y-14804487D01*
X3582443Y-14804487D02*
X3591967Y-14766391D01*
X3591967Y-14766391D02*
X3601491Y-14747344D01*
X3601491Y-14747344D02*
X3611015Y-14737820D01*
X3611015Y-14737820D02*
X3630062Y-14728296D01*
X3820539Y-14728296D02*
X3839586Y-14728296D01*
X3839586Y-14728296D02*
X3858634Y-14737820D01*
X3858634Y-14737820D02*
X3868158Y-14747344D01*
X3868158Y-14747344D02*
X3877682Y-14766391D01*
X3877682Y-14766391D02*
X3887205Y-14804487D01*
X3887205Y-14804487D02*
X3887205Y-14852106D01*
X3887205Y-14852106D02*
X3877682Y-14890201D01*
X3877682Y-14890201D02*
X3868158Y-14909249D01*
X3868158Y-14909249D02*
X3858634Y-14918772D01*
X3858634Y-14918772D02*
X3839586Y-14928296D01*
X3839586Y-14928296D02*
X3820539Y-14928296D01*
X3820539Y-14928296D02*
X3801491Y-14918772D01*
X3801491Y-14918772D02*
X3791967Y-14909249D01*
X3791967Y-14909249D02*
X3782443Y-14890201D01*
X3782443Y-14890201D02*
X3772920Y-14852106D01*
X3772920Y-14852106D02*
X3772920Y-14804487D01*
X3772920Y-14804487D02*
X3782443Y-14766391D01*
X3782443Y-14766391D02*
X3791967Y-14747344D01*
X3791967Y-14747344D02*
X3801491Y-14737820D01*
X3801491Y-14737820D02*
X3820539Y-14728296D01*
X3972920Y-14928296D02*
X3972920Y-14794963D01*
X3972920Y-14814010D02*
X3982443Y-14804487D01*
X3982443Y-14804487D02*
X4001491Y-14794963D01*
X4001491Y-14794963D02*
X4030063Y-14794963D01*
X4030063Y-14794963D02*
X4049110Y-14804487D01*
X4049110Y-14804487D02*
X4058634Y-14823534D01*
X4058634Y-14823534D02*
X4058634Y-14928296D01*
X4058634Y-14823534D02*
X4068158Y-14804487D01*
X4068158Y-14804487D02*
X4087205Y-14794963D01*
X4087205Y-14794963D02*
X4115777Y-14794963D01*
X4115777Y-14794963D02*
X4134824Y-14804487D01*
X4134824Y-14804487D02*
X4144348Y-14823534D01*
X4144348Y-14823534D02*
X4144348Y-14928296D01*
X4239586Y-14928296D02*
X4239586Y-14794963D01*
X4239586Y-14814010D02*
X4249110Y-14804487D01*
X4249110Y-14804487D02*
X4268158Y-14794963D01*
X4268158Y-14794963D02*
X4296729Y-14794963D01*
X4296729Y-14794963D02*
X4315777Y-14804487D01*
X4315777Y-14804487D02*
X4325301Y-14823534D01*
X4325301Y-14823534D02*
X4325301Y-14928296D01*
X4325301Y-14823534D02*
X4334825Y-14804487D01*
X4334825Y-14804487D02*
X4353872Y-14794963D01*
X4353872Y-14794963D02*
X4382444Y-14794963D01*
X4382444Y-14794963D02*
X4401491Y-14804487D01*
X4401491Y-14804487D02*
X4411015Y-14823534D01*
X4411015Y-14823534D02*
X4411015Y-14928296D01*
X4801491Y-14718772D02*
X4630063Y-14975915D01*
X5058634Y-14728296D02*
X5077682Y-14728296D01*
X5077682Y-14728296D02*
X5096729Y-14737820D01*
X5096729Y-14737820D02*
X5106253Y-14747344D01*
X5106253Y-14747344D02*
X5115777Y-14766391D01*
X5115777Y-14766391D02*
X5125301Y-14804487D01*
X5125301Y-14804487D02*
X5125301Y-14852106D01*
X5125301Y-14852106D02*
X5115777Y-14890201D01*
X5115777Y-14890201D02*
X5106253Y-14909249D01*
X5106253Y-14909249D02*
X5096729Y-14918772D01*
X5096729Y-14918772D02*
X5077682Y-14928296D01*
X5077682Y-14928296D02*
X5058634Y-14928296D01*
X5058634Y-14928296D02*
X5039587Y-14918772D01*
X5039587Y-14918772D02*
X5030063Y-14909249D01*
X5030063Y-14909249D02*
X5020539Y-14890201D01*
X5020539Y-14890201D02*
X5011015Y-14852106D01*
X5011015Y-14852106D02*
X5011015Y-14804487D01*
X5011015Y-14804487D02*
X5020539Y-14766391D01*
X5020539Y-14766391D02*
X5030063Y-14747344D01*
X5030063Y-14747344D02*
X5039587Y-14737820D01*
X5039587Y-14737820D02*
X5058634Y-14728296D01*
X5211015Y-14909249D02*
X5220539Y-14918772D01*
X5220539Y-14918772D02*
X5211015Y-14928296D01*
X5211015Y-14928296D02*
X5201491Y-14918772D01*
X5201491Y-14918772D02*
X5211015Y-14909249D01*
X5211015Y-14909249D02*
X5211015Y-14928296D01*
X5344348Y-14728296D02*
X5363396Y-14728296D01*
X5363396Y-14728296D02*
X5382444Y-14737820D01*
X5382444Y-14737820D02*
X5391968Y-14747344D01*
X5391968Y-14747344D02*
X5401491Y-14766391D01*
X5401491Y-14766391D02*
X5411015Y-14804487D01*
X5411015Y-14804487D02*
X5411015Y-14852106D01*
X5411015Y-14852106D02*
X5401491Y-14890201D01*
X5401491Y-14890201D02*
X5391968Y-14909249D01*
X5391968Y-14909249D02*
X5382444Y-14918772D01*
X5382444Y-14918772D02*
X5363396Y-14928296D01*
X5363396Y-14928296D02*
X5344348Y-14928296D01*
X5344348Y-14928296D02*
X5325301Y-14918772D01*
X5325301Y-14918772D02*
X5315777Y-14909249D01*
X5315777Y-14909249D02*
X5306253Y-14890201D01*
X5306253Y-14890201D02*
X5296729Y-14852106D01*
X5296729Y-14852106D02*
X5296729Y-14804487D01*
X5296729Y-14804487D02*
X5306253Y-14766391D01*
X5306253Y-14766391D02*
X5315777Y-14747344D01*
X5315777Y-14747344D02*
X5325301Y-14737820D01*
X5325301Y-14737820D02*
X5344348Y-14728296D01*
X5477682Y-14728296D02*
X5601491Y-14728296D01*
X5601491Y-14728296D02*
X5534825Y-14804487D01*
X5534825Y-14804487D02*
X5563396Y-14804487D01*
X5563396Y-14804487D02*
X5582444Y-14814010D01*
X5582444Y-14814010D02*
X5591968Y-14823534D01*
X5591968Y-14823534D02*
X5601491Y-14842582D01*
X5601491Y-14842582D02*
X5601491Y-14890201D01*
X5601491Y-14890201D02*
X5591968Y-14909249D01*
X5591968Y-14909249D02*
X5582444Y-14918772D01*
X5582444Y-14918772D02*
X5563396Y-14928296D01*
X5563396Y-14928296D02*
X5506253Y-14928296D01*
X5506253Y-14928296D02*
X5487206Y-14918772D01*
X5487206Y-14918772D02*
X5477682Y-14909249D01*
X5791967Y-14928296D02*
X5677682Y-14928296D01*
X5734825Y-14928296D02*
X5734825Y-14728296D01*
X5734825Y-14728296D02*
X5715777Y-14756868D01*
X5715777Y-14756868D02*
X5696729Y-14775915D01*
X5696729Y-14775915D02*
X5677682Y-14785439D01*
X5972920Y-14728296D02*
X5877682Y-14728296D01*
X5877682Y-14728296D02*
X5868158Y-14823534D01*
X5868158Y-14823534D02*
X5877682Y-14814010D01*
X5877682Y-14814010D02*
X5896729Y-14804487D01*
X5896729Y-14804487D02*
X5944348Y-14804487D01*
X5944348Y-14804487D02*
X5963396Y-14814010D01*
X5963396Y-14814010D02*
X5972920Y-14823534D01*
X5972920Y-14823534D02*
X5982444Y-14842582D01*
X5982444Y-14842582D02*
X5982444Y-14890201D01*
X5982444Y-14890201D02*
X5972920Y-14909249D01*
X5972920Y-14909249D02*
X5963396Y-14918772D01*
X5963396Y-14918772D02*
X5944348Y-14928296D01*
X5944348Y-14928296D02*
X5896729Y-14928296D01*
X5896729Y-14928296D02*
X5877682Y-14918772D01*
X5877682Y-14918772D02*
X5868158Y-14909249D01*
X6058634Y-14728296D02*
X6058634Y-14766391D01*
X6134825Y-14728296D02*
X6134825Y-14766391D01*
X6430063Y-15004487D02*
X6420539Y-14994963D01*
X6420539Y-14994963D02*
X6401491Y-14966391D01*
X6401491Y-14966391D02*
X6391968Y-14947344D01*
X6391968Y-14947344D02*
X6382444Y-14918772D01*
X6382444Y-14918772D02*
X6372920Y-14871153D01*
X6372920Y-14871153D02*
X6372920Y-14833058D01*
X6372920Y-14833058D02*
X6382444Y-14785439D01*
X6382444Y-14785439D02*
X6391968Y-14756868D01*
X6391968Y-14756868D02*
X6401491Y-14737820D01*
X6401491Y-14737820D02*
X6420539Y-14709249D01*
X6420539Y-14709249D02*
X6430063Y-14699725D01*
X6601491Y-14728296D02*
X6506253Y-14728296D01*
X6506253Y-14728296D02*
X6496729Y-14823534D01*
X6496729Y-14823534D02*
X6506253Y-14814010D01*
X6506253Y-14814010D02*
X6525301Y-14804487D01*
X6525301Y-14804487D02*
X6572920Y-14804487D01*
X6572920Y-14804487D02*
X6591968Y-14814010D01*
X6591968Y-14814010D02*
X6601491Y-14823534D01*
X6601491Y-14823534D02*
X6611015Y-14842582D01*
X6611015Y-14842582D02*
X6611015Y-14890201D01*
X6611015Y-14890201D02*
X6601491Y-14909249D01*
X6601491Y-14909249D02*
X6591968Y-14918772D01*
X6591968Y-14918772D02*
X6572920Y-14928296D01*
X6572920Y-14928296D02*
X6525301Y-14928296D01*
X6525301Y-14928296D02*
X6506253Y-14918772D01*
X6506253Y-14918772D02*
X6496729Y-14909249D01*
X6782444Y-14794963D02*
X6782444Y-14928296D01*
X6734825Y-14718772D02*
X6687206Y-14861630D01*
X6687206Y-14861630D02*
X6811015Y-14861630D01*
X7039587Y-14928296D02*
X7039587Y-14728296D01*
X7125301Y-14928296D02*
X7125301Y-14823534D01*
X7125301Y-14823534D02*
X7115777Y-14804487D01*
X7115777Y-14804487D02*
X7096730Y-14794963D01*
X7096730Y-14794963D02*
X7068158Y-14794963D01*
X7068158Y-14794963D02*
X7049110Y-14804487D01*
X7049110Y-14804487D02*
X7039587Y-14814010D01*
X7249110Y-14928296D02*
X7230063Y-14918772D01*
X7230063Y-14918772D02*
X7220539Y-14909249D01*
X7220539Y-14909249D02*
X7211015Y-14890201D01*
X7211015Y-14890201D02*
X7211015Y-14833058D01*
X7211015Y-14833058D02*
X7220539Y-14814010D01*
X7220539Y-14814010D02*
X7230063Y-14804487D01*
X7230063Y-14804487D02*
X7249110Y-14794963D01*
X7249110Y-14794963D02*
X7277682Y-14794963D01*
X7277682Y-14794963D02*
X7296730Y-14804487D01*
X7296730Y-14804487D02*
X7306253Y-14814010D01*
X7306253Y-14814010D02*
X7315777Y-14833058D01*
X7315777Y-14833058D02*
X7315777Y-14890201D01*
X7315777Y-14890201D02*
X7306253Y-14909249D01*
X7306253Y-14909249D02*
X7296730Y-14918772D01*
X7296730Y-14918772D02*
X7277682Y-14928296D01*
X7277682Y-14928296D02*
X7249110Y-14928296D01*
X7430063Y-14928296D02*
X7411015Y-14918772D01*
X7411015Y-14918772D02*
X7401491Y-14899725D01*
X7401491Y-14899725D02*
X7401491Y-14728296D01*
X7582444Y-14918772D02*
X7563396Y-14928296D01*
X7563396Y-14928296D02*
X7525301Y-14928296D01*
X7525301Y-14928296D02*
X7506253Y-14918772D01*
X7506253Y-14918772D02*
X7496730Y-14899725D01*
X7496730Y-14899725D02*
X7496730Y-14823534D01*
X7496730Y-14823534D02*
X7506253Y-14804487D01*
X7506253Y-14804487D02*
X7525301Y-14794963D01*
X7525301Y-14794963D02*
X7563396Y-14794963D01*
X7563396Y-14794963D02*
X7582444Y-14804487D01*
X7582444Y-14804487D02*
X7591968Y-14823534D01*
X7591968Y-14823534D02*
X7591968Y-14842582D01*
X7591968Y-14842582D02*
X7496730Y-14861630D01*
X7668158Y-14918772D02*
X7687206Y-14928296D01*
X7687206Y-14928296D02*
X7725301Y-14928296D01*
X7725301Y-14928296D02*
X7744349Y-14918772D01*
X7744349Y-14918772D02*
X7753872Y-14899725D01*
X7753872Y-14899725D02*
X7753872Y-14890201D01*
X7753872Y-14890201D02*
X7744349Y-14871153D01*
X7744349Y-14871153D02*
X7725301Y-14861630D01*
X7725301Y-14861630D02*
X7696730Y-14861630D01*
X7696730Y-14861630D02*
X7677682Y-14852106D01*
X7677682Y-14852106D02*
X7668158Y-14833058D01*
X7668158Y-14833058D02*
X7668158Y-14823534D01*
X7668158Y-14823534D02*
X7677682Y-14804487D01*
X7677682Y-14804487D02*
X7696730Y-14794963D01*
X7696730Y-14794963D02*
X7725301Y-14794963D01*
X7725301Y-14794963D02*
X7744349Y-14804487D01*
X7820539Y-15004487D02*
X7830063Y-14994963D01*
X7830063Y-14994963D02*
X7849111Y-14966391D01*
X7849111Y-14966391D02*
X7858634Y-14947344D01*
X7858634Y-14947344D02*
X7868158Y-14918772D01*
X7868158Y-14918772D02*
X7877682Y-14871153D01*
X7877682Y-14871153D02*
X7877682Y-14833058D01*
X7877682Y-14833058D02*
X7868158Y-14785439D01*
X7868158Y-14785439D02*
X7858634Y-14756868D01*
X7858634Y-14756868D02*
X7849111Y-14737820D01*
X7849111Y-14737820D02*
X7830063Y-14709249D01*
X7830063Y-14709249D02*
X7820539Y-14699725D01*
D11*
X2805000Y-15050812D02*
X2805000Y-15150812D01*
X2755000Y-15100812D02*
X2855000Y-15100812D01*
D12*
X3220539Y-15192296D02*
X3106253Y-15192296D01*
X3163396Y-15192296D02*
X3163396Y-14992296D01*
X3163396Y-14992296D02*
X3144348Y-15020868D01*
X3144348Y-15020868D02*
X3125301Y-15039915D01*
X3125301Y-15039915D02*
X3106253Y-15049439D01*
X3306253Y-15173249D02*
X3315777Y-15182772D01*
X3315777Y-15182772D02*
X3306253Y-15192296D01*
X3306253Y-15192296D02*
X3296729Y-15182772D01*
X3296729Y-15182772D02*
X3306253Y-15173249D01*
X3306253Y-15173249D02*
X3306253Y-15192296D01*
X3439586Y-14992296D02*
X3458634Y-14992296D01*
X3458634Y-14992296D02*
X3477682Y-15001820D01*
X3477682Y-15001820D02*
X3487205Y-15011344D01*
X3487205Y-15011344D02*
X3496729Y-15030391D01*
X3496729Y-15030391D02*
X3506253Y-15068487D01*
X3506253Y-15068487D02*
X3506253Y-15116106D01*
X3506253Y-15116106D02*
X3496729Y-15154201D01*
X3496729Y-15154201D02*
X3487205Y-15173249D01*
X3487205Y-15173249D02*
X3477682Y-15182772D01*
X3477682Y-15182772D02*
X3458634Y-15192296D01*
X3458634Y-15192296D02*
X3439586Y-15192296D01*
X3439586Y-15192296D02*
X3420539Y-15182772D01*
X3420539Y-15182772D02*
X3411015Y-15173249D01*
X3411015Y-15173249D02*
X3401491Y-15154201D01*
X3401491Y-15154201D02*
X3391967Y-15116106D01*
X3391967Y-15116106D02*
X3391967Y-15068487D01*
X3391967Y-15068487D02*
X3401491Y-15030391D01*
X3401491Y-15030391D02*
X3411015Y-15011344D01*
X3411015Y-15011344D02*
X3420539Y-15001820D01*
X3420539Y-15001820D02*
X3439586Y-14992296D01*
X3630062Y-14992296D02*
X3649110Y-14992296D01*
X3649110Y-14992296D02*
X3668158Y-15001820D01*
X3668158Y-15001820D02*
X3677682Y-15011344D01*
X3677682Y-15011344D02*
X3687205Y-15030391D01*
X3687205Y-15030391D02*
X3696729Y-15068487D01*
X3696729Y-15068487D02*
X3696729Y-15116106D01*
X3696729Y-15116106D02*
X3687205Y-15154201D01*
X3687205Y-15154201D02*
X3677682Y-15173249D01*
X3677682Y-15173249D02*
X3668158Y-15182772D01*
X3668158Y-15182772D02*
X3649110Y-15192296D01*
X3649110Y-15192296D02*
X3630062Y-15192296D01*
X3630062Y-15192296D02*
X3611015Y-15182772D01*
X3611015Y-15182772D02*
X3601491Y-15173249D01*
X3601491Y-15173249D02*
X3591967Y-15154201D01*
X3591967Y-15154201D02*
X3582443Y-15116106D01*
X3582443Y-15116106D02*
X3582443Y-15068487D01*
X3582443Y-15068487D02*
X3591967Y-15030391D01*
X3591967Y-15030391D02*
X3601491Y-15011344D01*
X3601491Y-15011344D02*
X3611015Y-15001820D01*
X3611015Y-15001820D02*
X3630062Y-14992296D01*
X3820539Y-14992296D02*
X3839586Y-14992296D01*
X3839586Y-14992296D02*
X3858634Y-15001820D01*
X3858634Y-15001820D02*
X3868158Y-15011344D01*
X3868158Y-15011344D02*
X3877682Y-15030391D01*
X3877682Y-15030391D02*
X3887205Y-15068487D01*
X3887205Y-15068487D02*
X3887205Y-15116106D01*
X3887205Y-15116106D02*
X3877682Y-15154201D01*
X3877682Y-15154201D02*
X3868158Y-15173249D01*
X3868158Y-15173249D02*
X3858634Y-15182772D01*
X3858634Y-15182772D02*
X3839586Y-15192296D01*
X3839586Y-15192296D02*
X3820539Y-15192296D01*
X3820539Y-15192296D02*
X3801491Y-15182772D01*
X3801491Y-15182772D02*
X3791967Y-15173249D01*
X3791967Y-15173249D02*
X3782443Y-15154201D01*
X3782443Y-15154201D02*
X3772920Y-15116106D01*
X3772920Y-15116106D02*
X3772920Y-15068487D01*
X3772920Y-15068487D02*
X3782443Y-15030391D01*
X3782443Y-15030391D02*
X3791967Y-15011344D01*
X3791967Y-15011344D02*
X3801491Y-15001820D01*
X3801491Y-15001820D02*
X3820539Y-14992296D01*
X3972920Y-15192296D02*
X3972920Y-15058963D01*
X3972920Y-15078010D02*
X3982443Y-15068487D01*
X3982443Y-15068487D02*
X4001491Y-15058963D01*
X4001491Y-15058963D02*
X4030063Y-15058963D01*
X4030063Y-15058963D02*
X4049110Y-15068487D01*
X4049110Y-15068487D02*
X4058634Y-15087534D01*
X4058634Y-15087534D02*
X4058634Y-15192296D01*
X4058634Y-15087534D02*
X4068158Y-15068487D01*
X4068158Y-15068487D02*
X4087205Y-15058963D01*
X4087205Y-15058963D02*
X4115777Y-15058963D01*
X4115777Y-15058963D02*
X4134824Y-15068487D01*
X4134824Y-15068487D02*
X4144348Y-15087534D01*
X4144348Y-15087534D02*
X4144348Y-15192296D01*
X4239586Y-15192296D02*
X4239586Y-15058963D01*
X4239586Y-15078010D02*
X4249110Y-15068487D01*
X4249110Y-15068487D02*
X4268158Y-15058963D01*
X4268158Y-15058963D02*
X4296729Y-15058963D01*
X4296729Y-15058963D02*
X4315777Y-15068487D01*
X4315777Y-15068487D02*
X4325301Y-15087534D01*
X4325301Y-15087534D02*
X4325301Y-15192296D01*
X4325301Y-15087534D02*
X4334825Y-15068487D01*
X4334825Y-15068487D02*
X4353872Y-15058963D01*
X4353872Y-15058963D02*
X4382444Y-15058963D01*
X4382444Y-15058963D02*
X4401491Y-15068487D01*
X4401491Y-15068487D02*
X4411015Y-15087534D01*
X4411015Y-15087534D02*
X4411015Y-15192296D01*
X4801491Y-14982772D02*
X4630063Y-15239915D01*
X5058634Y-14992296D02*
X5077682Y-14992296D01*
X5077682Y-14992296D02*
X5096729Y-15001820D01*
X5096729Y-15001820D02*
X5106253Y-15011344D01*
X5106253Y-15011344D02*
X5115777Y-15030391D01*
X5115777Y-15030391D02*
X5125301Y-15068487D01*
X5125301Y-15068487D02*
X5125301Y-15116106D01*
X5125301Y-15116106D02*
X5115777Y-15154201D01*
X5115777Y-15154201D02*
X5106253Y-15173249D01*
X5106253Y-15173249D02*
X5096729Y-15182772D01*
X5096729Y-15182772D02*
X5077682Y-15192296D01*
X5077682Y-15192296D02*
X5058634Y-15192296D01*
X5058634Y-15192296D02*
X5039587Y-15182772D01*
X5039587Y-15182772D02*
X5030063Y-15173249D01*
X5030063Y-15173249D02*
X5020539Y-15154201D01*
X5020539Y-15154201D02*
X5011015Y-15116106D01*
X5011015Y-15116106D02*
X5011015Y-15068487D01*
X5011015Y-15068487D02*
X5020539Y-15030391D01*
X5020539Y-15030391D02*
X5030063Y-15011344D01*
X5030063Y-15011344D02*
X5039587Y-15001820D01*
X5039587Y-15001820D02*
X5058634Y-14992296D01*
X5211015Y-15173249D02*
X5220539Y-15182772D01*
X5220539Y-15182772D02*
X5211015Y-15192296D01*
X5211015Y-15192296D02*
X5201491Y-15182772D01*
X5201491Y-15182772D02*
X5211015Y-15173249D01*
X5211015Y-15173249D02*
X5211015Y-15192296D01*
X5344348Y-14992296D02*
X5363396Y-14992296D01*
X5363396Y-14992296D02*
X5382444Y-15001820D01*
X5382444Y-15001820D02*
X5391968Y-15011344D01*
X5391968Y-15011344D02*
X5401491Y-15030391D01*
X5401491Y-15030391D02*
X5411015Y-15068487D01*
X5411015Y-15068487D02*
X5411015Y-15116106D01*
X5411015Y-15116106D02*
X5401491Y-15154201D01*
X5401491Y-15154201D02*
X5391968Y-15173249D01*
X5391968Y-15173249D02*
X5382444Y-15182772D01*
X5382444Y-15182772D02*
X5363396Y-15192296D01*
X5363396Y-15192296D02*
X5344348Y-15192296D01*
X5344348Y-15192296D02*
X5325301Y-15182772D01*
X5325301Y-15182772D02*
X5315777Y-15173249D01*
X5315777Y-15173249D02*
X5306253Y-15154201D01*
X5306253Y-15154201D02*
X5296729Y-15116106D01*
X5296729Y-15116106D02*
X5296729Y-15068487D01*
X5296729Y-15068487D02*
X5306253Y-15030391D01*
X5306253Y-15030391D02*
X5315777Y-15011344D01*
X5315777Y-15011344D02*
X5325301Y-15001820D01*
X5325301Y-15001820D02*
X5344348Y-14992296D01*
X5477682Y-14992296D02*
X5601491Y-14992296D01*
X5601491Y-14992296D02*
X5534825Y-15068487D01*
X5534825Y-15068487D02*
X5563396Y-15068487D01*
X5563396Y-15068487D02*
X5582444Y-15078010D01*
X5582444Y-15078010D02*
X5591968Y-15087534D01*
X5591968Y-15087534D02*
X5601491Y-15106582D01*
X5601491Y-15106582D02*
X5601491Y-15154201D01*
X5601491Y-15154201D02*
X5591968Y-15173249D01*
X5591968Y-15173249D02*
X5582444Y-15182772D01*
X5582444Y-15182772D02*
X5563396Y-15192296D01*
X5563396Y-15192296D02*
X5506253Y-15192296D01*
X5506253Y-15192296D02*
X5487206Y-15182772D01*
X5487206Y-15182772D02*
X5477682Y-15173249D01*
X5696729Y-15192296D02*
X5734825Y-15192296D01*
X5734825Y-15192296D02*
X5753872Y-15182772D01*
X5753872Y-15182772D02*
X5763396Y-15173249D01*
X5763396Y-15173249D02*
X5782444Y-15144677D01*
X5782444Y-15144677D02*
X5791967Y-15106582D01*
X5791967Y-15106582D02*
X5791967Y-15030391D01*
X5791967Y-15030391D02*
X5782444Y-15011344D01*
X5782444Y-15011344D02*
X5772920Y-15001820D01*
X5772920Y-15001820D02*
X5753872Y-14992296D01*
X5753872Y-14992296D02*
X5715777Y-14992296D01*
X5715777Y-14992296D02*
X5696729Y-15001820D01*
X5696729Y-15001820D02*
X5687206Y-15011344D01*
X5687206Y-15011344D02*
X5677682Y-15030391D01*
X5677682Y-15030391D02*
X5677682Y-15078010D01*
X5677682Y-15078010D02*
X5687206Y-15097058D01*
X5687206Y-15097058D02*
X5696729Y-15106582D01*
X5696729Y-15106582D02*
X5715777Y-15116106D01*
X5715777Y-15116106D02*
X5753872Y-15116106D01*
X5753872Y-15116106D02*
X5772920Y-15106582D01*
X5772920Y-15106582D02*
X5782444Y-15097058D01*
X5782444Y-15097058D02*
X5791967Y-15078010D01*
X5963396Y-15058963D02*
X5963396Y-15192296D01*
X5915777Y-14982772D02*
X5868158Y-15125630D01*
X5868158Y-15125630D02*
X5991967Y-15125630D01*
X6058634Y-14992296D02*
X6058634Y-15030391D01*
X6134825Y-14992296D02*
X6134825Y-15030391D01*
X6430063Y-15268487D02*
X6420539Y-15258963D01*
X6420539Y-15258963D02*
X6401491Y-15230391D01*
X6401491Y-15230391D02*
X6391968Y-15211344D01*
X6391968Y-15211344D02*
X6382444Y-15182772D01*
X6382444Y-15182772D02*
X6372920Y-15135153D01*
X6372920Y-15135153D02*
X6372920Y-15097058D01*
X6372920Y-15097058D02*
X6382444Y-15049439D01*
X6382444Y-15049439D02*
X6391968Y-15020868D01*
X6391968Y-15020868D02*
X6401491Y-15001820D01*
X6401491Y-15001820D02*
X6420539Y-14973249D01*
X6420539Y-14973249D02*
X6430063Y-14963725D01*
X6496729Y-15011344D02*
X6506253Y-15001820D01*
X6506253Y-15001820D02*
X6525301Y-14992296D01*
X6525301Y-14992296D02*
X6572920Y-14992296D01*
X6572920Y-14992296D02*
X6591968Y-15001820D01*
X6591968Y-15001820D02*
X6601491Y-15011344D01*
X6601491Y-15011344D02*
X6611015Y-15030391D01*
X6611015Y-15030391D02*
X6611015Y-15049439D01*
X6611015Y-15049439D02*
X6601491Y-15078010D01*
X6601491Y-15078010D02*
X6487206Y-15192296D01*
X6487206Y-15192296D02*
X6611015Y-15192296D01*
X6677682Y-14992296D02*
X6801491Y-14992296D01*
X6801491Y-14992296D02*
X6734825Y-15068487D01*
X6734825Y-15068487D02*
X6763396Y-15068487D01*
X6763396Y-15068487D02*
X6782444Y-15078010D01*
X6782444Y-15078010D02*
X6791968Y-15087534D01*
X6791968Y-15087534D02*
X6801491Y-15106582D01*
X6801491Y-15106582D02*
X6801491Y-15154201D01*
X6801491Y-15154201D02*
X6791968Y-15173249D01*
X6791968Y-15173249D02*
X6782444Y-15182772D01*
X6782444Y-15182772D02*
X6763396Y-15192296D01*
X6763396Y-15192296D02*
X6706253Y-15192296D01*
X6706253Y-15192296D02*
X6687206Y-15182772D01*
X6687206Y-15182772D02*
X6677682Y-15173249D01*
X7039587Y-15192296D02*
X7039587Y-14992296D01*
X7125301Y-15192296D02*
X7125301Y-15087534D01*
X7125301Y-15087534D02*
X7115777Y-15068487D01*
X7115777Y-15068487D02*
X7096730Y-15058963D01*
X7096730Y-15058963D02*
X7068158Y-15058963D01*
X7068158Y-15058963D02*
X7049110Y-15068487D01*
X7049110Y-15068487D02*
X7039587Y-15078010D01*
X7249110Y-15192296D02*
X7230063Y-15182772D01*
X7230063Y-15182772D02*
X7220539Y-15173249D01*
X7220539Y-15173249D02*
X7211015Y-15154201D01*
X7211015Y-15154201D02*
X7211015Y-15097058D01*
X7211015Y-15097058D02*
X7220539Y-15078010D01*
X7220539Y-15078010D02*
X7230063Y-15068487D01*
X7230063Y-15068487D02*
X7249110Y-15058963D01*
X7249110Y-15058963D02*
X7277682Y-15058963D01*
X7277682Y-15058963D02*
X7296730Y-15068487D01*
X7296730Y-15068487D02*
X7306253Y-15078010D01*
X7306253Y-15078010D02*
X7315777Y-15097058D01*
X7315777Y-15097058D02*
X7315777Y-15154201D01*
X7315777Y-15154201D02*
X7306253Y-15173249D01*
X7306253Y-15173249D02*
X7296730Y-15182772D01*
X7296730Y-15182772D02*
X7277682Y-15192296D01*
X7277682Y-15192296D02*
X7249110Y-15192296D01*
X7430063Y-15192296D02*
X7411015Y-15182772D01*
X7411015Y-15182772D02*
X7401491Y-15163725D01*
X7401491Y-15163725D02*
X7401491Y-14992296D01*
X7582444Y-15182772D02*
X7563396Y-15192296D01*
X7563396Y-15192296D02*
X7525301Y-15192296D01*
X7525301Y-15192296D02*
X7506253Y-15182772D01*
X7506253Y-15182772D02*
X7496730Y-15163725D01*
X7496730Y-15163725D02*
X7496730Y-15087534D01*
X7496730Y-15087534D02*
X7506253Y-15068487D01*
X7506253Y-15068487D02*
X7525301Y-15058963D01*
X7525301Y-15058963D02*
X7563396Y-15058963D01*
X7563396Y-15058963D02*
X7582444Y-15068487D01*
X7582444Y-15068487D02*
X7591968Y-15087534D01*
X7591968Y-15087534D02*
X7591968Y-15106582D01*
X7591968Y-15106582D02*
X7496730Y-15125630D01*
X7668158Y-15182772D02*
X7687206Y-15192296D01*
X7687206Y-15192296D02*
X7725301Y-15192296D01*
X7725301Y-15192296D02*
X7744349Y-15182772D01*
X7744349Y-15182772D02*
X7753872Y-15163725D01*
X7753872Y-15163725D02*
X7753872Y-15154201D01*
X7753872Y-15154201D02*
X7744349Y-15135153D01*
X7744349Y-15135153D02*
X7725301Y-15125630D01*
X7725301Y-15125630D02*
X7696730Y-15125630D01*
X7696730Y-15125630D02*
X7677682Y-15116106D01*
X7677682Y-15116106D02*
X7668158Y-15097058D01*
X7668158Y-15097058D02*
X7668158Y-15087534D01*
X7668158Y-15087534D02*
X7677682Y-15068487D01*
X7677682Y-15068487D02*
X7696730Y-15058963D01*
X7696730Y-15058963D02*
X7725301Y-15058963D01*
X7725301Y-15058963D02*
X7744349Y-15068487D01*
X7820539Y-15268487D02*
X7830063Y-15258963D01*
X7830063Y-15258963D02*
X7849111Y-15230391D01*
X7849111Y-15230391D02*
X7858634Y-15211344D01*
X7858634Y-15211344D02*
X7868158Y-15182772D01*
X7868158Y-15182772D02*
X7877682Y-15135153D01*
X7877682Y-15135153D02*
X7877682Y-15097058D01*
X7877682Y-15097058D02*
X7868158Y-15049439D01*
X7868158Y-15049439D02*
X7858634Y-15020868D01*
X7858634Y-15020868D02*
X7849111Y-15001820D01*
X7849111Y-15001820D02*
X7830063Y-14973249D01*
X7830063Y-14973249D02*
X7820539Y-14963725D01*
M02*
