G04 #@! TF.GenerationSoftware,KiCad,Pcbnew,8.0.4*
G04 #@! TF.CreationDate,2024-09-10T03:21:52+03:00*
G04 #@! TF.ProjectId,silakka54,73696c61-6b6b-4613-9534-2e6b69636164,rev?*
G04 #@! TF.SameCoordinates,Original*
G04 #@! TF.FileFunction,OtherDrawing,Comment*
%FSLAX46Y46*%
G04 Gerber Fmt 4.6, Leading zero omitted, Abs format (unit mm)*
G04 Created by KiCad (PCBNEW 8.0.4) date 2024-09-10 03:21:52*
%MOMM*%
%LPD*%
G01*
G04 APERTURE LIST*
%ADD10C,0.150000*%
%ADD11C,0.120000*%
G04 APERTURE END LIST*
D10*
G04 #@! TO.C,S25*
X90225000Y-104775000D02*
X109275000Y-104775000D01*
X90225000Y-123825000D02*
X90225000Y-104775000D01*
X92750000Y-107300000D02*
X93750000Y-107300000D01*
X92750000Y-108300000D02*
X92750000Y-107300000D01*
X92750000Y-120300000D02*
X92750000Y-121300000D01*
X92750000Y-121300000D02*
X93750000Y-121300000D01*
X105750000Y-121300000D02*
X106750000Y-121300000D01*
X106750000Y-107300000D02*
X105750000Y-107300000D01*
X106750000Y-107300000D02*
X106750000Y-108300000D01*
X106750000Y-121300000D02*
X106750000Y-120300000D01*
X109275000Y-104775000D02*
X109275000Y-123825000D01*
X109275000Y-123825000D02*
X90225000Y-123825000D01*
G04 #@! TO.C,S11*
X106893750Y-47625000D02*
X125943750Y-47625000D01*
X106893750Y-66675000D02*
X106893750Y-47625000D01*
X109418750Y-50150000D02*
X110418750Y-50150000D01*
X109418750Y-51150000D02*
X109418750Y-50150000D01*
X109418750Y-63150000D02*
X109418750Y-64150000D01*
X109418750Y-64150000D02*
X110418750Y-64150000D01*
X122418750Y-64150000D02*
X123418750Y-64150000D01*
X123418750Y-50150000D02*
X122418750Y-50150000D01*
X123418750Y-50150000D02*
X123418750Y-51150000D01*
X123418750Y-64150000D02*
X123418750Y-63150000D01*
X125943750Y-47625000D02*
X125943750Y-66675000D01*
X125943750Y-66675000D02*
X106893750Y-66675000D01*
G04 #@! TO.C,S5*
X106893750Y-28575000D02*
X125943750Y-28575000D01*
X106893750Y-47625000D02*
X106893750Y-28575000D01*
X109418750Y-31100000D02*
X110418750Y-31100000D01*
X109418750Y-32100000D02*
X109418750Y-31100000D01*
X109418750Y-44100000D02*
X109418750Y-45100000D01*
X109418750Y-45100000D02*
X110418750Y-45100000D01*
X122418750Y-45100000D02*
X123418750Y-45100000D01*
X123418750Y-31100000D02*
X122418750Y-31100000D01*
X123418750Y-31100000D02*
X123418750Y-32100000D01*
X123418750Y-45100000D02*
X123418750Y-44100000D01*
X125943750Y-28575000D02*
X125943750Y-47625000D01*
X125943750Y-47625000D02*
X106893750Y-47625000D01*
G04 #@! TO.C,S6*
X125943750Y-30956250D02*
X144993750Y-30956250D01*
X125943750Y-50006250D02*
X125943750Y-30956250D01*
X128468750Y-33481250D02*
X129468750Y-33481250D01*
X128468750Y-34481250D02*
X128468750Y-33481250D01*
X128468750Y-46481250D02*
X128468750Y-47481250D01*
X128468750Y-47481250D02*
X129468750Y-47481250D01*
X141468750Y-47481250D02*
X142468750Y-47481250D01*
X142468750Y-33481250D02*
X141468750Y-33481250D01*
X142468750Y-33481250D02*
X142468750Y-34481250D01*
X142468750Y-47481250D02*
X142468750Y-46481250D01*
X144993750Y-30956250D02*
X144993750Y-50006250D01*
X144993750Y-50006250D02*
X125943750Y-50006250D01*
G04 #@! TO.C,S10*
X87843750Y-45243750D02*
X106893750Y-45243750D01*
X87843750Y-64293750D02*
X87843750Y-45243750D01*
X90368750Y-47768750D02*
X91368750Y-47768750D01*
X90368750Y-48768750D02*
X90368750Y-47768750D01*
X90368750Y-60768750D02*
X90368750Y-61768750D01*
X90368750Y-61768750D02*
X91368750Y-61768750D01*
X103368750Y-61768750D02*
X104368750Y-61768750D01*
X104368750Y-47768750D02*
X103368750Y-47768750D01*
X104368750Y-47768750D02*
X104368750Y-48768750D01*
X104368750Y-61768750D02*
X104368750Y-60768750D01*
X106893750Y-45243750D02*
X106893750Y-64293750D01*
X106893750Y-64293750D02*
X87843750Y-64293750D01*
G04 #@! TO.C,S23*
X106893750Y-85725000D02*
X125943750Y-85725000D01*
X106893750Y-104775000D02*
X106893750Y-85725000D01*
X109418750Y-88250000D02*
X110418750Y-88250000D01*
X109418750Y-89250000D02*
X109418750Y-88250000D01*
X109418750Y-101250000D02*
X109418750Y-102250000D01*
X109418750Y-102250000D02*
X110418750Y-102250000D01*
X122418750Y-102250000D02*
X123418750Y-102250000D01*
X123418750Y-88250000D02*
X122418750Y-88250000D01*
X123418750Y-88250000D02*
X123418750Y-89250000D01*
X123418750Y-102250000D02*
X123418750Y-101250000D01*
X125943750Y-85725000D02*
X125943750Y-104775000D01*
X125943750Y-104775000D02*
X106893750Y-104775000D01*
G04 #@! TO.C,S3*
X68793750Y-28575000D02*
X87843750Y-28575000D01*
X68793750Y-47625000D02*
X68793750Y-28575000D01*
X71318750Y-31100000D02*
X72318750Y-31100000D01*
X71318750Y-32100000D02*
X71318750Y-31100000D01*
X71318750Y-44100000D02*
X71318750Y-45100000D01*
X71318750Y-45100000D02*
X72318750Y-45100000D01*
X84318750Y-45100000D02*
X85318750Y-45100000D01*
X85318750Y-31100000D02*
X84318750Y-31100000D01*
X85318750Y-31100000D02*
X85318750Y-32100000D01*
X85318750Y-45100000D02*
X85318750Y-44100000D01*
X87843750Y-28575000D02*
X87843750Y-47625000D01*
X87843750Y-47625000D02*
X68793750Y-47625000D01*
G04 #@! TO.C,S26*
X109433055Y-123816442D02*
X114363558Y-105415555D01*
X112525536Y-122030997D02*
X113491462Y-122289817D01*
X112784355Y-121065072D02*
X112525536Y-122030997D01*
X114363558Y-105415555D02*
X132764445Y-110346058D01*
X115890183Y-109473962D02*
X116149003Y-108508036D01*
X116149003Y-108508036D02*
X117114928Y-108766855D01*
X125082572Y-125395645D02*
X126048497Y-125654464D01*
X126048497Y-125654464D02*
X126307317Y-124688538D01*
X127833942Y-128746945D02*
X109433055Y-123816442D01*
X129671964Y-112131503D02*
X128706038Y-111872683D01*
X129671964Y-112131503D02*
X129413145Y-113097428D01*
X132764445Y-110346058D02*
X127833942Y-128746945D01*
G04 #@! TO.C,S17*
X106893750Y-66675000D02*
X125943750Y-66675000D01*
X106893750Y-85725000D02*
X106893750Y-66675000D01*
X109418750Y-69200000D02*
X110418750Y-69200000D01*
X109418750Y-70200000D02*
X109418750Y-69200000D01*
X109418750Y-82200000D02*
X109418750Y-83200000D01*
X109418750Y-83200000D02*
X110418750Y-83200000D01*
X122418750Y-83200000D02*
X123418750Y-83200000D01*
X123418750Y-69200000D02*
X122418750Y-69200000D01*
X123418750Y-69200000D02*
X123418750Y-70200000D01*
X123418750Y-83200000D02*
X123418750Y-82200000D01*
X125943750Y-66675000D02*
X125943750Y-85725000D01*
X125943750Y-85725000D02*
X106893750Y-85725000D01*
G04 #@! TO.C,S8*
X49743750Y-50006250D02*
X68793750Y-50006250D01*
X49743750Y-69056250D02*
X49743750Y-50006250D01*
X52268750Y-52531250D02*
X53268750Y-52531250D01*
X52268750Y-53531250D02*
X52268750Y-52531250D01*
X52268750Y-65531250D02*
X52268750Y-66531250D01*
X52268750Y-66531250D02*
X53268750Y-66531250D01*
X65268750Y-66531250D02*
X66268750Y-66531250D01*
X66268750Y-52531250D02*
X65268750Y-52531250D01*
X66268750Y-52531250D02*
X66268750Y-53531250D01*
X66268750Y-66531250D02*
X66268750Y-65531250D01*
X68793750Y-50006250D02*
X68793750Y-69056250D01*
X68793750Y-69056250D02*
X49743750Y-69056250D01*
G04 #@! TO.C,S13*
X30693750Y-69056250D02*
X49743750Y-69056250D01*
X30693750Y-88106250D02*
X30693750Y-69056250D01*
X33218750Y-71581250D02*
X34218750Y-71581250D01*
X33218750Y-72581250D02*
X33218750Y-71581250D01*
X33218750Y-84581250D02*
X33218750Y-85581250D01*
X33218750Y-85581250D02*
X34218750Y-85581250D01*
X46218750Y-85581250D02*
X47218750Y-85581250D01*
X47218750Y-71581250D02*
X46218750Y-71581250D01*
X47218750Y-71581250D02*
X47218750Y-72581250D01*
X47218750Y-85581250D02*
X47218750Y-84581250D01*
X49743750Y-69056250D02*
X49743750Y-88106250D01*
X49743750Y-88106250D02*
X30693750Y-88106250D01*
G04 #@! TO.C,S16*
X87843750Y-64293750D02*
X106893750Y-64293750D01*
X87843750Y-83343750D02*
X87843750Y-64293750D01*
X90368750Y-66818750D02*
X91368750Y-66818750D01*
X90368750Y-67818750D02*
X90368750Y-66818750D01*
X90368750Y-79818750D02*
X90368750Y-80818750D01*
X90368750Y-80818750D02*
X91368750Y-80818750D01*
X103368750Y-80818750D02*
X104368750Y-80818750D01*
X104368750Y-66818750D02*
X103368750Y-66818750D01*
X104368750Y-66818750D02*
X104368750Y-67818750D01*
X104368750Y-80818750D02*
X104368750Y-79818750D01*
X106893750Y-64293750D02*
X106893750Y-83343750D01*
X106893750Y-83343750D02*
X87843750Y-83343750D01*
G04 #@! TO.C,S27*
X129217358Y-126797642D02*
X138742358Y-110299858D01*
X132666572Y-125873428D02*
X133532598Y-126373428D01*
X133166572Y-125007402D02*
X132666572Y-125873428D01*
X138742358Y-110299858D02*
X155240142Y-119824858D01*
X139666572Y-113749072D02*
X139166572Y-114615098D01*
X140532598Y-114249072D02*
X139666572Y-113749072D01*
X144790928Y-132873428D02*
X143924902Y-132373428D01*
X144790928Y-132873428D02*
X145290928Y-132007402D01*
X145715142Y-136322642D02*
X129217358Y-126797642D01*
X150924902Y-120249072D02*
X151790928Y-120749072D01*
X151790928Y-120749072D02*
X151290928Y-121615098D01*
X155240142Y-119824858D02*
X145715142Y-136322642D01*
G04 #@! TO.C,S14*
X49743750Y-69056250D02*
X68793750Y-69056250D01*
X49743750Y-88106250D02*
X49743750Y-69056250D01*
X52268750Y-71581250D02*
X53268750Y-71581250D01*
X52268750Y-72581250D02*
X52268750Y-71581250D01*
X52268750Y-84581250D02*
X52268750Y-85581250D01*
X52268750Y-85581250D02*
X53268750Y-85581250D01*
X65268750Y-85581250D02*
X66268750Y-85581250D01*
X66268750Y-71581250D02*
X65268750Y-71581250D01*
X66268750Y-71581250D02*
X66268750Y-72581250D01*
X66268750Y-85581250D02*
X66268750Y-84581250D01*
X68793750Y-69056250D02*
X68793750Y-88106250D01*
X68793750Y-88106250D02*
X49743750Y-88106250D01*
G04 #@! TO.C,S7*
X30693750Y-50006250D02*
X49743750Y-50006250D01*
X30693750Y-69056250D02*
X30693750Y-50006250D01*
X33218750Y-52531250D02*
X34218750Y-52531250D01*
X33218750Y-53531250D02*
X33218750Y-52531250D01*
X33218750Y-65531250D02*
X33218750Y-66531250D01*
X33218750Y-66531250D02*
X34218750Y-66531250D01*
X46218750Y-66531250D02*
X47218750Y-66531250D01*
X47218750Y-52531250D02*
X46218750Y-52531250D01*
X47218750Y-52531250D02*
X47218750Y-53531250D01*
X47218750Y-66531250D02*
X47218750Y-65531250D01*
X49743750Y-50006250D02*
X49743750Y-69056250D01*
X49743750Y-69056250D02*
X30693750Y-69056250D01*
G04 #@! TO.C,S22*
X87843750Y-83343750D02*
X106893750Y-83343750D01*
X87843750Y-102393750D02*
X87843750Y-83343750D01*
X90368750Y-85868750D02*
X91368750Y-85868750D01*
X90368750Y-86868750D02*
X90368750Y-85868750D01*
X90368750Y-98868750D02*
X90368750Y-99868750D01*
X90368750Y-99868750D02*
X91368750Y-99868750D01*
X103368750Y-99868750D02*
X104368750Y-99868750D01*
X104368750Y-85868750D02*
X103368750Y-85868750D01*
X104368750Y-85868750D02*
X104368750Y-86868750D01*
X104368750Y-99868750D02*
X104368750Y-98868750D01*
X106893750Y-83343750D02*
X106893750Y-102393750D01*
X106893750Y-102393750D02*
X87843750Y-102393750D01*
G04 #@! TO.C,S19*
X30693750Y-88106250D02*
X49743750Y-88106250D01*
X30693750Y-107156250D02*
X30693750Y-88106250D01*
X33218750Y-90631250D02*
X34218750Y-90631250D01*
X33218750Y-91631250D02*
X33218750Y-90631250D01*
X33218750Y-103631250D02*
X33218750Y-104631250D01*
X33218750Y-104631250D02*
X34218750Y-104631250D01*
X46218750Y-104631250D02*
X47218750Y-104631250D01*
X47218750Y-90631250D02*
X46218750Y-90631250D01*
X47218750Y-90631250D02*
X47218750Y-91631250D01*
X47218750Y-104631250D02*
X47218750Y-103631250D01*
X49743750Y-88106250D02*
X49743750Y-107156250D01*
X49743750Y-107156250D02*
X30693750Y-107156250D01*
G04 #@! TO.C,U1*
D11*
X146708750Y-31141250D02*
X164708750Y-31141250D01*
X164708750Y-54641250D01*
X146708750Y-54641250D01*
X146708750Y-31141250D01*
D10*
G04 #@! TO.C,S20*
X49743750Y-88106250D02*
X68793750Y-88106250D01*
X49743750Y-107156250D02*
X49743750Y-88106250D01*
X52268750Y-90631250D02*
X53268750Y-90631250D01*
X52268750Y-91631250D02*
X52268750Y-90631250D01*
X52268750Y-103631250D02*
X52268750Y-104631250D01*
X52268750Y-104631250D02*
X53268750Y-104631250D01*
X65268750Y-104631250D02*
X66268750Y-104631250D01*
X66268750Y-90631250D02*
X65268750Y-90631250D01*
X66268750Y-90631250D02*
X66268750Y-91631250D01*
X66268750Y-104631250D02*
X66268750Y-103631250D01*
X68793750Y-88106250D02*
X68793750Y-107156250D01*
X68793750Y-107156250D02*
X49743750Y-107156250D01*
G04 #@! TO.C,S2*
X49743750Y-30956250D02*
X68793750Y-30956250D01*
X49743750Y-50006250D02*
X49743750Y-30956250D01*
X52268750Y-33481250D02*
X53268750Y-33481250D01*
X52268750Y-34481250D02*
X52268750Y-33481250D01*
X52268750Y-46481250D02*
X52268750Y-47481250D01*
X52268750Y-47481250D02*
X53268750Y-47481250D01*
X65268750Y-47481250D02*
X66268750Y-47481250D01*
X66268750Y-33481250D02*
X65268750Y-33481250D01*
X66268750Y-33481250D02*
X66268750Y-34481250D01*
X66268750Y-47481250D02*
X66268750Y-46481250D01*
X68793750Y-30956250D02*
X68793750Y-50006250D01*
X68793750Y-50006250D02*
X49743750Y-50006250D01*
G04 #@! TO.C,S21*
X68793750Y-85725000D02*
X87843750Y-85725000D01*
X68793750Y-104775000D02*
X68793750Y-85725000D01*
X71318750Y-88250000D02*
X72318750Y-88250000D01*
X71318750Y-89250000D02*
X71318750Y-88250000D01*
X71318750Y-101250000D02*
X71318750Y-102250000D01*
X71318750Y-102250000D02*
X72318750Y-102250000D01*
X84318750Y-102250000D02*
X85318750Y-102250000D01*
X85318750Y-88250000D02*
X84318750Y-88250000D01*
X85318750Y-88250000D02*
X85318750Y-89250000D01*
X85318750Y-102250000D02*
X85318750Y-101250000D01*
X87843750Y-85725000D02*
X87843750Y-104775000D01*
X87843750Y-104775000D02*
X68793750Y-104775000D01*
G04 #@! TO.C,S12*
X125943750Y-50006250D02*
X144993750Y-50006250D01*
X125943750Y-69056250D02*
X125943750Y-50006250D01*
X128468750Y-52531250D02*
X129468750Y-52531250D01*
X128468750Y-53531250D02*
X128468750Y-52531250D01*
X128468750Y-65531250D02*
X128468750Y-66531250D01*
X128468750Y-66531250D02*
X129468750Y-66531250D01*
X141468750Y-66531250D02*
X142468750Y-66531250D01*
X142468750Y-52531250D02*
X141468750Y-52531250D01*
X142468750Y-52531250D02*
X142468750Y-53531250D01*
X142468750Y-66531250D02*
X142468750Y-65531250D01*
X144993750Y-50006250D02*
X144993750Y-69056250D01*
X144993750Y-69056250D02*
X125943750Y-69056250D01*
G04 #@! TO.C,S18*
X125943750Y-69056250D02*
X144993750Y-69056250D01*
X125943750Y-88106250D02*
X125943750Y-69056250D01*
X128468750Y-71581250D02*
X129468750Y-71581250D01*
X128468750Y-72581250D02*
X128468750Y-71581250D01*
X128468750Y-84581250D02*
X128468750Y-85581250D01*
X128468750Y-85581250D02*
X129468750Y-85581250D01*
X141468750Y-85581250D02*
X142468750Y-85581250D01*
X142468750Y-71581250D02*
X141468750Y-71581250D01*
X142468750Y-71581250D02*
X142468750Y-72581250D01*
X142468750Y-85581250D02*
X142468750Y-84581250D01*
X144993750Y-69056250D02*
X144993750Y-88106250D01*
X144993750Y-88106250D02*
X125943750Y-88106250D01*
G04 #@! TO.C,S4*
X87843750Y-26193750D02*
X106893750Y-26193750D01*
X87843750Y-45243750D02*
X87843750Y-26193750D01*
X90368750Y-28718750D02*
X91368750Y-28718750D01*
X90368750Y-29718750D02*
X90368750Y-28718750D01*
X90368750Y-41718750D02*
X90368750Y-42718750D01*
X90368750Y-42718750D02*
X91368750Y-42718750D01*
X103368750Y-42718750D02*
X104368750Y-42718750D01*
X104368750Y-28718750D02*
X103368750Y-28718750D01*
X104368750Y-28718750D02*
X104368750Y-29718750D01*
X104368750Y-42718750D02*
X104368750Y-41718750D01*
X106893750Y-26193750D02*
X106893750Y-45243750D01*
X106893750Y-45243750D02*
X87843750Y-45243750D01*
G04 #@! TO.C,S24*
X125943750Y-88106250D02*
X144993750Y-88106250D01*
X125943750Y-107156250D02*
X125943750Y-88106250D01*
X128468750Y-90631250D02*
X129468750Y-90631250D01*
X128468750Y-91631250D02*
X128468750Y-90631250D01*
X128468750Y-103631250D02*
X128468750Y-104631250D01*
X128468750Y-104631250D02*
X129468750Y-104631250D01*
X141468750Y-104631250D02*
X142468750Y-104631250D01*
X142468750Y-90631250D02*
X141468750Y-90631250D01*
X142468750Y-90631250D02*
X142468750Y-91631250D01*
X142468750Y-104631250D02*
X142468750Y-103631250D01*
X144993750Y-88106250D02*
X144993750Y-107156250D01*
X144993750Y-107156250D02*
X125943750Y-107156250D01*
G04 #@! TO.C,S9*
X68793750Y-47625000D02*
X87843750Y-47625000D01*
X68793750Y-66675000D02*
X68793750Y-47625000D01*
X71318750Y-50150000D02*
X72318750Y-50150000D01*
X71318750Y-51150000D02*
X71318750Y-50150000D01*
X71318750Y-63150000D02*
X71318750Y-64150000D01*
X71318750Y-64150000D02*
X72318750Y-64150000D01*
X84318750Y-64150000D02*
X85318750Y-64150000D01*
X85318750Y-50150000D02*
X84318750Y-50150000D01*
X85318750Y-50150000D02*
X85318750Y-51150000D01*
X85318750Y-64150000D02*
X85318750Y-63150000D01*
X87843750Y-47625000D02*
X87843750Y-66675000D01*
X87843750Y-66675000D02*
X68793750Y-66675000D01*
G04 #@! TO.C,S15*
X68793750Y-66675000D02*
X87843750Y-66675000D01*
X68793750Y-85725000D02*
X68793750Y-66675000D01*
X71318750Y-69200000D02*
X72318750Y-69200000D01*
X71318750Y-70200000D02*
X71318750Y-69200000D01*
X71318750Y-82200000D02*
X71318750Y-83200000D01*
X71318750Y-83200000D02*
X72318750Y-83200000D01*
X84318750Y-83200000D02*
X85318750Y-83200000D01*
X85318750Y-69200000D02*
X84318750Y-69200000D01*
X85318750Y-69200000D02*
X85318750Y-70200000D01*
X85318750Y-83200000D02*
X85318750Y-82200000D01*
X87843750Y-66675000D02*
X87843750Y-85725000D01*
X87843750Y-85725000D02*
X68793750Y-85725000D01*
G04 #@! TO.C,S1*
X30693750Y-30956250D02*
X49743750Y-30956250D01*
X30693750Y-50006250D02*
X30693750Y-30956250D01*
X33218750Y-33481250D02*
X34218750Y-33481250D01*
X33218750Y-34481250D02*
X33218750Y-33481250D01*
X33218750Y-46481250D02*
X33218750Y-47481250D01*
X33218750Y-47481250D02*
X34218750Y-47481250D01*
X46218750Y-47481250D02*
X47218750Y-47481250D01*
X47218750Y-33481250D02*
X46218750Y-33481250D01*
X47218750Y-33481250D02*
X47218750Y-34481250D01*
X47218750Y-47481250D02*
X47218750Y-46481250D01*
X49743750Y-30956250D02*
X49743750Y-50006250D01*
X49743750Y-50006250D02*
X30693750Y-50006250D01*
G04 #@! TD*
M02*
