G04 #@! TF.GenerationSoftware,KiCad,Pcbnew,8.0.4*
G04 #@! TF.CreationDate,2024-09-10T03:21:52+03:00*
G04 #@! TF.ProjectId,silakka54,73696c61-6b6b-4613-9534-2e6b69636164,rev?*
G04 #@! TF.SameCoordinates,Original*
G04 #@! TF.FileFunction,AssemblyDrawing,Bot*
%FSLAX46Y46*%
G04 Gerber Fmt 4.6, Leading zero omitted, Abs format (unit mm)*
G04 Created by KiCad (PCBNEW 8.0.4) date 2024-09-10 03:21:52*
%MOMM*%
%LPD*%
G01*
G04 APERTURE LIST*
%ADD10C,0.150000*%
%ADD11C,0.100000*%
%ADD12C,0.120000*%
G04 APERTURE END LIST*
D10*
X160658805Y-101129690D02*
X160420710Y-101542083D01*
X160953860Y-101190068D02*
X159921168Y-100978743D01*
X159921168Y-100978743D02*
X160620526Y-101767418D01*
X159662224Y-102093914D02*
X160239574Y-102427247D01*
X159876509Y-101722760D02*
X160330142Y-101984665D01*
X160330142Y-101984665D02*
X160388811Y-102073523D01*
X160388811Y-102073523D02*
X160382431Y-102179812D01*
X160382431Y-102179812D02*
X160311003Y-102303530D01*
X160311003Y-102303530D02*
X160222144Y-102362199D01*
X160222144Y-102362199D02*
X160157095Y-102379628D01*
X159787193Y-103210794D02*
X158921168Y-102710794D01*
X159745954Y-103186985D02*
X159834812Y-103128316D01*
X159834812Y-103128316D02*
X159930050Y-102963358D01*
X159930050Y-102963358D02*
X159936430Y-102857070D01*
X159936430Y-102857070D02*
X159919000Y-102792022D01*
X159919000Y-102792022D02*
X159860331Y-102703163D01*
X159860331Y-102703163D02*
X159612895Y-102560306D01*
X159612895Y-102560306D02*
X159506607Y-102553926D01*
X159506607Y-102553926D02*
X159441558Y-102571356D01*
X159441558Y-102571356D02*
X159352700Y-102630025D01*
X159352700Y-102630025D02*
X159257462Y-102794982D01*
X159257462Y-102794982D02*
X159251082Y-102901271D01*
X159549098Y-103623187D02*
X158971747Y-103289854D01*
X158683072Y-103123187D02*
X158748121Y-103105758D01*
X158748121Y-103105758D02*
X158765551Y-103170806D01*
X158765551Y-103170806D02*
X158700502Y-103188236D01*
X158700502Y-103188236D02*
X158683072Y-103123187D01*
X158683072Y-103123187D02*
X158765551Y-103170806D01*
X159239574Y-104159298D02*
X159245954Y-104053010D01*
X159245954Y-104053010D02*
X159228524Y-103987961D01*
X159228524Y-103987961D02*
X159169855Y-103899103D01*
X159169855Y-103899103D02*
X158922419Y-103756246D01*
X158922419Y-103756246D02*
X158816131Y-103749866D01*
X158816131Y-103749866D02*
X158751082Y-103767296D01*
X158751082Y-103767296D02*
X158662224Y-103825965D01*
X158662224Y-103825965D02*
X158590795Y-103949683D01*
X158590795Y-103949683D02*
X158584416Y-104055971D01*
X158584416Y-104055971D02*
X158601845Y-104121020D01*
X158601845Y-104121020D02*
X158660514Y-104209878D01*
X158660514Y-104209878D02*
X158907950Y-104352735D01*
X158907950Y-104352735D02*
X159014238Y-104359115D01*
X159014238Y-104359115D02*
X159079287Y-104341685D01*
X159079287Y-104341685D02*
X159168146Y-104283016D01*
X159168146Y-104283016D02*
X159239574Y-104159298D01*
X157849739Y-104566563D02*
X158468329Y-104923706D01*
X158468329Y-104923706D02*
X158615856Y-104953895D01*
X158615856Y-104953895D02*
X158745954Y-104919035D01*
X158745954Y-104919035D02*
X158858622Y-104819127D01*
X158858622Y-104819127D02*
X158906241Y-104736648D01*
X158263384Y-105850110D02*
X157809751Y-105588205D01*
X157809751Y-105588205D02*
X157751082Y-105499347D01*
X157751082Y-105499347D02*
X157757462Y-105393059D01*
X157757462Y-105393059D02*
X157852700Y-105228101D01*
X157852700Y-105228101D02*
X157941558Y-105169432D01*
X158222144Y-105826300D02*
X158311003Y-105767631D01*
X158311003Y-105767631D02*
X158430050Y-105561435D01*
X158430050Y-105561435D02*
X158436430Y-105455147D01*
X158436430Y-105455147D02*
X158377761Y-105366288D01*
X158377761Y-105366288D02*
X158295282Y-105318669D01*
X158295282Y-105318669D02*
X158188994Y-105312289D01*
X158188994Y-105312289D02*
X158100136Y-105370958D01*
X158100136Y-105370958D02*
X157981088Y-105577155D01*
X157981088Y-105577155D02*
X157892230Y-105635824D01*
X157769763Y-106609847D02*
X157858622Y-106551178D01*
X157858622Y-106551178D02*
X157953860Y-106386221D01*
X157953860Y-106386221D02*
X157960239Y-106279933D01*
X157960239Y-106279933D02*
X157942810Y-106214884D01*
X157942810Y-106214884D02*
X157884141Y-106126026D01*
X157884141Y-106126026D02*
X157636705Y-105983168D01*
X157636705Y-105983168D02*
X157530417Y-105976789D01*
X157530417Y-105976789D02*
X157465368Y-105994218D01*
X157465368Y-105994218D02*
X157376509Y-106052887D01*
X157376509Y-106052887D02*
X157281271Y-106217845D01*
X157281271Y-106217845D02*
X157274892Y-106324133D01*
X157596717Y-107004811D02*
X156730691Y-106504811D01*
X157219183Y-106896813D02*
X157406241Y-107334725D01*
X156828890Y-107001392D02*
X157349281Y-106861953D01*
X156400319Y-107743699D02*
X156977669Y-108077033D01*
X156189452Y-107347027D02*
X156927089Y-107497973D01*
X156927089Y-107497973D02*
X156617565Y-108034084D01*
X153304525Y-99739104D02*
X153923114Y-100096247D01*
X153923114Y-100096247D02*
X154070642Y-100126436D01*
X154070642Y-100126436D02*
X154200739Y-100091576D01*
X154200739Y-100091576D02*
X154313407Y-99991668D01*
X154313407Y-99991668D02*
X154361026Y-99909189D01*
X153172717Y-100157877D02*
X153107669Y-100175307D01*
X153107669Y-100175307D02*
X153018810Y-100233976D01*
X153018810Y-100233976D02*
X152899763Y-100440172D01*
X152899763Y-100440172D02*
X152893383Y-100546460D01*
X152893383Y-100546460D02*
X152910813Y-100611509D01*
X152910813Y-100611509D02*
X152969482Y-100700367D01*
X152969482Y-100700367D02*
X153051960Y-100747987D01*
X153051960Y-100747987D02*
X153199488Y-100778176D01*
X153199488Y-100778176D02*
X153980074Y-100569018D01*
X153980074Y-100569018D02*
X153670550Y-101105129D01*
D11*
G04 #@! TO.C,J2*
X147713527Y-104713361D02*
X153613525Y-94494263D01*
X152736476Y-107613363D02*
X147713527Y-104713361D01*
X153613525Y-94494263D02*
X154133143Y-94794265D01*
X154133143Y-94794265D02*
X155133140Y-93062213D01*
X155133140Y-93062213D02*
X159116858Y-95362214D01*
X158116858Y-97094263D02*
X158636474Y-97394262D01*
X158636474Y-97394262D02*
X152736476Y-107613363D01*
X159116858Y-95362214D02*
X158116858Y-97094263D01*
D12*
X149282292Y-103537771D02*
G75*
G02*
X148772392Y-103537771I-254950J0D01*
G01*
X148772392Y-103537771D02*
G75*
G02*
X149282292Y-103537771I254950J0D01*
G01*
G04 #@! TD*
M02*
