%TF.GenerationSoftware,KiCad,Pcbnew,8.0.4*%
%TF.CreationDate,2024-09-10T03:21:52+03:00*%
%TF.ProjectId,silakka54,73696c61-6b6b-4613-9534-2e6b69636164,rev?*%
%TF.SameCoordinates,Original*%
%TF.FileFunction,Drillmap*%
%TF.FilePolarity,Positive*%
%FSLAX45Y45*%
G04 Gerber Fmt 4.5, Leading zero omitted, Abs format (unit mm)*
G04 Created by KiCad (PCBNEW 8.0.4) date 2024-09-10 03:21:52*
%MOMM*%
%LPD*%
G01*
G04 APERTURE LIST*
%ADD10C,0.050000*%
%ADD11C,0.100000*%
%ADD12C,0.200000*%
%ADD13C,0.150000*%
%ADD14C,0.170000*%
%ADD15C,0.190000*%
%ADD16C,0.300000*%
%ADD17C,0.410000*%
G04 APERTURE END LIST*
D10*
X10953750Y-2619375D02*
X13096875Y-2619375D01*
X13335000Y-2857500D01*
X14525625Y-2857500D01*
X14644687Y-3095625D01*
X16549687Y-3095625D01*
X16668750Y-3214687D01*
X16668750Y-5595937D01*
X16549687Y-5715000D01*
X14882812Y-5715000D01*
X14820000Y-5780000D01*
X14820000Y-9100000D01*
X14940000Y-9220000D01*
X15440000Y-9220000D01*
X15960000Y-9520000D01*
X15954375Y-11787187D01*
X15716250Y-11906250D01*
X14644687Y-13811250D01*
X14525625Y-13930312D01*
X14287500Y-13930312D01*
X12620625Y-12977812D01*
X12501562Y-12977812D01*
X12025312Y-12977812D01*
X10715625Y-12620625D01*
X8929688Y-12620625D01*
X8810625Y-12501562D01*
X8810625Y-11191875D01*
X8691563Y-11072813D01*
X8096250Y-11072813D01*
X7739062Y-10834688D01*
X6786562Y-10834688D01*
X6548437Y-11072813D01*
X3214687Y-11072813D01*
X2857500Y-10715625D01*
X2857500Y-3214687D01*
X3214687Y-2857500D01*
X6667500Y-2857500D01*
X6786562Y-2738438D01*
X7620000Y-2738438D01*
X7858125Y-2500313D01*
X10834688Y-2500313D01*
X10953750Y-2619375D01*
D11*
X3314687Y-10596563D02*
G75*
G02*
X3114687Y-10596563I-100000J0D01*
G01*
X3114687Y-10596563D02*
G75*
G02*
X3314687Y-10596563I100000J0D01*
G01*
X8910625Y-6905625D02*
G75*
G02*
X8710625Y-6905625I-100000J0D01*
G01*
X8710625Y-6905625D02*
G75*
G02*
X8910625Y-6905625I100000J0D01*
G01*
X9267813Y-12263437D02*
G75*
G02*
X9067813Y-12263437I-100000J0D01*
G01*
X9067813Y-12263437D02*
G75*
G02*
X9267813Y-12263437I100000J0D01*
G01*
X8910625Y-10715625D02*
G75*
G02*
X8710625Y-10715625I-100000J0D01*
G01*
X8710625Y-10715625D02*
G75*
G02*
X8910625Y-10715625I100000J0D01*
G01*
X12720625Y-3452812D02*
G75*
G02*
X12520625Y-3452812I-100000J0D01*
G01*
X12520625Y-3452812D02*
G75*
G02*
X12720625Y-3452812I100000J0D01*
G01*
X14387500Y-8929688D02*
G75*
G02*
X14187500Y-8929688I-100000J0D01*
G01*
X14187500Y-8929688D02*
G75*
G02*
X14387500Y-8929688I100000J0D01*
G01*
X12720625Y-9882188D02*
G75*
G02*
X12520625Y-9882188I-100000J0D01*
G01*
X12520625Y-9882188D02*
G75*
G02*
X12720625Y-9882188I100000J0D01*
G01*
X3314687Y-6905625D02*
G75*
G02*
X3114687Y-6905625I-100000J0D01*
G01*
X3114687Y-6905625D02*
G75*
G02*
X3314687Y-6905625I100000J0D01*
G01*
X13077812Y-12858750D02*
G75*
G02*
X12877812Y-12858750I-100000J0D01*
G01*
X12877812Y-12858750D02*
G75*
G02*
X13077812Y-12858750I100000J0D01*
G01*
X3314687Y-3214687D02*
G75*
G02*
X3114687Y-3214687I-100000J0D01*
G01*
X3114687Y-3214687D02*
G75*
G02*
X3314687Y-3214687I100000J0D01*
G01*
D12*
D13*
X15115000Y-10251218D02*
X15265000Y-10401218D01*
X15265000Y-10251218D02*
X15115000Y-10401218D01*
X15465000Y-9645000D02*
X15615000Y-9795000D01*
X15615000Y-9645000D02*
X15465000Y-9795000D01*
D14*
X3656875Y-4048125D02*
G75*
G02*
X3486875Y-4048125I-85000J0D01*
G01*
X3486875Y-4048125D02*
G75*
G02*
X3656875Y-4048125I85000J0D01*
G01*
X3656875Y-5953125D02*
G75*
G02*
X3486875Y-5953125I-85000J0D01*
G01*
X3486875Y-5953125D02*
G75*
G02*
X3656875Y-5953125I85000J0D01*
G01*
X3656875Y-7858125D02*
G75*
G02*
X3486875Y-7858125I-85000J0D01*
G01*
X3486875Y-7858125D02*
G75*
G02*
X3656875Y-7858125I85000J0D01*
G01*
X3656875Y-9763125D02*
G75*
G02*
X3486875Y-9763125I-85000J0D01*
G01*
X3486875Y-9763125D02*
G75*
G02*
X3656875Y-9763125I85000J0D01*
G01*
X4556875Y-4048125D02*
G75*
G02*
X4386875Y-4048125I-85000J0D01*
G01*
X4386875Y-4048125D02*
G75*
G02*
X4556875Y-4048125I85000J0D01*
G01*
X4556875Y-5953125D02*
G75*
G02*
X4386875Y-5953125I-85000J0D01*
G01*
X4386875Y-5953125D02*
G75*
G02*
X4556875Y-5953125I85000J0D01*
G01*
X4556875Y-7858125D02*
G75*
G02*
X4386875Y-7858125I-85000J0D01*
G01*
X4386875Y-7858125D02*
G75*
G02*
X4556875Y-7858125I85000J0D01*
G01*
X4556875Y-9763125D02*
G75*
G02*
X4386875Y-9763125I-85000J0D01*
G01*
X4386875Y-9763125D02*
G75*
G02*
X4556875Y-9763125I85000J0D01*
G01*
X5561875Y-4048125D02*
G75*
G02*
X5391875Y-4048125I-85000J0D01*
G01*
X5391875Y-4048125D02*
G75*
G02*
X5561875Y-4048125I85000J0D01*
G01*
X5561875Y-5953125D02*
G75*
G02*
X5391875Y-5953125I-85000J0D01*
G01*
X5391875Y-5953125D02*
G75*
G02*
X5561875Y-5953125I85000J0D01*
G01*
X5561875Y-7858125D02*
G75*
G02*
X5391875Y-7858125I-85000J0D01*
G01*
X5391875Y-7858125D02*
G75*
G02*
X5561875Y-7858125I85000J0D01*
G01*
X5561875Y-9763125D02*
G75*
G02*
X5391875Y-9763125I-85000J0D01*
G01*
X5391875Y-9763125D02*
G75*
G02*
X5561875Y-9763125I85000J0D01*
G01*
X6461875Y-4048125D02*
G75*
G02*
X6291875Y-4048125I-85000J0D01*
G01*
X6291875Y-4048125D02*
G75*
G02*
X6461875Y-4048125I85000J0D01*
G01*
X6461875Y-5953125D02*
G75*
G02*
X6291875Y-5953125I-85000J0D01*
G01*
X6291875Y-5953125D02*
G75*
G02*
X6461875Y-5953125I85000J0D01*
G01*
X6461875Y-7858125D02*
G75*
G02*
X6291875Y-7858125I-85000J0D01*
G01*
X6291875Y-7858125D02*
G75*
G02*
X6461875Y-7858125I85000J0D01*
G01*
X6461875Y-9763125D02*
G75*
G02*
X6291875Y-9763125I-85000J0D01*
G01*
X6291875Y-9763125D02*
G75*
G02*
X6461875Y-9763125I85000J0D01*
G01*
X7466875Y-3810000D02*
G75*
G02*
X7296875Y-3810000I-85000J0D01*
G01*
X7296875Y-3810000D02*
G75*
G02*
X7466875Y-3810000I85000J0D01*
G01*
X7466875Y-5715000D02*
G75*
G02*
X7296875Y-5715000I-85000J0D01*
G01*
X7296875Y-5715000D02*
G75*
G02*
X7466875Y-5715000I85000J0D01*
G01*
X7466875Y-7620000D02*
G75*
G02*
X7296875Y-7620000I-85000J0D01*
G01*
X7296875Y-7620000D02*
G75*
G02*
X7466875Y-7620000I85000J0D01*
G01*
X7466875Y-9525000D02*
G75*
G02*
X7296875Y-9525000I-85000J0D01*
G01*
X7296875Y-9525000D02*
G75*
G02*
X7466875Y-9525000I85000J0D01*
G01*
X8366875Y-3810000D02*
G75*
G02*
X8196875Y-3810000I-85000J0D01*
G01*
X8196875Y-3810000D02*
G75*
G02*
X8366875Y-3810000I85000J0D01*
G01*
X8366875Y-5715000D02*
G75*
G02*
X8196875Y-5715000I-85000J0D01*
G01*
X8196875Y-5715000D02*
G75*
G02*
X8366875Y-5715000I85000J0D01*
G01*
X8366875Y-7620000D02*
G75*
G02*
X8196875Y-7620000I-85000J0D01*
G01*
X8196875Y-7620000D02*
G75*
G02*
X8366875Y-7620000I85000J0D01*
G01*
X8366875Y-9525000D02*
G75*
G02*
X8196875Y-9525000I-85000J0D01*
G01*
X8196875Y-9525000D02*
G75*
G02*
X8366875Y-9525000I85000J0D01*
G01*
X9371875Y-3571875D02*
G75*
G02*
X9201875Y-3571875I-85000J0D01*
G01*
X9201875Y-3571875D02*
G75*
G02*
X9371875Y-3571875I85000J0D01*
G01*
X9371875Y-5476875D02*
G75*
G02*
X9201875Y-5476875I-85000J0D01*
G01*
X9201875Y-5476875D02*
G75*
G02*
X9371875Y-5476875I85000J0D01*
G01*
X9371875Y-7381875D02*
G75*
G02*
X9201875Y-7381875I-85000J0D01*
G01*
X9201875Y-7381875D02*
G75*
G02*
X9371875Y-7381875I85000J0D01*
G01*
X9371875Y-9286875D02*
G75*
G02*
X9201875Y-9286875I-85000J0D01*
G01*
X9201875Y-9286875D02*
G75*
G02*
X9371875Y-9286875I85000J0D01*
G01*
X9610000Y-11430000D02*
G75*
G02*
X9440000Y-11430000I-85000J0D01*
G01*
X9440000Y-11430000D02*
G75*
G02*
X9610000Y-11430000I85000J0D01*
G01*
X10271875Y-3571875D02*
G75*
G02*
X10101875Y-3571875I-85000J0D01*
G01*
X10101875Y-3571875D02*
G75*
G02*
X10271875Y-3571875I85000J0D01*
G01*
X10271875Y-5476875D02*
G75*
G02*
X10101875Y-5476875I-85000J0D01*
G01*
X10101875Y-5476875D02*
G75*
G02*
X10271875Y-5476875I85000J0D01*
G01*
X10271875Y-7381875D02*
G75*
G02*
X10101875Y-7381875I-85000J0D01*
G01*
X10101875Y-7381875D02*
G75*
G02*
X10271875Y-7381875I85000J0D01*
G01*
X10271875Y-9286875D02*
G75*
G02*
X10101875Y-9286875I-85000J0D01*
G01*
X10101875Y-9286875D02*
G75*
G02*
X10271875Y-9286875I85000J0D01*
G01*
X10510000Y-11430000D02*
G75*
G02*
X10340000Y-11430000I-85000J0D01*
G01*
X10340000Y-11430000D02*
G75*
G02*
X10510000Y-11430000I85000J0D01*
G01*
X11276875Y-3810000D02*
G75*
G02*
X11106875Y-3810000I-85000J0D01*
G01*
X11106875Y-3810000D02*
G75*
G02*
X11276875Y-3810000I85000J0D01*
G01*
X11276875Y-5715000D02*
G75*
G02*
X11106875Y-5715000I-85000J0D01*
G01*
X11106875Y-5715000D02*
G75*
G02*
X11276875Y-5715000I85000J0D01*
G01*
X11276875Y-7620000D02*
G75*
G02*
X11106875Y-7620000I-85000J0D01*
G01*
X11106875Y-7620000D02*
G75*
G02*
X11276875Y-7620000I85000J0D01*
G01*
X11276875Y-9525000D02*
G75*
G02*
X11106875Y-9525000I-85000J0D01*
G01*
X11106875Y-9525000D02*
G75*
G02*
X11276875Y-9525000I85000J0D01*
G01*
X11760208Y-11591656D02*
G75*
G02*
X11590208Y-11591656I-85000J0D01*
G01*
X11590208Y-11591656D02*
G75*
G02*
X11760208Y-11591656I85000J0D01*
G01*
X12176875Y-3810000D02*
G75*
G02*
X12006875Y-3810000I-85000J0D01*
G01*
X12006875Y-3810000D02*
G75*
G02*
X12176875Y-3810000I85000J0D01*
G01*
X12176875Y-5715000D02*
G75*
G02*
X12006875Y-5715000I-85000J0D01*
G01*
X12006875Y-5715000D02*
G75*
G02*
X12176875Y-5715000I85000J0D01*
G01*
X12176875Y-7620000D02*
G75*
G02*
X12006875Y-7620000I-85000J0D01*
G01*
X12006875Y-7620000D02*
G75*
G02*
X12176875Y-7620000I85000J0D01*
G01*
X12176875Y-9525000D02*
G75*
G02*
X12006875Y-9525000I-85000J0D01*
G01*
X12006875Y-9525000D02*
G75*
G02*
X12176875Y-9525000I85000J0D01*
G01*
X12629542Y-11824594D02*
G75*
G02*
X12459542Y-11824594I-85000J0D01*
G01*
X12459542Y-11824594D02*
G75*
G02*
X12629542Y-11824594I85000J0D01*
G01*
X13181875Y-4048125D02*
G75*
G02*
X13011875Y-4048125I-85000J0D01*
G01*
X13011875Y-4048125D02*
G75*
G02*
X13181875Y-4048125I85000J0D01*
G01*
X13181875Y-5953125D02*
G75*
G02*
X13011875Y-5953125I-85000J0D01*
G01*
X13011875Y-5953125D02*
G75*
G02*
X13181875Y-5953125I85000J0D01*
G01*
X13181875Y-7858125D02*
G75*
G02*
X13011875Y-7858125I-85000J0D01*
G01*
X13011875Y-7858125D02*
G75*
G02*
X13181875Y-7858125I85000J0D01*
G01*
X13181875Y-9763125D02*
G75*
G02*
X13011875Y-9763125I-85000J0D01*
G01*
X13011875Y-9763125D02*
G75*
G02*
X13181875Y-9763125I85000J0D01*
G01*
X14081875Y-4048125D02*
G75*
G02*
X13911875Y-4048125I-85000J0D01*
G01*
X13911875Y-4048125D02*
G75*
G02*
X14081875Y-4048125I85000J0D01*
G01*
X14081875Y-5953125D02*
G75*
G02*
X13911875Y-5953125I-85000J0D01*
G01*
X13911875Y-5953125D02*
G75*
G02*
X14081875Y-5953125I85000J0D01*
G01*
X14081875Y-7858125D02*
G75*
G02*
X13911875Y-7858125I-85000J0D01*
G01*
X13911875Y-7858125D02*
G75*
G02*
X14081875Y-7858125I85000J0D01*
G01*
X14081875Y-9763125D02*
G75*
G02*
X13911875Y-9763125I-85000J0D01*
G01*
X13911875Y-9763125D02*
G75*
G02*
X14081875Y-9763125I85000J0D01*
G01*
X14082875Y-12720836D02*
G75*
G02*
X13912875Y-12720836I-85000J0D01*
G01*
X13912875Y-12720836D02*
G75*
G02*
X14082875Y-12720836I85000J0D01*
G01*
X14532875Y-11941414D02*
G75*
G02*
X14362875Y-11941414I-85000J0D01*
G01*
X14362875Y-11941414D02*
G75*
G02*
X14532875Y-11941414I85000J0D01*
G01*
D15*
X3513875Y-3953125D02*
X3513875Y-4143125D01*
X3418875Y-4048125D02*
X3608875Y-4048125D01*
X3513875Y-5858125D02*
X3513875Y-6048125D01*
X3418875Y-5953125D02*
X3608875Y-5953125D01*
X3513875Y-7763125D02*
X3513875Y-7953125D01*
X3418875Y-7858125D02*
X3608875Y-7858125D01*
X3513875Y-9668125D02*
X3513875Y-9858125D01*
X3418875Y-9763125D02*
X3608875Y-9763125D01*
X4529875Y-3953125D02*
X4529875Y-4143125D01*
X4434875Y-4048125D02*
X4624875Y-4048125D01*
X4529875Y-5858125D02*
X4529875Y-6048125D01*
X4434875Y-5953125D02*
X4624875Y-5953125D01*
X4529875Y-7763125D02*
X4529875Y-7953125D01*
X4434875Y-7858125D02*
X4624875Y-7858125D01*
X4529875Y-9668125D02*
X4529875Y-9858125D01*
X4434875Y-9763125D02*
X4624875Y-9763125D01*
X5418875Y-3953125D02*
X5418875Y-4143125D01*
X5323875Y-4048125D02*
X5513875Y-4048125D01*
X5418875Y-5858125D02*
X5418875Y-6048125D01*
X5323875Y-5953125D02*
X5513875Y-5953125D01*
X5418875Y-7763125D02*
X5418875Y-7953125D01*
X5323875Y-7858125D02*
X5513875Y-7858125D01*
X5418875Y-9668125D02*
X5418875Y-9858125D01*
X5323875Y-9763125D02*
X5513875Y-9763125D01*
X6434875Y-3953125D02*
X6434875Y-4143125D01*
X6339875Y-4048125D02*
X6529875Y-4048125D01*
X6434875Y-5858125D02*
X6434875Y-6048125D01*
X6339875Y-5953125D02*
X6529875Y-5953125D01*
X6434875Y-7763125D02*
X6434875Y-7953125D01*
X6339875Y-7858125D02*
X6529875Y-7858125D01*
X6434875Y-9668125D02*
X6434875Y-9858125D01*
X6339875Y-9763125D02*
X6529875Y-9763125D01*
X7323875Y-3715000D02*
X7323875Y-3905000D01*
X7228875Y-3810000D02*
X7418875Y-3810000D01*
X7323875Y-5620000D02*
X7323875Y-5810000D01*
X7228875Y-5715000D02*
X7418875Y-5715000D01*
X7323875Y-7525000D02*
X7323875Y-7715000D01*
X7228875Y-7620000D02*
X7418875Y-7620000D01*
X7323875Y-9430000D02*
X7323875Y-9620000D01*
X7228875Y-9525000D02*
X7418875Y-9525000D01*
X8339875Y-3715000D02*
X8339875Y-3905000D01*
X8244875Y-3810000D02*
X8434875Y-3810000D01*
X8339875Y-5620000D02*
X8339875Y-5810000D01*
X8244875Y-5715000D02*
X8434875Y-5715000D01*
X8339875Y-7525000D02*
X8339875Y-7715000D01*
X8244875Y-7620000D02*
X8434875Y-7620000D01*
X8339875Y-9430000D02*
X8339875Y-9620000D01*
X8244875Y-9525000D02*
X8434875Y-9525000D01*
X9228875Y-3476875D02*
X9228875Y-3666875D01*
X9133875Y-3571875D02*
X9323875Y-3571875D01*
X9228875Y-5381875D02*
X9228875Y-5571875D01*
X9133875Y-5476875D02*
X9323875Y-5476875D01*
X9228875Y-7286875D02*
X9228875Y-7476875D01*
X9133875Y-7381875D02*
X9323875Y-7381875D01*
X9228875Y-9191875D02*
X9228875Y-9381875D01*
X9133875Y-9286875D02*
X9323875Y-9286875D01*
X9467000Y-11335000D02*
X9467000Y-11525000D01*
X9372000Y-11430000D02*
X9562000Y-11430000D01*
X10244875Y-3476875D02*
X10244875Y-3666875D01*
X10149875Y-3571875D02*
X10339875Y-3571875D01*
X10244875Y-5381875D02*
X10244875Y-5571875D01*
X10149875Y-5476875D02*
X10339875Y-5476875D01*
X10244875Y-7286875D02*
X10244875Y-7476875D01*
X10149875Y-7381875D02*
X10339875Y-7381875D01*
X10244875Y-9191875D02*
X10244875Y-9381875D01*
X10149875Y-9286875D02*
X10339875Y-9286875D01*
X10483000Y-11335000D02*
X10483000Y-11525000D01*
X10388000Y-11430000D02*
X10578000Y-11430000D01*
X11133875Y-3715000D02*
X11133875Y-3905000D01*
X11038875Y-3810000D02*
X11228875Y-3810000D01*
X11133875Y-5620000D02*
X11133875Y-5810000D01*
X11038875Y-5715000D02*
X11228875Y-5715000D01*
X11133875Y-7525000D02*
X11133875Y-7715000D01*
X11038875Y-7620000D02*
X11228875Y-7620000D01*
X11133875Y-9430000D02*
X11133875Y-9620000D01*
X11038875Y-9525000D02*
X11228875Y-9525000D01*
X11619185Y-11481645D02*
X11619185Y-11671645D01*
X11524185Y-11576645D02*
X11714185Y-11576645D01*
X12149875Y-3715000D02*
X12149875Y-3905000D01*
X12054875Y-3810000D02*
X12244875Y-3810000D01*
X12149875Y-5620000D02*
X12149875Y-5810000D01*
X12054875Y-5715000D02*
X12244875Y-5715000D01*
X12149875Y-7525000D02*
X12149875Y-7715000D01*
X12054875Y-7620000D02*
X12244875Y-7620000D01*
X12149875Y-9430000D02*
X12149875Y-9620000D01*
X12054875Y-9525000D02*
X12244875Y-9525000D01*
X12600565Y-11744605D02*
X12600565Y-11934605D01*
X12505565Y-11839605D02*
X12695565Y-11839605D01*
X13038875Y-3953125D02*
X13038875Y-4143125D01*
X12943875Y-4048125D02*
X13133875Y-4048125D01*
X13038875Y-5858125D02*
X13038875Y-6048125D01*
X12943875Y-5953125D02*
X13133875Y-5953125D01*
X13038875Y-7763125D02*
X13038875Y-7953125D01*
X12943875Y-7858125D02*
X13133875Y-7858125D01*
X13038875Y-9668125D02*
X13038875Y-9858125D01*
X12943875Y-9763125D02*
X13133875Y-9763125D01*
X13968875Y-12676066D02*
X13968875Y-12866066D01*
X13873875Y-12771066D02*
X14063875Y-12771066D01*
X14054875Y-3953125D02*
X14054875Y-4143125D01*
X13959875Y-4048125D02*
X14149875Y-4048125D01*
X14054875Y-5858125D02*
X14054875Y-6048125D01*
X13959875Y-5953125D02*
X14149875Y-5953125D01*
X14054875Y-7763125D02*
X14054875Y-7953125D01*
X13959875Y-7858125D02*
X14149875Y-7858125D01*
X14054875Y-9668125D02*
X14054875Y-9858125D01*
X13959875Y-9763125D02*
X14149875Y-9763125D01*
X14476875Y-11796184D02*
X14476875Y-11986184D01*
X14381875Y-11891184D02*
X14571875Y-11891184D01*
D16*
X3746942Y-3900192D02*
X3746942Y-3688058D01*
X3534808Y-3688058D01*
X3534808Y-3900192D01*
X3746942Y-3900192D01*
X3746942Y-5805192D02*
X3746942Y-5593058D01*
X3534808Y-5593058D01*
X3534808Y-5805192D01*
X3746942Y-5805192D01*
X3746942Y-7710192D02*
X3746942Y-7498058D01*
X3534808Y-7498058D01*
X3534808Y-7710192D01*
X3746942Y-7710192D01*
X3746942Y-9615192D02*
X3746942Y-9403058D01*
X3534808Y-9403058D01*
X3534808Y-9615192D01*
X3746942Y-9615192D01*
X3873942Y-3646192D02*
X3873942Y-3434058D01*
X3661808Y-3434058D01*
X3661808Y-3646192D01*
X3873942Y-3646192D01*
X3873942Y-5551192D02*
X3873942Y-5339058D01*
X3661808Y-5339058D01*
X3661808Y-5551192D01*
X3873942Y-5551192D01*
X3873942Y-7456192D02*
X3873942Y-7244058D01*
X3661808Y-7244058D01*
X3661808Y-7456192D01*
X3873942Y-7456192D01*
X3873942Y-9361192D02*
X3873942Y-9149058D01*
X3661808Y-9149058D01*
X3661808Y-9361192D01*
X3873942Y-9361192D01*
X4381942Y-3646192D02*
X4381942Y-3434058D01*
X4169808Y-3434058D01*
X4169808Y-3646192D01*
X4381942Y-3646192D01*
X4381942Y-5551192D02*
X4381942Y-5339058D01*
X4169808Y-5339058D01*
X4169808Y-5551192D01*
X4381942Y-5551192D01*
X4381942Y-7456192D02*
X4381942Y-7244058D01*
X4169808Y-7244058D01*
X4169808Y-7456192D01*
X4381942Y-7456192D01*
X4381942Y-9361192D02*
X4381942Y-9149058D01*
X4169808Y-9149058D01*
X4169808Y-9361192D01*
X4381942Y-9361192D01*
X4508942Y-3900192D02*
X4508942Y-3688058D01*
X4296808Y-3688058D01*
X4296808Y-3900192D01*
X4508942Y-3900192D01*
X4508942Y-5805192D02*
X4508942Y-5593058D01*
X4296808Y-5593058D01*
X4296808Y-5805192D01*
X4508942Y-5805192D01*
X4508942Y-7710192D02*
X4508942Y-7498058D01*
X4296808Y-7498058D01*
X4296808Y-7710192D01*
X4508942Y-7710192D01*
X4508942Y-9615192D02*
X4508942Y-9403058D01*
X4296808Y-9403058D01*
X4296808Y-9615192D01*
X4508942Y-9615192D01*
X5651942Y-3900192D02*
X5651942Y-3688058D01*
X5439808Y-3688058D01*
X5439808Y-3900192D01*
X5651942Y-3900192D01*
X5651942Y-5805192D02*
X5651942Y-5593058D01*
X5439808Y-5593058D01*
X5439808Y-5805192D01*
X5651942Y-5805192D01*
X5651942Y-7710192D02*
X5651942Y-7498058D01*
X5439808Y-7498058D01*
X5439808Y-7710192D01*
X5651942Y-7710192D01*
X5651942Y-9615192D02*
X5651942Y-9403058D01*
X5439808Y-9403058D01*
X5439808Y-9615192D01*
X5651942Y-9615192D01*
X5778942Y-3646192D02*
X5778942Y-3434058D01*
X5566808Y-3434058D01*
X5566808Y-3646192D01*
X5778942Y-3646192D01*
X5778942Y-5551192D02*
X5778942Y-5339058D01*
X5566808Y-5339058D01*
X5566808Y-5551192D01*
X5778942Y-5551192D01*
X5778942Y-7456192D02*
X5778942Y-7244058D01*
X5566808Y-7244058D01*
X5566808Y-7456192D01*
X5778942Y-7456192D01*
X5778942Y-9361192D02*
X5778942Y-9149058D01*
X5566808Y-9149058D01*
X5566808Y-9361192D01*
X5778942Y-9361192D01*
X6286942Y-3646192D02*
X6286942Y-3434058D01*
X6074808Y-3434058D01*
X6074808Y-3646192D01*
X6286942Y-3646192D01*
X6286942Y-5551192D02*
X6286942Y-5339058D01*
X6074808Y-5339058D01*
X6074808Y-5551192D01*
X6286942Y-5551192D01*
X6286942Y-7456192D02*
X6286942Y-7244058D01*
X6074808Y-7244058D01*
X6074808Y-7456192D01*
X6286942Y-7456192D01*
X6286942Y-9361192D02*
X6286942Y-9149058D01*
X6074808Y-9149058D01*
X6074808Y-9361192D01*
X6286942Y-9361192D01*
X6413942Y-3900192D02*
X6413942Y-3688058D01*
X6201808Y-3688058D01*
X6201808Y-3900192D01*
X6413942Y-3900192D01*
X6413942Y-5805192D02*
X6413942Y-5593058D01*
X6201808Y-5593058D01*
X6201808Y-5805192D01*
X6413942Y-5805192D01*
X6413942Y-7710192D02*
X6413942Y-7498058D01*
X6201808Y-7498058D01*
X6201808Y-7710192D01*
X6413942Y-7710192D01*
X6413942Y-9615192D02*
X6413942Y-9403058D01*
X6201808Y-9403058D01*
X6201808Y-9615192D01*
X6413942Y-9615192D01*
X7556942Y-3662067D02*
X7556942Y-3449933D01*
X7344808Y-3449933D01*
X7344808Y-3662067D01*
X7556942Y-3662067D01*
X7556942Y-5567067D02*
X7556942Y-5354933D01*
X7344808Y-5354933D01*
X7344808Y-5567067D01*
X7556942Y-5567067D01*
X7556942Y-7472067D02*
X7556942Y-7259933D01*
X7344808Y-7259933D01*
X7344808Y-7472067D01*
X7556942Y-7472067D01*
X7556942Y-9377067D02*
X7556942Y-9164933D01*
X7344808Y-9164933D01*
X7344808Y-9377067D01*
X7556942Y-9377067D01*
X7683942Y-3408067D02*
X7683942Y-3195933D01*
X7471808Y-3195933D01*
X7471808Y-3408067D01*
X7683942Y-3408067D01*
X7683942Y-5313067D02*
X7683942Y-5100933D01*
X7471808Y-5100933D01*
X7471808Y-5313067D01*
X7683942Y-5313067D01*
X7683942Y-7218067D02*
X7683942Y-7005933D01*
X7471808Y-7005933D01*
X7471808Y-7218067D01*
X7683942Y-7218067D01*
X7683942Y-9123067D02*
X7683942Y-8910933D01*
X7471808Y-8910933D01*
X7471808Y-9123067D01*
X7683942Y-9123067D01*
X8191942Y-3408067D02*
X8191942Y-3195933D01*
X7979808Y-3195933D01*
X7979808Y-3408067D01*
X8191942Y-3408067D01*
X8191942Y-5313067D02*
X8191942Y-5100933D01*
X7979808Y-5100933D01*
X7979808Y-5313067D01*
X8191942Y-5313067D01*
X8191942Y-7218067D02*
X8191942Y-7005933D01*
X7979808Y-7005933D01*
X7979808Y-7218067D01*
X8191942Y-7218067D01*
X8191942Y-9123067D02*
X8191942Y-8910933D01*
X7979808Y-8910933D01*
X7979808Y-9123067D01*
X8191942Y-9123067D01*
X8318942Y-3662067D02*
X8318942Y-3449933D01*
X8106808Y-3449933D01*
X8106808Y-3662067D01*
X8318942Y-3662067D01*
X8318942Y-5567067D02*
X8318942Y-5354933D01*
X8106808Y-5354933D01*
X8106808Y-5567067D01*
X8318942Y-5567067D01*
X8318942Y-7472067D02*
X8318942Y-7259933D01*
X8106808Y-7259933D01*
X8106808Y-7472067D01*
X8318942Y-7472067D01*
X8318942Y-9377067D02*
X8318942Y-9164933D01*
X8106808Y-9164933D01*
X8106808Y-9377067D01*
X8318942Y-9377067D01*
X9461942Y-3423942D02*
X9461942Y-3211808D01*
X9249808Y-3211808D01*
X9249808Y-3423942D01*
X9461942Y-3423942D01*
X9461942Y-5328942D02*
X9461942Y-5116808D01*
X9249808Y-5116808D01*
X9249808Y-5328942D01*
X9461942Y-5328942D01*
X9461942Y-7233942D02*
X9461942Y-7021808D01*
X9249808Y-7021808D01*
X9249808Y-7233942D01*
X9461942Y-7233942D01*
X9461942Y-9138942D02*
X9461942Y-8926808D01*
X9249808Y-8926808D01*
X9249808Y-9138942D01*
X9461942Y-9138942D01*
X9588942Y-3169942D02*
X9588942Y-2957808D01*
X9376808Y-2957808D01*
X9376808Y-3169942D01*
X9588942Y-3169942D01*
X9588942Y-5074942D02*
X9588942Y-4862808D01*
X9376808Y-4862808D01*
X9376808Y-5074942D01*
X9588942Y-5074942D01*
X9588942Y-6979942D02*
X9588942Y-6767808D01*
X9376808Y-6767808D01*
X9376808Y-6979942D01*
X9588942Y-6979942D01*
X9588942Y-8884942D02*
X9588942Y-8672808D01*
X9376808Y-8672808D01*
X9376808Y-8884942D01*
X9588942Y-8884942D01*
X9700067Y-11282067D02*
X9700067Y-11069933D01*
X9487933Y-11069933D01*
X9487933Y-11282067D01*
X9700067Y-11282067D01*
X9827067Y-11028067D02*
X9827067Y-10815933D01*
X9614933Y-10815933D01*
X9614933Y-11028067D01*
X9827067Y-11028067D01*
X10096942Y-3169942D02*
X10096942Y-2957808D01*
X9884808Y-2957808D01*
X9884808Y-3169942D01*
X10096942Y-3169942D01*
X10096942Y-5074942D02*
X10096942Y-4862808D01*
X9884808Y-4862808D01*
X9884808Y-5074942D01*
X10096942Y-5074942D01*
X10096942Y-6979942D02*
X10096942Y-6767808D01*
X9884808Y-6767808D01*
X9884808Y-6979942D01*
X10096942Y-6979942D01*
X10096942Y-8884942D02*
X10096942Y-8672808D01*
X9884808Y-8672808D01*
X9884808Y-8884942D01*
X10096942Y-8884942D01*
X10223942Y-3423942D02*
X10223942Y-3211808D01*
X10011808Y-3211808D01*
X10011808Y-3423942D01*
X10223942Y-3423942D01*
X10223942Y-5328942D02*
X10223942Y-5116808D01*
X10011808Y-5116808D01*
X10011808Y-5328942D01*
X10223942Y-5328942D01*
X10223942Y-7233942D02*
X10223942Y-7021808D01*
X10011808Y-7021808D01*
X10011808Y-7233942D01*
X10223942Y-7233942D01*
X10223942Y-9138942D02*
X10223942Y-8926808D01*
X10011808Y-8926808D01*
X10011808Y-9138942D01*
X10223942Y-9138942D01*
X10335067Y-11028067D02*
X10335067Y-10815933D01*
X10122933Y-10815933D01*
X10122933Y-11028067D01*
X10335067Y-11028067D01*
X10462067Y-11282067D02*
X10462067Y-11069933D01*
X10249933Y-11069933D01*
X10249933Y-11282067D01*
X10462067Y-11282067D01*
X11366942Y-3662067D02*
X11366942Y-3449933D01*
X11154808Y-3449933D01*
X11154808Y-3662067D01*
X11366942Y-3662067D01*
X11366942Y-5567067D02*
X11366942Y-5354933D01*
X11154808Y-5354933D01*
X11154808Y-5567067D01*
X11366942Y-5567067D01*
X11366942Y-7472067D02*
X11366942Y-7259933D01*
X11154808Y-7259933D01*
X11154808Y-7472067D01*
X11366942Y-7472067D01*
X11366942Y-9377067D02*
X11366942Y-9164933D01*
X11154808Y-9164933D01*
X11154808Y-9377067D01*
X11366942Y-9377067D01*
X11493942Y-3408067D02*
X11493942Y-3195933D01*
X11281808Y-3195933D01*
X11281808Y-3408067D01*
X11493942Y-3408067D01*
X11493942Y-5313067D02*
X11493942Y-5100933D01*
X11281808Y-5100933D01*
X11281808Y-5313067D01*
X11493942Y-5313067D01*
X11493942Y-7218067D02*
X11493942Y-7005933D01*
X11281808Y-7005933D01*
X11281808Y-7218067D01*
X11493942Y-7218067D01*
X11493942Y-9123067D02*
X11493942Y-8910933D01*
X11281808Y-8910933D01*
X11281808Y-9123067D01*
X11493942Y-9123067D01*
X11913664Y-11470237D02*
X11913664Y-11258103D01*
X11701530Y-11258103D01*
X11701530Y-11470237D01*
X11913664Y-11470237D01*
X12001942Y-3408067D02*
X12001942Y-3195933D01*
X11789808Y-3195933D01*
X11789808Y-3408067D01*
X12001942Y-3408067D01*
X12001942Y-5313067D02*
X12001942Y-5100933D01*
X11789808Y-5100933D01*
X11789808Y-5313067D01*
X12001942Y-5313067D01*
X12001942Y-7218067D02*
X12001942Y-7005933D01*
X11789808Y-7005933D01*
X11789808Y-7218067D01*
X12001942Y-7218067D01*
X12001942Y-9123067D02*
X12001942Y-8910933D01*
X11789808Y-8910933D01*
X11789808Y-9123067D01*
X12001942Y-9123067D01*
X12102077Y-11257762D02*
X12102077Y-11045628D01*
X11889943Y-11045628D01*
X11889943Y-11257762D01*
X12102077Y-11257762D01*
X12128942Y-3662067D02*
X12128942Y-3449933D01*
X11916808Y-3449933D01*
X11916808Y-3662067D01*
X12128942Y-3662067D01*
X12128942Y-5567067D02*
X12128942Y-5354933D01*
X11916808Y-5354933D01*
X11916808Y-5567067D01*
X12128942Y-5567067D01*
X12128942Y-7472067D02*
X12128942Y-7259933D01*
X11916808Y-7259933D01*
X11916808Y-7472067D01*
X12128942Y-7472067D01*
X12128942Y-9377067D02*
X12128942Y-9164933D01*
X11916808Y-9164933D01*
X11916808Y-9377067D01*
X12128942Y-9377067D01*
X12592767Y-11389242D02*
X12592767Y-11177108D01*
X12380633Y-11177108D01*
X12380633Y-11389242D01*
X12592767Y-11389242D01*
X12649700Y-11667457D02*
X12649700Y-11455323D01*
X12437566Y-11455323D01*
X12437566Y-11667457D01*
X12649700Y-11667457D01*
X13271942Y-3900192D02*
X13271942Y-3688058D01*
X13059808Y-3688058D01*
X13059808Y-3900192D01*
X13271942Y-3900192D01*
X13271942Y-5805192D02*
X13271942Y-5593058D01*
X13059808Y-5593058D01*
X13059808Y-5805192D01*
X13271942Y-5805192D01*
X13271942Y-7710192D02*
X13271942Y-7498058D01*
X13059808Y-7498058D01*
X13059808Y-7710192D01*
X13271942Y-7710192D01*
X13271942Y-9615192D02*
X13271942Y-9403058D01*
X13059808Y-9403058D01*
X13059808Y-9615192D01*
X13271942Y-9615192D01*
X13398942Y-3646192D02*
X13398942Y-3434058D01*
X13186808Y-3434058D01*
X13186808Y-3646192D01*
X13398942Y-3646192D01*
X13398942Y-5551192D02*
X13398942Y-5339058D01*
X13186808Y-5339058D01*
X13186808Y-5551192D01*
X13398942Y-5551192D01*
X13398942Y-7456192D02*
X13398942Y-7244058D01*
X13186808Y-7244058D01*
X13186808Y-7456192D01*
X13398942Y-7456192D01*
X13398942Y-9361192D02*
X13398942Y-9149058D01*
X13186808Y-9149058D01*
X13186808Y-9361192D01*
X13398942Y-9361192D01*
X13906942Y-3646192D02*
X13906942Y-3434058D01*
X13694808Y-3434058D01*
X13694808Y-3646192D01*
X13906942Y-3646192D01*
X13906942Y-5551192D02*
X13906942Y-5339058D01*
X13694808Y-5339058D01*
X13694808Y-5551192D01*
X13906942Y-5551192D01*
X13906942Y-7456192D02*
X13906942Y-7244058D01*
X13694808Y-7244058D01*
X13694808Y-7456192D01*
X13906942Y-7456192D01*
X13906942Y-9361192D02*
X13906942Y-9149058D01*
X13694808Y-9149058D01*
X13694808Y-9361192D01*
X13906942Y-9361192D01*
X14033942Y-3900192D02*
X14033942Y-3688058D01*
X13821808Y-3688058D01*
X13821808Y-3900192D01*
X14033942Y-3900192D01*
X14033942Y-5805192D02*
X14033942Y-5593058D01*
X13821808Y-5593058D01*
X13821808Y-5805192D01*
X14033942Y-5805192D01*
X14033942Y-7710192D02*
X14033942Y-7498058D01*
X13821808Y-7498058D01*
X13821808Y-7710192D01*
X14033942Y-7710192D01*
X14033942Y-9615192D02*
X14033942Y-9403058D01*
X13821808Y-9403058D01*
X13821808Y-9615192D01*
X14033942Y-9615192D01*
X14358412Y-12894148D02*
X14358412Y-12682014D01*
X14146278Y-12682014D01*
X14146278Y-12894148D01*
X14358412Y-12894148D01*
X14641883Y-12911162D02*
X14641883Y-12699028D01*
X14429749Y-12699028D01*
X14429749Y-12911162D01*
X14641883Y-12911162D01*
X14739412Y-12234236D02*
X14739412Y-12022102D01*
X14527278Y-12022102D01*
X14527278Y-12234236D01*
X14739412Y-12234236D01*
X14895883Y-12471221D02*
X14895883Y-12259087D01*
X14683749Y-12259087D01*
X14683749Y-12471221D01*
X14895883Y-12471221D01*
D17*
X4021875Y-4253125D02*
X4226875Y-4048125D01*
X4021875Y-3843125D01*
X3816875Y-4048125D01*
X4021875Y-4253125D01*
X4021875Y-6158125D02*
X4226875Y-5953125D01*
X4021875Y-5748125D01*
X3816875Y-5953125D01*
X4021875Y-6158125D01*
X4021875Y-8063125D02*
X4226875Y-7858125D01*
X4021875Y-7653125D01*
X3816875Y-7858125D01*
X4021875Y-8063125D01*
X4021875Y-9968125D02*
X4226875Y-9763125D01*
X4021875Y-9558125D01*
X3816875Y-9763125D01*
X4021875Y-9968125D01*
X5926875Y-4253125D02*
X6131875Y-4048125D01*
X5926875Y-3843125D01*
X5721875Y-4048125D01*
X5926875Y-4253125D01*
X5926875Y-6158125D02*
X6131875Y-5953125D01*
X5926875Y-5748125D01*
X5721875Y-5953125D01*
X5926875Y-6158125D01*
X5926875Y-8063125D02*
X6131875Y-7858125D01*
X5926875Y-7653125D01*
X5721875Y-7858125D01*
X5926875Y-8063125D01*
X5926875Y-9968125D02*
X6131875Y-9763125D01*
X5926875Y-9558125D01*
X5721875Y-9763125D01*
X5926875Y-9968125D01*
X7831875Y-4015000D02*
X8036875Y-3810000D01*
X7831875Y-3605000D01*
X7626875Y-3810000D01*
X7831875Y-4015000D01*
X7831875Y-5920000D02*
X8036875Y-5715000D01*
X7831875Y-5510000D01*
X7626875Y-5715000D01*
X7831875Y-5920000D01*
X7831875Y-7825000D02*
X8036875Y-7620000D01*
X7831875Y-7415000D01*
X7626875Y-7620000D01*
X7831875Y-7825000D01*
X7831875Y-9730000D02*
X8036875Y-9525000D01*
X7831875Y-9320000D01*
X7626875Y-9525000D01*
X7831875Y-9730000D01*
X9736875Y-3776875D02*
X9941875Y-3571875D01*
X9736875Y-3366875D01*
X9531875Y-3571875D01*
X9736875Y-3776875D01*
X9736875Y-5681875D02*
X9941875Y-5476875D01*
X9736875Y-5271875D01*
X9531875Y-5476875D01*
X9736875Y-5681875D01*
X9736875Y-7586875D02*
X9941875Y-7381875D01*
X9736875Y-7176875D01*
X9531875Y-7381875D01*
X9736875Y-7586875D01*
X9736875Y-9491875D02*
X9941875Y-9286875D01*
X9736875Y-9081875D01*
X9531875Y-9286875D01*
X9736875Y-9491875D01*
X9975000Y-11635000D02*
X10180000Y-11430000D01*
X9975000Y-11225000D01*
X9770000Y-11430000D01*
X9975000Y-11635000D01*
X11641875Y-4015000D02*
X11846875Y-3810000D01*
X11641875Y-3605000D01*
X11436875Y-3810000D01*
X11641875Y-4015000D01*
X11641875Y-5920000D02*
X11846875Y-5715000D01*
X11641875Y-5510000D01*
X11436875Y-5715000D01*
X11641875Y-5920000D01*
X11641875Y-7825000D02*
X11846875Y-7620000D01*
X11641875Y-7415000D01*
X11436875Y-7620000D01*
X11641875Y-7825000D01*
X11641875Y-9730000D02*
X11846875Y-9525000D01*
X11641875Y-9320000D01*
X11436875Y-9525000D01*
X11641875Y-9730000D01*
X12109875Y-11913125D02*
X12314875Y-11708125D01*
X12109875Y-11503125D01*
X11904875Y-11708125D01*
X12109875Y-11913125D01*
X13546875Y-4253125D02*
X13751875Y-4048125D01*
X13546875Y-3843125D01*
X13341875Y-4048125D01*
X13546875Y-4253125D01*
X13546875Y-6158125D02*
X13751875Y-5953125D01*
X13546875Y-5748125D01*
X13341875Y-5953125D01*
X13546875Y-6158125D01*
X13546875Y-8063125D02*
X13751875Y-7858125D01*
X13546875Y-7653125D01*
X13341875Y-7858125D01*
X13546875Y-8063125D01*
X13546875Y-9968125D02*
X13751875Y-9763125D01*
X13546875Y-9558125D01*
X13341875Y-9763125D01*
X13546875Y-9968125D01*
X14222875Y-12536125D02*
X14427875Y-12331125D01*
X14222875Y-12126125D01*
X14017875Y-12331125D01*
X14222875Y-12536125D01*
D12*
X3115777Y-14244296D02*
X3115777Y-14044296D01*
X3115777Y-14044296D02*
X3163396Y-14044296D01*
X3163396Y-14044296D02*
X3191967Y-14053820D01*
X3191967Y-14053820D02*
X3211015Y-14072868D01*
X3211015Y-14072868D02*
X3220539Y-14091915D01*
X3220539Y-14091915D02*
X3230062Y-14130010D01*
X3230062Y-14130010D02*
X3230062Y-14158582D01*
X3230062Y-14158582D02*
X3220539Y-14196677D01*
X3220539Y-14196677D02*
X3211015Y-14215725D01*
X3211015Y-14215725D02*
X3191967Y-14234772D01*
X3191967Y-14234772D02*
X3163396Y-14244296D01*
X3163396Y-14244296D02*
X3115777Y-14244296D01*
X3315777Y-14244296D02*
X3315777Y-14110963D01*
X3315777Y-14149058D02*
X3325301Y-14130010D01*
X3325301Y-14130010D02*
X3334824Y-14120487D01*
X3334824Y-14120487D02*
X3353872Y-14110963D01*
X3353872Y-14110963D02*
X3372920Y-14110963D01*
X3439586Y-14244296D02*
X3439586Y-14110963D01*
X3439586Y-14044296D02*
X3430062Y-14053820D01*
X3430062Y-14053820D02*
X3439586Y-14063344D01*
X3439586Y-14063344D02*
X3449110Y-14053820D01*
X3449110Y-14053820D02*
X3439586Y-14044296D01*
X3439586Y-14044296D02*
X3439586Y-14063344D01*
X3563396Y-14244296D02*
X3544348Y-14234772D01*
X3544348Y-14234772D02*
X3534824Y-14215725D01*
X3534824Y-14215725D02*
X3534824Y-14044296D01*
X3668158Y-14244296D02*
X3649110Y-14234772D01*
X3649110Y-14234772D02*
X3639586Y-14215725D01*
X3639586Y-14215725D02*
X3639586Y-14044296D01*
X3896729Y-14244296D02*
X3896729Y-14044296D01*
X3896729Y-14044296D02*
X3963396Y-14187153D01*
X3963396Y-14187153D02*
X4030062Y-14044296D01*
X4030062Y-14044296D02*
X4030062Y-14244296D01*
X4211015Y-14244296D02*
X4211015Y-14139534D01*
X4211015Y-14139534D02*
X4201491Y-14120487D01*
X4201491Y-14120487D02*
X4182443Y-14110963D01*
X4182443Y-14110963D02*
X4144348Y-14110963D01*
X4144348Y-14110963D02*
X4125301Y-14120487D01*
X4211015Y-14234772D02*
X4191967Y-14244296D01*
X4191967Y-14244296D02*
X4144348Y-14244296D01*
X4144348Y-14244296D02*
X4125301Y-14234772D01*
X4125301Y-14234772D02*
X4115777Y-14215725D01*
X4115777Y-14215725D02*
X4115777Y-14196677D01*
X4115777Y-14196677D02*
X4125301Y-14177630D01*
X4125301Y-14177630D02*
X4144348Y-14168106D01*
X4144348Y-14168106D02*
X4191967Y-14168106D01*
X4191967Y-14168106D02*
X4211015Y-14158582D01*
X4306253Y-14110963D02*
X4306253Y-14310963D01*
X4306253Y-14120487D02*
X4325301Y-14110963D01*
X4325301Y-14110963D02*
X4363396Y-14110963D01*
X4363396Y-14110963D02*
X4382444Y-14120487D01*
X4382444Y-14120487D02*
X4391967Y-14130010D01*
X4391967Y-14130010D02*
X4401491Y-14149058D01*
X4401491Y-14149058D02*
X4401491Y-14206201D01*
X4401491Y-14206201D02*
X4391967Y-14225249D01*
X4391967Y-14225249D02*
X4382444Y-14234772D01*
X4382444Y-14234772D02*
X4363396Y-14244296D01*
X4363396Y-14244296D02*
X4325301Y-14244296D01*
X4325301Y-14244296D02*
X4306253Y-14234772D01*
X4487205Y-14225249D02*
X4496729Y-14234772D01*
X4496729Y-14234772D02*
X4487205Y-14244296D01*
X4487205Y-14244296D02*
X4477682Y-14234772D01*
X4477682Y-14234772D02*
X4487205Y-14225249D01*
X4487205Y-14225249D02*
X4487205Y-14244296D01*
X4487205Y-14120487D02*
X4496729Y-14130010D01*
X4496729Y-14130010D02*
X4487205Y-14139534D01*
X4487205Y-14139534D02*
X4477682Y-14130010D01*
X4477682Y-14130010D02*
X4487205Y-14120487D01*
X4487205Y-14120487D02*
X4487205Y-14139534D01*
D13*
X2705000Y-14497812D02*
X2855000Y-14647812D01*
X2855000Y-14497812D02*
X2705000Y-14647812D01*
D12*
X3220539Y-14664296D02*
X3106253Y-14664296D01*
X3163396Y-14664296D02*
X3163396Y-14464296D01*
X3163396Y-14464296D02*
X3144348Y-14492868D01*
X3144348Y-14492868D02*
X3125301Y-14511915D01*
X3125301Y-14511915D02*
X3106253Y-14521439D01*
X3306253Y-14645249D02*
X3315777Y-14654772D01*
X3315777Y-14654772D02*
X3306253Y-14664296D01*
X3306253Y-14664296D02*
X3296729Y-14654772D01*
X3296729Y-14654772D02*
X3306253Y-14645249D01*
X3306253Y-14645249D02*
X3306253Y-14664296D01*
X3496729Y-14464296D02*
X3401491Y-14464296D01*
X3401491Y-14464296D02*
X3391967Y-14559534D01*
X3391967Y-14559534D02*
X3401491Y-14550010D01*
X3401491Y-14550010D02*
X3420539Y-14540487D01*
X3420539Y-14540487D02*
X3468158Y-14540487D01*
X3468158Y-14540487D02*
X3487205Y-14550010D01*
X3487205Y-14550010D02*
X3496729Y-14559534D01*
X3496729Y-14559534D02*
X3506253Y-14578582D01*
X3506253Y-14578582D02*
X3506253Y-14626201D01*
X3506253Y-14626201D02*
X3496729Y-14645249D01*
X3496729Y-14645249D02*
X3487205Y-14654772D01*
X3487205Y-14654772D02*
X3468158Y-14664296D01*
X3468158Y-14664296D02*
X3420539Y-14664296D01*
X3420539Y-14664296D02*
X3401491Y-14654772D01*
X3401491Y-14654772D02*
X3391967Y-14645249D01*
X3630062Y-14464296D02*
X3649110Y-14464296D01*
X3649110Y-14464296D02*
X3668158Y-14473820D01*
X3668158Y-14473820D02*
X3677682Y-14483344D01*
X3677682Y-14483344D02*
X3687205Y-14502391D01*
X3687205Y-14502391D02*
X3696729Y-14540487D01*
X3696729Y-14540487D02*
X3696729Y-14588106D01*
X3696729Y-14588106D02*
X3687205Y-14626201D01*
X3687205Y-14626201D02*
X3677682Y-14645249D01*
X3677682Y-14645249D02*
X3668158Y-14654772D01*
X3668158Y-14654772D02*
X3649110Y-14664296D01*
X3649110Y-14664296D02*
X3630062Y-14664296D01*
X3630062Y-14664296D02*
X3611015Y-14654772D01*
X3611015Y-14654772D02*
X3601491Y-14645249D01*
X3601491Y-14645249D02*
X3591967Y-14626201D01*
X3591967Y-14626201D02*
X3582443Y-14588106D01*
X3582443Y-14588106D02*
X3582443Y-14540487D01*
X3582443Y-14540487D02*
X3591967Y-14502391D01*
X3591967Y-14502391D02*
X3601491Y-14483344D01*
X3601491Y-14483344D02*
X3611015Y-14473820D01*
X3611015Y-14473820D02*
X3630062Y-14464296D01*
X3820539Y-14464296D02*
X3839586Y-14464296D01*
X3839586Y-14464296D02*
X3858634Y-14473820D01*
X3858634Y-14473820D02*
X3868158Y-14483344D01*
X3868158Y-14483344D02*
X3877682Y-14502391D01*
X3877682Y-14502391D02*
X3887205Y-14540487D01*
X3887205Y-14540487D02*
X3887205Y-14588106D01*
X3887205Y-14588106D02*
X3877682Y-14626201D01*
X3877682Y-14626201D02*
X3868158Y-14645249D01*
X3868158Y-14645249D02*
X3858634Y-14654772D01*
X3858634Y-14654772D02*
X3839586Y-14664296D01*
X3839586Y-14664296D02*
X3820539Y-14664296D01*
X3820539Y-14664296D02*
X3801491Y-14654772D01*
X3801491Y-14654772D02*
X3791967Y-14645249D01*
X3791967Y-14645249D02*
X3782443Y-14626201D01*
X3782443Y-14626201D02*
X3772920Y-14588106D01*
X3772920Y-14588106D02*
X3772920Y-14540487D01*
X3772920Y-14540487D02*
X3782443Y-14502391D01*
X3782443Y-14502391D02*
X3791967Y-14483344D01*
X3791967Y-14483344D02*
X3801491Y-14473820D01*
X3801491Y-14473820D02*
X3820539Y-14464296D01*
X3972920Y-14664296D02*
X3972920Y-14530963D01*
X3972920Y-14550010D02*
X3982443Y-14540487D01*
X3982443Y-14540487D02*
X4001491Y-14530963D01*
X4001491Y-14530963D02*
X4030063Y-14530963D01*
X4030063Y-14530963D02*
X4049110Y-14540487D01*
X4049110Y-14540487D02*
X4058634Y-14559534D01*
X4058634Y-14559534D02*
X4058634Y-14664296D01*
X4058634Y-14559534D02*
X4068158Y-14540487D01*
X4068158Y-14540487D02*
X4087205Y-14530963D01*
X4087205Y-14530963D02*
X4115777Y-14530963D01*
X4115777Y-14530963D02*
X4134824Y-14540487D01*
X4134824Y-14540487D02*
X4144348Y-14559534D01*
X4144348Y-14559534D02*
X4144348Y-14664296D01*
X4239586Y-14664296D02*
X4239586Y-14530963D01*
X4239586Y-14550010D02*
X4249110Y-14540487D01*
X4249110Y-14540487D02*
X4268158Y-14530963D01*
X4268158Y-14530963D02*
X4296729Y-14530963D01*
X4296729Y-14530963D02*
X4315777Y-14540487D01*
X4315777Y-14540487D02*
X4325301Y-14559534D01*
X4325301Y-14559534D02*
X4325301Y-14664296D01*
X4325301Y-14559534D02*
X4334825Y-14540487D01*
X4334825Y-14540487D02*
X4353872Y-14530963D01*
X4353872Y-14530963D02*
X4382444Y-14530963D01*
X4382444Y-14530963D02*
X4401491Y-14540487D01*
X4401491Y-14540487D02*
X4411015Y-14559534D01*
X4411015Y-14559534D02*
X4411015Y-14664296D01*
X4801491Y-14454772D02*
X4630063Y-14711915D01*
X5058634Y-14464296D02*
X5077682Y-14464296D01*
X5077682Y-14464296D02*
X5096729Y-14473820D01*
X5096729Y-14473820D02*
X5106253Y-14483344D01*
X5106253Y-14483344D02*
X5115777Y-14502391D01*
X5115777Y-14502391D02*
X5125301Y-14540487D01*
X5125301Y-14540487D02*
X5125301Y-14588106D01*
X5125301Y-14588106D02*
X5115777Y-14626201D01*
X5115777Y-14626201D02*
X5106253Y-14645249D01*
X5106253Y-14645249D02*
X5096729Y-14654772D01*
X5096729Y-14654772D02*
X5077682Y-14664296D01*
X5077682Y-14664296D02*
X5058634Y-14664296D01*
X5058634Y-14664296D02*
X5039587Y-14654772D01*
X5039587Y-14654772D02*
X5030063Y-14645249D01*
X5030063Y-14645249D02*
X5020539Y-14626201D01*
X5020539Y-14626201D02*
X5011015Y-14588106D01*
X5011015Y-14588106D02*
X5011015Y-14540487D01*
X5011015Y-14540487D02*
X5020539Y-14502391D01*
X5020539Y-14502391D02*
X5030063Y-14483344D01*
X5030063Y-14483344D02*
X5039587Y-14473820D01*
X5039587Y-14473820D02*
X5058634Y-14464296D01*
X5211015Y-14645249D02*
X5220539Y-14654772D01*
X5220539Y-14654772D02*
X5211015Y-14664296D01*
X5211015Y-14664296D02*
X5201491Y-14654772D01*
X5201491Y-14654772D02*
X5211015Y-14645249D01*
X5211015Y-14645249D02*
X5211015Y-14664296D01*
X5344348Y-14464296D02*
X5363396Y-14464296D01*
X5363396Y-14464296D02*
X5382444Y-14473820D01*
X5382444Y-14473820D02*
X5391968Y-14483344D01*
X5391968Y-14483344D02*
X5401491Y-14502391D01*
X5401491Y-14502391D02*
X5411015Y-14540487D01*
X5411015Y-14540487D02*
X5411015Y-14588106D01*
X5411015Y-14588106D02*
X5401491Y-14626201D01*
X5401491Y-14626201D02*
X5391968Y-14645249D01*
X5391968Y-14645249D02*
X5382444Y-14654772D01*
X5382444Y-14654772D02*
X5363396Y-14664296D01*
X5363396Y-14664296D02*
X5344348Y-14664296D01*
X5344348Y-14664296D02*
X5325301Y-14654772D01*
X5325301Y-14654772D02*
X5315777Y-14645249D01*
X5315777Y-14645249D02*
X5306253Y-14626201D01*
X5306253Y-14626201D02*
X5296729Y-14588106D01*
X5296729Y-14588106D02*
X5296729Y-14540487D01*
X5296729Y-14540487D02*
X5306253Y-14502391D01*
X5306253Y-14502391D02*
X5315777Y-14483344D01*
X5315777Y-14483344D02*
X5325301Y-14473820D01*
X5325301Y-14473820D02*
X5344348Y-14464296D01*
X5591968Y-14464296D02*
X5496729Y-14464296D01*
X5496729Y-14464296D02*
X5487206Y-14559534D01*
X5487206Y-14559534D02*
X5496729Y-14550010D01*
X5496729Y-14550010D02*
X5515777Y-14540487D01*
X5515777Y-14540487D02*
X5563396Y-14540487D01*
X5563396Y-14540487D02*
X5582444Y-14550010D01*
X5582444Y-14550010D02*
X5591968Y-14559534D01*
X5591968Y-14559534D02*
X5601491Y-14578582D01*
X5601491Y-14578582D02*
X5601491Y-14626201D01*
X5601491Y-14626201D02*
X5591968Y-14645249D01*
X5591968Y-14645249D02*
X5582444Y-14654772D01*
X5582444Y-14654772D02*
X5563396Y-14664296D01*
X5563396Y-14664296D02*
X5515777Y-14664296D01*
X5515777Y-14664296D02*
X5496729Y-14654772D01*
X5496729Y-14654772D02*
X5487206Y-14645249D01*
X5696729Y-14664296D02*
X5734825Y-14664296D01*
X5734825Y-14664296D02*
X5753872Y-14654772D01*
X5753872Y-14654772D02*
X5763396Y-14645249D01*
X5763396Y-14645249D02*
X5782444Y-14616677D01*
X5782444Y-14616677D02*
X5791967Y-14578582D01*
X5791967Y-14578582D02*
X5791967Y-14502391D01*
X5791967Y-14502391D02*
X5782444Y-14483344D01*
X5782444Y-14483344D02*
X5772920Y-14473820D01*
X5772920Y-14473820D02*
X5753872Y-14464296D01*
X5753872Y-14464296D02*
X5715777Y-14464296D01*
X5715777Y-14464296D02*
X5696729Y-14473820D01*
X5696729Y-14473820D02*
X5687206Y-14483344D01*
X5687206Y-14483344D02*
X5677682Y-14502391D01*
X5677682Y-14502391D02*
X5677682Y-14550010D01*
X5677682Y-14550010D02*
X5687206Y-14569058D01*
X5687206Y-14569058D02*
X5696729Y-14578582D01*
X5696729Y-14578582D02*
X5715777Y-14588106D01*
X5715777Y-14588106D02*
X5753872Y-14588106D01*
X5753872Y-14588106D02*
X5772920Y-14578582D01*
X5772920Y-14578582D02*
X5782444Y-14569058D01*
X5782444Y-14569058D02*
X5791967Y-14550010D01*
X5982444Y-14664296D02*
X5868158Y-14664296D01*
X5925301Y-14664296D02*
X5925301Y-14464296D01*
X5925301Y-14464296D02*
X5906253Y-14492868D01*
X5906253Y-14492868D02*
X5887206Y-14511915D01*
X5887206Y-14511915D02*
X5868158Y-14521439D01*
X6058634Y-14464296D02*
X6058634Y-14502391D01*
X6134825Y-14464296D02*
X6134825Y-14502391D01*
X6430063Y-14740487D02*
X6420539Y-14730963D01*
X6420539Y-14730963D02*
X6401491Y-14702391D01*
X6401491Y-14702391D02*
X6391968Y-14683344D01*
X6391968Y-14683344D02*
X6382444Y-14654772D01*
X6382444Y-14654772D02*
X6372920Y-14607153D01*
X6372920Y-14607153D02*
X6372920Y-14569058D01*
X6372920Y-14569058D02*
X6382444Y-14521439D01*
X6382444Y-14521439D02*
X6391968Y-14492868D01*
X6391968Y-14492868D02*
X6401491Y-14473820D01*
X6401491Y-14473820D02*
X6420539Y-14445249D01*
X6420539Y-14445249D02*
X6430063Y-14435725D01*
X6496729Y-14483344D02*
X6506253Y-14473820D01*
X6506253Y-14473820D02*
X6525301Y-14464296D01*
X6525301Y-14464296D02*
X6572920Y-14464296D01*
X6572920Y-14464296D02*
X6591968Y-14473820D01*
X6591968Y-14473820D02*
X6601491Y-14483344D01*
X6601491Y-14483344D02*
X6611015Y-14502391D01*
X6611015Y-14502391D02*
X6611015Y-14521439D01*
X6611015Y-14521439D02*
X6601491Y-14550010D01*
X6601491Y-14550010D02*
X6487206Y-14664296D01*
X6487206Y-14664296D02*
X6611015Y-14664296D01*
X6849110Y-14664296D02*
X6849110Y-14464296D01*
X6934825Y-14664296D02*
X6934825Y-14559534D01*
X6934825Y-14559534D02*
X6925301Y-14540487D01*
X6925301Y-14540487D02*
X6906253Y-14530963D01*
X6906253Y-14530963D02*
X6877682Y-14530963D01*
X6877682Y-14530963D02*
X6858634Y-14540487D01*
X6858634Y-14540487D02*
X6849110Y-14550010D01*
X7058634Y-14664296D02*
X7039587Y-14654772D01*
X7039587Y-14654772D02*
X7030063Y-14645249D01*
X7030063Y-14645249D02*
X7020539Y-14626201D01*
X7020539Y-14626201D02*
X7020539Y-14569058D01*
X7020539Y-14569058D02*
X7030063Y-14550010D01*
X7030063Y-14550010D02*
X7039587Y-14540487D01*
X7039587Y-14540487D02*
X7058634Y-14530963D01*
X7058634Y-14530963D02*
X7087206Y-14530963D01*
X7087206Y-14530963D02*
X7106253Y-14540487D01*
X7106253Y-14540487D02*
X7115777Y-14550010D01*
X7115777Y-14550010D02*
X7125301Y-14569058D01*
X7125301Y-14569058D02*
X7125301Y-14626201D01*
X7125301Y-14626201D02*
X7115777Y-14645249D01*
X7115777Y-14645249D02*
X7106253Y-14654772D01*
X7106253Y-14654772D02*
X7087206Y-14664296D01*
X7087206Y-14664296D02*
X7058634Y-14664296D01*
X7239587Y-14664296D02*
X7220539Y-14654772D01*
X7220539Y-14654772D02*
X7211015Y-14635725D01*
X7211015Y-14635725D02*
X7211015Y-14464296D01*
X7391968Y-14654772D02*
X7372920Y-14664296D01*
X7372920Y-14664296D02*
X7334825Y-14664296D01*
X7334825Y-14664296D02*
X7315777Y-14654772D01*
X7315777Y-14654772D02*
X7306253Y-14635725D01*
X7306253Y-14635725D02*
X7306253Y-14559534D01*
X7306253Y-14559534D02*
X7315777Y-14540487D01*
X7315777Y-14540487D02*
X7334825Y-14530963D01*
X7334825Y-14530963D02*
X7372920Y-14530963D01*
X7372920Y-14530963D02*
X7391968Y-14540487D01*
X7391968Y-14540487D02*
X7401491Y-14559534D01*
X7401491Y-14559534D02*
X7401491Y-14578582D01*
X7401491Y-14578582D02*
X7306253Y-14597630D01*
X7477682Y-14654772D02*
X7496730Y-14664296D01*
X7496730Y-14664296D02*
X7534825Y-14664296D01*
X7534825Y-14664296D02*
X7553872Y-14654772D01*
X7553872Y-14654772D02*
X7563396Y-14635725D01*
X7563396Y-14635725D02*
X7563396Y-14626201D01*
X7563396Y-14626201D02*
X7553872Y-14607153D01*
X7553872Y-14607153D02*
X7534825Y-14597630D01*
X7534825Y-14597630D02*
X7506253Y-14597630D01*
X7506253Y-14597630D02*
X7487206Y-14588106D01*
X7487206Y-14588106D02*
X7477682Y-14569058D01*
X7477682Y-14569058D02*
X7477682Y-14559534D01*
X7477682Y-14559534D02*
X7487206Y-14540487D01*
X7487206Y-14540487D02*
X7506253Y-14530963D01*
X7506253Y-14530963D02*
X7534825Y-14530963D01*
X7534825Y-14530963D02*
X7553872Y-14540487D01*
X7630063Y-14740487D02*
X7639587Y-14730963D01*
X7639587Y-14730963D02*
X7658634Y-14702391D01*
X7658634Y-14702391D02*
X7668158Y-14683344D01*
X7668158Y-14683344D02*
X7677682Y-14654772D01*
X7677682Y-14654772D02*
X7687206Y-14607153D01*
X7687206Y-14607153D02*
X7687206Y-14569058D01*
X7687206Y-14569058D02*
X7677682Y-14521439D01*
X7677682Y-14521439D02*
X7668158Y-14492868D01*
X7668158Y-14492868D02*
X7658634Y-14473820D01*
X7658634Y-14473820D02*
X7639587Y-14445249D01*
X7639587Y-14445249D02*
X7630063Y-14435725D01*
X7991968Y-14740487D02*
X7982444Y-14730963D01*
X7982444Y-14730963D02*
X7963396Y-14702391D01*
X7963396Y-14702391D02*
X7953872Y-14683344D01*
X7953872Y-14683344D02*
X7944349Y-14654772D01*
X7944349Y-14654772D02*
X7934825Y-14607153D01*
X7934825Y-14607153D02*
X7934825Y-14569058D01*
X7934825Y-14569058D02*
X7944349Y-14521439D01*
X7944349Y-14521439D02*
X7953872Y-14492868D01*
X7953872Y-14492868D02*
X7963396Y-14473820D01*
X7963396Y-14473820D02*
X7982444Y-14445249D01*
X7982444Y-14445249D02*
X7991968Y-14435725D01*
X8068158Y-14530963D02*
X8068158Y-14664296D01*
X8068158Y-14550010D02*
X8077682Y-14540487D01*
X8077682Y-14540487D02*
X8096730Y-14530963D01*
X8096730Y-14530963D02*
X8125301Y-14530963D01*
X8125301Y-14530963D02*
X8144349Y-14540487D01*
X8144349Y-14540487D02*
X8153872Y-14559534D01*
X8153872Y-14559534D02*
X8153872Y-14664296D01*
X8277682Y-14664296D02*
X8258634Y-14654772D01*
X8258634Y-14654772D02*
X8249111Y-14645249D01*
X8249111Y-14645249D02*
X8239587Y-14626201D01*
X8239587Y-14626201D02*
X8239587Y-14569058D01*
X8239587Y-14569058D02*
X8249111Y-14550010D01*
X8249111Y-14550010D02*
X8258634Y-14540487D01*
X8258634Y-14540487D02*
X8277682Y-14530963D01*
X8277682Y-14530963D02*
X8306253Y-14530963D01*
X8306253Y-14530963D02*
X8325301Y-14540487D01*
X8325301Y-14540487D02*
X8334825Y-14550010D01*
X8334825Y-14550010D02*
X8344349Y-14569058D01*
X8344349Y-14569058D02*
X8344349Y-14626201D01*
X8344349Y-14626201D02*
X8334825Y-14645249D01*
X8334825Y-14645249D02*
X8325301Y-14654772D01*
X8325301Y-14654772D02*
X8306253Y-14664296D01*
X8306253Y-14664296D02*
X8277682Y-14664296D01*
X8401492Y-14530963D02*
X8477682Y-14530963D01*
X8430063Y-14464296D02*
X8430063Y-14635725D01*
X8430063Y-14635725D02*
X8439587Y-14654772D01*
X8439587Y-14654772D02*
X8458634Y-14664296D01*
X8458634Y-14664296D02*
X8477682Y-14664296D01*
X8696730Y-14530963D02*
X8696730Y-14730963D01*
X8696730Y-14540487D02*
X8715777Y-14530963D01*
X8715777Y-14530963D02*
X8753873Y-14530963D01*
X8753873Y-14530963D02*
X8772920Y-14540487D01*
X8772920Y-14540487D02*
X8782444Y-14550010D01*
X8782444Y-14550010D02*
X8791968Y-14569058D01*
X8791968Y-14569058D02*
X8791968Y-14626201D01*
X8791968Y-14626201D02*
X8782444Y-14645249D01*
X8782444Y-14645249D02*
X8772920Y-14654772D01*
X8772920Y-14654772D02*
X8753873Y-14664296D01*
X8753873Y-14664296D02*
X8715777Y-14664296D01*
X8715777Y-14664296D02*
X8696730Y-14654772D01*
X8906254Y-14664296D02*
X8887206Y-14654772D01*
X8887206Y-14654772D02*
X8877682Y-14635725D01*
X8877682Y-14635725D02*
X8877682Y-14464296D01*
X9068158Y-14664296D02*
X9068158Y-14559534D01*
X9068158Y-14559534D02*
X9058635Y-14540487D01*
X9058635Y-14540487D02*
X9039587Y-14530963D01*
X9039587Y-14530963D02*
X9001492Y-14530963D01*
X9001492Y-14530963D02*
X8982444Y-14540487D01*
X9068158Y-14654772D02*
X9049111Y-14664296D01*
X9049111Y-14664296D02*
X9001492Y-14664296D01*
X9001492Y-14664296D02*
X8982444Y-14654772D01*
X8982444Y-14654772D02*
X8972920Y-14635725D01*
X8972920Y-14635725D02*
X8972920Y-14616677D01*
X8972920Y-14616677D02*
X8982444Y-14597630D01*
X8982444Y-14597630D02*
X9001492Y-14588106D01*
X9001492Y-14588106D02*
X9049111Y-14588106D01*
X9049111Y-14588106D02*
X9068158Y-14578582D01*
X9134825Y-14530963D02*
X9211015Y-14530963D01*
X9163396Y-14464296D02*
X9163396Y-14635725D01*
X9163396Y-14635725D02*
X9172920Y-14654772D01*
X9172920Y-14654772D02*
X9191968Y-14664296D01*
X9191968Y-14664296D02*
X9211015Y-14664296D01*
X9353873Y-14654772D02*
X9334825Y-14664296D01*
X9334825Y-14664296D02*
X9296730Y-14664296D01*
X9296730Y-14664296D02*
X9277682Y-14654772D01*
X9277682Y-14654772D02*
X9268158Y-14635725D01*
X9268158Y-14635725D02*
X9268158Y-14559534D01*
X9268158Y-14559534D02*
X9277682Y-14540487D01*
X9277682Y-14540487D02*
X9296730Y-14530963D01*
X9296730Y-14530963D02*
X9334825Y-14530963D01*
X9334825Y-14530963D02*
X9353873Y-14540487D01*
X9353873Y-14540487D02*
X9363396Y-14559534D01*
X9363396Y-14559534D02*
X9363396Y-14578582D01*
X9363396Y-14578582D02*
X9268158Y-14597630D01*
X9534825Y-14664296D02*
X9534825Y-14464296D01*
X9534825Y-14654772D02*
X9515777Y-14664296D01*
X9515777Y-14664296D02*
X9477682Y-14664296D01*
X9477682Y-14664296D02*
X9458635Y-14654772D01*
X9458635Y-14654772D02*
X9449111Y-14645249D01*
X9449111Y-14645249D02*
X9439587Y-14626201D01*
X9439587Y-14626201D02*
X9439587Y-14569058D01*
X9439587Y-14569058D02*
X9449111Y-14550010D01*
X9449111Y-14550010D02*
X9458635Y-14540487D01*
X9458635Y-14540487D02*
X9477682Y-14530963D01*
X9477682Y-14530963D02*
X9515777Y-14530963D01*
X9515777Y-14530963D02*
X9534825Y-14540487D01*
X9611016Y-14740487D02*
X9620539Y-14730963D01*
X9620539Y-14730963D02*
X9639587Y-14702391D01*
X9639587Y-14702391D02*
X9649111Y-14683344D01*
X9649111Y-14683344D02*
X9658635Y-14654772D01*
X9658635Y-14654772D02*
X9668158Y-14607153D01*
X9668158Y-14607153D02*
X9668158Y-14569058D01*
X9668158Y-14569058D02*
X9658635Y-14521439D01*
X9658635Y-14521439D02*
X9649111Y-14492868D01*
X9649111Y-14492868D02*
X9639587Y-14473820D01*
X9639587Y-14473820D02*
X9620539Y-14445249D01*
X9620539Y-14445249D02*
X9611016Y-14435725D01*
D14*
X2855000Y-14842812D02*
G75*
G02*
X2685000Y-14842812I-85000J0D01*
G01*
X2685000Y-14842812D02*
G75*
G02*
X2855000Y-14842812I85000J0D01*
G01*
D12*
X3220539Y-14934296D02*
X3106253Y-14934296D01*
X3163396Y-14934296D02*
X3163396Y-14734296D01*
X3163396Y-14734296D02*
X3144348Y-14762868D01*
X3144348Y-14762868D02*
X3125301Y-14781915D01*
X3125301Y-14781915D02*
X3106253Y-14791439D01*
X3306253Y-14915249D02*
X3315777Y-14924772D01*
X3315777Y-14924772D02*
X3306253Y-14934296D01*
X3306253Y-14934296D02*
X3296729Y-14924772D01*
X3296729Y-14924772D02*
X3306253Y-14915249D01*
X3306253Y-14915249D02*
X3306253Y-14934296D01*
X3382443Y-14734296D02*
X3515777Y-14734296D01*
X3515777Y-14734296D02*
X3430062Y-14934296D01*
X3630062Y-14734296D02*
X3649110Y-14734296D01*
X3649110Y-14734296D02*
X3668158Y-14743820D01*
X3668158Y-14743820D02*
X3677682Y-14753344D01*
X3677682Y-14753344D02*
X3687205Y-14772391D01*
X3687205Y-14772391D02*
X3696729Y-14810487D01*
X3696729Y-14810487D02*
X3696729Y-14858106D01*
X3696729Y-14858106D02*
X3687205Y-14896201D01*
X3687205Y-14896201D02*
X3677682Y-14915249D01*
X3677682Y-14915249D02*
X3668158Y-14924772D01*
X3668158Y-14924772D02*
X3649110Y-14934296D01*
X3649110Y-14934296D02*
X3630062Y-14934296D01*
X3630062Y-14934296D02*
X3611015Y-14924772D01*
X3611015Y-14924772D02*
X3601491Y-14915249D01*
X3601491Y-14915249D02*
X3591967Y-14896201D01*
X3591967Y-14896201D02*
X3582443Y-14858106D01*
X3582443Y-14858106D02*
X3582443Y-14810487D01*
X3582443Y-14810487D02*
X3591967Y-14772391D01*
X3591967Y-14772391D02*
X3601491Y-14753344D01*
X3601491Y-14753344D02*
X3611015Y-14743820D01*
X3611015Y-14743820D02*
X3630062Y-14734296D01*
X3820539Y-14734296D02*
X3839586Y-14734296D01*
X3839586Y-14734296D02*
X3858634Y-14743820D01*
X3858634Y-14743820D02*
X3868158Y-14753344D01*
X3868158Y-14753344D02*
X3877682Y-14772391D01*
X3877682Y-14772391D02*
X3887205Y-14810487D01*
X3887205Y-14810487D02*
X3887205Y-14858106D01*
X3887205Y-14858106D02*
X3877682Y-14896201D01*
X3877682Y-14896201D02*
X3868158Y-14915249D01*
X3868158Y-14915249D02*
X3858634Y-14924772D01*
X3858634Y-14924772D02*
X3839586Y-14934296D01*
X3839586Y-14934296D02*
X3820539Y-14934296D01*
X3820539Y-14934296D02*
X3801491Y-14924772D01*
X3801491Y-14924772D02*
X3791967Y-14915249D01*
X3791967Y-14915249D02*
X3782443Y-14896201D01*
X3782443Y-14896201D02*
X3772920Y-14858106D01*
X3772920Y-14858106D02*
X3772920Y-14810487D01*
X3772920Y-14810487D02*
X3782443Y-14772391D01*
X3782443Y-14772391D02*
X3791967Y-14753344D01*
X3791967Y-14753344D02*
X3801491Y-14743820D01*
X3801491Y-14743820D02*
X3820539Y-14734296D01*
X3972920Y-14934296D02*
X3972920Y-14800963D01*
X3972920Y-14820010D02*
X3982443Y-14810487D01*
X3982443Y-14810487D02*
X4001491Y-14800963D01*
X4001491Y-14800963D02*
X4030063Y-14800963D01*
X4030063Y-14800963D02*
X4049110Y-14810487D01*
X4049110Y-14810487D02*
X4058634Y-14829534D01*
X4058634Y-14829534D02*
X4058634Y-14934296D01*
X4058634Y-14829534D02*
X4068158Y-14810487D01*
X4068158Y-14810487D02*
X4087205Y-14800963D01*
X4087205Y-14800963D02*
X4115777Y-14800963D01*
X4115777Y-14800963D02*
X4134824Y-14810487D01*
X4134824Y-14810487D02*
X4144348Y-14829534D01*
X4144348Y-14829534D02*
X4144348Y-14934296D01*
X4239586Y-14934296D02*
X4239586Y-14800963D01*
X4239586Y-14820010D02*
X4249110Y-14810487D01*
X4249110Y-14810487D02*
X4268158Y-14800963D01*
X4268158Y-14800963D02*
X4296729Y-14800963D01*
X4296729Y-14800963D02*
X4315777Y-14810487D01*
X4315777Y-14810487D02*
X4325301Y-14829534D01*
X4325301Y-14829534D02*
X4325301Y-14934296D01*
X4325301Y-14829534D02*
X4334825Y-14810487D01*
X4334825Y-14810487D02*
X4353872Y-14800963D01*
X4353872Y-14800963D02*
X4382444Y-14800963D01*
X4382444Y-14800963D02*
X4401491Y-14810487D01*
X4401491Y-14810487D02*
X4411015Y-14829534D01*
X4411015Y-14829534D02*
X4411015Y-14934296D01*
X4801491Y-14724772D02*
X4630063Y-14981915D01*
X5058634Y-14734296D02*
X5077682Y-14734296D01*
X5077682Y-14734296D02*
X5096729Y-14743820D01*
X5096729Y-14743820D02*
X5106253Y-14753344D01*
X5106253Y-14753344D02*
X5115777Y-14772391D01*
X5115777Y-14772391D02*
X5125301Y-14810487D01*
X5125301Y-14810487D02*
X5125301Y-14858106D01*
X5125301Y-14858106D02*
X5115777Y-14896201D01*
X5115777Y-14896201D02*
X5106253Y-14915249D01*
X5106253Y-14915249D02*
X5096729Y-14924772D01*
X5096729Y-14924772D02*
X5077682Y-14934296D01*
X5077682Y-14934296D02*
X5058634Y-14934296D01*
X5058634Y-14934296D02*
X5039587Y-14924772D01*
X5039587Y-14924772D02*
X5030063Y-14915249D01*
X5030063Y-14915249D02*
X5020539Y-14896201D01*
X5020539Y-14896201D02*
X5011015Y-14858106D01*
X5011015Y-14858106D02*
X5011015Y-14810487D01*
X5011015Y-14810487D02*
X5020539Y-14772391D01*
X5020539Y-14772391D02*
X5030063Y-14753344D01*
X5030063Y-14753344D02*
X5039587Y-14743820D01*
X5039587Y-14743820D02*
X5058634Y-14734296D01*
X5211015Y-14915249D02*
X5220539Y-14924772D01*
X5220539Y-14924772D02*
X5211015Y-14934296D01*
X5211015Y-14934296D02*
X5201491Y-14924772D01*
X5201491Y-14924772D02*
X5211015Y-14915249D01*
X5211015Y-14915249D02*
X5211015Y-14934296D01*
X5344348Y-14734296D02*
X5363396Y-14734296D01*
X5363396Y-14734296D02*
X5382444Y-14743820D01*
X5382444Y-14743820D02*
X5391968Y-14753344D01*
X5391968Y-14753344D02*
X5401491Y-14772391D01*
X5401491Y-14772391D02*
X5411015Y-14810487D01*
X5411015Y-14810487D02*
X5411015Y-14858106D01*
X5411015Y-14858106D02*
X5401491Y-14896201D01*
X5401491Y-14896201D02*
X5391968Y-14915249D01*
X5391968Y-14915249D02*
X5382444Y-14924772D01*
X5382444Y-14924772D02*
X5363396Y-14934296D01*
X5363396Y-14934296D02*
X5344348Y-14934296D01*
X5344348Y-14934296D02*
X5325301Y-14924772D01*
X5325301Y-14924772D02*
X5315777Y-14915249D01*
X5315777Y-14915249D02*
X5306253Y-14896201D01*
X5306253Y-14896201D02*
X5296729Y-14858106D01*
X5296729Y-14858106D02*
X5296729Y-14810487D01*
X5296729Y-14810487D02*
X5306253Y-14772391D01*
X5306253Y-14772391D02*
X5315777Y-14753344D01*
X5315777Y-14753344D02*
X5325301Y-14743820D01*
X5325301Y-14743820D02*
X5344348Y-14734296D01*
X5582444Y-14734296D02*
X5544348Y-14734296D01*
X5544348Y-14734296D02*
X5525301Y-14743820D01*
X5525301Y-14743820D02*
X5515777Y-14753344D01*
X5515777Y-14753344D02*
X5496729Y-14781915D01*
X5496729Y-14781915D02*
X5487206Y-14820010D01*
X5487206Y-14820010D02*
X5487206Y-14896201D01*
X5487206Y-14896201D02*
X5496729Y-14915249D01*
X5496729Y-14915249D02*
X5506253Y-14924772D01*
X5506253Y-14924772D02*
X5525301Y-14934296D01*
X5525301Y-14934296D02*
X5563396Y-14934296D01*
X5563396Y-14934296D02*
X5582444Y-14924772D01*
X5582444Y-14924772D02*
X5591968Y-14915249D01*
X5591968Y-14915249D02*
X5601491Y-14896201D01*
X5601491Y-14896201D02*
X5601491Y-14848582D01*
X5601491Y-14848582D02*
X5591968Y-14829534D01*
X5591968Y-14829534D02*
X5582444Y-14820010D01*
X5582444Y-14820010D02*
X5563396Y-14810487D01*
X5563396Y-14810487D02*
X5525301Y-14810487D01*
X5525301Y-14810487D02*
X5506253Y-14820010D01*
X5506253Y-14820010D02*
X5496729Y-14829534D01*
X5496729Y-14829534D02*
X5487206Y-14848582D01*
X5772920Y-14734296D02*
X5734825Y-14734296D01*
X5734825Y-14734296D02*
X5715777Y-14743820D01*
X5715777Y-14743820D02*
X5706253Y-14753344D01*
X5706253Y-14753344D02*
X5687206Y-14781915D01*
X5687206Y-14781915D02*
X5677682Y-14820010D01*
X5677682Y-14820010D02*
X5677682Y-14896201D01*
X5677682Y-14896201D02*
X5687206Y-14915249D01*
X5687206Y-14915249D02*
X5696729Y-14924772D01*
X5696729Y-14924772D02*
X5715777Y-14934296D01*
X5715777Y-14934296D02*
X5753872Y-14934296D01*
X5753872Y-14934296D02*
X5772920Y-14924772D01*
X5772920Y-14924772D02*
X5782444Y-14915249D01*
X5782444Y-14915249D02*
X5791967Y-14896201D01*
X5791967Y-14896201D02*
X5791967Y-14848582D01*
X5791967Y-14848582D02*
X5782444Y-14829534D01*
X5782444Y-14829534D02*
X5772920Y-14820010D01*
X5772920Y-14820010D02*
X5753872Y-14810487D01*
X5753872Y-14810487D02*
X5715777Y-14810487D01*
X5715777Y-14810487D02*
X5696729Y-14820010D01*
X5696729Y-14820010D02*
X5687206Y-14829534D01*
X5687206Y-14829534D02*
X5677682Y-14848582D01*
X5887206Y-14934296D02*
X5925301Y-14934296D01*
X5925301Y-14934296D02*
X5944348Y-14924772D01*
X5944348Y-14924772D02*
X5953872Y-14915249D01*
X5953872Y-14915249D02*
X5972920Y-14886677D01*
X5972920Y-14886677D02*
X5982444Y-14848582D01*
X5982444Y-14848582D02*
X5982444Y-14772391D01*
X5982444Y-14772391D02*
X5972920Y-14753344D01*
X5972920Y-14753344D02*
X5963396Y-14743820D01*
X5963396Y-14743820D02*
X5944348Y-14734296D01*
X5944348Y-14734296D02*
X5906253Y-14734296D01*
X5906253Y-14734296D02*
X5887206Y-14743820D01*
X5887206Y-14743820D02*
X5877682Y-14753344D01*
X5877682Y-14753344D02*
X5868158Y-14772391D01*
X5868158Y-14772391D02*
X5868158Y-14820010D01*
X5868158Y-14820010D02*
X5877682Y-14839058D01*
X5877682Y-14839058D02*
X5887206Y-14848582D01*
X5887206Y-14848582D02*
X5906253Y-14858106D01*
X5906253Y-14858106D02*
X5944348Y-14858106D01*
X5944348Y-14858106D02*
X5963396Y-14848582D01*
X5963396Y-14848582D02*
X5972920Y-14839058D01*
X5972920Y-14839058D02*
X5982444Y-14820010D01*
X6058634Y-14734296D02*
X6058634Y-14772391D01*
X6134825Y-14734296D02*
X6134825Y-14772391D01*
X6430063Y-15010487D02*
X6420539Y-15000963D01*
X6420539Y-15000963D02*
X6401491Y-14972391D01*
X6401491Y-14972391D02*
X6391968Y-14953344D01*
X6391968Y-14953344D02*
X6382444Y-14924772D01*
X6382444Y-14924772D02*
X6372920Y-14877153D01*
X6372920Y-14877153D02*
X6372920Y-14839058D01*
X6372920Y-14839058D02*
X6382444Y-14791439D01*
X6382444Y-14791439D02*
X6391968Y-14762868D01*
X6391968Y-14762868D02*
X6401491Y-14743820D01*
X6401491Y-14743820D02*
X6420539Y-14715249D01*
X6420539Y-14715249D02*
X6430063Y-14705725D01*
X6601491Y-14734296D02*
X6506253Y-14734296D01*
X6506253Y-14734296D02*
X6496729Y-14829534D01*
X6496729Y-14829534D02*
X6506253Y-14820010D01*
X6506253Y-14820010D02*
X6525301Y-14810487D01*
X6525301Y-14810487D02*
X6572920Y-14810487D01*
X6572920Y-14810487D02*
X6591968Y-14820010D01*
X6591968Y-14820010D02*
X6601491Y-14829534D01*
X6601491Y-14829534D02*
X6611015Y-14848582D01*
X6611015Y-14848582D02*
X6611015Y-14896201D01*
X6611015Y-14896201D02*
X6601491Y-14915249D01*
X6601491Y-14915249D02*
X6591968Y-14924772D01*
X6591968Y-14924772D02*
X6572920Y-14934296D01*
X6572920Y-14934296D02*
X6525301Y-14934296D01*
X6525301Y-14934296D02*
X6506253Y-14924772D01*
X6506253Y-14924772D02*
X6496729Y-14915249D01*
X6782444Y-14800963D02*
X6782444Y-14934296D01*
X6734825Y-14724772D02*
X6687206Y-14867630D01*
X6687206Y-14867630D02*
X6811015Y-14867630D01*
X7039587Y-14934296D02*
X7039587Y-14734296D01*
X7125301Y-14934296D02*
X7125301Y-14829534D01*
X7125301Y-14829534D02*
X7115777Y-14810487D01*
X7115777Y-14810487D02*
X7096730Y-14800963D01*
X7096730Y-14800963D02*
X7068158Y-14800963D01*
X7068158Y-14800963D02*
X7049110Y-14810487D01*
X7049110Y-14810487D02*
X7039587Y-14820010D01*
X7249110Y-14934296D02*
X7230063Y-14924772D01*
X7230063Y-14924772D02*
X7220539Y-14915249D01*
X7220539Y-14915249D02*
X7211015Y-14896201D01*
X7211015Y-14896201D02*
X7211015Y-14839058D01*
X7211015Y-14839058D02*
X7220539Y-14820010D01*
X7220539Y-14820010D02*
X7230063Y-14810487D01*
X7230063Y-14810487D02*
X7249110Y-14800963D01*
X7249110Y-14800963D02*
X7277682Y-14800963D01*
X7277682Y-14800963D02*
X7296730Y-14810487D01*
X7296730Y-14810487D02*
X7306253Y-14820010D01*
X7306253Y-14820010D02*
X7315777Y-14839058D01*
X7315777Y-14839058D02*
X7315777Y-14896201D01*
X7315777Y-14896201D02*
X7306253Y-14915249D01*
X7306253Y-14915249D02*
X7296730Y-14924772D01*
X7296730Y-14924772D02*
X7277682Y-14934296D01*
X7277682Y-14934296D02*
X7249110Y-14934296D01*
X7430063Y-14934296D02*
X7411015Y-14924772D01*
X7411015Y-14924772D02*
X7401491Y-14905725D01*
X7401491Y-14905725D02*
X7401491Y-14734296D01*
X7582444Y-14924772D02*
X7563396Y-14934296D01*
X7563396Y-14934296D02*
X7525301Y-14934296D01*
X7525301Y-14934296D02*
X7506253Y-14924772D01*
X7506253Y-14924772D02*
X7496730Y-14905725D01*
X7496730Y-14905725D02*
X7496730Y-14829534D01*
X7496730Y-14829534D02*
X7506253Y-14810487D01*
X7506253Y-14810487D02*
X7525301Y-14800963D01*
X7525301Y-14800963D02*
X7563396Y-14800963D01*
X7563396Y-14800963D02*
X7582444Y-14810487D01*
X7582444Y-14810487D02*
X7591968Y-14829534D01*
X7591968Y-14829534D02*
X7591968Y-14848582D01*
X7591968Y-14848582D02*
X7496730Y-14867630D01*
X7668158Y-14924772D02*
X7687206Y-14934296D01*
X7687206Y-14934296D02*
X7725301Y-14934296D01*
X7725301Y-14934296D02*
X7744349Y-14924772D01*
X7744349Y-14924772D02*
X7753872Y-14905725D01*
X7753872Y-14905725D02*
X7753872Y-14896201D01*
X7753872Y-14896201D02*
X7744349Y-14877153D01*
X7744349Y-14877153D02*
X7725301Y-14867630D01*
X7725301Y-14867630D02*
X7696730Y-14867630D01*
X7696730Y-14867630D02*
X7677682Y-14858106D01*
X7677682Y-14858106D02*
X7668158Y-14839058D01*
X7668158Y-14839058D02*
X7668158Y-14829534D01*
X7668158Y-14829534D02*
X7677682Y-14810487D01*
X7677682Y-14810487D02*
X7696730Y-14800963D01*
X7696730Y-14800963D02*
X7725301Y-14800963D01*
X7725301Y-14800963D02*
X7744349Y-14810487D01*
X7820539Y-15010487D02*
X7830063Y-15000963D01*
X7830063Y-15000963D02*
X7849111Y-14972391D01*
X7849111Y-14972391D02*
X7858634Y-14953344D01*
X7858634Y-14953344D02*
X7868158Y-14924772D01*
X7868158Y-14924772D02*
X7877682Y-14877153D01*
X7877682Y-14877153D02*
X7877682Y-14839058D01*
X7877682Y-14839058D02*
X7868158Y-14791439D01*
X7868158Y-14791439D02*
X7858634Y-14762868D01*
X7858634Y-14762868D02*
X7849111Y-14743820D01*
X7849111Y-14743820D02*
X7830063Y-14715249D01*
X7830063Y-14715249D02*
X7820539Y-14705725D01*
X8182444Y-15010487D02*
X8172920Y-15000963D01*
X8172920Y-15000963D02*
X8153872Y-14972391D01*
X8153872Y-14972391D02*
X8144349Y-14953344D01*
X8144349Y-14953344D02*
X8134825Y-14924772D01*
X8134825Y-14924772D02*
X8125301Y-14877153D01*
X8125301Y-14877153D02*
X8125301Y-14839058D01*
X8125301Y-14839058D02*
X8134825Y-14791439D01*
X8134825Y-14791439D02*
X8144349Y-14762868D01*
X8144349Y-14762868D02*
X8153872Y-14743820D01*
X8153872Y-14743820D02*
X8172920Y-14715249D01*
X8172920Y-14715249D02*
X8182444Y-14705725D01*
X8258634Y-14800963D02*
X8258634Y-14934296D01*
X8258634Y-14820010D02*
X8268158Y-14810487D01*
X8268158Y-14810487D02*
X8287206Y-14800963D01*
X8287206Y-14800963D02*
X8315777Y-14800963D01*
X8315777Y-14800963D02*
X8334825Y-14810487D01*
X8334825Y-14810487D02*
X8344349Y-14829534D01*
X8344349Y-14829534D02*
X8344349Y-14934296D01*
X8468158Y-14934296D02*
X8449111Y-14924772D01*
X8449111Y-14924772D02*
X8439587Y-14915249D01*
X8439587Y-14915249D02*
X8430063Y-14896201D01*
X8430063Y-14896201D02*
X8430063Y-14839058D01*
X8430063Y-14839058D02*
X8439587Y-14820010D01*
X8439587Y-14820010D02*
X8449111Y-14810487D01*
X8449111Y-14810487D02*
X8468158Y-14800963D01*
X8468158Y-14800963D02*
X8496730Y-14800963D01*
X8496730Y-14800963D02*
X8515777Y-14810487D01*
X8515777Y-14810487D02*
X8525301Y-14820010D01*
X8525301Y-14820010D02*
X8534825Y-14839058D01*
X8534825Y-14839058D02*
X8534825Y-14896201D01*
X8534825Y-14896201D02*
X8525301Y-14915249D01*
X8525301Y-14915249D02*
X8515777Y-14924772D01*
X8515777Y-14924772D02*
X8496730Y-14934296D01*
X8496730Y-14934296D02*
X8468158Y-14934296D01*
X8591968Y-14800963D02*
X8668158Y-14800963D01*
X8620539Y-14734296D02*
X8620539Y-14905725D01*
X8620539Y-14905725D02*
X8630063Y-14924772D01*
X8630063Y-14924772D02*
X8649111Y-14934296D01*
X8649111Y-14934296D02*
X8668158Y-14934296D01*
X8887206Y-14800963D02*
X8887206Y-15000963D01*
X8887206Y-14810487D02*
X8906254Y-14800963D01*
X8906254Y-14800963D02*
X8944349Y-14800963D01*
X8944349Y-14800963D02*
X8963396Y-14810487D01*
X8963396Y-14810487D02*
X8972920Y-14820010D01*
X8972920Y-14820010D02*
X8982444Y-14839058D01*
X8982444Y-14839058D02*
X8982444Y-14896201D01*
X8982444Y-14896201D02*
X8972920Y-14915249D01*
X8972920Y-14915249D02*
X8963396Y-14924772D01*
X8963396Y-14924772D02*
X8944349Y-14934296D01*
X8944349Y-14934296D02*
X8906254Y-14934296D01*
X8906254Y-14934296D02*
X8887206Y-14924772D01*
X9096730Y-14934296D02*
X9077682Y-14924772D01*
X9077682Y-14924772D02*
X9068158Y-14905725D01*
X9068158Y-14905725D02*
X9068158Y-14734296D01*
X9258635Y-14934296D02*
X9258635Y-14829534D01*
X9258635Y-14829534D02*
X9249111Y-14810487D01*
X9249111Y-14810487D02*
X9230063Y-14800963D01*
X9230063Y-14800963D02*
X9191968Y-14800963D01*
X9191968Y-14800963D02*
X9172920Y-14810487D01*
X9258635Y-14924772D02*
X9239587Y-14934296D01*
X9239587Y-14934296D02*
X9191968Y-14934296D01*
X9191968Y-14934296D02*
X9172920Y-14924772D01*
X9172920Y-14924772D02*
X9163396Y-14905725D01*
X9163396Y-14905725D02*
X9163396Y-14886677D01*
X9163396Y-14886677D02*
X9172920Y-14867630D01*
X9172920Y-14867630D02*
X9191968Y-14858106D01*
X9191968Y-14858106D02*
X9239587Y-14858106D01*
X9239587Y-14858106D02*
X9258635Y-14848582D01*
X9325301Y-14800963D02*
X9401492Y-14800963D01*
X9353873Y-14734296D02*
X9353873Y-14905725D01*
X9353873Y-14905725D02*
X9363396Y-14924772D01*
X9363396Y-14924772D02*
X9382444Y-14934296D01*
X9382444Y-14934296D02*
X9401492Y-14934296D01*
X9544349Y-14924772D02*
X9525301Y-14934296D01*
X9525301Y-14934296D02*
X9487206Y-14934296D01*
X9487206Y-14934296D02*
X9468158Y-14924772D01*
X9468158Y-14924772D02*
X9458635Y-14905725D01*
X9458635Y-14905725D02*
X9458635Y-14829534D01*
X9458635Y-14829534D02*
X9468158Y-14810487D01*
X9468158Y-14810487D02*
X9487206Y-14800963D01*
X9487206Y-14800963D02*
X9525301Y-14800963D01*
X9525301Y-14800963D02*
X9544349Y-14810487D01*
X9544349Y-14810487D02*
X9553873Y-14829534D01*
X9553873Y-14829534D02*
X9553873Y-14848582D01*
X9553873Y-14848582D02*
X9458635Y-14867630D01*
X9725301Y-14934296D02*
X9725301Y-14734296D01*
X9725301Y-14924772D02*
X9706254Y-14934296D01*
X9706254Y-14934296D02*
X9668158Y-14934296D01*
X9668158Y-14934296D02*
X9649111Y-14924772D01*
X9649111Y-14924772D02*
X9639587Y-14915249D01*
X9639587Y-14915249D02*
X9630063Y-14896201D01*
X9630063Y-14896201D02*
X9630063Y-14839058D01*
X9630063Y-14839058D02*
X9639587Y-14820010D01*
X9639587Y-14820010D02*
X9649111Y-14810487D01*
X9649111Y-14810487D02*
X9668158Y-14800963D01*
X9668158Y-14800963D02*
X9706254Y-14800963D01*
X9706254Y-14800963D02*
X9725301Y-14810487D01*
X9801492Y-15010487D02*
X9811016Y-15000963D01*
X9811016Y-15000963D02*
X9830063Y-14972391D01*
X9830063Y-14972391D02*
X9839587Y-14953344D01*
X9839587Y-14953344D02*
X9849111Y-14924772D01*
X9849111Y-14924772D02*
X9858635Y-14877153D01*
X9858635Y-14877153D02*
X9858635Y-14839058D01*
X9858635Y-14839058D02*
X9849111Y-14791439D01*
X9849111Y-14791439D02*
X9839587Y-14762868D01*
X9839587Y-14762868D02*
X9830063Y-14743820D01*
X9830063Y-14743820D02*
X9811016Y-14715249D01*
X9811016Y-14715249D02*
X9801492Y-14705725D01*
D15*
X2760000Y-15037812D02*
X2760000Y-15227812D01*
X2665000Y-15132812D02*
X2855000Y-15132812D01*
D12*
X3220539Y-15224296D02*
X3106253Y-15224296D01*
X3163396Y-15224296D02*
X3163396Y-15024296D01*
X3163396Y-15024296D02*
X3144348Y-15052868D01*
X3144348Y-15052868D02*
X3125301Y-15071915D01*
X3125301Y-15071915D02*
X3106253Y-15081439D01*
X3306253Y-15205249D02*
X3315777Y-15214772D01*
X3315777Y-15214772D02*
X3306253Y-15224296D01*
X3306253Y-15224296D02*
X3296729Y-15214772D01*
X3296729Y-15214772D02*
X3306253Y-15205249D01*
X3306253Y-15205249D02*
X3306253Y-15224296D01*
X3411015Y-15224296D02*
X3449110Y-15224296D01*
X3449110Y-15224296D02*
X3468158Y-15214772D01*
X3468158Y-15214772D02*
X3477682Y-15205249D01*
X3477682Y-15205249D02*
X3496729Y-15176677D01*
X3496729Y-15176677D02*
X3506253Y-15138582D01*
X3506253Y-15138582D02*
X3506253Y-15062391D01*
X3506253Y-15062391D02*
X3496729Y-15043344D01*
X3496729Y-15043344D02*
X3487205Y-15033820D01*
X3487205Y-15033820D02*
X3468158Y-15024296D01*
X3468158Y-15024296D02*
X3430062Y-15024296D01*
X3430062Y-15024296D02*
X3411015Y-15033820D01*
X3411015Y-15033820D02*
X3401491Y-15043344D01*
X3401491Y-15043344D02*
X3391967Y-15062391D01*
X3391967Y-15062391D02*
X3391967Y-15110010D01*
X3391967Y-15110010D02*
X3401491Y-15129058D01*
X3401491Y-15129058D02*
X3411015Y-15138582D01*
X3411015Y-15138582D02*
X3430062Y-15148106D01*
X3430062Y-15148106D02*
X3468158Y-15148106D01*
X3468158Y-15148106D02*
X3487205Y-15138582D01*
X3487205Y-15138582D02*
X3496729Y-15129058D01*
X3496729Y-15129058D02*
X3506253Y-15110010D01*
X3630062Y-15024296D02*
X3649110Y-15024296D01*
X3649110Y-15024296D02*
X3668158Y-15033820D01*
X3668158Y-15033820D02*
X3677682Y-15043344D01*
X3677682Y-15043344D02*
X3687205Y-15062391D01*
X3687205Y-15062391D02*
X3696729Y-15100487D01*
X3696729Y-15100487D02*
X3696729Y-15148106D01*
X3696729Y-15148106D02*
X3687205Y-15186201D01*
X3687205Y-15186201D02*
X3677682Y-15205249D01*
X3677682Y-15205249D02*
X3668158Y-15214772D01*
X3668158Y-15214772D02*
X3649110Y-15224296D01*
X3649110Y-15224296D02*
X3630062Y-15224296D01*
X3630062Y-15224296D02*
X3611015Y-15214772D01*
X3611015Y-15214772D02*
X3601491Y-15205249D01*
X3601491Y-15205249D02*
X3591967Y-15186201D01*
X3591967Y-15186201D02*
X3582443Y-15148106D01*
X3582443Y-15148106D02*
X3582443Y-15100487D01*
X3582443Y-15100487D02*
X3591967Y-15062391D01*
X3591967Y-15062391D02*
X3601491Y-15043344D01*
X3601491Y-15043344D02*
X3611015Y-15033820D01*
X3611015Y-15033820D02*
X3630062Y-15024296D01*
X3820539Y-15024296D02*
X3839586Y-15024296D01*
X3839586Y-15024296D02*
X3858634Y-15033820D01*
X3858634Y-15033820D02*
X3868158Y-15043344D01*
X3868158Y-15043344D02*
X3877682Y-15062391D01*
X3877682Y-15062391D02*
X3887205Y-15100487D01*
X3887205Y-15100487D02*
X3887205Y-15148106D01*
X3887205Y-15148106D02*
X3877682Y-15186201D01*
X3877682Y-15186201D02*
X3868158Y-15205249D01*
X3868158Y-15205249D02*
X3858634Y-15214772D01*
X3858634Y-15214772D02*
X3839586Y-15224296D01*
X3839586Y-15224296D02*
X3820539Y-15224296D01*
X3820539Y-15224296D02*
X3801491Y-15214772D01*
X3801491Y-15214772D02*
X3791967Y-15205249D01*
X3791967Y-15205249D02*
X3782443Y-15186201D01*
X3782443Y-15186201D02*
X3772920Y-15148106D01*
X3772920Y-15148106D02*
X3772920Y-15100487D01*
X3772920Y-15100487D02*
X3782443Y-15062391D01*
X3782443Y-15062391D02*
X3791967Y-15043344D01*
X3791967Y-15043344D02*
X3801491Y-15033820D01*
X3801491Y-15033820D02*
X3820539Y-15024296D01*
X3972920Y-15224296D02*
X3972920Y-15090963D01*
X3972920Y-15110010D02*
X3982443Y-15100487D01*
X3982443Y-15100487D02*
X4001491Y-15090963D01*
X4001491Y-15090963D02*
X4030063Y-15090963D01*
X4030063Y-15090963D02*
X4049110Y-15100487D01*
X4049110Y-15100487D02*
X4058634Y-15119534D01*
X4058634Y-15119534D02*
X4058634Y-15224296D01*
X4058634Y-15119534D02*
X4068158Y-15100487D01*
X4068158Y-15100487D02*
X4087205Y-15090963D01*
X4087205Y-15090963D02*
X4115777Y-15090963D01*
X4115777Y-15090963D02*
X4134824Y-15100487D01*
X4134824Y-15100487D02*
X4144348Y-15119534D01*
X4144348Y-15119534D02*
X4144348Y-15224296D01*
X4239586Y-15224296D02*
X4239586Y-15090963D01*
X4239586Y-15110010D02*
X4249110Y-15100487D01*
X4249110Y-15100487D02*
X4268158Y-15090963D01*
X4268158Y-15090963D02*
X4296729Y-15090963D01*
X4296729Y-15090963D02*
X4315777Y-15100487D01*
X4315777Y-15100487D02*
X4325301Y-15119534D01*
X4325301Y-15119534D02*
X4325301Y-15224296D01*
X4325301Y-15119534D02*
X4334825Y-15100487D01*
X4334825Y-15100487D02*
X4353872Y-15090963D01*
X4353872Y-15090963D02*
X4382444Y-15090963D01*
X4382444Y-15090963D02*
X4401491Y-15100487D01*
X4401491Y-15100487D02*
X4411015Y-15119534D01*
X4411015Y-15119534D02*
X4411015Y-15224296D01*
X4801491Y-15014772D02*
X4630063Y-15271915D01*
X5058634Y-15024296D02*
X5077682Y-15024296D01*
X5077682Y-15024296D02*
X5096729Y-15033820D01*
X5096729Y-15033820D02*
X5106253Y-15043344D01*
X5106253Y-15043344D02*
X5115777Y-15062391D01*
X5115777Y-15062391D02*
X5125301Y-15100487D01*
X5125301Y-15100487D02*
X5125301Y-15148106D01*
X5125301Y-15148106D02*
X5115777Y-15186201D01*
X5115777Y-15186201D02*
X5106253Y-15205249D01*
X5106253Y-15205249D02*
X5096729Y-15214772D01*
X5096729Y-15214772D02*
X5077682Y-15224296D01*
X5077682Y-15224296D02*
X5058634Y-15224296D01*
X5058634Y-15224296D02*
X5039587Y-15214772D01*
X5039587Y-15214772D02*
X5030063Y-15205249D01*
X5030063Y-15205249D02*
X5020539Y-15186201D01*
X5020539Y-15186201D02*
X5011015Y-15148106D01*
X5011015Y-15148106D02*
X5011015Y-15100487D01*
X5011015Y-15100487D02*
X5020539Y-15062391D01*
X5020539Y-15062391D02*
X5030063Y-15043344D01*
X5030063Y-15043344D02*
X5039587Y-15033820D01*
X5039587Y-15033820D02*
X5058634Y-15024296D01*
X5211015Y-15205249D02*
X5220539Y-15214772D01*
X5220539Y-15214772D02*
X5211015Y-15224296D01*
X5211015Y-15224296D02*
X5201491Y-15214772D01*
X5201491Y-15214772D02*
X5211015Y-15205249D01*
X5211015Y-15205249D02*
X5211015Y-15224296D01*
X5344348Y-15024296D02*
X5363396Y-15024296D01*
X5363396Y-15024296D02*
X5382444Y-15033820D01*
X5382444Y-15033820D02*
X5391968Y-15043344D01*
X5391968Y-15043344D02*
X5401491Y-15062391D01*
X5401491Y-15062391D02*
X5411015Y-15100487D01*
X5411015Y-15100487D02*
X5411015Y-15148106D01*
X5411015Y-15148106D02*
X5401491Y-15186201D01*
X5401491Y-15186201D02*
X5391968Y-15205249D01*
X5391968Y-15205249D02*
X5382444Y-15214772D01*
X5382444Y-15214772D02*
X5363396Y-15224296D01*
X5363396Y-15224296D02*
X5344348Y-15224296D01*
X5344348Y-15224296D02*
X5325301Y-15214772D01*
X5325301Y-15214772D02*
X5315777Y-15205249D01*
X5315777Y-15205249D02*
X5306253Y-15186201D01*
X5306253Y-15186201D02*
X5296729Y-15148106D01*
X5296729Y-15148106D02*
X5296729Y-15100487D01*
X5296729Y-15100487D02*
X5306253Y-15062391D01*
X5306253Y-15062391D02*
X5315777Y-15043344D01*
X5315777Y-15043344D02*
X5325301Y-15033820D01*
X5325301Y-15033820D02*
X5344348Y-15024296D01*
X5477682Y-15024296D02*
X5611015Y-15024296D01*
X5611015Y-15024296D02*
X5525301Y-15224296D01*
X5772920Y-15090963D02*
X5772920Y-15224296D01*
X5725301Y-15014772D02*
X5677682Y-15157630D01*
X5677682Y-15157630D02*
X5801491Y-15157630D01*
X5906253Y-15110010D02*
X5887206Y-15100487D01*
X5887206Y-15100487D02*
X5877682Y-15090963D01*
X5877682Y-15090963D02*
X5868158Y-15071915D01*
X5868158Y-15071915D02*
X5868158Y-15062391D01*
X5868158Y-15062391D02*
X5877682Y-15043344D01*
X5877682Y-15043344D02*
X5887206Y-15033820D01*
X5887206Y-15033820D02*
X5906253Y-15024296D01*
X5906253Y-15024296D02*
X5944348Y-15024296D01*
X5944348Y-15024296D02*
X5963396Y-15033820D01*
X5963396Y-15033820D02*
X5972920Y-15043344D01*
X5972920Y-15043344D02*
X5982444Y-15062391D01*
X5982444Y-15062391D02*
X5982444Y-15071915D01*
X5982444Y-15071915D02*
X5972920Y-15090963D01*
X5972920Y-15090963D02*
X5963396Y-15100487D01*
X5963396Y-15100487D02*
X5944348Y-15110010D01*
X5944348Y-15110010D02*
X5906253Y-15110010D01*
X5906253Y-15110010D02*
X5887206Y-15119534D01*
X5887206Y-15119534D02*
X5877682Y-15129058D01*
X5877682Y-15129058D02*
X5868158Y-15148106D01*
X5868158Y-15148106D02*
X5868158Y-15186201D01*
X5868158Y-15186201D02*
X5877682Y-15205249D01*
X5877682Y-15205249D02*
X5887206Y-15214772D01*
X5887206Y-15214772D02*
X5906253Y-15224296D01*
X5906253Y-15224296D02*
X5944348Y-15224296D01*
X5944348Y-15224296D02*
X5963396Y-15214772D01*
X5963396Y-15214772D02*
X5972920Y-15205249D01*
X5972920Y-15205249D02*
X5982444Y-15186201D01*
X5982444Y-15186201D02*
X5982444Y-15148106D01*
X5982444Y-15148106D02*
X5972920Y-15129058D01*
X5972920Y-15129058D02*
X5963396Y-15119534D01*
X5963396Y-15119534D02*
X5944348Y-15110010D01*
X6058634Y-15024296D02*
X6058634Y-15062391D01*
X6134825Y-15024296D02*
X6134825Y-15062391D01*
X6430063Y-15300487D02*
X6420539Y-15290963D01*
X6420539Y-15290963D02*
X6401491Y-15262391D01*
X6401491Y-15262391D02*
X6391968Y-15243344D01*
X6391968Y-15243344D02*
X6382444Y-15214772D01*
X6382444Y-15214772D02*
X6372920Y-15167153D01*
X6372920Y-15167153D02*
X6372920Y-15129058D01*
X6372920Y-15129058D02*
X6382444Y-15081439D01*
X6382444Y-15081439D02*
X6391968Y-15052868D01*
X6391968Y-15052868D02*
X6401491Y-15033820D01*
X6401491Y-15033820D02*
X6420539Y-15005249D01*
X6420539Y-15005249D02*
X6430063Y-14995725D01*
X6601491Y-15024296D02*
X6506253Y-15024296D01*
X6506253Y-15024296D02*
X6496729Y-15119534D01*
X6496729Y-15119534D02*
X6506253Y-15110010D01*
X6506253Y-15110010D02*
X6525301Y-15100487D01*
X6525301Y-15100487D02*
X6572920Y-15100487D01*
X6572920Y-15100487D02*
X6591968Y-15110010D01*
X6591968Y-15110010D02*
X6601491Y-15119534D01*
X6601491Y-15119534D02*
X6611015Y-15138582D01*
X6611015Y-15138582D02*
X6611015Y-15186201D01*
X6611015Y-15186201D02*
X6601491Y-15205249D01*
X6601491Y-15205249D02*
X6591968Y-15214772D01*
X6591968Y-15214772D02*
X6572920Y-15224296D01*
X6572920Y-15224296D02*
X6525301Y-15224296D01*
X6525301Y-15224296D02*
X6506253Y-15214772D01*
X6506253Y-15214772D02*
X6496729Y-15205249D01*
X6782444Y-15090963D02*
X6782444Y-15224296D01*
X6734825Y-15014772D02*
X6687206Y-15157630D01*
X6687206Y-15157630D02*
X6811015Y-15157630D01*
X7039587Y-15224296D02*
X7039587Y-15024296D01*
X7125301Y-15224296D02*
X7125301Y-15119534D01*
X7125301Y-15119534D02*
X7115777Y-15100487D01*
X7115777Y-15100487D02*
X7096730Y-15090963D01*
X7096730Y-15090963D02*
X7068158Y-15090963D01*
X7068158Y-15090963D02*
X7049110Y-15100487D01*
X7049110Y-15100487D02*
X7039587Y-15110010D01*
X7249110Y-15224296D02*
X7230063Y-15214772D01*
X7230063Y-15214772D02*
X7220539Y-15205249D01*
X7220539Y-15205249D02*
X7211015Y-15186201D01*
X7211015Y-15186201D02*
X7211015Y-15129058D01*
X7211015Y-15129058D02*
X7220539Y-15110010D01*
X7220539Y-15110010D02*
X7230063Y-15100487D01*
X7230063Y-15100487D02*
X7249110Y-15090963D01*
X7249110Y-15090963D02*
X7277682Y-15090963D01*
X7277682Y-15090963D02*
X7296730Y-15100487D01*
X7296730Y-15100487D02*
X7306253Y-15110010D01*
X7306253Y-15110010D02*
X7315777Y-15129058D01*
X7315777Y-15129058D02*
X7315777Y-15186201D01*
X7315777Y-15186201D02*
X7306253Y-15205249D01*
X7306253Y-15205249D02*
X7296730Y-15214772D01*
X7296730Y-15214772D02*
X7277682Y-15224296D01*
X7277682Y-15224296D02*
X7249110Y-15224296D01*
X7430063Y-15224296D02*
X7411015Y-15214772D01*
X7411015Y-15214772D02*
X7401491Y-15195725D01*
X7401491Y-15195725D02*
X7401491Y-15024296D01*
X7582444Y-15214772D02*
X7563396Y-15224296D01*
X7563396Y-15224296D02*
X7525301Y-15224296D01*
X7525301Y-15224296D02*
X7506253Y-15214772D01*
X7506253Y-15214772D02*
X7496730Y-15195725D01*
X7496730Y-15195725D02*
X7496730Y-15119534D01*
X7496730Y-15119534D02*
X7506253Y-15100487D01*
X7506253Y-15100487D02*
X7525301Y-15090963D01*
X7525301Y-15090963D02*
X7563396Y-15090963D01*
X7563396Y-15090963D02*
X7582444Y-15100487D01*
X7582444Y-15100487D02*
X7591968Y-15119534D01*
X7591968Y-15119534D02*
X7591968Y-15138582D01*
X7591968Y-15138582D02*
X7496730Y-15157630D01*
X7668158Y-15214772D02*
X7687206Y-15224296D01*
X7687206Y-15224296D02*
X7725301Y-15224296D01*
X7725301Y-15224296D02*
X7744349Y-15214772D01*
X7744349Y-15214772D02*
X7753872Y-15195725D01*
X7753872Y-15195725D02*
X7753872Y-15186201D01*
X7753872Y-15186201D02*
X7744349Y-15167153D01*
X7744349Y-15167153D02*
X7725301Y-15157630D01*
X7725301Y-15157630D02*
X7696730Y-15157630D01*
X7696730Y-15157630D02*
X7677682Y-15148106D01*
X7677682Y-15148106D02*
X7668158Y-15129058D01*
X7668158Y-15129058D02*
X7668158Y-15119534D01*
X7668158Y-15119534D02*
X7677682Y-15100487D01*
X7677682Y-15100487D02*
X7696730Y-15090963D01*
X7696730Y-15090963D02*
X7725301Y-15090963D01*
X7725301Y-15090963D02*
X7744349Y-15100487D01*
X7820539Y-15300487D02*
X7830063Y-15290963D01*
X7830063Y-15290963D02*
X7849111Y-15262391D01*
X7849111Y-15262391D02*
X7858634Y-15243344D01*
X7858634Y-15243344D02*
X7868158Y-15214772D01*
X7868158Y-15214772D02*
X7877682Y-15167153D01*
X7877682Y-15167153D02*
X7877682Y-15129058D01*
X7877682Y-15129058D02*
X7868158Y-15081439D01*
X7868158Y-15081439D02*
X7858634Y-15052868D01*
X7858634Y-15052868D02*
X7849111Y-15033820D01*
X7849111Y-15033820D02*
X7830063Y-15005249D01*
X7830063Y-15005249D02*
X7820539Y-14995725D01*
X8182444Y-15300487D02*
X8172920Y-15290963D01*
X8172920Y-15290963D02*
X8153872Y-15262391D01*
X8153872Y-15262391D02*
X8144349Y-15243344D01*
X8144349Y-15243344D02*
X8134825Y-15214772D01*
X8134825Y-15214772D02*
X8125301Y-15167153D01*
X8125301Y-15167153D02*
X8125301Y-15129058D01*
X8125301Y-15129058D02*
X8134825Y-15081439D01*
X8134825Y-15081439D02*
X8144349Y-15052868D01*
X8144349Y-15052868D02*
X8153872Y-15033820D01*
X8153872Y-15033820D02*
X8172920Y-15005249D01*
X8172920Y-15005249D02*
X8182444Y-14995725D01*
X8258634Y-15090963D02*
X8258634Y-15224296D01*
X8258634Y-15110010D02*
X8268158Y-15100487D01*
X8268158Y-15100487D02*
X8287206Y-15090963D01*
X8287206Y-15090963D02*
X8315777Y-15090963D01*
X8315777Y-15090963D02*
X8334825Y-15100487D01*
X8334825Y-15100487D02*
X8344349Y-15119534D01*
X8344349Y-15119534D02*
X8344349Y-15224296D01*
X8468158Y-15224296D02*
X8449111Y-15214772D01*
X8449111Y-15214772D02*
X8439587Y-15205249D01*
X8439587Y-15205249D02*
X8430063Y-15186201D01*
X8430063Y-15186201D02*
X8430063Y-15129058D01*
X8430063Y-15129058D02*
X8439587Y-15110010D01*
X8439587Y-15110010D02*
X8449111Y-15100487D01*
X8449111Y-15100487D02*
X8468158Y-15090963D01*
X8468158Y-15090963D02*
X8496730Y-15090963D01*
X8496730Y-15090963D02*
X8515777Y-15100487D01*
X8515777Y-15100487D02*
X8525301Y-15110010D01*
X8525301Y-15110010D02*
X8534825Y-15129058D01*
X8534825Y-15129058D02*
X8534825Y-15186201D01*
X8534825Y-15186201D02*
X8525301Y-15205249D01*
X8525301Y-15205249D02*
X8515777Y-15214772D01*
X8515777Y-15214772D02*
X8496730Y-15224296D01*
X8496730Y-15224296D02*
X8468158Y-15224296D01*
X8591968Y-15090963D02*
X8668158Y-15090963D01*
X8620539Y-15024296D02*
X8620539Y-15195725D01*
X8620539Y-15195725D02*
X8630063Y-15214772D01*
X8630063Y-15214772D02*
X8649111Y-15224296D01*
X8649111Y-15224296D02*
X8668158Y-15224296D01*
X8887206Y-15090963D02*
X8887206Y-15290963D01*
X8887206Y-15100487D02*
X8906254Y-15090963D01*
X8906254Y-15090963D02*
X8944349Y-15090963D01*
X8944349Y-15090963D02*
X8963396Y-15100487D01*
X8963396Y-15100487D02*
X8972920Y-15110010D01*
X8972920Y-15110010D02*
X8982444Y-15129058D01*
X8982444Y-15129058D02*
X8982444Y-15186201D01*
X8982444Y-15186201D02*
X8972920Y-15205249D01*
X8972920Y-15205249D02*
X8963396Y-15214772D01*
X8963396Y-15214772D02*
X8944349Y-15224296D01*
X8944349Y-15224296D02*
X8906254Y-15224296D01*
X8906254Y-15224296D02*
X8887206Y-15214772D01*
X9096730Y-15224296D02*
X9077682Y-15214772D01*
X9077682Y-15214772D02*
X9068158Y-15195725D01*
X9068158Y-15195725D02*
X9068158Y-15024296D01*
X9258635Y-15224296D02*
X9258635Y-15119534D01*
X9258635Y-15119534D02*
X9249111Y-15100487D01*
X9249111Y-15100487D02*
X9230063Y-15090963D01*
X9230063Y-15090963D02*
X9191968Y-15090963D01*
X9191968Y-15090963D02*
X9172920Y-15100487D01*
X9258635Y-15214772D02*
X9239587Y-15224296D01*
X9239587Y-15224296D02*
X9191968Y-15224296D01*
X9191968Y-15224296D02*
X9172920Y-15214772D01*
X9172920Y-15214772D02*
X9163396Y-15195725D01*
X9163396Y-15195725D02*
X9163396Y-15176677D01*
X9163396Y-15176677D02*
X9172920Y-15157630D01*
X9172920Y-15157630D02*
X9191968Y-15148106D01*
X9191968Y-15148106D02*
X9239587Y-15148106D01*
X9239587Y-15148106D02*
X9258635Y-15138582D01*
X9325301Y-15090963D02*
X9401492Y-15090963D01*
X9353873Y-15024296D02*
X9353873Y-15195725D01*
X9353873Y-15195725D02*
X9363396Y-15214772D01*
X9363396Y-15214772D02*
X9382444Y-15224296D01*
X9382444Y-15224296D02*
X9401492Y-15224296D01*
X9544349Y-15214772D02*
X9525301Y-15224296D01*
X9525301Y-15224296D02*
X9487206Y-15224296D01*
X9487206Y-15224296D02*
X9468158Y-15214772D01*
X9468158Y-15214772D02*
X9458635Y-15195725D01*
X9458635Y-15195725D02*
X9458635Y-15119534D01*
X9458635Y-15119534D02*
X9468158Y-15100487D01*
X9468158Y-15100487D02*
X9487206Y-15090963D01*
X9487206Y-15090963D02*
X9525301Y-15090963D01*
X9525301Y-15090963D02*
X9544349Y-15100487D01*
X9544349Y-15100487D02*
X9553873Y-15119534D01*
X9553873Y-15119534D02*
X9553873Y-15138582D01*
X9553873Y-15138582D02*
X9458635Y-15157630D01*
X9725301Y-15224296D02*
X9725301Y-15024296D01*
X9725301Y-15214772D02*
X9706254Y-15224296D01*
X9706254Y-15224296D02*
X9668158Y-15224296D01*
X9668158Y-15224296D02*
X9649111Y-15214772D01*
X9649111Y-15214772D02*
X9639587Y-15205249D01*
X9639587Y-15205249D02*
X9630063Y-15186201D01*
X9630063Y-15186201D02*
X9630063Y-15129058D01*
X9630063Y-15129058D02*
X9639587Y-15110010D01*
X9639587Y-15110010D02*
X9649111Y-15100487D01*
X9649111Y-15100487D02*
X9668158Y-15090963D01*
X9668158Y-15090963D02*
X9706254Y-15090963D01*
X9706254Y-15090963D02*
X9725301Y-15100487D01*
X9801492Y-15300487D02*
X9811016Y-15290963D01*
X9811016Y-15290963D02*
X9830063Y-15262391D01*
X9830063Y-15262391D02*
X9839587Y-15243344D01*
X9839587Y-15243344D02*
X9849111Y-15214772D01*
X9849111Y-15214772D02*
X9858635Y-15167153D01*
X9858635Y-15167153D02*
X9858635Y-15129058D01*
X9858635Y-15129058D02*
X9849111Y-15081439D01*
X9849111Y-15081439D02*
X9839587Y-15052868D01*
X9839587Y-15052868D02*
X9830063Y-15033820D01*
X9830063Y-15033820D02*
X9811016Y-15005249D01*
X9811016Y-15005249D02*
X9801492Y-14995725D01*
X2825711Y-15513524D02*
X2825711Y-15372101D01*
X2684289Y-15372101D01*
X2684289Y-15513524D01*
X2825711Y-15513524D01*
X3096729Y-15334296D02*
X3220539Y-15334296D01*
X3220539Y-15334296D02*
X3153872Y-15410487D01*
X3153872Y-15410487D02*
X3182443Y-15410487D01*
X3182443Y-15410487D02*
X3201491Y-15420010D01*
X3201491Y-15420010D02*
X3211015Y-15429534D01*
X3211015Y-15429534D02*
X3220539Y-15448582D01*
X3220539Y-15448582D02*
X3220539Y-15496201D01*
X3220539Y-15496201D02*
X3211015Y-15515249D01*
X3211015Y-15515249D02*
X3201491Y-15524772D01*
X3201491Y-15524772D02*
X3182443Y-15534296D01*
X3182443Y-15534296D02*
X3125301Y-15534296D01*
X3125301Y-15534296D02*
X3106253Y-15524772D01*
X3106253Y-15524772D02*
X3096729Y-15515249D01*
X3306253Y-15515249D02*
X3315777Y-15524772D01*
X3315777Y-15524772D02*
X3306253Y-15534296D01*
X3306253Y-15534296D02*
X3296729Y-15524772D01*
X3296729Y-15524772D02*
X3306253Y-15515249D01*
X3306253Y-15515249D02*
X3306253Y-15534296D01*
X3439586Y-15334296D02*
X3458634Y-15334296D01*
X3458634Y-15334296D02*
X3477682Y-15343820D01*
X3477682Y-15343820D02*
X3487205Y-15353344D01*
X3487205Y-15353344D02*
X3496729Y-15372391D01*
X3496729Y-15372391D02*
X3506253Y-15410487D01*
X3506253Y-15410487D02*
X3506253Y-15458106D01*
X3506253Y-15458106D02*
X3496729Y-15496201D01*
X3496729Y-15496201D02*
X3487205Y-15515249D01*
X3487205Y-15515249D02*
X3477682Y-15524772D01*
X3477682Y-15524772D02*
X3458634Y-15534296D01*
X3458634Y-15534296D02*
X3439586Y-15534296D01*
X3439586Y-15534296D02*
X3420539Y-15524772D01*
X3420539Y-15524772D02*
X3411015Y-15515249D01*
X3411015Y-15515249D02*
X3401491Y-15496201D01*
X3401491Y-15496201D02*
X3391967Y-15458106D01*
X3391967Y-15458106D02*
X3391967Y-15410487D01*
X3391967Y-15410487D02*
X3401491Y-15372391D01*
X3401491Y-15372391D02*
X3411015Y-15353344D01*
X3411015Y-15353344D02*
X3420539Y-15343820D01*
X3420539Y-15343820D02*
X3439586Y-15334296D01*
X3630062Y-15334296D02*
X3649110Y-15334296D01*
X3649110Y-15334296D02*
X3668158Y-15343820D01*
X3668158Y-15343820D02*
X3677682Y-15353344D01*
X3677682Y-15353344D02*
X3687205Y-15372391D01*
X3687205Y-15372391D02*
X3696729Y-15410487D01*
X3696729Y-15410487D02*
X3696729Y-15458106D01*
X3696729Y-15458106D02*
X3687205Y-15496201D01*
X3687205Y-15496201D02*
X3677682Y-15515249D01*
X3677682Y-15515249D02*
X3668158Y-15524772D01*
X3668158Y-15524772D02*
X3649110Y-15534296D01*
X3649110Y-15534296D02*
X3630062Y-15534296D01*
X3630062Y-15534296D02*
X3611015Y-15524772D01*
X3611015Y-15524772D02*
X3601491Y-15515249D01*
X3601491Y-15515249D02*
X3591967Y-15496201D01*
X3591967Y-15496201D02*
X3582443Y-15458106D01*
X3582443Y-15458106D02*
X3582443Y-15410487D01*
X3582443Y-15410487D02*
X3591967Y-15372391D01*
X3591967Y-15372391D02*
X3601491Y-15353344D01*
X3601491Y-15353344D02*
X3611015Y-15343820D01*
X3611015Y-15343820D02*
X3630062Y-15334296D01*
X3820539Y-15334296D02*
X3839586Y-15334296D01*
X3839586Y-15334296D02*
X3858634Y-15343820D01*
X3858634Y-15343820D02*
X3868158Y-15353344D01*
X3868158Y-15353344D02*
X3877682Y-15372391D01*
X3877682Y-15372391D02*
X3887205Y-15410487D01*
X3887205Y-15410487D02*
X3887205Y-15458106D01*
X3887205Y-15458106D02*
X3877682Y-15496201D01*
X3877682Y-15496201D02*
X3868158Y-15515249D01*
X3868158Y-15515249D02*
X3858634Y-15524772D01*
X3858634Y-15524772D02*
X3839586Y-15534296D01*
X3839586Y-15534296D02*
X3820539Y-15534296D01*
X3820539Y-15534296D02*
X3801491Y-15524772D01*
X3801491Y-15524772D02*
X3791967Y-15515249D01*
X3791967Y-15515249D02*
X3782443Y-15496201D01*
X3782443Y-15496201D02*
X3772920Y-15458106D01*
X3772920Y-15458106D02*
X3772920Y-15410487D01*
X3772920Y-15410487D02*
X3782443Y-15372391D01*
X3782443Y-15372391D02*
X3791967Y-15353344D01*
X3791967Y-15353344D02*
X3801491Y-15343820D01*
X3801491Y-15343820D02*
X3820539Y-15334296D01*
X3972920Y-15534296D02*
X3972920Y-15400963D01*
X3972920Y-15420010D02*
X3982443Y-15410487D01*
X3982443Y-15410487D02*
X4001491Y-15400963D01*
X4001491Y-15400963D02*
X4030063Y-15400963D01*
X4030063Y-15400963D02*
X4049110Y-15410487D01*
X4049110Y-15410487D02*
X4058634Y-15429534D01*
X4058634Y-15429534D02*
X4058634Y-15534296D01*
X4058634Y-15429534D02*
X4068158Y-15410487D01*
X4068158Y-15410487D02*
X4087205Y-15400963D01*
X4087205Y-15400963D02*
X4115777Y-15400963D01*
X4115777Y-15400963D02*
X4134824Y-15410487D01*
X4134824Y-15410487D02*
X4144348Y-15429534D01*
X4144348Y-15429534D02*
X4144348Y-15534296D01*
X4239586Y-15534296D02*
X4239586Y-15400963D01*
X4239586Y-15420010D02*
X4249110Y-15410487D01*
X4249110Y-15410487D02*
X4268158Y-15400963D01*
X4268158Y-15400963D02*
X4296729Y-15400963D01*
X4296729Y-15400963D02*
X4315777Y-15410487D01*
X4315777Y-15410487D02*
X4325301Y-15429534D01*
X4325301Y-15429534D02*
X4325301Y-15534296D01*
X4325301Y-15429534D02*
X4334825Y-15410487D01*
X4334825Y-15410487D02*
X4353872Y-15400963D01*
X4353872Y-15400963D02*
X4382444Y-15400963D01*
X4382444Y-15400963D02*
X4401491Y-15410487D01*
X4401491Y-15410487D02*
X4411015Y-15429534D01*
X4411015Y-15429534D02*
X4411015Y-15534296D01*
X4801491Y-15324772D02*
X4630063Y-15581915D01*
X5058634Y-15334296D02*
X5077682Y-15334296D01*
X5077682Y-15334296D02*
X5096729Y-15343820D01*
X5096729Y-15343820D02*
X5106253Y-15353344D01*
X5106253Y-15353344D02*
X5115777Y-15372391D01*
X5115777Y-15372391D02*
X5125301Y-15410487D01*
X5125301Y-15410487D02*
X5125301Y-15458106D01*
X5125301Y-15458106D02*
X5115777Y-15496201D01*
X5115777Y-15496201D02*
X5106253Y-15515249D01*
X5106253Y-15515249D02*
X5096729Y-15524772D01*
X5096729Y-15524772D02*
X5077682Y-15534296D01*
X5077682Y-15534296D02*
X5058634Y-15534296D01*
X5058634Y-15534296D02*
X5039587Y-15524772D01*
X5039587Y-15524772D02*
X5030063Y-15515249D01*
X5030063Y-15515249D02*
X5020539Y-15496201D01*
X5020539Y-15496201D02*
X5011015Y-15458106D01*
X5011015Y-15458106D02*
X5011015Y-15410487D01*
X5011015Y-15410487D02*
X5020539Y-15372391D01*
X5020539Y-15372391D02*
X5030063Y-15353344D01*
X5030063Y-15353344D02*
X5039587Y-15343820D01*
X5039587Y-15343820D02*
X5058634Y-15334296D01*
X5211015Y-15515249D02*
X5220539Y-15524772D01*
X5220539Y-15524772D02*
X5211015Y-15534296D01*
X5211015Y-15534296D02*
X5201491Y-15524772D01*
X5201491Y-15524772D02*
X5211015Y-15515249D01*
X5211015Y-15515249D02*
X5211015Y-15534296D01*
X5411015Y-15534296D02*
X5296729Y-15534296D01*
X5353872Y-15534296D02*
X5353872Y-15334296D01*
X5353872Y-15334296D02*
X5334825Y-15362868D01*
X5334825Y-15362868D02*
X5315777Y-15381915D01*
X5315777Y-15381915D02*
X5296729Y-15391439D01*
X5601491Y-15534296D02*
X5487206Y-15534296D01*
X5544348Y-15534296D02*
X5544348Y-15334296D01*
X5544348Y-15334296D02*
X5525301Y-15362868D01*
X5525301Y-15362868D02*
X5506253Y-15381915D01*
X5506253Y-15381915D02*
X5487206Y-15391439D01*
X5715777Y-15420010D02*
X5696729Y-15410487D01*
X5696729Y-15410487D02*
X5687206Y-15400963D01*
X5687206Y-15400963D02*
X5677682Y-15381915D01*
X5677682Y-15381915D02*
X5677682Y-15372391D01*
X5677682Y-15372391D02*
X5687206Y-15353344D01*
X5687206Y-15353344D02*
X5696729Y-15343820D01*
X5696729Y-15343820D02*
X5715777Y-15334296D01*
X5715777Y-15334296D02*
X5753872Y-15334296D01*
X5753872Y-15334296D02*
X5772920Y-15343820D01*
X5772920Y-15343820D02*
X5782444Y-15353344D01*
X5782444Y-15353344D02*
X5791967Y-15372391D01*
X5791967Y-15372391D02*
X5791967Y-15381915D01*
X5791967Y-15381915D02*
X5782444Y-15400963D01*
X5782444Y-15400963D02*
X5772920Y-15410487D01*
X5772920Y-15410487D02*
X5753872Y-15420010D01*
X5753872Y-15420010D02*
X5715777Y-15420010D01*
X5715777Y-15420010D02*
X5696729Y-15429534D01*
X5696729Y-15429534D02*
X5687206Y-15439058D01*
X5687206Y-15439058D02*
X5677682Y-15458106D01*
X5677682Y-15458106D02*
X5677682Y-15496201D01*
X5677682Y-15496201D02*
X5687206Y-15515249D01*
X5687206Y-15515249D02*
X5696729Y-15524772D01*
X5696729Y-15524772D02*
X5715777Y-15534296D01*
X5715777Y-15534296D02*
X5753872Y-15534296D01*
X5753872Y-15534296D02*
X5772920Y-15524772D01*
X5772920Y-15524772D02*
X5782444Y-15515249D01*
X5782444Y-15515249D02*
X5791967Y-15496201D01*
X5791967Y-15496201D02*
X5791967Y-15458106D01*
X5791967Y-15458106D02*
X5782444Y-15439058D01*
X5782444Y-15439058D02*
X5772920Y-15429534D01*
X5772920Y-15429534D02*
X5753872Y-15420010D01*
X5982444Y-15534296D02*
X5868158Y-15534296D01*
X5925301Y-15534296D02*
X5925301Y-15334296D01*
X5925301Y-15334296D02*
X5906253Y-15362868D01*
X5906253Y-15362868D02*
X5887206Y-15381915D01*
X5887206Y-15381915D02*
X5868158Y-15391439D01*
X6058634Y-15334296D02*
X6058634Y-15372391D01*
X6134825Y-15334296D02*
X6134825Y-15372391D01*
X6430063Y-15610487D02*
X6420539Y-15600963D01*
X6420539Y-15600963D02*
X6401491Y-15572391D01*
X6401491Y-15572391D02*
X6391968Y-15553344D01*
X6391968Y-15553344D02*
X6382444Y-15524772D01*
X6382444Y-15524772D02*
X6372920Y-15477153D01*
X6372920Y-15477153D02*
X6372920Y-15439058D01*
X6372920Y-15439058D02*
X6382444Y-15391439D01*
X6382444Y-15391439D02*
X6391968Y-15362868D01*
X6391968Y-15362868D02*
X6401491Y-15343820D01*
X6401491Y-15343820D02*
X6420539Y-15315249D01*
X6420539Y-15315249D02*
X6430063Y-15305725D01*
X6611015Y-15534296D02*
X6496729Y-15534296D01*
X6553872Y-15534296D02*
X6553872Y-15334296D01*
X6553872Y-15334296D02*
X6534825Y-15362868D01*
X6534825Y-15362868D02*
X6515777Y-15381915D01*
X6515777Y-15381915D02*
X6496729Y-15391439D01*
X6734825Y-15334296D02*
X6753872Y-15334296D01*
X6753872Y-15334296D02*
X6772920Y-15343820D01*
X6772920Y-15343820D02*
X6782444Y-15353344D01*
X6782444Y-15353344D02*
X6791968Y-15372391D01*
X6791968Y-15372391D02*
X6801491Y-15410487D01*
X6801491Y-15410487D02*
X6801491Y-15458106D01*
X6801491Y-15458106D02*
X6791968Y-15496201D01*
X6791968Y-15496201D02*
X6782444Y-15515249D01*
X6782444Y-15515249D02*
X6772920Y-15524772D01*
X6772920Y-15524772D02*
X6753872Y-15534296D01*
X6753872Y-15534296D02*
X6734825Y-15534296D01*
X6734825Y-15534296D02*
X6715777Y-15524772D01*
X6715777Y-15524772D02*
X6706253Y-15515249D01*
X6706253Y-15515249D02*
X6696729Y-15496201D01*
X6696729Y-15496201D02*
X6687206Y-15458106D01*
X6687206Y-15458106D02*
X6687206Y-15410487D01*
X6687206Y-15410487D02*
X6696729Y-15372391D01*
X6696729Y-15372391D02*
X6706253Y-15353344D01*
X6706253Y-15353344D02*
X6715777Y-15343820D01*
X6715777Y-15343820D02*
X6734825Y-15334296D01*
X6915777Y-15420010D02*
X6896729Y-15410487D01*
X6896729Y-15410487D02*
X6887206Y-15400963D01*
X6887206Y-15400963D02*
X6877682Y-15381915D01*
X6877682Y-15381915D02*
X6877682Y-15372391D01*
X6877682Y-15372391D02*
X6887206Y-15353344D01*
X6887206Y-15353344D02*
X6896729Y-15343820D01*
X6896729Y-15343820D02*
X6915777Y-15334296D01*
X6915777Y-15334296D02*
X6953872Y-15334296D01*
X6953872Y-15334296D02*
X6972920Y-15343820D01*
X6972920Y-15343820D02*
X6982444Y-15353344D01*
X6982444Y-15353344D02*
X6991968Y-15372391D01*
X6991968Y-15372391D02*
X6991968Y-15381915D01*
X6991968Y-15381915D02*
X6982444Y-15400963D01*
X6982444Y-15400963D02*
X6972920Y-15410487D01*
X6972920Y-15410487D02*
X6953872Y-15420010D01*
X6953872Y-15420010D02*
X6915777Y-15420010D01*
X6915777Y-15420010D02*
X6896729Y-15429534D01*
X6896729Y-15429534D02*
X6887206Y-15439058D01*
X6887206Y-15439058D02*
X6877682Y-15458106D01*
X6877682Y-15458106D02*
X6877682Y-15496201D01*
X6877682Y-15496201D02*
X6887206Y-15515249D01*
X6887206Y-15515249D02*
X6896729Y-15524772D01*
X6896729Y-15524772D02*
X6915777Y-15534296D01*
X6915777Y-15534296D02*
X6953872Y-15534296D01*
X6953872Y-15534296D02*
X6972920Y-15524772D01*
X6972920Y-15524772D02*
X6982444Y-15515249D01*
X6982444Y-15515249D02*
X6991968Y-15496201D01*
X6991968Y-15496201D02*
X6991968Y-15458106D01*
X6991968Y-15458106D02*
X6982444Y-15439058D01*
X6982444Y-15439058D02*
X6972920Y-15429534D01*
X6972920Y-15429534D02*
X6953872Y-15420010D01*
X7230063Y-15534296D02*
X7230063Y-15334296D01*
X7315777Y-15534296D02*
X7315777Y-15429534D01*
X7315777Y-15429534D02*
X7306253Y-15410487D01*
X7306253Y-15410487D02*
X7287206Y-15400963D01*
X7287206Y-15400963D02*
X7258634Y-15400963D01*
X7258634Y-15400963D02*
X7239587Y-15410487D01*
X7239587Y-15410487D02*
X7230063Y-15420010D01*
X7439587Y-15534296D02*
X7420539Y-15524772D01*
X7420539Y-15524772D02*
X7411015Y-15515249D01*
X7411015Y-15515249D02*
X7401491Y-15496201D01*
X7401491Y-15496201D02*
X7401491Y-15439058D01*
X7401491Y-15439058D02*
X7411015Y-15420010D01*
X7411015Y-15420010D02*
X7420539Y-15410487D01*
X7420539Y-15410487D02*
X7439587Y-15400963D01*
X7439587Y-15400963D02*
X7468158Y-15400963D01*
X7468158Y-15400963D02*
X7487206Y-15410487D01*
X7487206Y-15410487D02*
X7496730Y-15420010D01*
X7496730Y-15420010D02*
X7506253Y-15439058D01*
X7506253Y-15439058D02*
X7506253Y-15496201D01*
X7506253Y-15496201D02*
X7496730Y-15515249D01*
X7496730Y-15515249D02*
X7487206Y-15524772D01*
X7487206Y-15524772D02*
X7468158Y-15534296D01*
X7468158Y-15534296D02*
X7439587Y-15534296D01*
X7620539Y-15534296D02*
X7601491Y-15524772D01*
X7601491Y-15524772D02*
X7591968Y-15505725D01*
X7591968Y-15505725D02*
X7591968Y-15334296D01*
X7772920Y-15524772D02*
X7753872Y-15534296D01*
X7753872Y-15534296D02*
X7715777Y-15534296D01*
X7715777Y-15534296D02*
X7696730Y-15524772D01*
X7696730Y-15524772D02*
X7687206Y-15505725D01*
X7687206Y-15505725D02*
X7687206Y-15429534D01*
X7687206Y-15429534D02*
X7696730Y-15410487D01*
X7696730Y-15410487D02*
X7715777Y-15400963D01*
X7715777Y-15400963D02*
X7753872Y-15400963D01*
X7753872Y-15400963D02*
X7772920Y-15410487D01*
X7772920Y-15410487D02*
X7782444Y-15429534D01*
X7782444Y-15429534D02*
X7782444Y-15448582D01*
X7782444Y-15448582D02*
X7687206Y-15467630D01*
X7858634Y-15524772D02*
X7877682Y-15534296D01*
X7877682Y-15534296D02*
X7915777Y-15534296D01*
X7915777Y-15534296D02*
X7934825Y-15524772D01*
X7934825Y-15524772D02*
X7944349Y-15505725D01*
X7944349Y-15505725D02*
X7944349Y-15496201D01*
X7944349Y-15496201D02*
X7934825Y-15477153D01*
X7934825Y-15477153D02*
X7915777Y-15467630D01*
X7915777Y-15467630D02*
X7887206Y-15467630D01*
X7887206Y-15467630D02*
X7868158Y-15458106D01*
X7868158Y-15458106D02*
X7858634Y-15439058D01*
X7858634Y-15439058D02*
X7858634Y-15429534D01*
X7858634Y-15429534D02*
X7868158Y-15410487D01*
X7868158Y-15410487D02*
X7887206Y-15400963D01*
X7887206Y-15400963D02*
X7915777Y-15400963D01*
X7915777Y-15400963D02*
X7934825Y-15410487D01*
X8011015Y-15610487D02*
X8020539Y-15600963D01*
X8020539Y-15600963D02*
X8039587Y-15572391D01*
X8039587Y-15572391D02*
X8049111Y-15553344D01*
X8049111Y-15553344D02*
X8058634Y-15524772D01*
X8058634Y-15524772D02*
X8068158Y-15477153D01*
X8068158Y-15477153D02*
X8068158Y-15439058D01*
X8068158Y-15439058D02*
X8058634Y-15391439D01*
X8058634Y-15391439D02*
X8049111Y-15362868D01*
X8049111Y-15362868D02*
X8039587Y-15343820D01*
X8039587Y-15343820D02*
X8020539Y-15315249D01*
X8020539Y-15315249D02*
X8011015Y-15305725D01*
X8372920Y-15610487D02*
X8363396Y-15600963D01*
X8363396Y-15600963D02*
X8344349Y-15572391D01*
X8344349Y-15572391D02*
X8334825Y-15553344D01*
X8334825Y-15553344D02*
X8325301Y-15524772D01*
X8325301Y-15524772D02*
X8315777Y-15477153D01*
X8315777Y-15477153D02*
X8315777Y-15439058D01*
X8315777Y-15439058D02*
X8325301Y-15391439D01*
X8325301Y-15391439D02*
X8334825Y-15362868D01*
X8334825Y-15362868D02*
X8344349Y-15343820D01*
X8344349Y-15343820D02*
X8363396Y-15315249D01*
X8363396Y-15315249D02*
X8372920Y-15305725D01*
X8449111Y-15400963D02*
X8449111Y-15534296D01*
X8449111Y-15420010D02*
X8458634Y-15410487D01*
X8458634Y-15410487D02*
X8477682Y-15400963D01*
X8477682Y-15400963D02*
X8506254Y-15400963D01*
X8506254Y-15400963D02*
X8525301Y-15410487D01*
X8525301Y-15410487D02*
X8534825Y-15429534D01*
X8534825Y-15429534D02*
X8534825Y-15534296D01*
X8658634Y-15534296D02*
X8639587Y-15524772D01*
X8639587Y-15524772D02*
X8630063Y-15515249D01*
X8630063Y-15515249D02*
X8620539Y-15496201D01*
X8620539Y-15496201D02*
X8620539Y-15439058D01*
X8620539Y-15439058D02*
X8630063Y-15420010D01*
X8630063Y-15420010D02*
X8639587Y-15410487D01*
X8639587Y-15410487D02*
X8658634Y-15400963D01*
X8658634Y-15400963D02*
X8687206Y-15400963D01*
X8687206Y-15400963D02*
X8706254Y-15410487D01*
X8706254Y-15410487D02*
X8715777Y-15420010D01*
X8715777Y-15420010D02*
X8725301Y-15439058D01*
X8725301Y-15439058D02*
X8725301Y-15496201D01*
X8725301Y-15496201D02*
X8715777Y-15515249D01*
X8715777Y-15515249D02*
X8706254Y-15524772D01*
X8706254Y-15524772D02*
X8687206Y-15534296D01*
X8687206Y-15534296D02*
X8658634Y-15534296D01*
X8782444Y-15400963D02*
X8858634Y-15400963D01*
X8811015Y-15334296D02*
X8811015Y-15505725D01*
X8811015Y-15505725D02*
X8820539Y-15524772D01*
X8820539Y-15524772D02*
X8839587Y-15534296D01*
X8839587Y-15534296D02*
X8858634Y-15534296D01*
X9077682Y-15400963D02*
X9077682Y-15600963D01*
X9077682Y-15410487D02*
X9096730Y-15400963D01*
X9096730Y-15400963D02*
X9134825Y-15400963D01*
X9134825Y-15400963D02*
X9153873Y-15410487D01*
X9153873Y-15410487D02*
X9163396Y-15420010D01*
X9163396Y-15420010D02*
X9172920Y-15439058D01*
X9172920Y-15439058D02*
X9172920Y-15496201D01*
X9172920Y-15496201D02*
X9163396Y-15515249D01*
X9163396Y-15515249D02*
X9153873Y-15524772D01*
X9153873Y-15524772D02*
X9134825Y-15534296D01*
X9134825Y-15534296D02*
X9096730Y-15534296D01*
X9096730Y-15534296D02*
X9077682Y-15524772D01*
X9287206Y-15534296D02*
X9268158Y-15524772D01*
X9268158Y-15524772D02*
X9258635Y-15505725D01*
X9258635Y-15505725D02*
X9258635Y-15334296D01*
X9449111Y-15534296D02*
X9449111Y-15429534D01*
X9449111Y-15429534D02*
X9439587Y-15410487D01*
X9439587Y-15410487D02*
X9420539Y-15400963D01*
X9420539Y-15400963D02*
X9382444Y-15400963D01*
X9382444Y-15400963D02*
X9363396Y-15410487D01*
X9449111Y-15524772D02*
X9430063Y-15534296D01*
X9430063Y-15534296D02*
X9382444Y-15534296D01*
X9382444Y-15534296D02*
X9363396Y-15524772D01*
X9363396Y-15524772D02*
X9353873Y-15505725D01*
X9353873Y-15505725D02*
X9353873Y-15486677D01*
X9353873Y-15486677D02*
X9363396Y-15467630D01*
X9363396Y-15467630D02*
X9382444Y-15458106D01*
X9382444Y-15458106D02*
X9430063Y-15458106D01*
X9430063Y-15458106D02*
X9449111Y-15448582D01*
X9515777Y-15400963D02*
X9591968Y-15400963D01*
X9544349Y-15334296D02*
X9544349Y-15505725D01*
X9544349Y-15505725D02*
X9553873Y-15524772D01*
X9553873Y-15524772D02*
X9572920Y-15534296D01*
X9572920Y-15534296D02*
X9591968Y-15534296D01*
X9734825Y-15524772D02*
X9715777Y-15534296D01*
X9715777Y-15534296D02*
X9677682Y-15534296D01*
X9677682Y-15534296D02*
X9658635Y-15524772D01*
X9658635Y-15524772D02*
X9649111Y-15505725D01*
X9649111Y-15505725D02*
X9649111Y-15429534D01*
X9649111Y-15429534D02*
X9658635Y-15410487D01*
X9658635Y-15410487D02*
X9677682Y-15400963D01*
X9677682Y-15400963D02*
X9715777Y-15400963D01*
X9715777Y-15400963D02*
X9734825Y-15410487D01*
X9734825Y-15410487D02*
X9744349Y-15429534D01*
X9744349Y-15429534D02*
X9744349Y-15448582D01*
X9744349Y-15448582D02*
X9649111Y-15467630D01*
X9915777Y-15534296D02*
X9915777Y-15334296D01*
X9915777Y-15524772D02*
X9896730Y-15534296D01*
X9896730Y-15534296D02*
X9858635Y-15534296D01*
X9858635Y-15534296D02*
X9839587Y-15524772D01*
X9839587Y-15524772D02*
X9830063Y-15515249D01*
X9830063Y-15515249D02*
X9820539Y-15496201D01*
X9820539Y-15496201D02*
X9820539Y-15439058D01*
X9820539Y-15439058D02*
X9830063Y-15420010D01*
X9830063Y-15420010D02*
X9839587Y-15410487D01*
X9839587Y-15410487D02*
X9858635Y-15400963D01*
X9858635Y-15400963D02*
X9896730Y-15400963D01*
X9896730Y-15400963D02*
X9915777Y-15410487D01*
X9991968Y-15610487D02*
X10001492Y-15600963D01*
X10001492Y-15600963D02*
X10020539Y-15572391D01*
X10020539Y-15572391D02*
X10030063Y-15553344D01*
X10030063Y-15553344D02*
X10039587Y-15524772D01*
X10039587Y-15524772D02*
X10049111Y-15477153D01*
X10049111Y-15477153D02*
X10049111Y-15439058D01*
X10049111Y-15439058D02*
X10039587Y-15391439D01*
X10039587Y-15391439D02*
X10030063Y-15362868D01*
X10030063Y-15362868D02*
X10020539Y-15343820D01*
X10020539Y-15343820D02*
X10001492Y-15315249D01*
X10001492Y-15315249D02*
X9991968Y-15305725D01*
X2755000Y-15862812D02*
X2855000Y-15762812D01*
X2755000Y-15662812D01*
X2655000Y-15762812D01*
X2755000Y-15862812D01*
X3201491Y-15720963D02*
X3201491Y-15854296D01*
X3153872Y-15644772D02*
X3106253Y-15787630D01*
X3106253Y-15787630D02*
X3230062Y-15787630D01*
X3306253Y-15835249D02*
X3315777Y-15844772D01*
X3315777Y-15844772D02*
X3306253Y-15854296D01*
X3306253Y-15854296D02*
X3296729Y-15844772D01*
X3296729Y-15844772D02*
X3306253Y-15835249D01*
X3306253Y-15835249D02*
X3306253Y-15854296D01*
X3506253Y-15854296D02*
X3391967Y-15854296D01*
X3449110Y-15854296D02*
X3449110Y-15654296D01*
X3449110Y-15654296D02*
X3430062Y-15682868D01*
X3430062Y-15682868D02*
X3411015Y-15701915D01*
X3411015Y-15701915D02*
X3391967Y-15711439D01*
X3630062Y-15654296D02*
X3649110Y-15654296D01*
X3649110Y-15654296D02*
X3668158Y-15663820D01*
X3668158Y-15663820D02*
X3677682Y-15673344D01*
X3677682Y-15673344D02*
X3687205Y-15692391D01*
X3687205Y-15692391D02*
X3696729Y-15730487D01*
X3696729Y-15730487D02*
X3696729Y-15778106D01*
X3696729Y-15778106D02*
X3687205Y-15816201D01*
X3687205Y-15816201D02*
X3677682Y-15835249D01*
X3677682Y-15835249D02*
X3668158Y-15844772D01*
X3668158Y-15844772D02*
X3649110Y-15854296D01*
X3649110Y-15854296D02*
X3630062Y-15854296D01*
X3630062Y-15854296D02*
X3611015Y-15844772D01*
X3611015Y-15844772D02*
X3601491Y-15835249D01*
X3601491Y-15835249D02*
X3591967Y-15816201D01*
X3591967Y-15816201D02*
X3582443Y-15778106D01*
X3582443Y-15778106D02*
X3582443Y-15730487D01*
X3582443Y-15730487D02*
X3591967Y-15692391D01*
X3591967Y-15692391D02*
X3601491Y-15673344D01*
X3601491Y-15673344D02*
X3611015Y-15663820D01*
X3611015Y-15663820D02*
X3630062Y-15654296D01*
X3820539Y-15654296D02*
X3839586Y-15654296D01*
X3839586Y-15654296D02*
X3858634Y-15663820D01*
X3858634Y-15663820D02*
X3868158Y-15673344D01*
X3868158Y-15673344D02*
X3877682Y-15692391D01*
X3877682Y-15692391D02*
X3887205Y-15730487D01*
X3887205Y-15730487D02*
X3887205Y-15778106D01*
X3887205Y-15778106D02*
X3877682Y-15816201D01*
X3877682Y-15816201D02*
X3868158Y-15835249D01*
X3868158Y-15835249D02*
X3858634Y-15844772D01*
X3858634Y-15844772D02*
X3839586Y-15854296D01*
X3839586Y-15854296D02*
X3820539Y-15854296D01*
X3820539Y-15854296D02*
X3801491Y-15844772D01*
X3801491Y-15844772D02*
X3791967Y-15835249D01*
X3791967Y-15835249D02*
X3782443Y-15816201D01*
X3782443Y-15816201D02*
X3772920Y-15778106D01*
X3772920Y-15778106D02*
X3772920Y-15730487D01*
X3772920Y-15730487D02*
X3782443Y-15692391D01*
X3782443Y-15692391D02*
X3791967Y-15673344D01*
X3791967Y-15673344D02*
X3801491Y-15663820D01*
X3801491Y-15663820D02*
X3820539Y-15654296D01*
X3972920Y-15854296D02*
X3972920Y-15720963D01*
X3972920Y-15740010D02*
X3982443Y-15730487D01*
X3982443Y-15730487D02*
X4001491Y-15720963D01*
X4001491Y-15720963D02*
X4030063Y-15720963D01*
X4030063Y-15720963D02*
X4049110Y-15730487D01*
X4049110Y-15730487D02*
X4058634Y-15749534D01*
X4058634Y-15749534D02*
X4058634Y-15854296D01*
X4058634Y-15749534D02*
X4068158Y-15730487D01*
X4068158Y-15730487D02*
X4087205Y-15720963D01*
X4087205Y-15720963D02*
X4115777Y-15720963D01*
X4115777Y-15720963D02*
X4134824Y-15730487D01*
X4134824Y-15730487D02*
X4144348Y-15749534D01*
X4144348Y-15749534D02*
X4144348Y-15854296D01*
X4239586Y-15854296D02*
X4239586Y-15720963D01*
X4239586Y-15740010D02*
X4249110Y-15730487D01*
X4249110Y-15730487D02*
X4268158Y-15720963D01*
X4268158Y-15720963D02*
X4296729Y-15720963D01*
X4296729Y-15720963D02*
X4315777Y-15730487D01*
X4315777Y-15730487D02*
X4325301Y-15749534D01*
X4325301Y-15749534D02*
X4325301Y-15854296D01*
X4325301Y-15749534D02*
X4334825Y-15730487D01*
X4334825Y-15730487D02*
X4353872Y-15720963D01*
X4353872Y-15720963D02*
X4382444Y-15720963D01*
X4382444Y-15720963D02*
X4401491Y-15730487D01*
X4401491Y-15730487D02*
X4411015Y-15749534D01*
X4411015Y-15749534D02*
X4411015Y-15854296D01*
X4801491Y-15644772D02*
X4630063Y-15901915D01*
X5058634Y-15654296D02*
X5077682Y-15654296D01*
X5077682Y-15654296D02*
X5096729Y-15663820D01*
X5096729Y-15663820D02*
X5106253Y-15673344D01*
X5106253Y-15673344D02*
X5115777Y-15692391D01*
X5115777Y-15692391D02*
X5125301Y-15730487D01*
X5125301Y-15730487D02*
X5125301Y-15778106D01*
X5125301Y-15778106D02*
X5115777Y-15816201D01*
X5115777Y-15816201D02*
X5106253Y-15835249D01*
X5106253Y-15835249D02*
X5096729Y-15844772D01*
X5096729Y-15844772D02*
X5077682Y-15854296D01*
X5077682Y-15854296D02*
X5058634Y-15854296D01*
X5058634Y-15854296D02*
X5039587Y-15844772D01*
X5039587Y-15844772D02*
X5030063Y-15835249D01*
X5030063Y-15835249D02*
X5020539Y-15816201D01*
X5020539Y-15816201D02*
X5011015Y-15778106D01*
X5011015Y-15778106D02*
X5011015Y-15730487D01*
X5011015Y-15730487D02*
X5020539Y-15692391D01*
X5020539Y-15692391D02*
X5030063Y-15673344D01*
X5030063Y-15673344D02*
X5039587Y-15663820D01*
X5039587Y-15663820D02*
X5058634Y-15654296D01*
X5211015Y-15835249D02*
X5220539Y-15844772D01*
X5220539Y-15844772D02*
X5211015Y-15854296D01*
X5211015Y-15854296D02*
X5201491Y-15844772D01*
X5201491Y-15844772D02*
X5211015Y-15835249D01*
X5211015Y-15835249D02*
X5211015Y-15854296D01*
X5411015Y-15854296D02*
X5296729Y-15854296D01*
X5353872Y-15854296D02*
X5353872Y-15654296D01*
X5353872Y-15654296D02*
X5334825Y-15682868D01*
X5334825Y-15682868D02*
X5315777Y-15701915D01*
X5315777Y-15701915D02*
X5296729Y-15711439D01*
X5582444Y-15654296D02*
X5544348Y-15654296D01*
X5544348Y-15654296D02*
X5525301Y-15663820D01*
X5525301Y-15663820D02*
X5515777Y-15673344D01*
X5515777Y-15673344D02*
X5496729Y-15701915D01*
X5496729Y-15701915D02*
X5487206Y-15740010D01*
X5487206Y-15740010D02*
X5487206Y-15816201D01*
X5487206Y-15816201D02*
X5496729Y-15835249D01*
X5496729Y-15835249D02*
X5506253Y-15844772D01*
X5506253Y-15844772D02*
X5525301Y-15854296D01*
X5525301Y-15854296D02*
X5563396Y-15854296D01*
X5563396Y-15854296D02*
X5582444Y-15844772D01*
X5582444Y-15844772D02*
X5591968Y-15835249D01*
X5591968Y-15835249D02*
X5601491Y-15816201D01*
X5601491Y-15816201D02*
X5601491Y-15768582D01*
X5601491Y-15768582D02*
X5591968Y-15749534D01*
X5591968Y-15749534D02*
X5582444Y-15740010D01*
X5582444Y-15740010D02*
X5563396Y-15730487D01*
X5563396Y-15730487D02*
X5525301Y-15730487D01*
X5525301Y-15730487D02*
X5506253Y-15740010D01*
X5506253Y-15740010D02*
X5496729Y-15749534D01*
X5496729Y-15749534D02*
X5487206Y-15768582D01*
X5791967Y-15854296D02*
X5677682Y-15854296D01*
X5734825Y-15854296D02*
X5734825Y-15654296D01*
X5734825Y-15654296D02*
X5715777Y-15682868D01*
X5715777Y-15682868D02*
X5696729Y-15701915D01*
X5696729Y-15701915D02*
X5677682Y-15711439D01*
X5963396Y-15720963D02*
X5963396Y-15854296D01*
X5915777Y-15644772D02*
X5868158Y-15787630D01*
X5868158Y-15787630D02*
X5991967Y-15787630D01*
X6058634Y-15654296D02*
X6058634Y-15692391D01*
X6134825Y-15654296D02*
X6134825Y-15692391D01*
X6430063Y-15930487D02*
X6420539Y-15920963D01*
X6420539Y-15920963D02*
X6401491Y-15892391D01*
X6401491Y-15892391D02*
X6391968Y-15873344D01*
X6391968Y-15873344D02*
X6382444Y-15844772D01*
X6382444Y-15844772D02*
X6372920Y-15797153D01*
X6372920Y-15797153D02*
X6372920Y-15759058D01*
X6372920Y-15759058D02*
X6382444Y-15711439D01*
X6382444Y-15711439D02*
X6391968Y-15682868D01*
X6391968Y-15682868D02*
X6401491Y-15663820D01*
X6401491Y-15663820D02*
X6420539Y-15635249D01*
X6420539Y-15635249D02*
X6430063Y-15625725D01*
X6496729Y-15673344D02*
X6506253Y-15663820D01*
X6506253Y-15663820D02*
X6525301Y-15654296D01*
X6525301Y-15654296D02*
X6572920Y-15654296D01*
X6572920Y-15654296D02*
X6591968Y-15663820D01*
X6591968Y-15663820D02*
X6601491Y-15673344D01*
X6601491Y-15673344D02*
X6611015Y-15692391D01*
X6611015Y-15692391D02*
X6611015Y-15711439D01*
X6611015Y-15711439D02*
X6601491Y-15740010D01*
X6601491Y-15740010D02*
X6487206Y-15854296D01*
X6487206Y-15854296D02*
X6611015Y-15854296D01*
X6677682Y-15654296D02*
X6811015Y-15654296D01*
X6811015Y-15654296D02*
X6725301Y-15854296D01*
X7039587Y-15854296D02*
X7039587Y-15654296D01*
X7125301Y-15854296D02*
X7125301Y-15749534D01*
X7125301Y-15749534D02*
X7115777Y-15730487D01*
X7115777Y-15730487D02*
X7096730Y-15720963D01*
X7096730Y-15720963D02*
X7068158Y-15720963D01*
X7068158Y-15720963D02*
X7049110Y-15730487D01*
X7049110Y-15730487D02*
X7039587Y-15740010D01*
X7249110Y-15854296D02*
X7230063Y-15844772D01*
X7230063Y-15844772D02*
X7220539Y-15835249D01*
X7220539Y-15835249D02*
X7211015Y-15816201D01*
X7211015Y-15816201D02*
X7211015Y-15759058D01*
X7211015Y-15759058D02*
X7220539Y-15740010D01*
X7220539Y-15740010D02*
X7230063Y-15730487D01*
X7230063Y-15730487D02*
X7249110Y-15720963D01*
X7249110Y-15720963D02*
X7277682Y-15720963D01*
X7277682Y-15720963D02*
X7296730Y-15730487D01*
X7296730Y-15730487D02*
X7306253Y-15740010D01*
X7306253Y-15740010D02*
X7315777Y-15759058D01*
X7315777Y-15759058D02*
X7315777Y-15816201D01*
X7315777Y-15816201D02*
X7306253Y-15835249D01*
X7306253Y-15835249D02*
X7296730Y-15844772D01*
X7296730Y-15844772D02*
X7277682Y-15854296D01*
X7277682Y-15854296D02*
X7249110Y-15854296D01*
X7430063Y-15854296D02*
X7411015Y-15844772D01*
X7411015Y-15844772D02*
X7401491Y-15825725D01*
X7401491Y-15825725D02*
X7401491Y-15654296D01*
X7582444Y-15844772D02*
X7563396Y-15854296D01*
X7563396Y-15854296D02*
X7525301Y-15854296D01*
X7525301Y-15854296D02*
X7506253Y-15844772D01*
X7506253Y-15844772D02*
X7496730Y-15825725D01*
X7496730Y-15825725D02*
X7496730Y-15749534D01*
X7496730Y-15749534D02*
X7506253Y-15730487D01*
X7506253Y-15730487D02*
X7525301Y-15720963D01*
X7525301Y-15720963D02*
X7563396Y-15720963D01*
X7563396Y-15720963D02*
X7582444Y-15730487D01*
X7582444Y-15730487D02*
X7591968Y-15749534D01*
X7591968Y-15749534D02*
X7591968Y-15768582D01*
X7591968Y-15768582D02*
X7496730Y-15787630D01*
X7668158Y-15844772D02*
X7687206Y-15854296D01*
X7687206Y-15854296D02*
X7725301Y-15854296D01*
X7725301Y-15854296D02*
X7744349Y-15844772D01*
X7744349Y-15844772D02*
X7753872Y-15825725D01*
X7753872Y-15825725D02*
X7753872Y-15816201D01*
X7753872Y-15816201D02*
X7744349Y-15797153D01*
X7744349Y-15797153D02*
X7725301Y-15787630D01*
X7725301Y-15787630D02*
X7696730Y-15787630D01*
X7696730Y-15787630D02*
X7677682Y-15778106D01*
X7677682Y-15778106D02*
X7668158Y-15759058D01*
X7668158Y-15759058D02*
X7668158Y-15749534D01*
X7668158Y-15749534D02*
X7677682Y-15730487D01*
X7677682Y-15730487D02*
X7696730Y-15720963D01*
X7696730Y-15720963D02*
X7725301Y-15720963D01*
X7725301Y-15720963D02*
X7744349Y-15730487D01*
X7820539Y-15930487D02*
X7830063Y-15920963D01*
X7830063Y-15920963D02*
X7849111Y-15892391D01*
X7849111Y-15892391D02*
X7858634Y-15873344D01*
X7858634Y-15873344D02*
X7868158Y-15844772D01*
X7868158Y-15844772D02*
X7877682Y-15797153D01*
X7877682Y-15797153D02*
X7877682Y-15759058D01*
X7877682Y-15759058D02*
X7868158Y-15711439D01*
X7868158Y-15711439D02*
X7858634Y-15682868D01*
X7858634Y-15682868D02*
X7849111Y-15663820D01*
X7849111Y-15663820D02*
X7830063Y-15635249D01*
X7830063Y-15635249D02*
X7820539Y-15625725D01*
X8182444Y-15930487D02*
X8172920Y-15920963D01*
X8172920Y-15920963D02*
X8153872Y-15892391D01*
X8153872Y-15892391D02*
X8144349Y-15873344D01*
X8144349Y-15873344D02*
X8134825Y-15844772D01*
X8134825Y-15844772D02*
X8125301Y-15797153D01*
X8125301Y-15797153D02*
X8125301Y-15759058D01*
X8125301Y-15759058D02*
X8134825Y-15711439D01*
X8134825Y-15711439D02*
X8144349Y-15682868D01*
X8144349Y-15682868D02*
X8153872Y-15663820D01*
X8153872Y-15663820D02*
X8172920Y-15635249D01*
X8172920Y-15635249D02*
X8182444Y-15625725D01*
X8258634Y-15720963D02*
X8258634Y-15854296D01*
X8258634Y-15740010D02*
X8268158Y-15730487D01*
X8268158Y-15730487D02*
X8287206Y-15720963D01*
X8287206Y-15720963D02*
X8315777Y-15720963D01*
X8315777Y-15720963D02*
X8334825Y-15730487D01*
X8334825Y-15730487D02*
X8344349Y-15749534D01*
X8344349Y-15749534D02*
X8344349Y-15854296D01*
X8468158Y-15854296D02*
X8449111Y-15844772D01*
X8449111Y-15844772D02*
X8439587Y-15835249D01*
X8439587Y-15835249D02*
X8430063Y-15816201D01*
X8430063Y-15816201D02*
X8430063Y-15759058D01*
X8430063Y-15759058D02*
X8439587Y-15740010D01*
X8439587Y-15740010D02*
X8449111Y-15730487D01*
X8449111Y-15730487D02*
X8468158Y-15720963D01*
X8468158Y-15720963D02*
X8496730Y-15720963D01*
X8496730Y-15720963D02*
X8515777Y-15730487D01*
X8515777Y-15730487D02*
X8525301Y-15740010D01*
X8525301Y-15740010D02*
X8534825Y-15759058D01*
X8534825Y-15759058D02*
X8534825Y-15816201D01*
X8534825Y-15816201D02*
X8525301Y-15835249D01*
X8525301Y-15835249D02*
X8515777Y-15844772D01*
X8515777Y-15844772D02*
X8496730Y-15854296D01*
X8496730Y-15854296D02*
X8468158Y-15854296D01*
X8591968Y-15720963D02*
X8668158Y-15720963D01*
X8620539Y-15654296D02*
X8620539Y-15825725D01*
X8620539Y-15825725D02*
X8630063Y-15844772D01*
X8630063Y-15844772D02*
X8649111Y-15854296D01*
X8649111Y-15854296D02*
X8668158Y-15854296D01*
X8887206Y-15720963D02*
X8887206Y-15920963D01*
X8887206Y-15730487D02*
X8906254Y-15720963D01*
X8906254Y-15720963D02*
X8944349Y-15720963D01*
X8944349Y-15720963D02*
X8963396Y-15730487D01*
X8963396Y-15730487D02*
X8972920Y-15740010D01*
X8972920Y-15740010D02*
X8982444Y-15759058D01*
X8982444Y-15759058D02*
X8982444Y-15816201D01*
X8982444Y-15816201D02*
X8972920Y-15835249D01*
X8972920Y-15835249D02*
X8963396Y-15844772D01*
X8963396Y-15844772D02*
X8944349Y-15854296D01*
X8944349Y-15854296D02*
X8906254Y-15854296D01*
X8906254Y-15854296D02*
X8887206Y-15844772D01*
X9096730Y-15854296D02*
X9077682Y-15844772D01*
X9077682Y-15844772D02*
X9068158Y-15825725D01*
X9068158Y-15825725D02*
X9068158Y-15654296D01*
X9258635Y-15854296D02*
X9258635Y-15749534D01*
X9258635Y-15749534D02*
X9249111Y-15730487D01*
X9249111Y-15730487D02*
X9230063Y-15720963D01*
X9230063Y-15720963D02*
X9191968Y-15720963D01*
X9191968Y-15720963D02*
X9172920Y-15730487D01*
X9258635Y-15844772D02*
X9239587Y-15854296D01*
X9239587Y-15854296D02*
X9191968Y-15854296D01*
X9191968Y-15854296D02*
X9172920Y-15844772D01*
X9172920Y-15844772D02*
X9163396Y-15825725D01*
X9163396Y-15825725D02*
X9163396Y-15806677D01*
X9163396Y-15806677D02*
X9172920Y-15787630D01*
X9172920Y-15787630D02*
X9191968Y-15778106D01*
X9191968Y-15778106D02*
X9239587Y-15778106D01*
X9239587Y-15778106D02*
X9258635Y-15768582D01*
X9325301Y-15720963D02*
X9401492Y-15720963D01*
X9353873Y-15654296D02*
X9353873Y-15825725D01*
X9353873Y-15825725D02*
X9363396Y-15844772D01*
X9363396Y-15844772D02*
X9382444Y-15854296D01*
X9382444Y-15854296D02*
X9401492Y-15854296D01*
X9544349Y-15844772D02*
X9525301Y-15854296D01*
X9525301Y-15854296D02*
X9487206Y-15854296D01*
X9487206Y-15854296D02*
X9468158Y-15844772D01*
X9468158Y-15844772D02*
X9458635Y-15825725D01*
X9458635Y-15825725D02*
X9458635Y-15749534D01*
X9458635Y-15749534D02*
X9468158Y-15730487D01*
X9468158Y-15730487D02*
X9487206Y-15720963D01*
X9487206Y-15720963D02*
X9525301Y-15720963D01*
X9525301Y-15720963D02*
X9544349Y-15730487D01*
X9544349Y-15730487D02*
X9553873Y-15749534D01*
X9553873Y-15749534D02*
X9553873Y-15768582D01*
X9553873Y-15768582D02*
X9458635Y-15787630D01*
X9725301Y-15854296D02*
X9725301Y-15654296D01*
X9725301Y-15844772D02*
X9706254Y-15854296D01*
X9706254Y-15854296D02*
X9668158Y-15854296D01*
X9668158Y-15854296D02*
X9649111Y-15844772D01*
X9649111Y-15844772D02*
X9639587Y-15835249D01*
X9639587Y-15835249D02*
X9630063Y-15816201D01*
X9630063Y-15816201D02*
X9630063Y-15759058D01*
X9630063Y-15759058D02*
X9639587Y-15740010D01*
X9639587Y-15740010D02*
X9649111Y-15730487D01*
X9649111Y-15730487D02*
X9668158Y-15720963D01*
X9668158Y-15720963D02*
X9706254Y-15720963D01*
X9706254Y-15720963D02*
X9725301Y-15730487D01*
X9801492Y-15930487D02*
X9811016Y-15920963D01*
X9811016Y-15920963D02*
X9830063Y-15892391D01*
X9830063Y-15892391D02*
X9839587Y-15873344D01*
X9839587Y-15873344D02*
X9849111Y-15844772D01*
X9849111Y-15844772D02*
X9858635Y-15797153D01*
X9858635Y-15797153D02*
X9858635Y-15759058D01*
X9858635Y-15759058D02*
X9849111Y-15711439D01*
X9849111Y-15711439D02*
X9839587Y-15682868D01*
X9839587Y-15682868D02*
X9830063Y-15663820D01*
X9830063Y-15663820D02*
X9811016Y-15635249D01*
X9811016Y-15635249D02*
X9801492Y-15625725D01*
M02*
