M48
; DRILL file {KiCad 8.0.4} date 2024-09-10T03:21:52+0300
; FORMAT={-:-/ absolute / metric / decimal}
; #@! TF.CreationDate,2024-09-10T03:21:52+03:00
; #@! TF.GenerationSoftware,Kicad,Pcbnew,8.0.4
; #@! TF.FileFunction,Plated,1,2,PTH
FMAT,2
METRIC
; #@! TA.AperFunction,Plated,PTH,ViaDrill
T1C0.300
; #@! TA.AperFunction,Plated,PTH,ComponentDrill
T2C0.800
; #@! TA.AperFunction,Plated,PTH,ComponentDrill
T3C1.000
%
G90
G05
T1
X40.481Y-33.337
X47.625Y-52.387
X50.006Y-69.056
X50.006Y-88.106
X59.531Y-33.337
X69.056Y-50.006
X69.056Y-69.056
X69.056Y-85.725
X78.581Y-30.956
X88.106Y-29.175
X88.106Y-47.625
X88.106Y-66.675
X88.106Y-85.725
X97.631Y-28.575
X107.156Y-47.625
X107.156Y-66.675
X107.156Y-85.725
X109.537Y-107.156
X116.681Y-30.956
X126.206Y-50.006
X126.206Y-69.056
X126.206Y-88.106
X135.731Y-33.337
X140.494Y-52.387
X142.718Y-47.468
X142.875Y-102.394
X143.4Y-43.8
X145.132Y-40.728
X145.2Y-98.0
X145.256Y-114.3
X148.0Y-97.2
X150.2Y-105.0
X151.209Y-36.909
X153.2Y-102.4
X154.0Y-102.2
X154.4Y-98.8
X157.0Y-54.2
X158.4Y-103.0
T2
X36.059Y-88.106
X36.059Y-107.156
X36.409Y-50.006
X36.909Y-69.056
X43.679Y-88.106
X43.679Y-107.156
X44.029Y-50.006
X44.529Y-69.056
X55.109Y-88.106
X55.109Y-107.156
X55.459Y-50.006
X55.459Y-69.056
X62.729Y-88.106
X62.729Y-107.156
X63.079Y-50.006
X63.079Y-69.056
X73.959Y-85.725
X74.159Y-104.775
X74.509Y-47.625
X74.759Y-66.675
X81.579Y-85.725
X81.779Y-104.775
X82.129Y-47.625
X82.379Y-66.675
X93.209Y-83.344
X93.209Y-64.294
X93.559Y-45.244
X93.821Y-102.394
X95.59Y-123.825
X100.829Y-83.344
X100.829Y-64.294
X101.179Y-45.244
X101.441Y-102.394
X103.21Y-123.825
X112.259Y-85.725
X112.609Y-47.625
X112.609Y-66.675
X112.609Y-104.775
X114.782Y-125.13
X119.879Y-85.725
X120.229Y-47.625
X120.229Y-66.675
X120.229Y-104.775
X122.142Y-127.102
X131.007Y-122.665
X131.309Y-88.106
X131.309Y-69.056
X132.159Y-50.006
X132.874Y-107.156
X134.817Y-116.066
X138.929Y-88.106
X138.929Y-69.056
X139.779Y-50.006
X140.494Y-107.156
T3
X148.089Y-32.731
X148.089Y-35.271
X148.089Y-37.811
X148.089Y-40.351
X148.089Y-42.891
X148.089Y-45.431
X148.089Y-47.971
X148.089Y-50.511
X148.089Y-53.051
X150.629Y-53.051
X153.169Y-53.051
X155.709Y-53.051
X158.249Y-53.051
X160.789Y-53.051
X163.329Y-32.731
X163.329Y-35.271
X163.329Y-37.811
X163.329Y-40.351
X163.329Y-42.891
X163.329Y-45.431
X163.329Y-47.971
X163.329Y-50.511
X163.329Y-53.051
M30
