G04 #@! TF.GenerationSoftware,KiCad,Pcbnew,8.0.4*
G04 #@! TF.CreationDate,2024-09-10T03:21:52+03:00*
G04 #@! TF.ProjectId,silakka54,73696c61-6b6b-4613-9534-2e6b69636164,rev?*
G04 #@! TF.SameCoordinates,Original*
G04 #@! TF.FileFunction,Legend,Bot*
G04 #@! TF.FilePolarity,Positive*
%FSLAX46Y46*%
G04 Gerber Fmt 4.6, Leading zero omitted, Abs format (unit mm)*
G04 Created by KiCad (PCBNEW 8.0.4) date 2024-09-10 03:21:52*
%MOMM*%
%LPD*%
G01*
G04 APERTURE LIST*
G04 Aperture macros list*
%AMHorizOval*
0 Thick line with rounded ends*
0 $1 width*
0 $2 $3 position (X,Y) of the first rounded end (center of the circle)*
0 $4 $5 position (X,Y) of the second rounded end (center of the circle)*
0 Add line between two ends*
20,1,$1,$2,$3,$4,$5,0*
0 Add two circle primitives to create the rounded ends*
1,1,$1,$2,$3*
1,1,$1,$4,$5*%
%AMRotRect*
0 Rectangle, with rotation*
0 The origin of the aperture is its center*
0 $1 length*
0 $2 width*
0 $3 Rotation angle, in degrees counterclockwise*
0 Add horizontal line*
21,1,$1,$2,0,0,$3*%
G04 Aperture macros list end*
%ADD10C,0.150000*%
%ADD11C,0.100000*%
%ADD12C,0.300000*%
%ADD13C,0.500000*%
%ADD14C,0.800000*%
%ADD15C,3.000000*%
%ADD16C,3.500000*%
%ADD17C,1.000000*%
%ADD18C,0.400000*%
%ADD19C,0.120000*%
%ADD20R,1.600000X1.600000*%
%ADD21O,1.600000X1.600000*%
%ADD22C,1.900000*%
%ADD23C,1.700000*%
%ADD24C,3.000000*%
%ADD25C,4.100000*%
%ADD26R,2.300000X2.000000*%
%ADD27RotRect,1.600000X1.600000X240.000000*%
%ADD28HorizOval,1.600000X0.000000X0.000000X0.000000X0.000000X0*%
%ADD29RotRect,2.300000X2.000000X165.000000*%
%ADD30RotRect,2.300000X2.000000X60.000000*%
%ADD31O,2.500000X1.500000*%
%ADD32O,1.500000X2.500000*%
%ADD33RotRect,1.600000X1.600000X165.000000*%
%ADD34HorizOval,1.600000X0.000000X0.000000X0.000000X0.000000X0*%
%ADD35C,1.500000*%
%ADD36RotRect,1.200000X2.500000X240.000000*%
G04 APERTURE END LIST*
D10*
X157173878Y-48829887D02*
X157173878Y-49163220D01*
X156650068Y-49163220D02*
X157650068Y-49163220D01*
X157650068Y-49163220D02*
X157650068Y-48687030D01*
X156650068Y-48163220D02*
X156697688Y-48258458D01*
X156697688Y-48258458D02*
X156792926Y-48306077D01*
X156792926Y-48306077D02*
X157650068Y-48306077D01*
X156650068Y-47782267D02*
X157316735Y-47782267D01*
X157650068Y-47782267D02*
X157602449Y-47829886D01*
X157602449Y-47829886D02*
X157554830Y-47782267D01*
X157554830Y-47782267D02*
X157602449Y-47734648D01*
X157602449Y-47734648D02*
X157650068Y-47782267D01*
X157650068Y-47782267D02*
X157554830Y-47782267D01*
X157316735Y-47306077D02*
X156316735Y-47306077D01*
X157269116Y-47306077D02*
X157316735Y-47210839D01*
X157316735Y-47210839D02*
X157316735Y-47020363D01*
X157316735Y-47020363D02*
X157269116Y-46925125D01*
X157269116Y-46925125D02*
X157221497Y-46877506D01*
X157221497Y-46877506D02*
X157126259Y-46829887D01*
X157126259Y-46829887D02*
X156840545Y-46829887D01*
X156840545Y-46829887D02*
X156745307Y-46877506D01*
X156745307Y-46877506D02*
X156697688Y-46925125D01*
X156697688Y-46925125D02*
X156650068Y-47020363D01*
X156650068Y-47020363D02*
X156650068Y-47210839D01*
X156650068Y-47210839D02*
X156697688Y-47306077D01*
X157316735Y-45782267D02*
X157316735Y-45401315D01*
X157650068Y-45639410D02*
X156792926Y-45639410D01*
X156792926Y-45639410D02*
X156697688Y-45591791D01*
X156697688Y-45591791D02*
X156650068Y-45496553D01*
X156650068Y-45496553D02*
X156650068Y-45401315D01*
X156650068Y-45067981D02*
X157650068Y-45067981D01*
X156650068Y-44639410D02*
X157173878Y-44639410D01*
X157173878Y-44639410D02*
X157269116Y-44687029D01*
X157269116Y-44687029D02*
X157316735Y-44782267D01*
X157316735Y-44782267D02*
X157316735Y-44925124D01*
X157316735Y-44925124D02*
X157269116Y-45020362D01*
X157269116Y-45020362D02*
X157221497Y-45067981D01*
X156697688Y-43782267D02*
X156650068Y-43877505D01*
X156650068Y-43877505D02*
X156650068Y-44067981D01*
X156650068Y-44067981D02*
X156697688Y-44163219D01*
X156697688Y-44163219D02*
X156792926Y-44210838D01*
X156792926Y-44210838D02*
X157173878Y-44210838D01*
X157173878Y-44210838D02*
X157269116Y-44163219D01*
X157269116Y-44163219D02*
X157316735Y-44067981D01*
X157316735Y-44067981D02*
X157316735Y-43877505D01*
X157316735Y-43877505D02*
X157269116Y-43782267D01*
X157269116Y-43782267D02*
X157173878Y-43734648D01*
X157173878Y-43734648D02*
X157078640Y-43734648D01*
X157078640Y-43734648D02*
X156983402Y-44210838D01*
X156697688Y-42115600D02*
X156650068Y-42210838D01*
X156650068Y-42210838D02*
X156650068Y-42401314D01*
X156650068Y-42401314D02*
X156697688Y-42496552D01*
X156697688Y-42496552D02*
X156745307Y-42544171D01*
X156745307Y-42544171D02*
X156840545Y-42591790D01*
X156840545Y-42591790D02*
X157126259Y-42591790D01*
X157126259Y-42591790D02*
X157221497Y-42544171D01*
X157221497Y-42544171D02*
X157269116Y-42496552D01*
X157269116Y-42496552D02*
X157316735Y-42401314D01*
X157316735Y-42401314D02*
X157316735Y-42210838D01*
X157316735Y-42210838D02*
X157269116Y-42115600D01*
X156650068Y-41544171D02*
X156697688Y-41639409D01*
X156697688Y-41639409D02*
X156745307Y-41687028D01*
X156745307Y-41687028D02*
X156840545Y-41734647D01*
X156840545Y-41734647D02*
X157126259Y-41734647D01*
X157126259Y-41734647D02*
X157221497Y-41687028D01*
X157221497Y-41687028D02*
X157269116Y-41639409D01*
X157269116Y-41639409D02*
X157316735Y-41544171D01*
X157316735Y-41544171D02*
X157316735Y-41401314D01*
X157316735Y-41401314D02*
X157269116Y-41306076D01*
X157269116Y-41306076D02*
X157221497Y-41258457D01*
X157221497Y-41258457D02*
X157126259Y-41210838D01*
X157126259Y-41210838D02*
X156840545Y-41210838D01*
X156840545Y-41210838D02*
X156745307Y-41258457D01*
X156745307Y-41258457D02*
X156697688Y-41306076D01*
X156697688Y-41306076D02*
X156650068Y-41401314D01*
X156650068Y-41401314D02*
X156650068Y-41544171D01*
X157316735Y-40782266D02*
X156650068Y-40782266D01*
X157221497Y-40782266D02*
X157269116Y-40734647D01*
X157269116Y-40734647D02*
X157316735Y-40639409D01*
X157316735Y-40639409D02*
X157316735Y-40496552D01*
X157316735Y-40496552D02*
X157269116Y-40401314D01*
X157269116Y-40401314D02*
X157173878Y-40353695D01*
X157173878Y-40353695D02*
X156650068Y-40353695D01*
X157316735Y-40020361D02*
X157316735Y-39639409D01*
X157650068Y-39877504D02*
X156792926Y-39877504D01*
X156792926Y-39877504D02*
X156697688Y-39829885D01*
X156697688Y-39829885D02*
X156650068Y-39734647D01*
X156650068Y-39734647D02*
X156650068Y-39639409D01*
X156650068Y-39306075D02*
X157316735Y-39306075D01*
X157126259Y-39306075D02*
X157221497Y-39258456D01*
X157221497Y-39258456D02*
X157269116Y-39210837D01*
X157269116Y-39210837D02*
X157316735Y-39115599D01*
X157316735Y-39115599D02*
X157316735Y-39020361D01*
X156650068Y-38544170D02*
X156697688Y-38639408D01*
X156697688Y-38639408D02*
X156745307Y-38687027D01*
X156745307Y-38687027D02*
X156840545Y-38734646D01*
X156840545Y-38734646D02*
X157126259Y-38734646D01*
X157126259Y-38734646D02*
X157221497Y-38687027D01*
X157221497Y-38687027D02*
X157269116Y-38639408D01*
X157269116Y-38639408D02*
X157316735Y-38544170D01*
X157316735Y-38544170D02*
X157316735Y-38401313D01*
X157316735Y-38401313D02*
X157269116Y-38306075D01*
X157269116Y-38306075D02*
X157221497Y-38258456D01*
X157221497Y-38258456D02*
X157126259Y-38210837D01*
X157126259Y-38210837D02*
X156840545Y-38210837D01*
X156840545Y-38210837D02*
X156745307Y-38258456D01*
X156745307Y-38258456D02*
X156697688Y-38306075D01*
X156697688Y-38306075D02*
X156650068Y-38401313D01*
X156650068Y-38401313D02*
X156650068Y-38544170D01*
X156650068Y-37639408D02*
X156697688Y-37734646D01*
X156697688Y-37734646D02*
X156792926Y-37782265D01*
X156792926Y-37782265D02*
X157650068Y-37782265D01*
X156650068Y-37115598D02*
X156697688Y-37210836D01*
X156697688Y-37210836D02*
X156792926Y-37258455D01*
X156792926Y-37258455D02*
X157650068Y-37258455D01*
X156697688Y-36353693D02*
X156650068Y-36448931D01*
X156650068Y-36448931D02*
X156650068Y-36639407D01*
X156650068Y-36639407D02*
X156697688Y-36734645D01*
X156697688Y-36734645D02*
X156792926Y-36782264D01*
X156792926Y-36782264D02*
X157173878Y-36782264D01*
X157173878Y-36782264D02*
X157269116Y-36734645D01*
X157269116Y-36734645D02*
X157316735Y-36639407D01*
X157316735Y-36639407D02*
X157316735Y-36448931D01*
X157316735Y-36448931D02*
X157269116Y-36353693D01*
X157269116Y-36353693D02*
X157173878Y-36306074D01*
X157173878Y-36306074D02*
X157078640Y-36306074D01*
X157078640Y-36306074D02*
X156983402Y-36782264D01*
X156650068Y-35877502D02*
X157316735Y-35877502D01*
X157126259Y-35877502D02*
X157221497Y-35829883D01*
X157221497Y-35829883D02*
X157269116Y-35782264D01*
X157269116Y-35782264D02*
X157316735Y-35687026D01*
X157316735Y-35687026D02*
X157316735Y-35591788D01*
X156745307Y-35258454D02*
X156697688Y-35210835D01*
X156697688Y-35210835D02*
X156650068Y-35258454D01*
X156650068Y-35258454D02*
X156697688Y-35306073D01*
X156697688Y-35306073D02*
X156745307Y-35258454D01*
X156745307Y-35258454D02*
X156650068Y-35258454D01*
X157031021Y-35258454D02*
X157602449Y-35306073D01*
X157602449Y-35306073D02*
X157650068Y-35258454D01*
X157650068Y-35258454D02*
X157602449Y-35210835D01*
X157602449Y-35210835D02*
X157031021Y-35258454D01*
X157031021Y-35258454D02*
X157650068Y-35258454D01*
X153430180Y-48591792D02*
X153906371Y-48925125D01*
X153430180Y-49163220D02*
X154430180Y-49163220D01*
X154430180Y-49163220D02*
X154430180Y-48782268D01*
X154430180Y-48782268D02*
X154382561Y-48687030D01*
X154382561Y-48687030D02*
X154334942Y-48639411D01*
X154334942Y-48639411D02*
X154239704Y-48591792D01*
X154239704Y-48591792D02*
X154096847Y-48591792D01*
X154096847Y-48591792D02*
X154001609Y-48639411D01*
X154001609Y-48639411D02*
X153953990Y-48687030D01*
X153953990Y-48687030D02*
X153906371Y-48782268D01*
X153906371Y-48782268D02*
X153906371Y-49163220D01*
X153430180Y-48163220D02*
X154430180Y-48163220D01*
X154382561Y-47163221D02*
X154430180Y-47258459D01*
X154430180Y-47258459D02*
X154430180Y-47401316D01*
X154430180Y-47401316D02*
X154382561Y-47544173D01*
X154382561Y-47544173D02*
X154287323Y-47639411D01*
X154287323Y-47639411D02*
X154192085Y-47687030D01*
X154192085Y-47687030D02*
X154001609Y-47734649D01*
X154001609Y-47734649D02*
X153858752Y-47734649D01*
X153858752Y-47734649D02*
X153668276Y-47687030D01*
X153668276Y-47687030D02*
X153573038Y-47639411D01*
X153573038Y-47639411D02*
X153477800Y-47544173D01*
X153477800Y-47544173D02*
X153430180Y-47401316D01*
X153430180Y-47401316D02*
X153430180Y-47306078D01*
X153430180Y-47306078D02*
X153477800Y-47163221D01*
X153477800Y-47163221D02*
X153525419Y-47115602D01*
X153525419Y-47115602D02*
X153858752Y-47115602D01*
X153858752Y-47115602D02*
X153858752Y-47306078D01*
X153430180Y-46687030D02*
X154430180Y-46687030D01*
X153953990Y-46687030D02*
X153953990Y-46115602D01*
X153430180Y-46115602D02*
X154430180Y-46115602D01*
X154430180Y-45782268D02*
X154430180Y-45210840D01*
X153430180Y-45496554D02*
X154430180Y-45496554D01*
X153477800Y-44163220D02*
X153430180Y-44020363D01*
X153430180Y-44020363D02*
X153430180Y-43782268D01*
X153430180Y-43782268D02*
X153477800Y-43687030D01*
X153477800Y-43687030D02*
X153525419Y-43639411D01*
X153525419Y-43639411D02*
X153620657Y-43591792D01*
X153620657Y-43591792D02*
X153715895Y-43591792D01*
X153715895Y-43591792D02*
X153811133Y-43639411D01*
X153811133Y-43639411D02*
X153858752Y-43687030D01*
X153858752Y-43687030D02*
X153906371Y-43782268D01*
X153906371Y-43782268D02*
X153953990Y-43972744D01*
X153953990Y-43972744D02*
X154001609Y-44067982D01*
X154001609Y-44067982D02*
X154049228Y-44115601D01*
X154049228Y-44115601D02*
X154144466Y-44163220D01*
X154144466Y-44163220D02*
X154239704Y-44163220D01*
X154239704Y-44163220D02*
X154334942Y-44115601D01*
X154334942Y-44115601D02*
X154382561Y-44067982D01*
X154382561Y-44067982D02*
X154430180Y-43972744D01*
X154430180Y-43972744D02*
X154430180Y-43734649D01*
X154430180Y-43734649D02*
X154382561Y-43591792D01*
X153430180Y-43163220D02*
X154430180Y-43163220D01*
X153430180Y-42687030D02*
X154430180Y-42687030D01*
X154430180Y-42687030D02*
X154430180Y-42448935D01*
X154430180Y-42448935D02*
X154382561Y-42306078D01*
X154382561Y-42306078D02*
X154287323Y-42210840D01*
X154287323Y-42210840D02*
X154192085Y-42163221D01*
X154192085Y-42163221D02*
X154001609Y-42115602D01*
X154001609Y-42115602D02*
X153858752Y-42115602D01*
X153858752Y-42115602D02*
X153668276Y-42163221D01*
X153668276Y-42163221D02*
X153573038Y-42210840D01*
X153573038Y-42210840D02*
X153477800Y-42306078D01*
X153477800Y-42306078D02*
X153430180Y-42448935D01*
X153430180Y-42448935D02*
X153430180Y-42687030D01*
X153953990Y-41687030D02*
X153953990Y-41353697D01*
X153430180Y-41210840D02*
X153430180Y-41687030D01*
X153430180Y-41687030D02*
X154430180Y-41687030D01*
X154430180Y-41687030D02*
X154430180Y-41210840D01*
X148048790Y-98142307D02*
X148667379Y-98499450D01*
X148667379Y-98499450D02*
X148814907Y-98529639D01*
X148814907Y-98529639D02*
X148945004Y-98494779D01*
X148945004Y-98494779D02*
X149057672Y-98394871D01*
X149057672Y-98394871D02*
X149105291Y-98312392D01*
X147916982Y-98561080D02*
X147851934Y-98578510D01*
X147851934Y-98578510D02*
X147763075Y-98637179D01*
X147763075Y-98637179D02*
X147644028Y-98843375D01*
X147644028Y-98843375D02*
X147637648Y-98949663D01*
X147637648Y-98949663D02*
X147655078Y-99014712D01*
X147655078Y-99014712D02*
X147713747Y-99103570D01*
X147713747Y-99103570D02*
X147796225Y-99151190D01*
X147796225Y-99151190D02*
X147943753Y-99181379D01*
X147943753Y-99181379D02*
X148724339Y-98972221D01*
X148724339Y-98972221D02*
X148414815Y-99508332D01*
D11*
G04 #@! TO.C,D18*
X134868750Y-87706250D02*
X135468750Y-88106250D01*
X134868750Y-88106250D02*
X134368750Y-88106250D01*
X134868750Y-88506250D02*
X134868750Y-87706250D01*
X135468750Y-88106250D02*
X134868750Y-88506250D01*
X135468750Y-88656250D02*
X135468750Y-87556250D01*
X135868750Y-88106250D02*
X135468750Y-88106250D01*
G04 #@! TO.C,D9*
X78318750Y-66275000D02*
X78918750Y-66675000D01*
X78318750Y-66675000D02*
X77818750Y-66675000D01*
X78318750Y-67075000D02*
X78318750Y-66275000D01*
X78918750Y-66675000D02*
X78318750Y-67075000D01*
X78918750Y-67225000D02*
X78918750Y-66125000D01*
X79318750Y-66675000D02*
X78918750Y-66675000D01*
G04 #@! TO.C,D5*
X116168749Y-47225001D02*
X116768749Y-47625001D01*
X116168749Y-47625001D02*
X115668749Y-47625001D01*
X116168749Y-48025001D02*
X116168749Y-47225001D01*
X116768749Y-47625001D02*
X116168749Y-48025001D01*
X116768749Y-48175001D02*
X116768749Y-47075001D01*
X117168749Y-47625001D02*
X116768749Y-47625001D01*
D10*
G04 #@! TO.C,S25*
X93850000Y-109600000D02*
X93850000Y-110600000D01*
X93850000Y-110600000D02*
X94050000Y-110600000D01*
X93850000Y-113200000D02*
X93850000Y-112840000D01*
X93850000Y-113200000D02*
X97130000Y-113200000D01*
D12*
X93950000Y-110499999D02*
X93950000Y-109600000D01*
D10*
X94050000Y-112840000D02*
X93850000Y-112840000D01*
D13*
X94050000Y-113000000D02*
X96750000Y-113000000D01*
D10*
X94080000Y-110600000D02*
X94080000Y-112840000D01*
D14*
X94450000Y-112700000D02*
X94450000Y-110900001D01*
D15*
X95580000Y-109200000D02*
X95580000Y-111440000D01*
D10*
X99350000Y-111300000D02*
X104350000Y-111300000D01*
D16*
X102350000Y-109500000D02*
X95650000Y-109500000D01*
D17*
X103650000Y-108300000D02*
X103650000Y-110800000D01*
D13*
X104050000Y-111000000D02*
X102650000Y-111000000D01*
D10*
X104130000Y-110300000D02*
X104130000Y-108050000D01*
D18*
X104150000Y-107900000D02*
X102750000Y-107900000D01*
D10*
X104150000Y-108050000D02*
X104350000Y-108050000D01*
D18*
X104150000Y-110400000D02*
X104150000Y-111100000D01*
D10*
X104350000Y-107700000D02*
X95949999Y-107700000D01*
X104350000Y-108050000D02*
X104350000Y-107700000D01*
X104350000Y-110300000D02*
X104150000Y-110300000D01*
X104350000Y-111300000D02*
X104350000Y-110300000D01*
X93850000Y-109600001D02*
G75*
G02*
X95949999Y-107699999I1999999J-99997D01*
G01*
D17*
X96733682Y-112778529D02*
G75*
G02*
X98950000Y-110900000I2151317J-291470D01*
G01*
D10*
X97133682Y-113178529D02*
G75*
G02*
X99350000Y-111300000I2151317J-291470D01*
G01*
D11*
G04 #@! TO.C,D27*
X132441090Y-119382115D02*
X133087500Y-119062500D01*
X132787500Y-119582115D02*
X132537500Y-120015128D01*
X133087500Y-119062500D02*
X133133910Y-119782115D01*
X133133910Y-119782115D02*
X132441090Y-119382115D01*
X133287500Y-118716090D02*
X133087500Y-119062500D01*
X133563814Y-119337500D02*
X132611186Y-118787500D01*
D10*
G04 #@! TO.C,S11*
X110518750Y-52450000D02*
X110518750Y-53450000D01*
X110518750Y-53450000D02*
X110718750Y-53450000D01*
X110518750Y-56050000D02*
X110518750Y-55690000D01*
X110518750Y-56050000D02*
X113798750Y-56050000D01*
D12*
X110618750Y-53349999D02*
X110618750Y-52450000D01*
D10*
X110718750Y-55690000D02*
X110518750Y-55690000D01*
D13*
X110718750Y-55850000D02*
X113418750Y-55850000D01*
D10*
X110748750Y-53450000D02*
X110748750Y-55690000D01*
D14*
X111118750Y-55550000D02*
X111118750Y-53750001D01*
D15*
X112248750Y-52050000D02*
X112248750Y-54290000D01*
D10*
X116018750Y-54150000D02*
X121018750Y-54150000D01*
D16*
X119018750Y-52350000D02*
X112318750Y-52350000D01*
D17*
X120318750Y-51150000D02*
X120318750Y-53650000D01*
D13*
X120718750Y-53850000D02*
X119318750Y-53850000D01*
D10*
X120798750Y-53150000D02*
X120798750Y-50900000D01*
D18*
X120818750Y-50750000D02*
X119418750Y-50750000D01*
D10*
X120818750Y-50900000D02*
X121018750Y-50900000D01*
D18*
X120818750Y-53250000D02*
X120818750Y-53950000D01*
D10*
X121018750Y-50550000D02*
X112618749Y-50550000D01*
X121018750Y-50900000D02*
X121018750Y-50550000D01*
X121018750Y-53150000D02*
X120818750Y-53150000D01*
X121018750Y-54150000D02*
X121018750Y-53150000D01*
X110518750Y-52450001D02*
G75*
G02*
X112618749Y-50549999I1999999J-99997D01*
G01*
D17*
X113402432Y-55628529D02*
G75*
G02*
X115618750Y-53750000I2151317J-291470D01*
G01*
D10*
X113802432Y-56028529D02*
G75*
G02*
X116018750Y-54150000I2151317J-291470D01*
G01*
G04 #@! TO.C,S5*
X110518750Y-33400000D02*
X110518750Y-34400000D01*
X110518750Y-34400000D02*
X110718750Y-34400000D01*
X110518750Y-37000000D02*
X110518750Y-36640000D01*
X110518750Y-37000000D02*
X113798750Y-37000000D01*
D12*
X110618750Y-34299999D02*
X110618750Y-33400000D01*
D10*
X110718750Y-36640000D02*
X110518750Y-36640000D01*
D13*
X110718750Y-36800000D02*
X113418750Y-36800000D01*
D10*
X110748750Y-34400000D02*
X110748750Y-36640000D01*
D14*
X111118750Y-36500000D02*
X111118750Y-34700001D01*
D15*
X112248750Y-33000000D02*
X112248750Y-35240000D01*
D10*
X116018750Y-35100000D02*
X121018750Y-35100000D01*
D16*
X119018750Y-33300000D02*
X112318750Y-33300000D01*
D17*
X120318750Y-32100000D02*
X120318750Y-34600000D01*
D13*
X120718750Y-34800000D02*
X119318750Y-34800000D01*
D10*
X120798750Y-34100000D02*
X120798750Y-31850000D01*
D18*
X120818750Y-31700000D02*
X119418750Y-31700000D01*
D10*
X120818750Y-31850000D02*
X121018750Y-31850000D01*
D18*
X120818750Y-34200000D02*
X120818750Y-34900000D01*
D10*
X121018750Y-31500000D02*
X112618749Y-31500000D01*
X121018750Y-31850000D02*
X121018750Y-31500000D01*
X121018750Y-34100000D02*
X120818750Y-34100000D01*
X121018750Y-35100000D02*
X121018750Y-34100000D01*
X110518750Y-33400001D02*
G75*
G02*
X112618749Y-31499999I1999999J-99997D01*
G01*
D17*
X113402432Y-36578529D02*
G75*
G02*
X115618750Y-34700000I2151317J-291470D01*
G01*
D10*
X113802432Y-36978529D02*
G75*
G02*
X116018750Y-35100000I2151317J-291470D01*
G01*
G04 #@! TO.C,S6*
X129568750Y-35781250D02*
X129568750Y-36781250D01*
X129568750Y-36781250D02*
X129768750Y-36781250D01*
X129568750Y-39381250D02*
X129568750Y-39021250D01*
X129568750Y-39381250D02*
X132848750Y-39381250D01*
D12*
X129668750Y-36681249D02*
X129668750Y-35781250D01*
D10*
X129768750Y-39021250D02*
X129568750Y-39021250D01*
D13*
X129768750Y-39181250D02*
X132468750Y-39181250D01*
D10*
X129798750Y-36781250D02*
X129798750Y-39021250D01*
D14*
X130168750Y-38881250D02*
X130168750Y-37081251D01*
D15*
X131298750Y-35381250D02*
X131298750Y-37621250D01*
D10*
X135068750Y-37481250D02*
X140068750Y-37481250D01*
D16*
X138068750Y-35681250D02*
X131368750Y-35681250D01*
D17*
X139368750Y-34481250D02*
X139368750Y-36981250D01*
D13*
X139768750Y-37181250D02*
X138368750Y-37181250D01*
D10*
X139848750Y-36481250D02*
X139848750Y-34231250D01*
D18*
X139868750Y-34081250D02*
X138468750Y-34081250D01*
D10*
X139868750Y-34231250D02*
X140068750Y-34231250D01*
D18*
X139868750Y-36581250D02*
X139868750Y-37281250D01*
D10*
X140068750Y-33881250D02*
X131668749Y-33881250D01*
X140068750Y-34231250D02*
X140068750Y-33881250D01*
X140068750Y-36481250D02*
X139868750Y-36481250D01*
X140068750Y-37481250D02*
X140068750Y-36481250D01*
X129568750Y-35781251D02*
G75*
G02*
X131668749Y-33881249I1999999J-99997D01*
G01*
D17*
X132452432Y-38959779D02*
G75*
G02*
X134668750Y-37081250I2151317J-291470D01*
G01*
D10*
X132852432Y-39359779D02*
G75*
G02*
X135068750Y-37481250I2151317J-291470D01*
G01*
G04 #@! TO.C,S10*
X91468750Y-50068750D02*
X91468750Y-51068750D01*
X91468750Y-51068750D02*
X91668750Y-51068750D01*
X91468750Y-53668750D02*
X91468750Y-53308750D01*
X91468750Y-53668750D02*
X94748750Y-53668750D01*
D12*
X91568750Y-50968749D02*
X91568750Y-50068750D01*
D10*
X91668750Y-53308750D02*
X91468750Y-53308750D01*
D13*
X91668750Y-53468750D02*
X94368750Y-53468750D01*
D10*
X91698750Y-51068750D02*
X91698750Y-53308750D01*
D14*
X92068750Y-53168750D02*
X92068750Y-51368751D01*
D15*
X93198750Y-49668750D02*
X93198750Y-51908750D01*
D10*
X96968750Y-51768750D02*
X101968750Y-51768750D01*
D16*
X99968750Y-49968750D02*
X93268750Y-49968750D01*
D17*
X101268750Y-48768750D02*
X101268750Y-51268750D01*
D13*
X101668750Y-51468750D02*
X100268750Y-51468750D01*
D10*
X101748750Y-50768750D02*
X101748750Y-48518750D01*
D18*
X101768750Y-48368750D02*
X100368750Y-48368750D01*
D10*
X101768750Y-48518750D02*
X101968750Y-48518750D01*
D18*
X101768750Y-50868750D02*
X101768750Y-51568750D01*
D10*
X101968750Y-48168750D02*
X93568749Y-48168750D01*
X101968750Y-48518750D02*
X101968750Y-48168750D01*
X101968750Y-50768750D02*
X101768750Y-50768750D01*
X101968750Y-51768750D02*
X101968750Y-50768750D01*
X91468750Y-50068751D02*
G75*
G02*
X93568749Y-48168749I1999999J-99997D01*
G01*
D17*
X94352432Y-53247279D02*
G75*
G02*
X96568750Y-51368750I2151317J-291470D01*
G01*
D10*
X94752432Y-53647279D02*
G75*
G02*
X96968750Y-51768750I2151317J-291470D01*
G01*
D11*
G04 #@! TO.C,D25*
X99150002Y-123425001D02*
X99750002Y-123825001D01*
X99150002Y-123825001D02*
X98650002Y-123825001D01*
X99150002Y-124225001D02*
X99150002Y-123425001D01*
X99750002Y-123825001D02*
X99150002Y-124225001D01*
X99750002Y-124375001D02*
X99750002Y-123275001D01*
X100150002Y-123825001D02*
X99750002Y-123825001D01*
D10*
G04 #@! TO.C,S23*
X110518750Y-90550000D02*
X110518750Y-91550000D01*
X110518750Y-91550000D02*
X110718750Y-91550000D01*
X110518750Y-94150000D02*
X110518750Y-93790000D01*
X110518750Y-94150000D02*
X113798750Y-94150000D01*
D12*
X110618750Y-91449999D02*
X110618750Y-90550000D01*
D10*
X110718750Y-93790000D02*
X110518750Y-93790000D01*
D13*
X110718750Y-93950000D02*
X113418750Y-93950000D01*
D10*
X110748750Y-91550000D02*
X110748750Y-93790000D01*
D14*
X111118750Y-93650000D02*
X111118750Y-91850001D01*
D15*
X112248750Y-90150000D02*
X112248750Y-92390000D01*
D10*
X116018750Y-92250000D02*
X121018750Y-92250000D01*
D16*
X119018750Y-90450000D02*
X112318750Y-90450000D01*
D17*
X120318750Y-89250000D02*
X120318750Y-91750000D01*
D13*
X120718750Y-91950000D02*
X119318750Y-91950000D01*
D10*
X120798750Y-91250000D02*
X120798750Y-89000000D01*
D18*
X120818750Y-88850000D02*
X119418750Y-88850000D01*
D10*
X120818750Y-89000000D02*
X121018750Y-89000000D01*
D18*
X120818750Y-91350000D02*
X120818750Y-92050000D01*
D10*
X121018750Y-88650000D02*
X112618749Y-88650000D01*
X121018750Y-89000000D02*
X121018750Y-88650000D01*
X121018750Y-91250000D02*
X120818750Y-91250000D01*
X121018750Y-92250000D02*
X121018750Y-91250000D01*
X110518750Y-90550001D02*
G75*
G02*
X112618749Y-88649999I1999999J-99997D01*
G01*
D17*
X113402432Y-93728529D02*
G75*
G02*
X115618750Y-91850000I2151317J-291470D01*
G01*
D10*
X113802432Y-94128529D02*
G75*
G02*
X116018750Y-92250000I2151317J-291470D01*
G01*
D11*
G04 #@! TO.C,D16*
X96768750Y-82943750D02*
X97368750Y-83343750D01*
X96768750Y-83343750D02*
X96268750Y-83343750D01*
X96768750Y-83743750D02*
X96768750Y-82943750D01*
X97368750Y-83343750D02*
X96768750Y-83743750D01*
X97368750Y-83893750D02*
X97368750Y-82793750D01*
X97768750Y-83343750D02*
X97368750Y-83343750D01*
G04 #@! TO.C,D21*
X77718752Y-104375001D02*
X78318752Y-104775001D01*
X77718752Y-104775001D02*
X77218752Y-104775001D01*
X77718752Y-105175001D02*
X77718752Y-104375001D01*
X78318752Y-104775001D02*
X77718752Y-105175001D01*
X78318752Y-105325001D02*
X78318752Y-104225001D01*
X78718752Y-104775001D02*
X78318752Y-104775001D01*
G04 #@! TO.C,D14*
X58668750Y-87706250D02*
X59268750Y-88106250D01*
X58668750Y-88106250D02*
X58168750Y-88106250D01*
X58668750Y-88506250D02*
X58668750Y-87706250D01*
X59268750Y-88106250D02*
X58668750Y-88506250D01*
X59268750Y-88656250D02*
X59268750Y-87556250D01*
X59668750Y-88106250D02*
X59268750Y-88106250D01*
D10*
G04 #@! TO.C,S3*
X72418750Y-33400000D02*
X72418750Y-34400000D01*
X72418750Y-34400000D02*
X72618750Y-34400000D01*
X72418750Y-37000000D02*
X72418750Y-36640000D01*
X72418750Y-37000000D02*
X75698750Y-37000000D01*
D12*
X72518750Y-34299999D02*
X72518750Y-33400000D01*
D10*
X72618750Y-36640000D02*
X72418750Y-36640000D01*
D13*
X72618750Y-36800000D02*
X75318750Y-36800000D01*
D10*
X72648750Y-34400000D02*
X72648750Y-36640000D01*
D14*
X73018750Y-36500000D02*
X73018750Y-34700001D01*
D15*
X74148750Y-33000000D02*
X74148750Y-35240000D01*
D10*
X77918750Y-35100000D02*
X82918750Y-35100000D01*
D16*
X80918750Y-33300000D02*
X74218750Y-33300000D01*
D17*
X82218750Y-32100000D02*
X82218750Y-34600000D01*
D13*
X82618750Y-34800000D02*
X81218750Y-34800000D01*
D10*
X82698750Y-34100000D02*
X82698750Y-31850000D01*
D18*
X82718750Y-31700000D02*
X81318750Y-31700000D01*
D10*
X82718750Y-31850000D02*
X82918750Y-31850000D01*
D18*
X82718750Y-34200000D02*
X82718750Y-34900000D01*
D10*
X82918750Y-31500000D02*
X74518749Y-31500000D01*
X82918750Y-31850000D02*
X82918750Y-31500000D01*
X82918750Y-34100000D02*
X82718750Y-34100000D01*
X82918750Y-35100000D02*
X82918750Y-34100000D01*
X72418750Y-33400001D02*
G75*
G02*
X74518749Y-31499999I1999999J-99997D01*
G01*
D17*
X75302432Y-36578529D02*
G75*
G02*
X77518750Y-34700000I2151317J-291470D01*
G01*
D10*
X75702432Y-36978529D02*
G75*
G02*
X77918750Y-35100000I2151317J-291470D01*
G01*
G04 #@! TO.C,S26*
X115684489Y-114491699D02*
X115777663Y-114143966D01*
X115684489Y-114491699D02*
X118852725Y-115340626D01*
D13*
X115929438Y-114350278D02*
X118537437Y-115049089D01*
D10*
X115970849Y-114195730D02*
X115777663Y-114143966D01*
X116357418Y-111980292D02*
X116550603Y-112032056D01*
D14*
X116393454Y-114164028D02*
X116859328Y-112425362D01*
D12*
X116479893Y-111909580D02*
X116712830Y-111040248D01*
D10*
X116579581Y-112039820D02*
X115999826Y-114203494D01*
X116616237Y-111014366D02*
X116357418Y-111980292D01*
D15*
X118390816Y-111075753D02*
X117811062Y-113239427D01*
D10*
X121488837Y-114079945D02*
X126318466Y-115374040D01*
D16*
X124852490Y-113117736D02*
X118380786Y-111383648D01*
D13*
X126106334Y-115006617D02*
X124754038Y-114644270D01*
D10*
X126318466Y-115374040D02*
X126577285Y-114408114D01*
D18*
X126358218Y-114452943D02*
X126177045Y-115129091D01*
D10*
X126364781Y-114351174D02*
X126947124Y-112177841D01*
D17*
X126418775Y-112295089D02*
X125771727Y-114709904D01*
D10*
X126577285Y-114408114D02*
X126384100Y-114356350D01*
X126966443Y-112183017D02*
X127159628Y-112234781D01*
D18*
X127005266Y-112038129D02*
X125652969Y-111675782D01*
D10*
X127159628Y-112234781D02*
X127250214Y-111896707D01*
X127250214Y-111896707D02*
X119136437Y-109722627D01*
X116616237Y-111014367D02*
G75*
G02*
X119136437Y-109722627I1905970J-614230D01*
G01*
D17*
X118578996Y-114830941D02*
G75*
G02*
X121205994Y-113590047I2002575J-838341D01*
G01*
D10*
X118861839Y-115320839D02*
G75*
G02*
X121488837Y-114079945I2002571J-838333D01*
G01*
G04 #@! TO.C,S17*
X110518750Y-71500000D02*
X110518750Y-72500000D01*
X110518750Y-72500000D02*
X110718750Y-72500000D01*
X110518750Y-75100000D02*
X110518750Y-74740000D01*
X110518750Y-75100000D02*
X113798750Y-75100000D01*
D12*
X110618750Y-72399999D02*
X110618750Y-71500000D01*
D10*
X110718750Y-74740000D02*
X110518750Y-74740000D01*
D13*
X110718750Y-74900000D02*
X113418750Y-74900000D01*
D10*
X110748750Y-72500000D02*
X110748750Y-74740000D01*
D14*
X111118750Y-74600000D02*
X111118750Y-72800001D01*
D15*
X112248750Y-71100000D02*
X112248750Y-73340000D01*
D10*
X116018750Y-73200000D02*
X121018750Y-73200000D01*
D16*
X119018750Y-71400000D02*
X112318750Y-71400000D01*
D17*
X120318750Y-70200000D02*
X120318750Y-72700000D01*
D13*
X120718750Y-72900000D02*
X119318750Y-72900000D01*
D10*
X120798750Y-72200000D02*
X120798750Y-69950000D01*
D18*
X120818750Y-69800000D02*
X119418750Y-69800000D01*
D10*
X120818750Y-69950000D02*
X121018750Y-69950000D01*
D18*
X120818750Y-72300000D02*
X120818750Y-73000000D01*
D10*
X121018750Y-69600000D02*
X112618749Y-69600000D01*
X121018750Y-69950000D02*
X121018750Y-69600000D01*
X121018750Y-72200000D02*
X120818750Y-72200000D01*
X121018750Y-73200000D02*
X121018750Y-72200000D01*
X110518750Y-71500001D02*
G75*
G02*
X112618749Y-69599999I1999999J-99997D01*
G01*
D17*
X113402432Y-74678529D02*
G75*
G02*
X115618750Y-72800000I2151317J-291470D01*
G01*
D10*
X113802432Y-75078529D02*
G75*
G02*
X116018750Y-73200000I2151317J-291470D01*
G01*
G04 #@! TO.C,S8*
X53368750Y-54831250D02*
X53368750Y-55831250D01*
X53368750Y-55831250D02*
X53568750Y-55831250D01*
X53368750Y-58431250D02*
X53368750Y-58071250D01*
X53368750Y-58431250D02*
X56648750Y-58431250D01*
D12*
X53468750Y-55731249D02*
X53468750Y-54831250D01*
D10*
X53568750Y-58071250D02*
X53368750Y-58071250D01*
D13*
X53568750Y-58231250D02*
X56268750Y-58231250D01*
D10*
X53598750Y-55831250D02*
X53598750Y-58071250D01*
D14*
X53968750Y-57931250D02*
X53968750Y-56131251D01*
D15*
X55098750Y-54431250D02*
X55098750Y-56671250D01*
D10*
X58868750Y-56531250D02*
X63868750Y-56531250D01*
D16*
X61868750Y-54731250D02*
X55168750Y-54731250D01*
D17*
X63168750Y-53531250D02*
X63168750Y-56031250D01*
D13*
X63568750Y-56231250D02*
X62168750Y-56231250D01*
D10*
X63648750Y-55531250D02*
X63648750Y-53281250D01*
D18*
X63668750Y-53131250D02*
X62268750Y-53131250D01*
D10*
X63668750Y-53281250D02*
X63868750Y-53281250D01*
D18*
X63668750Y-55631250D02*
X63668750Y-56331250D01*
D10*
X63868750Y-52931250D02*
X55468749Y-52931250D01*
X63868750Y-53281250D02*
X63868750Y-52931250D01*
X63868750Y-55531250D02*
X63668750Y-55531250D01*
X63868750Y-56531250D02*
X63868750Y-55531250D01*
X53368750Y-54831251D02*
G75*
G02*
X55468749Y-52931249I1999999J-99997D01*
G01*
D17*
X56252432Y-58009779D02*
G75*
G02*
X58468750Y-56131250I2151317J-291470D01*
G01*
D10*
X56652432Y-58409779D02*
G75*
G02*
X58868750Y-56531250I2151317J-291470D01*
G01*
D11*
G04 #@! TO.C,D3*
X78068749Y-47225000D02*
X78668749Y-47625000D01*
X78068749Y-47625000D02*
X77568749Y-47625000D01*
X78068749Y-48025000D02*
X78068749Y-47225000D01*
X78668749Y-47625000D02*
X78068749Y-48025000D01*
X78668749Y-48175000D02*
X78668749Y-47075000D01*
X79068749Y-47625000D02*
X78668749Y-47625000D01*
G04 #@! TO.C,D1*
X39968749Y-49606251D02*
X40568749Y-50006251D01*
X39968749Y-50006251D02*
X39468749Y-50006251D01*
X39968749Y-50406251D02*
X39968749Y-49606251D01*
X40568749Y-50006251D02*
X39968749Y-50406251D01*
X40568749Y-50556251D02*
X40568749Y-49456251D01*
X40968749Y-50006251D02*
X40568749Y-50006251D01*
G04 #@! TO.C,D7*
X40468750Y-68656250D02*
X41068750Y-69056250D01*
X40468750Y-69056250D02*
X39968750Y-69056250D01*
X40468750Y-69456250D02*
X40468750Y-68656250D01*
X41068750Y-69056250D02*
X40468750Y-69456250D01*
X41068750Y-69606250D02*
X41068750Y-68506250D01*
X41468750Y-69056250D02*
X41068750Y-69056250D01*
D10*
G04 #@! TO.C,S13*
X34318750Y-73881250D02*
X34318750Y-74881250D01*
X34318750Y-74881250D02*
X34518750Y-74881250D01*
X34318750Y-77481250D02*
X34318750Y-77121250D01*
X34318750Y-77481250D02*
X37598750Y-77481250D01*
D12*
X34418750Y-74781249D02*
X34418750Y-73881250D01*
D10*
X34518750Y-77121250D02*
X34318750Y-77121250D01*
D13*
X34518750Y-77281250D02*
X37218750Y-77281250D01*
D10*
X34548750Y-74881250D02*
X34548750Y-77121250D01*
D14*
X34918750Y-76981250D02*
X34918750Y-75181251D01*
D15*
X36048750Y-73481250D02*
X36048750Y-75721250D01*
D10*
X39818750Y-75581250D02*
X44818750Y-75581250D01*
D16*
X42818750Y-73781250D02*
X36118750Y-73781250D01*
D17*
X44118750Y-72581250D02*
X44118750Y-75081250D01*
D13*
X44518750Y-75281250D02*
X43118750Y-75281250D01*
D10*
X44598750Y-74581250D02*
X44598750Y-72331250D01*
D18*
X44618750Y-72181250D02*
X43218750Y-72181250D01*
D10*
X44618750Y-72331250D02*
X44818750Y-72331250D01*
D18*
X44618750Y-74681250D02*
X44618750Y-75381250D01*
D10*
X44818750Y-71981250D02*
X36418749Y-71981250D01*
X44818750Y-72331250D02*
X44818750Y-71981250D01*
X44818750Y-74581250D02*
X44618750Y-74581250D01*
X44818750Y-75581250D02*
X44818750Y-74581250D01*
X34318750Y-73881251D02*
G75*
G02*
X36418749Y-71981249I1999999J-99997D01*
G01*
D17*
X37202432Y-77059779D02*
G75*
G02*
X39418750Y-75181250I2151317J-291470D01*
G01*
D10*
X37602432Y-77459779D02*
G75*
G02*
X39818750Y-75581250I2151317J-291470D01*
G01*
G04 #@! TO.C,S16*
X91468750Y-69118750D02*
X91468750Y-70118750D01*
X91468750Y-70118750D02*
X91668750Y-70118750D01*
X91468750Y-72718750D02*
X91468750Y-72358750D01*
X91468750Y-72718750D02*
X94748750Y-72718750D01*
D12*
X91568750Y-70018749D02*
X91568750Y-69118750D01*
D10*
X91668750Y-72358750D02*
X91468750Y-72358750D01*
D13*
X91668750Y-72518750D02*
X94368750Y-72518750D01*
D10*
X91698750Y-70118750D02*
X91698750Y-72358750D01*
D14*
X92068750Y-72218750D02*
X92068750Y-70418751D01*
D15*
X93198750Y-68718750D02*
X93198750Y-70958750D01*
D10*
X96968750Y-70818750D02*
X101968750Y-70818750D01*
D16*
X99968750Y-69018750D02*
X93268750Y-69018750D01*
D17*
X101268750Y-67818750D02*
X101268750Y-70318750D01*
D13*
X101668750Y-70518750D02*
X100268750Y-70518750D01*
D10*
X101748750Y-69818750D02*
X101748750Y-67568750D01*
D18*
X101768750Y-67418750D02*
X100368750Y-67418750D01*
D10*
X101768750Y-67568750D02*
X101968750Y-67568750D01*
D18*
X101768750Y-69918750D02*
X101768750Y-70618750D01*
D10*
X101968750Y-67218750D02*
X93568749Y-67218750D01*
X101968750Y-67568750D02*
X101968750Y-67218750D01*
X101968750Y-69818750D02*
X101768750Y-69818750D01*
X101968750Y-70818750D02*
X101968750Y-69818750D01*
X91468750Y-69118751D02*
G75*
G02*
X93568749Y-67218749I1999999J-99997D01*
G01*
D17*
X94352432Y-72297279D02*
G75*
G02*
X96568750Y-70418750I2151317J-291470D01*
G01*
D10*
X94752432Y-72697279D02*
G75*
G02*
X96968750Y-70818750I2151317J-291470D01*
G01*
G04 #@! TO.C,S27*
X142526826Y-128794967D02*
X143392852Y-129294967D01*
D13*
X142936634Y-128685159D02*
X143636634Y-127472724D01*
D10*
X143392852Y-129294967D02*
X143492852Y-129121762D01*
D18*
X143406249Y-129071762D02*
X142800031Y-128721762D01*
D10*
X143502852Y-129104441D02*
X145451409Y-130229441D01*
X145026826Y-124464840D02*
X142526826Y-128794967D01*
D16*
X145085672Y-127962916D02*
X148435672Y-122160546D01*
D10*
X145341409Y-130419967D02*
X145644518Y-130594967D01*
X145441409Y-130246762D02*
X145341409Y-130419967D01*
D17*
X145474902Y-129688749D02*
X143309839Y-128438749D01*
D18*
X145571313Y-130321762D02*
X146271313Y-129109326D01*
D10*
X145644518Y-130594967D02*
X149844518Y-123320353D01*
X146131378Y-118751700D02*
X144491378Y-121592263D01*
X146131378Y-118751700D02*
X146443147Y-118931700D01*
D13*
X146204583Y-119024905D02*
X144854583Y-121363174D01*
D14*
X146264391Y-119521315D02*
X147823236Y-120421315D01*
D10*
X146343147Y-119104905D02*
X146443147Y-118931700D01*
X148268044Y-120250886D02*
X146328147Y-119130886D01*
X148383044Y-120051700D02*
X148283044Y-120224905D01*
D12*
X148419647Y-120188303D02*
X149199069Y-120638303D01*
D15*
X148730480Y-122249924D02*
X146790583Y-121129924D01*
D10*
X149249069Y-120551700D02*
X148383044Y-120051700D01*
X144508131Y-121606188D02*
G75*
G02*
X145026826Y-124464840I-1328081J-1717361D01*
G01*
D17*
X145054542Y-121459777D02*
G75*
G02*
X145573236Y-124318430I-1328084J-1717361D01*
G01*
D10*
X149249069Y-120551700D02*
G75*
G02*
X149844518Y-123320353I-1086598J-1682050D01*
G01*
G04 #@! TO.C,S14*
X53368750Y-73881250D02*
X53368750Y-74881250D01*
X53368750Y-74881250D02*
X53568750Y-74881250D01*
X53368750Y-77481250D02*
X53368750Y-77121250D01*
X53368750Y-77481250D02*
X56648750Y-77481250D01*
D12*
X53468750Y-74781249D02*
X53468750Y-73881250D01*
D10*
X53568750Y-77121250D02*
X53368750Y-77121250D01*
D13*
X53568750Y-77281250D02*
X56268750Y-77281250D01*
D10*
X53598750Y-74881250D02*
X53598750Y-77121250D01*
D14*
X53968750Y-76981250D02*
X53968750Y-75181251D01*
D15*
X55098750Y-73481250D02*
X55098750Y-75721250D01*
D10*
X58868750Y-75581250D02*
X63868750Y-75581250D01*
D16*
X61868750Y-73781250D02*
X55168750Y-73781250D01*
D17*
X63168750Y-72581250D02*
X63168750Y-75081250D01*
D13*
X63568750Y-75281250D02*
X62168750Y-75281250D01*
D10*
X63648750Y-74581250D02*
X63648750Y-72331250D01*
D18*
X63668750Y-72181250D02*
X62268750Y-72181250D01*
D10*
X63668750Y-72331250D02*
X63868750Y-72331250D01*
D18*
X63668750Y-74681250D02*
X63668750Y-75381250D01*
D10*
X63868750Y-71981250D02*
X55468749Y-71981250D01*
X63868750Y-72331250D02*
X63868750Y-71981250D01*
X63868750Y-74581250D02*
X63668750Y-74581250D01*
X63868750Y-75581250D02*
X63868750Y-74581250D01*
X53368750Y-73881251D02*
G75*
G02*
X55468749Y-71981249I1999999J-99997D01*
G01*
D17*
X56252432Y-77059779D02*
G75*
G02*
X58468750Y-75181250I2151317J-291470D01*
G01*
D10*
X56652432Y-77459779D02*
G75*
G02*
X58868750Y-75581250I2151317J-291470D01*
G01*
G04 #@! TO.C,S7*
X34318750Y-54831250D02*
X34318750Y-55831250D01*
X34318750Y-55831250D02*
X34518750Y-55831250D01*
X34318750Y-58431250D02*
X34318750Y-58071250D01*
X34318750Y-58431250D02*
X37598750Y-58431250D01*
D12*
X34418750Y-55731249D02*
X34418750Y-54831250D01*
D10*
X34518750Y-58071250D02*
X34318750Y-58071250D01*
D13*
X34518750Y-58231250D02*
X37218750Y-58231250D01*
D10*
X34548750Y-55831250D02*
X34548750Y-58071250D01*
D14*
X34918750Y-57931250D02*
X34918750Y-56131251D01*
D15*
X36048750Y-54431250D02*
X36048750Y-56671250D01*
D10*
X39818750Y-56531250D02*
X44818750Y-56531250D01*
D16*
X42818750Y-54731250D02*
X36118750Y-54731250D01*
D17*
X44118750Y-53531250D02*
X44118750Y-56031250D01*
D13*
X44518750Y-56231250D02*
X43118750Y-56231250D01*
D10*
X44598750Y-55531250D02*
X44598750Y-53281250D01*
D18*
X44618750Y-53131250D02*
X43218750Y-53131250D01*
D10*
X44618750Y-53281250D02*
X44818750Y-53281250D01*
D18*
X44618750Y-55631250D02*
X44618750Y-56331250D01*
D10*
X44818750Y-52931250D02*
X36418749Y-52931250D01*
X44818750Y-53281250D02*
X44818750Y-52931250D01*
X44818750Y-55531250D02*
X44618750Y-55531250D01*
X44818750Y-56531250D02*
X44818750Y-55531250D01*
X34318750Y-54831251D02*
G75*
G02*
X36418749Y-52931249I1999999J-99997D01*
G01*
D17*
X37202432Y-58009779D02*
G75*
G02*
X39418750Y-56131250I2151317J-291470D01*
G01*
D10*
X37602432Y-58409779D02*
G75*
G02*
X39818750Y-56531250I2151317J-291470D01*
G01*
G04 #@! TO.C,S22*
X91468750Y-88168750D02*
X91468750Y-89168750D01*
X91468750Y-89168750D02*
X91668750Y-89168750D01*
X91468750Y-91768750D02*
X91468750Y-91408750D01*
X91468750Y-91768750D02*
X94748750Y-91768750D01*
D12*
X91568750Y-89068749D02*
X91568750Y-88168750D01*
D10*
X91668750Y-91408750D02*
X91468750Y-91408750D01*
D13*
X91668750Y-91568750D02*
X94368750Y-91568750D01*
D10*
X91698750Y-89168750D02*
X91698750Y-91408750D01*
D14*
X92068750Y-91268750D02*
X92068750Y-89468751D01*
D15*
X93198750Y-87768750D02*
X93198750Y-90008750D01*
D10*
X96968750Y-89868750D02*
X101968750Y-89868750D01*
D16*
X99968750Y-88068750D02*
X93268750Y-88068750D01*
D17*
X101268750Y-86868750D02*
X101268750Y-89368750D01*
D13*
X101668750Y-89568750D02*
X100268750Y-89568750D01*
D10*
X101748750Y-88868750D02*
X101748750Y-86618750D01*
D18*
X101768750Y-86468750D02*
X100368750Y-86468750D01*
D10*
X101768750Y-86618750D02*
X101968750Y-86618750D01*
D18*
X101768750Y-88968750D02*
X101768750Y-89668750D01*
D10*
X101968750Y-86268750D02*
X93568749Y-86268750D01*
X101968750Y-86618750D02*
X101968750Y-86268750D01*
X101968750Y-88868750D02*
X101768750Y-88868750D01*
X101968750Y-89868750D02*
X101968750Y-88868750D01*
X91468750Y-88168751D02*
G75*
G02*
X93568749Y-86268749I1999999J-99997D01*
G01*
D17*
X94352432Y-91347279D02*
G75*
G02*
X96568750Y-89468750I2151317J-291470D01*
G01*
D10*
X94752432Y-91747279D02*
G75*
G02*
X96968750Y-89868750I2151317J-291470D01*
G01*
G04 #@! TO.C,S19*
X34318750Y-92931250D02*
X34318750Y-93931250D01*
X34318750Y-93931250D02*
X34518750Y-93931250D01*
X34318750Y-96531250D02*
X34318750Y-96171250D01*
X34318750Y-96531250D02*
X37598750Y-96531250D01*
D12*
X34418750Y-93831249D02*
X34418750Y-92931250D01*
D10*
X34518750Y-96171250D02*
X34318750Y-96171250D01*
D13*
X34518750Y-96331250D02*
X37218750Y-96331250D01*
D10*
X34548750Y-93931250D02*
X34548750Y-96171250D01*
D14*
X34918750Y-96031250D02*
X34918750Y-94231251D01*
D15*
X36048750Y-92531250D02*
X36048750Y-94771250D01*
D10*
X39818750Y-94631250D02*
X44818750Y-94631250D01*
D16*
X42818750Y-92831250D02*
X36118750Y-92831250D01*
D17*
X44118750Y-91631250D02*
X44118750Y-94131250D01*
D13*
X44518750Y-94331250D02*
X43118750Y-94331250D01*
D10*
X44598750Y-93631250D02*
X44598750Y-91381250D01*
D18*
X44618750Y-91231250D02*
X43218750Y-91231250D01*
D10*
X44618750Y-91381250D02*
X44818750Y-91381250D01*
D18*
X44618750Y-93731250D02*
X44618750Y-94431250D01*
D10*
X44818750Y-91031250D02*
X36418749Y-91031250D01*
X44818750Y-91381250D02*
X44818750Y-91031250D01*
X44818750Y-93631250D02*
X44618750Y-93631250D01*
X44818750Y-94631250D02*
X44818750Y-93631250D01*
X34318750Y-92931251D02*
G75*
G02*
X36418749Y-91031249I1999999J-99997D01*
G01*
D17*
X37202432Y-96109779D02*
G75*
G02*
X39418750Y-94231250I2151317J-291470D01*
G01*
D10*
X37602432Y-96509779D02*
G75*
G02*
X39818750Y-94631250I2151317J-291470D01*
G01*
D11*
G04 #@! TO.C,D17*
X115818752Y-85325001D02*
X116418752Y-85725001D01*
X115818752Y-85725001D02*
X115318752Y-85725001D01*
X115818752Y-86125001D02*
X115818752Y-85325001D01*
X116418752Y-85725001D02*
X115818752Y-86125001D01*
X116418752Y-86275001D02*
X116418752Y-85175001D01*
X116818752Y-85725001D02*
X116418752Y-85725001D01*
G04 #@! TO.C,D2*
X59018749Y-49606250D02*
X59618749Y-50006250D01*
X59018749Y-50006250D02*
X58518749Y-50006250D01*
X59018749Y-50406250D02*
X59018749Y-49606250D01*
X59618749Y-50006250D02*
X59018749Y-50406250D01*
X59618749Y-50556250D02*
X59618749Y-49456250D01*
X60018749Y-50006250D02*
X59618749Y-50006250D01*
G04 #@! TO.C,D19*
X39618752Y-106756251D02*
X40218752Y-107156251D01*
X39618752Y-107156251D02*
X39118752Y-107156251D01*
X39618752Y-107556251D02*
X39618752Y-106756251D01*
X40218752Y-107156251D02*
X39618752Y-107556251D01*
X40218752Y-107706251D02*
X40218752Y-106606251D01*
X40618752Y-107156251D02*
X40218752Y-107156251D01*
D10*
G04 #@! TO.C,S20*
X53368750Y-92931250D02*
X53368750Y-93931250D01*
X53368750Y-93931250D02*
X53568750Y-93931250D01*
X53368750Y-96531250D02*
X53368750Y-96171250D01*
X53368750Y-96531250D02*
X56648750Y-96531250D01*
D12*
X53468750Y-93831249D02*
X53468750Y-92931250D01*
D10*
X53568750Y-96171250D02*
X53368750Y-96171250D01*
D13*
X53568750Y-96331250D02*
X56268750Y-96331250D01*
D10*
X53598750Y-93931250D02*
X53598750Y-96171250D01*
D14*
X53968750Y-96031250D02*
X53968750Y-94231251D01*
D15*
X55098750Y-92531250D02*
X55098750Y-94771250D01*
D10*
X58868750Y-94631250D02*
X63868750Y-94631250D01*
D16*
X61868750Y-92831250D02*
X55168750Y-92831250D01*
D17*
X63168750Y-91631250D02*
X63168750Y-94131250D01*
D13*
X63568750Y-94331250D02*
X62168750Y-94331250D01*
D10*
X63648750Y-93631250D02*
X63648750Y-91381250D01*
D18*
X63668750Y-91231250D02*
X62268750Y-91231250D01*
D10*
X63668750Y-91381250D02*
X63868750Y-91381250D01*
D18*
X63668750Y-93731250D02*
X63668750Y-94431250D01*
D10*
X63868750Y-91031250D02*
X55468749Y-91031250D01*
X63868750Y-91381250D02*
X63868750Y-91031250D01*
X63868750Y-93631250D02*
X63668750Y-93631250D01*
X63868750Y-94631250D02*
X63868750Y-93631250D01*
X53368750Y-92931251D02*
G75*
G02*
X55468749Y-91031249I1999999J-99997D01*
G01*
D17*
X56252432Y-96109779D02*
G75*
G02*
X58468750Y-94231250I2151317J-291470D01*
G01*
D10*
X56652432Y-96509779D02*
G75*
G02*
X58868750Y-94631250I2151317J-291470D01*
G01*
D11*
G04 #@! TO.C,D10*
X96768752Y-63893751D02*
X97368752Y-64293751D01*
X96768752Y-64293751D02*
X96268752Y-64293751D01*
X96768752Y-64693751D02*
X96768752Y-63893751D01*
X97368752Y-64293751D02*
X96768752Y-64693751D01*
X97368752Y-64843751D02*
X97368752Y-63743751D01*
X97768752Y-64293751D02*
X97368752Y-64293751D01*
G04 #@! TO.C,D22*
X97381249Y-101993751D02*
X97981249Y-102393751D01*
X97381249Y-102393751D02*
X96881249Y-102393751D01*
X97381249Y-102793751D02*
X97381249Y-101993751D01*
X97981249Y-102393751D02*
X97381249Y-102793751D01*
X97981249Y-102943751D02*
X97981249Y-101843751D01*
X98381249Y-102393751D02*
X97981249Y-102393751D01*
D10*
G04 #@! TO.C,S2*
X53368750Y-35781250D02*
X53368750Y-36781250D01*
X53368750Y-36781250D02*
X53568750Y-36781250D01*
X53368750Y-39381250D02*
X53368750Y-39021250D01*
X53368750Y-39381250D02*
X56648750Y-39381250D01*
D12*
X53468750Y-36681249D02*
X53468750Y-35781250D01*
D10*
X53568750Y-39021250D02*
X53368750Y-39021250D01*
D13*
X53568750Y-39181250D02*
X56268750Y-39181250D01*
D10*
X53598750Y-36781250D02*
X53598750Y-39021250D01*
D14*
X53968750Y-38881250D02*
X53968750Y-37081251D01*
D15*
X55098750Y-35381250D02*
X55098750Y-37621250D01*
D10*
X58868750Y-37481250D02*
X63868750Y-37481250D01*
D16*
X61868750Y-35681250D02*
X55168750Y-35681250D01*
D17*
X63168750Y-34481250D02*
X63168750Y-36981250D01*
D13*
X63568750Y-37181250D02*
X62168750Y-37181250D01*
D10*
X63648750Y-36481250D02*
X63648750Y-34231250D01*
D18*
X63668750Y-34081250D02*
X62268750Y-34081250D01*
D10*
X63668750Y-34231250D02*
X63868750Y-34231250D01*
D18*
X63668750Y-36581250D02*
X63668750Y-37281250D01*
D10*
X63868750Y-33881250D02*
X55468749Y-33881250D01*
X63868750Y-34231250D02*
X63868750Y-33881250D01*
X63868750Y-36481250D02*
X63668750Y-36481250D01*
X63868750Y-37481250D02*
X63868750Y-36481250D01*
X53368750Y-35781251D02*
G75*
G02*
X55468749Y-33881249I1999999J-99997D01*
G01*
D17*
X56252432Y-38959779D02*
G75*
G02*
X58468750Y-37081250I2151317J-291470D01*
G01*
D10*
X56652432Y-39359779D02*
G75*
G02*
X58868750Y-37481250I2151317J-291470D01*
G01*
D11*
G04 #@! TO.C,D15*
X77518751Y-85325000D02*
X78118751Y-85725000D01*
X77518751Y-85725000D02*
X77018751Y-85725000D01*
X77518751Y-86125000D02*
X77518751Y-85325000D01*
X78118751Y-85725000D02*
X77518751Y-86125000D01*
X78118751Y-86275000D02*
X78118751Y-85175000D01*
X78518751Y-85725000D02*
X78118751Y-85725000D01*
G04 #@! TO.C,D23*
X116168749Y-104375001D02*
X116768749Y-104775001D01*
X116168749Y-104775001D02*
X115668749Y-104775001D01*
X116168749Y-105175001D02*
X116168749Y-104375001D01*
X116768749Y-104775001D02*
X116168749Y-105175001D01*
X116768749Y-105325001D02*
X116768749Y-104225001D01*
X117168749Y-104775001D02*
X116768749Y-104775001D01*
D10*
G04 #@! TO.C,S21*
X72418750Y-90550000D02*
X72418750Y-91550000D01*
X72418750Y-91550000D02*
X72618750Y-91550000D01*
X72418750Y-94150000D02*
X72418750Y-93790000D01*
X72418750Y-94150000D02*
X75698750Y-94150000D01*
D12*
X72518750Y-91449999D02*
X72518750Y-90550000D01*
D10*
X72618750Y-93790000D02*
X72418750Y-93790000D01*
D13*
X72618750Y-93950000D02*
X75318750Y-93950000D01*
D10*
X72648750Y-91550000D02*
X72648750Y-93790000D01*
D14*
X73018750Y-93650000D02*
X73018750Y-91850001D01*
D15*
X74148750Y-90150000D02*
X74148750Y-92390000D01*
D10*
X77918750Y-92250000D02*
X82918750Y-92250000D01*
D16*
X80918750Y-90450000D02*
X74218750Y-90450000D01*
D17*
X82218750Y-89250000D02*
X82218750Y-91750000D01*
D13*
X82618750Y-91950000D02*
X81218750Y-91950000D01*
D10*
X82698750Y-91250000D02*
X82698750Y-89000000D01*
D18*
X82718750Y-88850000D02*
X81318750Y-88850000D01*
D10*
X82718750Y-89000000D02*
X82918750Y-89000000D01*
D18*
X82718750Y-91350000D02*
X82718750Y-92050000D01*
D10*
X82918750Y-88650000D02*
X74518749Y-88650000D01*
X82918750Y-89000000D02*
X82918750Y-88650000D01*
X82918750Y-91250000D02*
X82718750Y-91250000D01*
X82918750Y-92250000D02*
X82918750Y-91250000D01*
X72418750Y-90550001D02*
G75*
G02*
X74518749Y-88649999I1999999J-99997D01*
G01*
D17*
X75302432Y-93728529D02*
G75*
G02*
X77518750Y-91850000I2151317J-291470D01*
G01*
D10*
X75702432Y-94128529D02*
G75*
G02*
X77918750Y-92250000I2151317J-291470D01*
G01*
G04 #@! TO.C,S12*
X129568750Y-54831250D02*
X129568750Y-55831250D01*
X129568750Y-55831250D02*
X129768750Y-55831250D01*
X129568750Y-58431250D02*
X129568750Y-58071250D01*
X129568750Y-58431250D02*
X132848750Y-58431250D01*
D12*
X129668750Y-55731249D02*
X129668750Y-54831250D01*
D10*
X129768750Y-58071250D02*
X129568750Y-58071250D01*
D13*
X129768750Y-58231250D02*
X132468750Y-58231250D01*
D10*
X129798750Y-55831250D02*
X129798750Y-58071250D01*
D14*
X130168750Y-57931250D02*
X130168750Y-56131251D01*
D15*
X131298750Y-54431250D02*
X131298750Y-56671250D01*
D10*
X135068750Y-56531250D02*
X140068750Y-56531250D01*
D16*
X138068750Y-54731250D02*
X131368750Y-54731250D01*
D17*
X139368750Y-53531250D02*
X139368750Y-56031250D01*
D13*
X139768750Y-56231250D02*
X138368750Y-56231250D01*
D10*
X139848750Y-55531250D02*
X139848750Y-53281250D01*
D18*
X139868750Y-53131250D02*
X138468750Y-53131250D01*
D10*
X139868750Y-53281250D02*
X140068750Y-53281250D01*
D18*
X139868750Y-55631250D02*
X139868750Y-56331250D01*
D10*
X140068750Y-52931250D02*
X131668749Y-52931250D01*
X140068750Y-53281250D02*
X140068750Y-52931250D01*
X140068750Y-55531250D02*
X139868750Y-55531250D01*
X140068750Y-56531250D02*
X140068750Y-55531250D01*
X129568750Y-54831251D02*
G75*
G02*
X131668749Y-52931249I1999999J-99997D01*
G01*
D17*
X132452432Y-58009779D02*
G75*
G02*
X134668750Y-56131250I2151317J-291470D01*
G01*
D10*
X132852432Y-58409779D02*
G75*
G02*
X135068750Y-56531250I2151317J-291470D01*
G01*
G04 #@! TO.C,S18*
X129568750Y-73881250D02*
X129568750Y-74881250D01*
X129568750Y-74881250D02*
X129768750Y-74881250D01*
X129568750Y-77481250D02*
X129568750Y-77121250D01*
X129568750Y-77481250D02*
X132848750Y-77481250D01*
D12*
X129668750Y-74781249D02*
X129668750Y-73881250D01*
D10*
X129768750Y-77121250D02*
X129568750Y-77121250D01*
D13*
X129768750Y-77281250D02*
X132468750Y-77281250D01*
D10*
X129798750Y-74881250D02*
X129798750Y-77121250D01*
D14*
X130168750Y-76981250D02*
X130168750Y-75181251D01*
D15*
X131298750Y-73481250D02*
X131298750Y-75721250D01*
D10*
X135068750Y-75581250D02*
X140068750Y-75581250D01*
D16*
X138068750Y-73781250D02*
X131368750Y-73781250D01*
D17*
X139368750Y-72581250D02*
X139368750Y-75081250D01*
D13*
X139768750Y-75281250D02*
X138368750Y-75281250D01*
D10*
X139848750Y-74581250D02*
X139848750Y-72331250D01*
D18*
X139868750Y-72181250D02*
X138468750Y-72181250D01*
D10*
X139868750Y-72331250D02*
X140068750Y-72331250D01*
D18*
X139868750Y-74681250D02*
X139868750Y-75381250D01*
D10*
X140068750Y-71981250D02*
X131668749Y-71981250D01*
X140068750Y-72331250D02*
X140068750Y-71981250D01*
X140068750Y-74581250D02*
X139868750Y-74581250D01*
X140068750Y-75581250D02*
X140068750Y-74581250D01*
X129568750Y-73881251D02*
G75*
G02*
X131668749Y-71981249I1999999J-99997D01*
G01*
D17*
X132452432Y-77059779D02*
G75*
G02*
X134668750Y-75181250I2151317J-291470D01*
G01*
D10*
X132852432Y-77459779D02*
G75*
G02*
X135068750Y-75581250I2151317J-291470D01*
G01*
D11*
G04 #@! TO.C,D4*
X97118749Y-44843751D02*
X97718749Y-45243751D01*
X97118749Y-45243751D02*
X96618749Y-45243751D01*
X97118749Y-45643751D02*
X97118749Y-44843751D01*
X97718749Y-45243751D02*
X97118749Y-45643751D01*
X97718749Y-45793751D02*
X97718749Y-44693751D01*
X98118749Y-45243751D02*
X97718749Y-45243751D01*
G04 #@! TO.C,D26*
X118116917Y-126437329D02*
X118323972Y-125664588D01*
X118220444Y-126050959D02*
X117737481Y-125921549D01*
X118323972Y-125664588D02*
X118800000Y-126206250D01*
X118657649Y-126737509D02*
X118942350Y-125674991D01*
X118800000Y-126206250D02*
X118116917Y-126437329D01*
X119186370Y-126309778D02*
X118800000Y-126206250D01*
G04 #@! TO.C,D20*
X58668750Y-106756250D02*
X59268750Y-107156250D01*
X58668750Y-107156250D02*
X58168750Y-107156250D01*
X58668750Y-107556250D02*
X58668750Y-106756250D01*
X59268750Y-107156250D02*
X58668750Y-107556250D01*
X59268750Y-107706250D02*
X59268750Y-106606250D01*
X59668750Y-107156250D02*
X59268750Y-107156250D01*
G04 #@! TO.C,D24*
X136433750Y-106756250D02*
X137033750Y-107156250D01*
X136433750Y-107156250D02*
X135933750Y-107156250D01*
X136433750Y-107556250D02*
X136433750Y-106756250D01*
X137033750Y-107156250D02*
X136433750Y-107556250D01*
X137033750Y-107706250D02*
X137033750Y-106606250D01*
X137433750Y-107156250D02*
X137033750Y-107156250D01*
D10*
G04 #@! TO.C,S4*
X91468750Y-31018750D02*
X91468750Y-32018750D01*
X91468750Y-32018750D02*
X91668750Y-32018750D01*
X91468750Y-34618750D02*
X91468750Y-34258750D01*
X91468750Y-34618750D02*
X94748750Y-34618750D01*
D12*
X91568750Y-31918749D02*
X91568750Y-31018750D01*
D10*
X91668750Y-34258750D02*
X91468750Y-34258750D01*
D13*
X91668750Y-34418750D02*
X94368750Y-34418750D01*
D10*
X91698750Y-32018750D02*
X91698750Y-34258750D01*
D14*
X92068750Y-34118750D02*
X92068750Y-32318751D01*
D15*
X93198750Y-30618750D02*
X93198750Y-32858750D01*
D10*
X96968750Y-32718750D02*
X101968750Y-32718750D01*
D16*
X99968750Y-30918750D02*
X93268750Y-30918750D01*
D17*
X101268750Y-29718750D02*
X101268750Y-32218750D01*
D13*
X101668750Y-32418750D02*
X100268750Y-32418750D01*
D10*
X101748750Y-31718750D02*
X101748750Y-29468750D01*
D18*
X101768750Y-29318750D02*
X100368750Y-29318750D01*
D10*
X101768750Y-29468750D02*
X101968750Y-29468750D01*
D18*
X101768750Y-31818750D02*
X101768750Y-32518750D01*
D10*
X101968750Y-29118750D02*
X93568749Y-29118750D01*
X101968750Y-29468750D02*
X101968750Y-29118750D01*
X101968750Y-31718750D02*
X101768750Y-31718750D01*
X101968750Y-32718750D02*
X101968750Y-31718750D01*
X91468750Y-31018751D02*
G75*
G02*
X93568749Y-29118749I1999999J-99997D01*
G01*
D17*
X94352432Y-34197279D02*
G75*
G02*
X96568750Y-32318750I2151317J-291470D01*
G01*
D10*
X94752432Y-34597279D02*
G75*
G02*
X96968750Y-32718750I2151317J-291470D01*
G01*
G04 #@! TO.C,S24*
X129568750Y-92931250D02*
X129568750Y-93931250D01*
X129568750Y-93931250D02*
X129768750Y-93931250D01*
X129568750Y-96531250D02*
X129568750Y-96171250D01*
X129568750Y-96531250D02*
X132848750Y-96531250D01*
D12*
X129668750Y-93831249D02*
X129668750Y-92931250D01*
D10*
X129768750Y-96171250D02*
X129568750Y-96171250D01*
D13*
X129768750Y-96331250D02*
X132468750Y-96331250D01*
D10*
X129798750Y-93931250D02*
X129798750Y-96171250D01*
D14*
X130168750Y-96031250D02*
X130168750Y-94231251D01*
D15*
X131298750Y-92531250D02*
X131298750Y-94771250D01*
D10*
X135068750Y-94631250D02*
X140068750Y-94631250D01*
D16*
X138068750Y-92831250D02*
X131368750Y-92831250D01*
D17*
X139368750Y-91631250D02*
X139368750Y-94131250D01*
D13*
X139768750Y-94331250D02*
X138368750Y-94331250D01*
D10*
X139848750Y-93631250D02*
X139848750Y-91381250D01*
D18*
X139868750Y-91231250D02*
X138468750Y-91231250D01*
D10*
X139868750Y-91381250D02*
X140068750Y-91381250D01*
D18*
X139868750Y-93731250D02*
X139868750Y-94431250D01*
D10*
X140068750Y-91031250D02*
X131668749Y-91031250D01*
X140068750Y-91381250D02*
X140068750Y-91031250D01*
X140068750Y-93631250D02*
X139868750Y-93631250D01*
X140068750Y-94631250D02*
X140068750Y-93631250D01*
X129568750Y-92931251D02*
G75*
G02*
X131668749Y-91031249I1999999J-99997D01*
G01*
D17*
X132452432Y-96109779D02*
G75*
G02*
X134668750Y-94231250I2151317J-291470D01*
G01*
D10*
X132852432Y-96509779D02*
G75*
G02*
X135068750Y-94631250I2151317J-291470D01*
G01*
G04 #@! TO.C,S9*
X72418750Y-52450000D02*
X72418750Y-53450000D01*
X72418750Y-53450000D02*
X72618750Y-53450000D01*
X72418750Y-56050000D02*
X72418750Y-55690000D01*
X72418750Y-56050000D02*
X75698750Y-56050000D01*
D12*
X72518750Y-53349999D02*
X72518750Y-52450000D01*
D10*
X72618750Y-55690000D02*
X72418750Y-55690000D01*
D13*
X72618750Y-55850000D02*
X75318750Y-55850000D01*
D10*
X72648750Y-53450000D02*
X72648750Y-55690000D01*
D14*
X73018750Y-55550000D02*
X73018750Y-53750001D01*
D15*
X74148750Y-52050000D02*
X74148750Y-54290000D01*
D10*
X77918750Y-54150000D02*
X82918750Y-54150000D01*
D16*
X80918750Y-52350000D02*
X74218750Y-52350000D01*
D17*
X82218750Y-51150000D02*
X82218750Y-53650000D01*
D13*
X82618750Y-53850000D02*
X81218750Y-53850000D01*
D10*
X82698750Y-53150000D02*
X82698750Y-50900000D01*
D18*
X82718750Y-50750000D02*
X81318750Y-50750000D01*
D10*
X82718750Y-50900000D02*
X82918750Y-50900000D01*
D18*
X82718750Y-53250000D02*
X82718750Y-53950000D01*
D10*
X82918750Y-50550000D02*
X74518749Y-50550000D01*
X82918750Y-50900000D02*
X82918750Y-50550000D01*
X82918750Y-53150000D02*
X82718750Y-53150000D01*
X82918750Y-54150000D02*
X82918750Y-53150000D01*
X72418750Y-52450001D02*
G75*
G02*
X74518749Y-50549999I1999999J-99997D01*
G01*
D17*
X75302432Y-55628529D02*
G75*
G02*
X77518750Y-53750000I2151317J-291470D01*
G01*
D10*
X75702432Y-56028529D02*
G75*
G02*
X77918750Y-54150000I2151317J-291470D01*
G01*
D11*
G04 #@! TO.C,D13*
X39618752Y-87706251D02*
X40218752Y-88106251D01*
X39618752Y-88106251D02*
X39118752Y-88106251D01*
X39618752Y-88506251D02*
X39618752Y-87706251D01*
X40218752Y-88106251D02*
X39618752Y-88506251D01*
X40218752Y-88656251D02*
X40218752Y-87556251D01*
X40618752Y-88106251D02*
X40218752Y-88106251D01*
D10*
G04 #@! TO.C,S15*
X72418750Y-71500000D02*
X72418750Y-72500000D01*
X72418750Y-72500000D02*
X72618750Y-72500000D01*
X72418750Y-75100000D02*
X72418750Y-74740000D01*
X72418750Y-75100000D02*
X75698750Y-75100000D01*
D12*
X72518750Y-72399999D02*
X72518750Y-71500000D01*
D10*
X72618750Y-74740000D02*
X72418750Y-74740000D01*
D13*
X72618750Y-74900000D02*
X75318750Y-74900000D01*
D10*
X72648750Y-72500000D02*
X72648750Y-74740000D01*
D14*
X73018750Y-74600000D02*
X73018750Y-72800001D01*
D15*
X74148750Y-71100000D02*
X74148750Y-73340000D01*
D10*
X77918750Y-73200000D02*
X82918750Y-73200000D01*
D16*
X80918750Y-71400000D02*
X74218750Y-71400000D01*
D17*
X82218750Y-70200000D02*
X82218750Y-72700000D01*
D13*
X82618750Y-72900000D02*
X81218750Y-72900000D01*
D10*
X82698750Y-72200000D02*
X82698750Y-69950000D01*
D18*
X82718750Y-69800000D02*
X81318750Y-69800000D01*
D10*
X82718750Y-69950000D02*
X82918750Y-69950000D01*
D18*
X82718750Y-72300000D02*
X82718750Y-73000000D01*
D10*
X82918750Y-69600000D02*
X74518749Y-69600000D01*
X82918750Y-69950000D02*
X82918750Y-69600000D01*
X82918750Y-72200000D02*
X82718750Y-72200000D01*
X82918750Y-73200000D02*
X82918750Y-72200000D01*
X72418750Y-71500001D02*
G75*
G02*
X74518749Y-69599999I1999999J-99997D01*
G01*
D17*
X75302432Y-74678529D02*
G75*
G02*
X77518750Y-72800000I2151317J-291470D01*
G01*
D10*
X75702432Y-75078529D02*
G75*
G02*
X77918750Y-73200000I2151317J-291470D01*
G01*
D11*
G04 #@! TO.C,D8*
X59018749Y-68656251D02*
X59618749Y-69056251D01*
X59018749Y-69056251D02*
X58518749Y-69056251D01*
X59018749Y-69456251D02*
X59018749Y-68656251D01*
X59618749Y-69056251D02*
X59018749Y-69456251D01*
X59618749Y-69606251D02*
X59618749Y-68506251D01*
X60018749Y-69056251D02*
X59618749Y-69056251D01*
G04 #@! TO.C,D12*
X134868752Y-68656251D02*
X135468752Y-69056251D01*
X134868752Y-69056251D02*
X134368752Y-69056251D01*
X134868752Y-69456251D02*
X134868752Y-68656251D01*
X135468752Y-69056251D02*
X134868752Y-69456251D01*
X135468752Y-69606251D02*
X135468752Y-68506251D01*
X135868752Y-69056251D02*
X135468752Y-69056251D01*
G04 #@! TO.C,D6*
X135718750Y-49606250D02*
X136318750Y-50006250D01*
X135718750Y-50006250D02*
X135218750Y-50006250D01*
X135718750Y-50406250D02*
X135718750Y-49606250D01*
X136318750Y-50006250D02*
X135718750Y-50406250D01*
X136318750Y-50556250D02*
X136318750Y-49456250D01*
X136718750Y-50006250D02*
X136318750Y-50006250D01*
G04 #@! TO.C,D11*
X116168749Y-66275001D02*
X116768749Y-66675001D01*
X116168749Y-66675001D02*
X115668749Y-66675001D01*
X116168749Y-67075001D02*
X116168749Y-66275001D01*
X116768749Y-66675001D02*
X116168749Y-67075001D01*
X116768749Y-67225001D02*
X116768749Y-66125001D01*
X117168749Y-66675001D02*
X116768749Y-66675001D01*
D10*
G04 #@! TO.C,S1*
X34318750Y-35781250D02*
X34318750Y-36781250D01*
X34318750Y-36781250D02*
X34518750Y-36781250D01*
X34318750Y-39381250D02*
X34318750Y-39021250D01*
X34318750Y-39381250D02*
X37598750Y-39381250D01*
D12*
X34418750Y-36681249D02*
X34418750Y-35781250D01*
D10*
X34518750Y-39021250D02*
X34318750Y-39021250D01*
D13*
X34518750Y-39181250D02*
X37218750Y-39181250D01*
D10*
X34548750Y-36781250D02*
X34548750Y-39021250D01*
D14*
X34918750Y-38881250D02*
X34918750Y-37081251D01*
D15*
X36048750Y-35381250D02*
X36048750Y-37621250D01*
D10*
X39818750Y-37481250D02*
X44818750Y-37481250D01*
D16*
X42818750Y-35681250D02*
X36118750Y-35681250D01*
D17*
X44118750Y-34481250D02*
X44118750Y-36981250D01*
D13*
X44518750Y-37181250D02*
X43118750Y-37181250D01*
D10*
X44598750Y-36481250D02*
X44598750Y-34231250D01*
D18*
X44618750Y-34081250D02*
X43218750Y-34081250D01*
D10*
X44618750Y-34231250D02*
X44818750Y-34231250D01*
D18*
X44618750Y-36581250D02*
X44618750Y-37281250D01*
D10*
X44818750Y-33881250D02*
X36418749Y-33881250D01*
X44818750Y-34231250D02*
X44818750Y-33881250D01*
X44818750Y-36481250D02*
X44618750Y-36481250D01*
X44818750Y-37481250D02*
X44818750Y-36481250D01*
X34318750Y-35781251D02*
G75*
G02*
X36418749Y-33881249I1999999J-99997D01*
G01*
D17*
X37202432Y-38959779D02*
G75*
G02*
X39418750Y-37081250I2151317J-291470D01*
G01*
D10*
X37602432Y-39359779D02*
G75*
G02*
X39818750Y-37481250I2151317J-291470D01*
G01*
D19*
G04 #@! TO.C,J2*
X146815384Y-103068986D02*
X148027820Y-103768987D01*
X147465323Y-104743267D02*
X148027820Y-103768987D01*
X147465323Y-104743267D02*
X152834679Y-107843266D01*
X147590386Y-101726648D02*
X148802821Y-102426649D01*
X148802821Y-102426649D02*
X150002822Y-100348186D01*
X150827820Y-98919245D02*
X151502820Y-97750109D01*
X152327821Y-96321173D02*
X153515320Y-94264359D01*
X154034936Y-94564359D02*
X153515320Y-94264359D01*
X155034937Y-92832305D02*
X154034936Y-94564359D01*
X158884678Y-97364361D02*
X153622179Y-106479276D01*
X158884678Y-97364361D02*
X158365064Y-97064359D01*
X159365062Y-95332313D02*
X155034937Y-92832305D01*
X159365062Y-95332313D02*
X158365064Y-97064359D01*
G04 #@! TD*
%LPC*%
D20*
G04 #@! TO.C,D18*
X138928750Y-88106250D03*
D21*
X131308750Y-88106250D03*
G04 #@! TD*
D20*
G04 #@! TO.C,D9*
X82378750Y-66675000D03*
D21*
X74758750Y-66675000D03*
G04 #@! TD*
D20*
G04 #@! TO.C,D5*
X120228749Y-47625001D03*
D21*
X112608749Y-47625001D03*
G04 #@! TD*
D22*
G04 #@! TO.C,S25*
X94670000Y-114300000D03*
D23*
X95250000Y-114300000D03*
D24*
X95940000Y-111760000D03*
X97210000Y-109220000D03*
D25*
X99750000Y-114300000D03*
D24*
X102290000Y-109220000D03*
X103560000Y-111759999D03*
D23*
X104250000Y-114300000D03*
D22*
X104830000Y-114300000D03*
D26*
X92750000Y-111720000D03*
X105450000Y-109180000D03*
G04 #@! TD*
D27*
G04 #@! TO.C,D27*
X134817500Y-116066052D03*
D28*
X131007500Y-122665166D03*
G04 #@! TD*
D22*
G04 #@! TO.C,S11*
X111338750Y-57150000D03*
D23*
X111918750Y-57150000D03*
D24*
X112608750Y-54610000D03*
X113878750Y-52070000D03*
D25*
X116418750Y-57150000D03*
D24*
X118958750Y-52070000D03*
X120228750Y-54609999D03*
D23*
X120918750Y-57150000D03*
D22*
X121498750Y-57150000D03*
D26*
X109418750Y-54570000D03*
X122118750Y-52030000D03*
G04 #@! TD*
D22*
G04 #@! TO.C,S5*
X111338750Y-38100000D03*
D23*
X111918750Y-38100000D03*
D24*
X112608750Y-35560000D03*
X113878750Y-33020000D03*
D25*
X116418750Y-38100000D03*
D24*
X118958750Y-33020000D03*
X120228750Y-35559999D03*
D23*
X120918750Y-38100000D03*
D22*
X121498750Y-38100000D03*
D26*
X109418750Y-35520000D03*
X122118750Y-32980000D03*
G04 #@! TD*
D22*
G04 #@! TO.C,S6*
X130388750Y-40481250D03*
D23*
X130968750Y-40481250D03*
D24*
X131658750Y-37941250D03*
X132928750Y-35401250D03*
D25*
X135468750Y-40481250D03*
D24*
X138008750Y-35401250D03*
X139278750Y-37941249D03*
D23*
X139968750Y-40481250D03*
D22*
X140548750Y-40481250D03*
D26*
X128468750Y-37901250D03*
X141168750Y-35361250D03*
G04 #@! TD*
D22*
G04 #@! TO.C,S10*
X92288750Y-54768750D03*
D23*
X92868750Y-54768750D03*
D24*
X93558750Y-52228750D03*
X94828750Y-49688750D03*
D25*
X97368750Y-54768750D03*
D24*
X99908750Y-49688750D03*
X101178750Y-52228749D03*
D23*
X101868750Y-54768750D03*
D22*
X102448750Y-54768750D03*
D26*
X90368750Y-52188750D03*
X103068750Y-49648750D03*
G04 #@! TD*
D20*
G04 #@! TO.C,D25*
X103210002Y-123825001D03*
D21*
X95590002Y-123825001D03*
G04 #@! TD*
D22*
G04 #@! TO.C,S23*
X111338750Y-95250000D03*
D23*
X111918750Y-95250000D03*
D24*
X112608750Y-92710000D03*
X113878750Y-90170000D03*
D25*
X116418750Y-95250000D03*
D24*
X118958750Y-90170000D03*
X120228750Y-92709999D03*
D23*
X120918750Y-95250000D03*
D22*
X121498750Y-95250000D03*
D26*
X109418750Y-92670000D03*
X122118750Y-90130000D03*
G04 #@! TD*
D20*
G04 #@! TO.C,D16*
X100828750Y-83343750D03*
D21*
X93208750Y-83343750D03*
G04 #@! TD*
D20*
G04 #@! TO.C,D21*
X81778752Y-104775001D03*
D21*
X74158752Y-104775001D03*
G04 #@! TD*
D20*
G04 #@! TO.C,D14*
X62728750Y-88106250D03*
D21*
X55108750Y-88106250D03*
G04 #@! TD*
D22*
G04 #@! TO.C,S3*
X73238750Y-38100000D03*
D23*
X73818750Y-38100000D03*
D24*
X74508750Y-35560000D03*
X75778750Y-33020000D03*
D25*
X78318750Y-38100000D03*
D24*
X80858750Y-33020000D03*
X82128750Y-35559999D03*
D23*
X82818750Y-38100000D03*
D22*
X83398750Y-38100000D03*
D26*
X71318750Y-35520000D03*
X84018750Y-32980000D03*
G04 #@! TD*
D22*
G04 #@! TO.C,S26*
X116191847Y-115766449D03*
D23*
X116752084Y-115916564D03*
D24*
X118075973Y-113641698D03*
X119960099Y-111516946D03*
D25*
X121098750Y-117081250D03*
D24*
X124867002Y-112831747D03*
X125436328Y-115613898D03*
D23*
X125445416Y-118245936D03*
D22*
X126005653Y-118396051D03*
D29*
X115005022Y-112777428D03*
X127929681Y-113610978D03*
G04 #@! TD*
D22*
G04 #@! TO.C,S17*
X111338750Y-76200000D03*
D23*
X111918750Y-76200000D03*
D24*
X112608750Y-73660000D03*
X113878750Y-71120000D03*
D25*
X116418750Y-76200000D03*
D24*
X118958750Y-71120000D03*
X120228750Y-73659999D03*
D23*
X120918750Y-76200000D03*
D22*
X121498750Y-76200000D03*
D26*
X109418750Y-73620000D03*
X122118750Y-71080000D03*
G04 #@! TD*
D22*
G04 #@! TO.C,S8*
X54188750Y-59531250D03*
D23*
X54768750Y-59531250D03*
D24*
X55458750Y-56991250D03*
X56728750Y-54451250D03*
D25*
X59268750Y-59531250D03*
D24*
X61808750Y-54451250D03*
X63078750Y-56991249D03*
D23*
X63768750Y-59531250D03*
D22*
X64348750Y-59531250D03*
D26*
X52268750Y-56951250D03*
X64968750Y-54411250D03*
G04 #@! TD*
D20*
G04 #@! TO.C,D3*
X82128749Y-47625000D03*
D21*
X74508749Y-47625000D03*
G04 #@! TD*
D20*
G04 #@! TO.C,D1*
X44028749Y-50006251D03*
D21*
X36408749Y-50006251D03*
G04 #@! TD*
D20*
G04 #@! TO.C,D7*
X44528750Y-69056250D03*
D21*
X36908750Y-69056250D03*
G04 #@! TD*
D22*
G04 #@! TO.C,S13*
X35138750Y-78581250D03*
D23*
X35718750Y-78581250D03*
D24*
X36408750Y-76041250D03*
X37678750Y-73501250D03*
D25*
X40218750Y-78581250D03*
D24*
X42758750Y-73501250D03*
X44028750Y-76041249D03*
D23*
X44718750Y-78581250D03*
D22*
X45298750Y-78581250D03*
D26*
X33218750Y-76001250D03*
X45918750Y-73461250D03*
G04 #@! TD*
D22*
G04 #@! TO.C,S16*
X92288750Y-73818750D03*
D23*
X92868750Y-73818750D03*
D24*
X93558750Y-71278750D03*
X94828750Y-68738750D03*
D25*
X97368750Y-73818750D03*
D24*
X99908750Y-68738750D03*
X101178750Y-71278749D03*
D23*
X101868750Y-73818750D03*
D22*
X102448750Y-73818750D03*
D26*
X90368750Y-71238750D03*
X103068750Y-68698750D03*
G04 #@! TD*
D22*
G04 #@! TO.C,S27*
X144768750Y-118911841D03*
D23*
X144478750Y-119414136D03*
D24*
X146333455Y-121281693D03*
X147898159Y-123651545D03*
D25*
X142228750Y-123311250D03*
D24*
X145358159Y-128050955D03*
X142523455Y-127880807D03*
D23*
X139978750Y-127208364D03*
D22*
X139688750Y-127710659D03*
D30*
X147963096Y-118539072D03*
X143812800Y-130807595D03*
G04 #@! TD*
D22*
G04 #@! TO.C,S14*
X54188750Y-78581250D03*
D23*
X54768750Y-78581250D03*
D24*
X55458750Y-76041250D03*
X56728750Y-73501250D03*
D25*
X59268750Y-78581250D03*
D24*
X61808750Y-73501250D03*
X63078750Y-76041249D03*
D23*
X63768750Y-78581250D03*
D22*
X64348750Y-78581250D03*
D26*
X52268750Y-76001250D03*
X64968750Y-73461250D03*
G04 #@! TD*
D22*
G04 #@! TO.C,S7*
X35138750Y-59531250D03*
D23*
X35718750Y-59531250D03*
D24*
X36408750Y-56991250D03*
X37678750Y-54451250D03*
D25*
X40218750Y-59531250D03*
D24*
X42758750Y-54451250D03*
X44028750Y-56991249D03*
D23*
X44718750Y-59531250D03*
D22*
X45298750Y-59531250D03*
D26*
X33218750Y-56951250D03*
X45918750Y-54411250D03*
G04 #@! TD*
D22*
G04 #@! TO.C,S22*
X92288750Y-92868750D03*
D23*
X92868750Y-92868750D03*
D24*
X93558750Y-90328750D03*
X94828750Y-87788750D03*
D25*
X97368750Y-92868750D03*
D24*
X99908750Y-87788750D03*
X101178750Y-90328749D03*
D23*
X101868750Y-92868750D03*
D22*
X102448750Y-92868750D03*
D26*
X90368750Y-90288750D03*
X103068750Y-87748750D03*
G04 #@! TD*
D22*
G04 #@! TO.C,S19*
X35138750Y-97631250D03*
D23*
X35718750Y-97631250D03*
D24*
X36408750Y-95091250D03*
X37678750Y-92551250D03*
D25*
X40218750Y-97631250D03*
D24*
X42758750Y-92551250D03*
X44028750Y-95091249D03*
D23*
X44718750Y-97631250D03*
D22*
X45298750Y-97631250D03*
D26*
X33218750Y-95051250D03*
X45918750Y-92511250D03*
G04 #@! TD*
D20*
G04 #@! TO.C,D17*
X119878752Y-85725001D03*
D21*
X112258752Y-85725001D03*
G04 #@! TD*
D20*
G04 #@! TO.C,D2*
X63078749Y-50006250D03*
D21*
X55458749Y-50006250D03*
G04 #@! TD*
D20*
G04 #@! TO.C,D19*
X43678752Y-107156251D03*
D21*
X36058752Y-107156251D03*
G04 #@! TD*
D31*
G04 #@! TO.C,U1*
X163828750Y-32731250D03*
X163828750Y-35271250D03*
X163828750Y-37811250D03*
X163828750Y-40351250D03*
X163828750Y-42891250D03*
X163828750Y-45431250D03*
X163828750Y-47971250D03*
X163828750Y-50511250D03*
X163828750Y-53051250D03*
D32*
X160788750Y-53551250D03*
X158248750Y-53551250D03*
X155708750Y-53551250D03*
X153168750Y-53551250D03*
X150628750Y-53551250D03*
D31*
X147588750Y-53051250D03*
X147588750Y-50511250D03*
X147588750Y-47971250D03*
X147588750Y-45431250D03*
X147588750Y-42891250D03*
X147588750Y-40351250D03*
X147588750Y-37811250D03*
X147588750Y-35271250D03*
X147588750Y-32731250D03*
G04 #@! TD*
D22*
G04 #@! TO.C,S20*
X54188750Y-97631250D03*
D23*
X54768750Y-97631250D03*
D24*
X55458750Y-95091250D03*
X56728750Y-92551250D03*
D25*
X59268750Y-97631250D03*
D24*
X61808750Y-92551250D03*
X63078750Y-95091249D03*
D23*
X63768750Y-97631250D03*
D22*
X64348750Y-97631250D03*
D26*
X52268750Y-95051250D03*
X64968750Y-92511250D03*
G04 #@! TD*
D20*
G04 #@! TO.C,D10*
X100828752Y-64293751D03*
D21*
X93208752Y-64293751D03*
G04 #@! TD*
D20*
G04 #@! TO.C,D22*
X101441249Y-102393751D03*
D21*
X93821249Y-102393751D03*
G04 #@! TD*
D22*
G04 #@! TO.C,S2*
X54188750Y-40481250D03*
D23*
X54768750Y-40481250D03*
D24*
X55458750Y-37941250D03*
X56728750Y-35401250D03*
D25*
X59268750Y-40481250D03*
D24*
X61808750Y-35401250D03*
X63078750Y-37941249D03*
D23*
X63768750Y-40481250D03*
D22*
X64348750Y-40481250D03*
D26*
X52268750Y-37901250D03*
X64968750Y-35361250D03*
G04 #@! TD*
D20*
G04 #@! TO.C,D15*
X81578751Y-85725000D03*
D21*
X73958751Y-85725000D03*
G04 #@! TD*
D20*
G04 #@! TO.C,D23*
X120228749Y-104775001D03*
D21*
X112608749Y-104775001D03*
G04 #@! TD*
D22*
G04 #@! TO.C,S21*
X73238750Y-95250000D03*
D23*
X73818750Y-95250000D03*
D24*
X74508750Y-92710000D03*
X75778750Y-90170000D03*
D25*
X78318750Y-95250000D03*
D24*
X80858750Y-90170000D03*
X82128750Y-92709999D03*
D23*
X82818750Y-95250000D03*
D22*
X83398750Y-95250000D03*
D26*
X71318750Y-92670000D03*
X84018750Y-90130000D03*
G04 #@! TD*
D22*
G04 #@! TO.C,S12*
X130388750Y-59531250D03*
D23*
X130968750Y-59531250D03*
D24*
X131658750Y-56991250D03*
X132928750Y-54451250D03*
D25*
X135468750Y-59531250D03*
D24*
X138008750Y-54451250D03*
X139278750Y-56991249D03*
D23*
X139968750Y-59531250D03*
D22*
X140548750Y-59531250D03*
D26*
X128468750Y-56951250D03*
X141168750Y-54411250D03*
G04 #@! TD*
D22*
G04 #@! TO.C,S18*
X130388750Y-78581250D03*
D23*
X130968750Y-78581250D03*
D24*
X131658750Y-76041250D03*
X132928750Y-73501250D03*
D25*
X135468750Y-78581250D03*
D24*
X138008750Y-73501250D03*
X139278750Y-76041249D03*
D23*
X139968750Y-78581250D03*
D22*
X140548750Y-78581250D03*
D26*
X128468750Y-76001250D03*
X141168750Y-73461250D03*
G04 #@! TD*
D20*
G04 #@! TO.C,D4*
X101178749Y-45243751D03*
D21*
X93558749Y-45243751D03*
G04 #@! TD*
D33*
G04 #@! TO.C,D26*
X122142103Y-127101764D03*
D34*
X114781748Y-125129563D03*
G04 #@! TD*
D20*
G04 #@! TO.C,D20*
X62728750Y-107156250D03*
D21*
X55108750Y-107156250D03*
G04 #@! TD*
D20*
G04 #@! TO.C,D24*
X140493750Y-107156250D03*
D21*
X132873750Y-107156250D03*
G04 #@! TD*
D22*
G04 #@! TO.C,S4*
X92288750Y-35718750D03*
D23*
X92868750Y-35718750D03*
D24*
X93558750Y-33178750D03*
X94828750Y-30638750D03*
D25*
X97368750Y-35718750D03*
D24*
X99908750Y-30638750D03*
X101178750Y-33178749D03*
D23*
X101868750Y-35718750D03*
D22*
X102448750Y-35718750D03*
D26*
X90368750Y-33138750D03*
X103068750Y-30598750D03*
G04 #@! TD*
D22*
G04 #@! TO.C,S24*
X130388750Y-97631250D03*
D23*
X130968750Y-97631250D03*
D24*
X131658750Y-95091250D03*
X132928750Y-92551250D03*
D25*
X135468750Y-97631250D03*
D24*
X138008750Y-92551250D03*
X139278750Y-95091249D03*
D23*
X139968750Y-97631250D03*
D22*
X140548750Y-97631250D03*
D26*
X128468750Y-95051250D03*
X141168750Y-92511250D03*
G04 #@! TD*
D22*
G04 #@! TO.C,S9*
X73238750Y-57150000D03*
D23*
X73818750Y-57150000D03*
D24*
X74508750Y-54610000D03*
X75778750Y-52070000D03*
D25*
X78318750Y-57150000D03*
D24*
X80858750Y-52070000D03*
X82128750Y-54609999D03*
D23*
X82818750Y-57150000D03*
D22*
X83398750Y-57150000D03*
D26*
X71318750Y-54570000D03*
X84018750Y-52030000D03*
G04 #@! TD*
D20*
G04 #@! TO.C,D13*
X43678752Y-88106251D03*
D21*
X36058752Y-88106251D03*
G04 #@! TD*
D22*
G04 #@! TO.C,S15*
X73238750Y-76200000D03*
D23*
X73818750Y-76200000D03*
D24*
X74508750Y-73660000D03*
X75778750Y-71120000D03*
D25*
X78318750Y-76200000D03*
D24*
X80858750Y-71120000D03*
X82128750Y-73659999D03*
D23*
X82818750Y-76200000D03*
D22*
X83398750Y-76200000D03*
D26*
X71318750Y-73620000D03*
X84018750Y-71080000D03*
G04 #@! TD*
D20*
G04 #@! TO.C,D8*
X63078749Y-69056251D03*
D21*
X55458749Y-69056251D03*
G04 #@! TD*
D20*
G04 #@! TO.C,D12*
X138928752Y-69056251D03*
D21*
X131308752Y-69056251D03*
G04 #@! TD*
D20*
G04 #@! TO.C,D6*
X139778750Y-50006250D03*
D21*
X132158750Y-50006250D03*
G04 #@! TD*
D20*
G04 #@! TO.C,D11*
X120228749Y-66675001D03*
D21*
X112608749Y-66675001D03*
G04 #@! TD*
D22*
G04 #@! TO.C,S1*
X35138750Y-40481250D03*
D23*
X35718750Y-40481250D03*
D24*
X36408750Y-37941250D03*
X37678750Y-35401250D03*
D25*
X40218750Y-40481250D03*
D24*
X42758750Y-35401250D03*
X44028750Y-37941249D03*
D23*
X44718750Y-40481250D03*
D22*
X45298750Y-40481250D03*
D26*
X33218750Y-37901250D03*
X45918750Y-35361250D03*
G04 #@! TD*
D35*
G04 #@! TO.C,J2*
X155400000Y-97200000D03*
X151900000Y-103262178D03*
D36*
X150285415Y-99558717D03*
X151785418Y-96960642D03*
X153364582Y-107225446D03*
X148285422Y-103022820D03*
G04 #@! TD*
%LPD*%
M02*
