G04 #@! TF.GenerationSoftware,KiCad,Pcbnew,8.0.4*
G04 #@! TF.CreationDate,2024-09-10T03:21:52+03:00*
G04 #@! TF.ProjectId,silakka54,73696c61-6b6b-4613-9534-2e6b69636164,rev?*
G04 #@! TF.SameCoordinates,Original*
G04 #@! TF.FileFunction,Legend,Top*
G04 #@! TF.FilePolarity,Positive*
%FSLAX46Y46*%
G04 Gerber Fmt 4.6, Leading zero omitted, Abs format (unit mm)*
G04 Created by KiCad (PCBNEW 8.0.4) date 2024-09-10 03:21:52*
%MOMM*%
%LPD*%
G01*
G04 APERTURE LIST*
G04 Aperture macros list*
%AMHorizOval*
0 Thick line with rounded ends*
0 $1 width*
0 $2 $3 position (X,Y) of the first rounded end (center of the circle)*
0 $4 $5 position (X,Y) of the second rounded end (center of the circle)*
0 Add line between two ends*
20,1,$1,$2,$3,$4,$5,0*
0 Add two circle primitives to create the rounded ends*
1,1,$1,$2,$3*
1,1,$1,$4,$5*%
%AMRotRect*
0 Rectangle, with rotation*
0 The origin of the aperture is its center*
0 $1 length*
0 $2 width*
0 $3 Rotation angle, in degrees counterclockwise*
0 Add horizontal line*
21,1,$1,$2,0,0,$3*%
G04 Aperture macros list end*
%ADD10C,0.150000*%
%ADD11C,0.100000*%
%ADD12C,0.400000*%
%ADD13C,0.500000*%
%ADD14C,1.000000*%
%ADD15C,3.500000*%
%ADD16C,3.000000*%
%ADD17C,0.800000*%
%ADD18C,0.300000*%
%ADD19C,0.120000*%
%ADD20R,1.600000X1.600000*%
%ADD21O,1.600000X1.600000*%
%ADD22C,1.900000*%
%ADD23C,1.700000*%
%ADD24C,3.000000*%
%ADD25C,4.100000*%
%ADD26R,2.300000X2.000000*%
%ADD27RotRect,1.600000X1.600000X240.000000*%
%ADD28HorizOval,1.600000X0.000000X0.000000X0.000000X0.000000X0*%
%ADD29RotRect,2.300000X2.000000X165.000000*%
%ADD30RotRect,1.200000X2.500000X240.000000*%
%ADD31RotRect,2.300000X2.000000X60.000000*%
%ADD32O,2.500000X1.500000*%
%ADD33O,1.500000X2.500000*%
%ADD34RotRect,1.600000X1.600000X165.000000*%
%ADD35HorizOval,1.600000X0.000000X0.000000X0.000000X0.000000X0*%
%ADD36C,1.500000*%
G04 APERTURE END LIST*
D10*
X154302312Y-49210839D02*
X154349931Y-49115601D01*
X154349931Y-49115601D02*
X154349931Y-48925125D01*
X154349931Y-48925125D02*
X154302312Y-48829887D01*
X154302312Y-48829887D02*
X154207073Y-48782268D01*
X154207073Y-48782268D02*
X154159454Y-48782268D01*
X154159454Y-48782268D02*
X154064216Y-48829887D01*
X154064216Y-48829887D02*
X154016597Y-48925125D01*
X154016597Y-48925125D02*
X154016597Y-49067982D01*
X154016597Y-49067982D02*
X153968978Y-49163220D01*
X153968978Y-49163220D02*
X153873740Y-49210839D01*
X153873740Y-49210839D02*
X153826121Y-49210839D01*
X153826121Y-49210839D02*
X153730883Y-49163220D01*
X153730883Y-49163220D02*
X153683264Y-49067982D01*
X153683264Y-49067982D02*
X153683264Y-48925125D01*
X153683264Y-48925125D02*
X153730883Y-48829887D01*
X154349931Y-48353696D02*
X153683264Y-48353696D01*
X153349931Y-48353696D02*
X153397550Y-48401315D01*
X153397550Y-48401315D02*
X153445169Y-48353696D01*
X153445169Y-48353696D02*
X153397550Y-48306077D01*
X153397550Y-48306077D02*
X153349931Y-48353696D01*
X153349931Y-48353696D02*
X153445169Y-48353696D01*
X154349931Y-47734649D02*
X154302312Y-47829887D01*
X154302312Y-47829887D02*
X154207073Y-47877506D01*
X154207073Y-47877506D02*
X153349931Y-47877506D01*
X154349931Y-46925125D02*
X153826121Y-46925125D01*
X153826121Y-46925125D02*
X153730883Y-46972744D01*
X153730883Y-46972744D02*
X153683264Y-47067982D01*
X153683264Y-47067982D02*
X153683264Y-47258458D01*
X153683264Y-47258458D02*
X153730883Y-47353696D01*
X154302312Y-46925125D02*
X154349931Y-47020363D01*
X154349931Y-47020363D02*
X154349931Y-47258458D01*
X154349931Y-47258458D02*
X154302312Y-47353696D01*
X154302312Y-47353696D02*
X154207073Y-47401315D01*
X154207073Y-47401315D02*
X154111835Y-47401315D01*
X154111835Y-47401315D02*
X154016597Y-47353696D01*
X154016597Y-47353696D02*
X153968978Y-47258458D01*
X153968978Y-47258458D02*
X153968978Y-47020363D01*
X153968978Y-47020363D02*
X153921359Y-46925125D01*
X154349931Y-46448934D02*
X153349931Y-46448934D01*
X153968978Y-46353696D02*
X154349931Y-46067982D01*
X153683264Y-46067982D02*
X154064216Y-46448934D01*
X154349931Y-45639410D02*
X153349931Y-45639410D01*
X153968978Y-45544172D02*
X154349931Y-45258458D01*
X153683264Y-45258458D02*
X154064216Y-45639410D01*
X154349931Y-44401315D02*
X153826121Y-44401315D01*
X153826121Y-44401315D02*
X153730883Y-44448934D01*
X153730883Y-44448934D02*
X153683264Y-44544172D01*
X153683264Y-44544172D02*
X153683264Y-44734648D01*
X153683264Y-44734648D02*
X153730883Y-44829886D01*
X154302312Y-44401315D02*
X154349931Y-44496553D01*
X154349931Y-44496553D02*
X154349931Y-44734648D01*
X154349931Y-44734648D02*
X154302312Y-44829886D01*
X154302312Y-44829886D02*
X154207073Y-44877505D01*
X154207073Y-44877505D02*
X154111835Y-44877505D01*
X154111835Y-44877505D02*
X154016597Y-44829886D01*
X154016597Y-44829886D02*
X153968978Y-44734648D01*
X153968978Y-44734648D02*
X153968978Y-44496553D01*
X153968978Y-44496553D02*
X153921359Y-44401315D01*
X153349931Y-43448934D02*
X153349931Y-43925124D01*
X153349931Y-43925124D02*
X153826121Y-43972743D01*
X153826121Y-43972743D02*
X153778502Y-43925124D01*
X153778502Y-43925124D02*
X153730883Y-43829886D01*
X153730883Y-43829886D02*
X153730883Y-43591791D01*
X153730883Y-43591791D02*
X153778502Y-43496553D01*
X153778502Y-43496553D02*
X153826121Y-43448934D01*
X153826121Y-43448934D02*
X153921359Y-43401315D01*
X153921359Y-43401315D02*
X154159454Y-43401315D01*
X154159454Y-43401315D02*
X154254692Y-43448934D01*
X154254692Y-43448934D02*
X154302312Y-43496553D01*
X154302312Y-43496553D02*
X154349931Y-43591791D01*
X154349931Y-43591791D02*
X154349931Y-43829886D01*
X154349931Y-43829886D02*
X154302312Y-43925124D01*
X154302312Y-43925124D02*
X154254692Y-43972743D01*
X153683264Y-42544172D02*
X154349931Y-42544172D01*
X153302312Y-42782267D02*
X154016597Y-43020362D01*
X154016597Y-43020362D02*
X154016597Y-42401315D01*
X154349931Y-41258457D02*
X153683264Y-41258457D01*
X153873740Y-41258457D02*
X153778502Y-41210838D01*
X153778502Y-41210838D02*
X153730883Y-41163219D01*
X153730883Y-41163219D02*
X153683264Y-41067981D01*
X153683264Y-41067981D02*
X153683264Y-40972743D01*
X154302312Y-40258457D02*
X154349931Y-40353695D01*
X154349931Y-40353695D02*
X154349931Y-40544171D01*
X154349931Y-40544171D02*
X154302312Y-40639409D01*
X154302312Y-40639409D02*
X154207073Y-40687028D01*
X154207073Y-40687028D02*
X153826121Y-40687028D01*
X153826121Y-40687028D02*
X153730883Y-40639409D01*
X153730883Y-40639409D02*
X153683264Y-40544171D01*
X153683264Y-40544171D02*
X153683264Y-40353695D01*
X153683264Y-40353695D02*
X153730883Y-40258457D01*
X153730883Y-40258457D02*
X153826121Y-40210838D01*
X153826121Y-40210838D02*
X153921359Y-40210838D01*
X153921359Y-40210838D02*
X154016597Y-40687028D01*
X153683264Y-39877504D02*
X154349931Y-39639409D01*
X154349931Y-39639409D02*
X153683264Y-39401314D01*
X154349931Y-37734647D02*
X154349931Y-38306075D01*
X154349931Y-38020361D02*
X153349931Y-38020361D01*
X153349931Y-38020361D02*
X153492788Y-38115599D01*
X153492788Y-38115599D02*
X153588026Y-38210837D01*
X153588026Y-38210837D02*
X153635645Y-38306075D01*
X157569819Y-48687030D02*
X157569819Y-49163220D01*
X157569819Y-49163220D02*
X156569819Y-49163220D01*
X157046009Y-48353696D02*
X157046009Y-48020363D01*
X157569819Y-47877506D02*
X157569819Y-48353696D01*
X157569819Y-48353696D02*
X156569819Y-48353696D01*
X156569819Y-48353696D02*
X156569819Y-47877506D01*
X157046009Y-47115601D02*
X157046009Y-47448934D01*
X157569819Y-47448934D02*
X156569819Y-47448934D01*
X156569819Y-47448934D02*
X156569819Y-46972744D01*
X156569819Y-46734648D02*
X156569819Y-46163220D01*
X157569819Y-46448934D02*
X156569819Y-46448934D01*
X157522200Y-45115600D02*
X157569819Y-44972743D01*
X157569819Y-44972743D02*
X157569819Y-44734648D01*
X157569819Y-44734648D02*
X157522200Y-44639410D01*
X157522200Y-44639410D02*
X157474580Y-44591791D01*
X157474580Y-44591791D02*
X157379342Y-44544172D01*
X157379342Y-44544172D02*
X157284104Y-44544172D01*
X157284104Y-44544172D02*
X157188866Y-44591791D01*
X157188866Y-44591791D02*
X157141247Y-44639410D01*
X157141247Y-44639410D02*
X157093628Y-44734648D01*
X157093628Y-44734648D02*
X157046009Y-44925124D01*
X157046009Y-44925124D02*
X156998390Y-45020362D01*
X156998390Y-45020362D02*
X156950771Y-45067981D01*
X156950771Y-45067981D02*
X156855533Y-45115600D01*
X156855533Y-45115600D02*
X156760295Y-45115600D01*
X156760295Y-45115600D02*
X156665057Y-45067981D01*
X156665057Y-45067981D02*
X156617438Y-45020362D01*
X156617438Y-45020362D02*
X156569819Y-44925124D01*
X156569819Y-44925124D02*
X156569819Y-44687029D01*
X156569819Y-44687029D02*
X156617438Y-44544172D01*
X157569819Y-44115600D02*
X156569819Y-44115600D01*
X157569819Y-43639410D02*
X156569819Y-43639410D01*
X156569819Y-43639410D02*
X156569819Y-43401315D01*
X156569819Y-43401315D02*
X156617438Y-43258458D01*
X156617438Y-43258458D02*
X156712676Y-43163220D01*
X156712676Y-43163220D02*
X156807914Y-43115601D01*
X156807914Y-43115601D02*
X156998390Y-43067982D01*
X156998390Y-43067982D02*
X157141247Y-43067982D01*
X157141247Y-43067982D02*
X157331723Y-43115601D01*
X157331723Y-43115601D02*
X157426961Y-43163220D01*
X157426961Y-43163220D02*
X157522200Y-43258458D01*
X157522200Y-43258458D02*
X157569819Y-43401315D01*
X157569819Y-43401315D02*
X157569819Y-43639410D01*
X157046009Y-42639410D02*
X157046009Y-42306077D01*
X157569819Y-42163220D02*
X157569819Y-42639410D01*
X157569819Y-42639410D02*
X156569819Y-42639410D01*
X156569819Y-42639410D02*
X156569819Y-42163220D01*
X156992755Y-104075907D02*
X157611345Y-104433050D01*
X157611345Y-104433050D02*
X157711253Y-104545718D01*
X157711253Y-104545718D02*
X157746113Y-104675816D01*
X157746113Y-104675816D02*
X157715923Y-104823343D01*
X157715923Y-104823343D02*
X157668304Y-104905822D01*
X158358781Y-103709882D02*
X158073066Y-104204753D01*
X158215924Y-103957318D02*
X157349898Y-103457318D01*
X157349898Y-103457318D02*
X157425997Y-103611225D01*
X157425997Y-103611225D02*
X157460857Y-103741322D01*
X157460857Y-103741322D02*
X157454477Y-103847610D01*
D11*
G04 #@! TO.C,D18*
X134868750Y-87706250D02*
X135468750Y-88106250D01*
X134868750Y-88106250D02*
X134368750Y-88106250D01*
X134868750Y-88506250D02*
X134868750Y-87706250D01*
X135468750Y-88106250D02*
X134868750Y-88506250D01*
X135468750Y-88656250D02*
X135468750Y-87556250D01*
X135868750Y-88106250D02*
X135468750Y-88106250D01*
G04 #@! TO.C,D9*
X78318750Y-66275000D02*
X78918750Y-66675000D01*
X78318750Y-66675000D02*
X77818750Y-66675000D01*
X78318750Y-67075000D02*
X78318750Y-66275000D01*
X78918750Y-66675000D02*
X78318750Y-67075000D01*
X78918750Y-67225000D02*
X78918750Y-66125000D01*
X79318750Y-66675000D02*
X78918750Y-66675000D01*
G04 #@! TO.C,D5*
X116168749Y-47225001D02*
X116768749Y-47625001D01*
X116168749Y-47625001D02*
X115668749Y-47625001D01*
X116168749Y-48025001D02*
X116168749Y-47225001D01*
X116768749Y-47625001D02*
X116168749Y-48025001D01*
X116768749Y-48175001D02*
X116768749Y-47075001D01*
X117168749Y-47625001D02*
X116768749Y-47625001D01*
D10*
G04 #@! TO.C,S25*
X95150000Y-107700000D02*
X103550000Y-107699999D01*
X95150000Y-108050000D02*
X95150000Y-107700000D01*
X95150000Y-110300000D02*
X95350000Y-110300000D01*
X95150000Y-111300000D02*
X95150000Y-110300000D01*
D12*
X95350000Y-107900000D02*
X96750000Y-107900000D01*
D10*
X95350000Y-108050000D02*
X95150000Y-108050000D01*
D12*
X95350000Y-110400000D02*
X95350000Y-111100000D01*
D10*
X95370000Y-110300000D02*
X95370000Y-108050000D01*
D13*
X95450000Y-111000000D02*
X96850000Y-111000000D01*
D14*
X95850000Y-108300000D02*
X95850000Y-110800000D01*
D15*
X97150000Y-109500000D02*
X103850000Y-109500000D01*
D10*
X100150000Y-111300000D02*
X95150000Y-111300000D01*
D16*
X103920000Y-109200000D02*
X103920000Y-111440000D01*
D17*
X105050000Y-112700000D02*
X105050000Y-110900000D01*
D10*
X105420000Y-110600000D02*
X105420000Y-112840000D01*
X105450000Y-112840000D02*
X105650000Y-112840000D01*
D13*
X105450000Y-113000000D02*
X102750000Y-113000000D01*
D18*
X105549999Y-110500000D02*
X105550000Y-109600001D01*
D10*
X105650000Y-109600000D02*
X105650000Y-110600000D01*
X105650000Y-110600000D02*
X105450000Y-110600000D01*
X105650000Y-113200000D02*
X102370000Y-113200000D01*
X105650000Y-113200000D02*
X105650000Y-112840000D01*
X100150000Y-111300000D02*
G75*
G02*
X102366318Y-113178529I65000J-2170000D01*
G01*
D14*
X100550000Y-110900000D02*
G75*
G02*
X102766318Y-112778529I65000J-2170000D01*
G01*
D10*
X103550000Y-107699999D02*
G75*
G02*
X105650001Y-109600000I100000J-2000001D01*
G01*
D11*
G04 #@! TO.C,D27*
X132441090Y-119382115D02*
X133087500Y-119062500D01*
X132787500Y-119582115D02*
X132537500Y-120015128D01*
X133087500Y-119062500D02*
X133133910Y-119782115D01*
X133133910Y-119782115D02*
X132441090Y-119382115D01*
X133287500Y-118716090D02*
X133087500Y-119062500D01*
X133563814Y-119337500D02*
X132611186Y-118787500D01*
D10*
G04 #@! TO.C,S11*
X111818750Y-50550000D02*
X120218750Y-50549999D01*
X111818750Y-50900000D02*
X111818750Y-50550000D01*
X111818750Y-53150000D02*
X112018750Y-53150000D01*
X111818750Y-54150000D02*
X111818750Y-53150000D01*
D12*
X112018750Y-50750000D02*
X113418750Y-50750000D01*
D10*
X112018750Y-50900000D02*
X111818750Y-50900000D01*
D12*
X112018750Y-53250000D02*
X112018750Y-53950000D01*
D10*
X112038750Y-53150000D02*
X112038750Y-50900000D01*
D13*
X112118750Y-53850000D02*
X113518750Y-53850000D01*
D14*
X112518750Y-51150000D02*
X112518750Y-53650000D01*
D15*
X113818750Y-52350000D02*
X120518750Y-52350000D01*
D10*
X116818750Y-54150000D02*
X111818750Y-54150000D01*
D16*
X120588750Y-52050000D02*
X120588750Y-54290000D01*
D17*
X121718750Y-55550000D02*
X121718750Y-53750000D01*
D10*
X122088750Y-53450000D02*
X122088750Y-55690000D01*
X122118750Y-55690000D02*
X122318750Y-55690000D01*
D13*
X122118750Y-55850000D02*
X119418750Y-55850000D01*
D18*
X122218749Y-53350000D02*
X122218750Y-52450001D01*
D10*
X122318750Y-52450000D02*
X122318750Y-53450000D01*
X122318750Y-53450000D02*
X122118750Y-53450000D01*
X122318750Y-56050000D02*
X119038750Y-56050000D01*
X122318750Y-56050000D02*
X122318750Y-55690000D01*
X116818750Y-54150000D02*
G75*
G02*
X119035068Y-56028529I65000J-2170000D01*
G01*
D14*
X117218750Y-53750000D02*
G75*
G02*
X119435068Y-55628529I65000J-2170000D01*
G01*
D10*
X120218750Y-50549999D02*
G75*
G02*
X122318751Y-52450000I100000J-2000001D01*
G01*
G04 #@! TO.C,S5*
X111818750Y-31500000D02*
X120218750Y-31499999D01*
X111818750Y-31850000D02*
X111818750Y-31500000D01*
X111818750Y-34100000D02*
X112018750Y-34100000D01*
X111818750Y-35100000D02*
X111818750Y-34100000D01*
D12*
X112018750Y-31700000D02*
X113418750Y-31700000D01*
D10*
X112018750Y-31850000D02*
X111818750Y-31850000D01*
D12*
X112018750Y-34200000D02*
X112018750Y-34900000D01*
D10*
X112038750Y-34100000D02*
X112038750Y-31850000D01*
D13*
X112118750Y-34800000D02*
X113518750Y-34800000D01*
D14*
X112518750Y-32100000D02*
X112518750Y-34600000D01*
D15*
X113818750Y-33300000D02*
X120518750Y-33300000D01*
D10*
X116818750Y-35100000D02*
X111818750Y-35100000D01*
D16*
X120588750Y-33000000D02*
X120588750Y-35240000D01*
D17*
X121718750Y-36500000D02*
X121718750Y-34700000D01*
D10*
X122088750Y-34400000D02*
X122088750Y-36640000D01*
X122118750Y-36640000D02*
X122318750Y-36640000D01*
D13*
X122118750Y-36800000D02*
X119418750Y-36800000D01*
D18*
X122218749Y-34300000D02*
X122218750Y-33400001D01*
D10*
X122318750Y-33400000D02*
X122318750Y-34400000D01*
X122318750Y-34400000D02*
X122118750Y-34400000D01*
X122318750Y-37000000D02*
X119038750Y-37000000D01*
X122318750Y-37000000D02*
X122318750Y-36640000D01*
X116818750Y-35100000D02*
G75*
G02*
X119035068Y-36978529I65000J-2170000D01*
G01*
D14*
X117218750Y-34700000D02*
G75*
G02*
X119435068Y-36578529I65000J-2170000D01*
G01*
D10*
X120218750Y-31499999D02*
G75*
G02*
X122318751Y-33400000I100000J-2000001D01*
G01*
G04 #@! TO.C,S6*
X130868750Y-33881250D02*
X139268750Y-33881249D01*
X130868750Y-34231250D02*
X130868750Y-33881250D01*
X130868750Y-36481250D02*
X131068750Y-36481250D01*
X130868750Y-37481250D02*
X130868750Y-36481250D01*
D12*
X131068750Y-34081250D02*
X132468750Y-34081250D01*
D10*
X131068750Y-34231250D02*
X130868750Y-34231250D01*
D12*
X131068750Y-36581250D02*
X131068750Y-37281250D01*
D10*
X131088750Y-36481250D02*
X131088750Y-34231250D01*
D13*
X131168750Y-37181250D02*
X132568750Y-37181250D01*
D14*
X131568750Y-34481250D02*
X131568750Y-36981250D01*
D15*
X132868750Y-35681250D02*
X139568750Y-35681250D01*
D10*
X135868750Y-37481250D02*
X130868750Y-37481250D01*
D16*
X139638750Y-35381250D02*
X139638750Y-37621250D01*
D17*
X140768750Y-38881250D02*
X140768750Y-37081250D01*
D10*
X141138750Y-36781250D02*
X141138750Y-39021250D01*
X141168750Y-39021250D02*
X141368750Y-39021250D01*
D13*
X141168750Y-39181250D02*
X138468750Y-39181250D01*
D18*
X141268749Y-36681250D02*
X141268750Y-35781251D01*
D10*
X141368750Y-35781250D02*
X141368750Y-36781250D01*
X141368750Y-36781250D02*
X141168750Y-36781250D01*
X141368750Y-39381250D02*
X138088750Y-39381250D01*
X141368750Y-39381250D02*
X141368750Y-39021250D01*
X135868750Y-37481250D02*
G75*
G02*
X138085068Y-39359779I65000J-2170000D01*
G01*
D14*
X136268750Y-37081250D02*
G75*
G02*
X138485068Y-38959779I65000J-2170000D01*
G01*
D10*
X139268750Y-33881249D02*
G75*
G02*
X141368751Y-35781250I100000J-2000001D01*
G01*
G04 #@! TO.C,S10*
X92768750Y-48168750D02*
X101168750Y-48168749D01*
X92768750Y-48518750D02*
X92768750Y-48168750D01*
X92768750Y-50768750D02*
X92968750Y-50768750D01*
X92768750Y-51768750D02*
X92768750Y-50768750D01*
D12*
X92968750Y-48368750D02*
X94368750Y-48368750D01*
D10*
X92968750Y-48518750D02*
X92768750Y-48518750D01*
D12*
X92968750Y-50868750D02*
X92968750Y-51568750D01*
D10*
X92988750Y-50768750D02*
X92988750Y-48518750D01*
D13*
X93068750Y-51468750D02*
X94468750Y-51468750D01*
D14*
X93468750Y-48768750D02*
X93468750Y-51268750D01*
D15*
X94768750Y-49968750D02*
X101468750Y-49968750D01*
D10*
X97768750Y-51768750D02*
X92768750Y-51768750D01*
D16*
X101538750Y-49668750D02*
X101538750Y-51908750D01*
D17*
X102668750Y-53168750D02*
X102668750Y-51368750D01*
D10*
X103038750Y-51068750D02*
X103038750Y-53308750D01*
X103068750Y-53308750D02*
X103268750Y-53308750D01*
D13*
X103068750Y-53468750D02*
X100368750Y-53468750D01*
D18*
X103168749Y-50968750D02*
X103168750Y-50068751D01*
D10*
X103268750Y-50068750D02*
X103268750Y-51068750D01*
X103268750Y-51068750D02*
X103068750Y-51068750D01*
X103268750Y-53668750D02*
X99988750Y-53668750D01*
X103268750Y-53668750D02*
X103268750Y-53308750D01*
X97768750Y-51768750D02*
G75*
G02*
X99985068Y-53647279I65000J-2170000D01*
G01*
D14*
X98168750Y-51368750D02*
G75*
G02*
X100385068Y-53247279I65000J-2170000D01*
G01*
D10*
X101168750Y-48168749D02*
G75*
G02*
X103268751Y-50068750I100000J-2000001D01*
G01*
D11*
G04 #@! TO.C,D25*
X99150002Y-123425001D02*
X99750002Y-123825001D01*
X99150002Y-123825001D02*
X98650002Y-123825001D01*
X99150002Y-124225001D02*
X99150002Y-123425001D01*
X99750002Y-123825001D02*
X99150002Y-124225001D01*
X99750002Y-124375001D02*
X99750002Y-123275001D01*
X100150002Y-123825001D02*
X99750002Y-123825001D01*
D10*
G04 #@! TO.C,S23*
X111818750Y-88650000D02*
X120218750Y-88649999D01*
X111818750Y-89000000D02*
X111818750Y-88650000D01*
X111818750Y-91250000D02*
X112018750Y-91250000D01*
X111818750Y-92250000D02*
X111818750Y-91250000D01*
D12*
X112018750Y-88850000D02*
X113418750Y-88850000D01*
D10*
X112018750Y-89000000D02*
X111818750Y-89000000D01*
D12*
X112018750Y-91350000D02*
X112018750Y-92050000D01*
D10*
X112038750Y-91250000D02*
X112038750Y-89000000D01*
D13*
X112118750Y-91950000D02*
X113518750Y-91950000D01*
D14*
X112518750Y-89250000D02*
X112518750Y-91750000D01*
D15*
X113818750Y-90450000D02*
X120518750Y-90450000D01*
D10*
X116818750Y-92250000D02*
X111818750Y-92250000D01*
D16*
X120588750Y-90150000D02*
X120588750Y-92390000D01*
D17*
X121718750Y-93650000D02*
X121718750Y-91850000D01*
D10*
X122088750Y-91550000D02*
X122088750Y-93790000D01*
X122118750Y-93790000D02*
X122318750Y-93790000D01*
D13*
X122118750Y-93950000D02*
X119418750Y-93950000D01*
D18*
X122218749Y-91450000D02*
X122218750Y-90550001D01*
D10*
X122318750Y-90550000D02*
X122318750Y-91550000D01*
X122318750Y-91550000D02*
X122118750Y-91550000D01*
X122318750Y-94150000D02*
X119038750Y-94150000D01*
X122318750Y-94150000D02*
X122318750Y-93790000D01*
X116818750Y-92250000D02*
G75*
G02*
X119035068Y-94128529I65000J-2170000D01*
G01*
D14*
X117218750Y-91850000D02*
G75*
G02*
X119435068Y-93728529I65000J-2170000D01*
G01*
D10*
X120218750Y-88649999D02*
G75*
G02*
X122318751Y-90550000I100000J-2000001D01*
G01*
D11*
G04 #@! TO.C,D16*
X96768750Y-82943750D02*
X97368750Y-83343750D01*
X96768750Y-83343750D02*
X96268750Y-83343750D01*
X96768750Y-83743750D02*
X96768750Y-82943750D01*
X97368750Y-83343750D02*
X96768750Y-83743750D01*
X97368750Y-83893750D02*
X97368750Y-82793750D01*
X97768750Y-83343750D02*
X97368750Y-83343750D01*
G04 #@! TO.C,D21*
X77718752Y-104375001D02*
X78318752Y-104775001D01*
X77718752Y-104775001D02*
X77218752Y-104775001D01*
X77718752Y-105175001D02*
X77718752Y-104375001D01*
X78318752Y-104775001D02*
X77718752Y-105175001D01*
X78318752Y-105325001D02*
X78318752Y-104225001D01*
X78718752Y-104775001D02*
X78318752Y-104775001D01*
G04 #@! TO.C,D14*
X58668750Y-87706250D02*
X59268750Y-88106250D01*
X58668750Y-88106250D02*
X58168750Y-88106250D01*
X58668750Y-88506250D02*
X58668750Y-87706250D01*
X59268750Y-88106250D02*
X58668750Y-88506250D01*
X59268750Y-88656250D02*
X59268750Y-87556250D01*
X59668750Y-88106250D02*
X59268750Y-88106250D01*
D10*
G04 #@! TO.C,S3*
X73718750Y-31500000D02*
X82118750Y-31499999D01*
X73718750Y-31850000D02*
X73718750Y-31500000D01*
X73718750Y-34100000D02*
X73918750Y-34100000D01*
X73718750Y-35100000D02*
X73718750Y-34100000D01*
D12*
X73918750Y-31700000D02*
X75318750Y-31700000D01*
D10*
X73918750Y-31850000D02*
X73718750Y-31850000D01*
D12*
X73918750Y-34200000D02*
X73918750Y-34900000D01*
D10*
X73938750Y-34100000D02*
X73938750Y-31850000D01*
D13*
X74018750Y-34800000D02*
X75418750Y-34800000D01*
D14*
X74418750Y-32100000D02*
X74418750Y-34600000D01*
D15*
X75718750Y-33300000D02*
X82418750Y-33300000D01*
D10*
X78718750Y-35100000D02*
X73718750Y-35100000D01*
D16*
X82488750Y-33000000D02*
X82488750Y-35240000D01*
D17*
X83618750Y-36500000D02*
X83618750Y-34700000D01*
D10*
X83988750Y-34400000D02*
X83988750Y-36640000D01*
X84018750Y-36640000D02*
X84218750Y-36640000D01*
D13*
X84018750Y-36800000D02*
X81318750Y-36800000D01*
D18*
X84118749Y-34300000D02*
X84118750Y-33400001D01*
D10*
X84218750Y-33400000D02*
X84218750Y-34400000D01*
X84218750Y-34400000D02*
X84018750Y-34400000D01*
X84218750Y-37000000D02*
X80938750Y-37000000D01*
X84218750Y-37000000D02*
X84218750Y-36640000D01*
X78718750Y-35100000D02*
G75*
G02*
X80935068Y-36978529I65000J-2170000D01*
G01*
D14*
X79118750Y-34700000D02*
G75*
G02*
X81335068Y-36578529I65000J-2170000D01*
G01*
D10*
X82118750Y-31499999D02*
G75*
G02*
X84218751Y-33400000I100000J-2000001D01*
G01*
G04 #@! TO.C,S26*
X117431948Y-112992905D02*
X117690767Y-112026979D01*
X117690767Y-112026979D02*
X117883953Y-112078743D01*
D13*
X117799372Y-112780773D02*
X119151668Y-113143120D01*
D12*
X117858071Y-112175335D02*
X117676897Y-112851485D01*
D10*
X117903271Y-112083919D02*
X118485614Y-109910586D01*
X118273110Y-109853646D02*
X118363697Y-109515572D01*
X118363697Y-109515572D02*
X126477474Y-111689651D01*
X118466295Y-109905410D02*
X118273110Y-109853646D01*
D12*
X118505118Y-109760521D02*
X119857414Y-110122869D01*
D14*
X118884554Y-110276301D02*
X118237506Y-112691115D01*
D15*
X119829674Y-111771877D02*
X126301377Y-113505964D01*
D10*
X122261577Y-114287000D02*
X117431948Y-112992905D01*
D16*
X126446638Y-113234304D02*
X125866883Y-115397978D01*
D17*
X126632267Y-116907510D02*
X127098142Y-115168843D01*
D13*
X126940992Y-117300815D02*
X124332992Y-116602004D01*
D10*
X126982403Y-117146267D02*
X127175588Y-117198031D01*
X127082413Y-117545764D02*
X123914177Y-116696837D01*
X127082413Y-117545764D02*
X127175588Y-117198031D01*
X127533180Y-114974828D02*
X126953425Y-117138502D01*
D18*
X127684631Y-114911882D02*
X127917569Y-114042550D01*
D10*
X127755343Y-115034357D02*
X127562158Y-114982593D01*
X128014162Y-114068431D02*
X127755343Y-115034357D01*
X122261577Y-114287000D02*
G75*
G02*
X123916177Y-116675145I-498852J-2112882D01*
G01*
D14*
X122751474Y-114004157D02*
G75*
G02*
X124406076Y-116392302I-498851J-2112883D01*
G01*
D10*
X126477474Y-111689651D02*
G75*
G02*
X128014162Y-114068431I-421046J-1957734D01*
G01*
G04 #@! TO.C,S17*
X111818750Y-69600000D02*
X120218750Y-69599999D01*
X111818750Y-69950000D02*
X111818750Y-69600000D01*
X111818750Y-72200000D02*
X112018750Y-72200000D01*
X111818750Y-73200000D02*
X111818750Y-72200000D01*
D12*
X112018750Y-69800000D02*
X113418750Y-69800000D01*
D10*
X112018750Y-69950000D02*
X111818750Y-69950000D01*
D12*
X112018750Y-72300000D02*
X112018750Y-73000000D01*
D10*
X112038750Y-72200000D02*
X112038750Y-69950000D01*
D13*
X112118750Y-72900000D02*
X113518750Y-72900000D01*
D14*
X112518750Y-70200000D02*
X112518750Y-72700000D01*
D15*
X113818750Y-71400000D02*
X120518750Y-71400000D01*
D10*
X116818750Y-73200000D02*
X111818750Y-73200000D01*
D16*
X120588750Y-71100000D02*
X120588750Y-73340000D01*
D17*
X121718750Y-74600000D02*
X121718750Y-72800000D01*
D10*
X122088750Y-72500000D02*
X122088750Y-74740000D01*
X122118750Y-74740000D02*
X122318750Y-74740000D01*
D13*
X122118750Y-74900000D02*
X119418750Y-74900000D01*
D18*
X122218749Y-72400000D02*
X122218750Y-71500001D01*
D10*
X122318750Y-71500000D02*
X122318750Y-72500000D01*
X122318750Y-72500000D02*
X122118750Y-72500000D01*
X122318750Y-75100000D02*
X119038750Y-75100000D01*
X122318750Y-75100000D02*
X122318750Y-74740000D01*
X116818750Y-73200000D02*
G75*
G02*
X119035068Y-75078529I65000J-2170000D01*
G01*
D14*
X117218750Y-72800000D02*
G75*
G02*
X119435068Y-74678529I65000J-2170000D01*
G01*
D10*
X120218750Y-69599999D02*
G75*
G02*
X122318751Y-71500000I100000J-2000001D01*
G01*
G04 #@! TO.C,S8*
X54668750Y-52931250D02*
X63068750Y-52931249D01*
X54668750Y-53281250D02*
X54668750Y-52931250D01*
X54668750Y-55531250D02*
X54868750Y-55531250D01*
X54668750Y-56531250D02*
X54668750Y-55531250D01*
D12*
X54868750Y-53131250D02*
X56268750Y-53131250D01*
D10*
X54868750Y-53281250D02*
X54668750Y-53281250D01*
D12*
X54868750Y-55631250D02*
X54868750Y-56331250D01*
D10*
X54888750Y-55531250D02*
X54888750Y-53281250D01*
D13*
X54968750Y-56231250D02*
X56368750Y-56231250D01*
D14*
X55368750Y-53531250D02*
X55368750Y-56031250D01*
D15*
X56668750Y-54731250D02*
X63368750Y-54731250D01*
D10*
X59668750Y-56531250D02*
X54668750Y-56531250D01*
D16*
X63438750Y-54431250D02*
X63438750Y-56671250D01*
D17*
X64568750Y-57931250D02*
X64568750Y-56131250D01*
D10*
X64938750Y-55831250D02*
X64938750Y-58071250D01*
X64968750Y-58071250D02*
X65168750Y-58071250D01*
D13*
X64968750Y-58231250D02*
X62268750Y-58231250D01*
D18*
X65068749Y-55731250D02*
X65068750Y-54831251D01*
D10*
X65168750Y-54831250D02*
X65168750Y-55831250D01*
X65168750Y-55831250D02*
X64968750Y-55831250D01*
X65168750Y-58431250D02*
X61888750Y-58431250D01*
X65168750Y-58431250D02*
X65168750Y-58071250D01*
X59668750Y-56531250D02*
G75*
G02*
X61885068Y-58409779I65000J-2170000D01*
G01*
D14*
X60068750Y-56131250D02*
G75*
G02*
X62285068Y-58009779I65000J-2170000D01*
G01*
D10*
X63068750Y-52931249D02*
G75*
G02*
X65168751Y-54831250I100000J-2000001D01*
G01*
D19*
G04 #@! TO.C,J1*
X147476151Y-104749517D02*
X152845507Y-107849516D01*
X148263649Y-103385526D02*
X153526148Y-94270611D01*
X153408007Y-106875239D02*
X152845507Y-107849516D01*
X153408007Y-106875239D02*
X154620443Y-107575237D01*
X154045764Y-94570609D02*
X153526148Y-94270611D01*
X154045764Y-94570609D02*
X155045765Y-92838555D01*
X154183007Y-105532898D02*
X155395441Y-106232898D01*
X155383008Y-103454436D02*
X154183007Y-105532898D01*
X156883007Y-100856360D02*
X156208007Y-102025495D01*
X158375892Y-97070609D02*
X159375891Y-95338561D01*
X158895506Y-97370611D02*
X157708009Y-99427421D01*
X158895506Y-97370611D02*
X158375892Y-97070609D01*
X159375891Y-95338561D02*
X155045765Y-92838555D01*
D11*
G04 #@! TO.C,D3*
X78068749Y-47225000D02*
X78668749Y-47625000D01*
X78068749Y-47625000D02*
X77568749Y-47625000D01*
X78068749Y-48025000D02*
X78068749Y-47225000D01*
X78668749Y-47625000D02*
X78068749Y-48025000D01*
X78668749Y-48175000D02*
X78668749Y-47075000D01*
X79068749Y-47625000D02*
X78668749Y-47625000D01*
G04 #@! TO.C,D1*
X39968749Y-49606251D02*
X40568749Y-50006251D01*
X39968749Y-50006251D02*
X39468749Y-50006251D01*
X39968749Y-50406251D02*
X39968749Y-49606251D01*
X40568749Y-50006251D02*
X39968749Y-50406251D01*
X40568749Y-50556251D02*
X40568749Y-49456251D01*
X40968749Y-50006251D02*
X40568749Y-50006251D01*
G04 #@! TO.C,D7*
X40468750Y-68656250D02*
X41068750Y-69056250D01*
X40468750Y-69056250D02*
X39968750Y-69056250D01*
X40468750Y-69456250D02*
X40468750Y-68656250D01*
X41068750Y-69056250D02*
X40468750Y-69456250D01*
X41068750Y-69606250D02*
X41068750Y-68506250D01*
X41468750Y-69056250D02*
X41068750Y-69056250D01*
D10*
G04 #@! TO.C,S13*
X35618750Y-71981250D02*
X44018750Y-71981249D01*
X35618750Y-72331250D02*
X35618750Y-71981250D01*
X35618750Y-74581250D02*
X35818750Y-74581250D01*
X35618750Y-75581250D02*
X35618750Y-74581250D01*
D12*
X35818750Y-72181250D02*
X37218750Y-72181250D01*
D10*
X35818750Y-72331250D02*
X35618750Y-72331250D01*
D12*
X35818750Y-74681250D02*
X35818750Y-75381250D01*
D10*
X35838750Y-74581250D02*
X35838750Y-72331250D01*
D13*
X35918750Y-75281250D02*
X37318750Y-75281250D01*
D14*
X36318750Y-72581250D02*
X36318750Y-75081250D01*
D15*
X37618750Y-73781250D02*
X44318750Y-73781250D01*
D10*
X40618750Y-75581250D02*
X35618750Y-75581250D01*
D16*
X44388750Y-73481250D02*
X44388750Y-75721250D01*
D17*
X45518750Y-76981250D02*
X45518750Y-75181250D01*
D10*
X45888750Y-74881250D02*
X45888750Y-77121250D01*
X45918750Y-77121250D02*
X46118750Y-77121250D01*
D13*
X45918750Y-77281250D02*
X43218750Y-77281250D01*
D18*
X46018749Y-74781250D02*
X46018750Y-73881251D01*
D10*
X46118750Y-73881250D02*
X46118750Y-74881250D01*
X46118750Y-74881250D02*
X45918750Y-74881250D01*
X46118750Y-77481250D02*
X42838750Y-77481250D01*
X46118750Y-77481250D02*
X46118750Y-77121250D01*
X40618750Y-75581250D02*
G75*
G02*
X42835068Y-77459779I65000J-2170000D01*
G01*
D14*
X41018750Y-75181250D02*
G75*
G02*
X43235068Y-77059779I65000J-2170000D01*
G01*
D10*
X44018750Y-71981249D02*
G75*
G02*
X46118751Y-73881250I100000J-2000001D01*
G01*
G04 #@! TO.C,S16*
X92768750Y-67218750D02*
X101168750Y-67218749D01*
X92768750Y-67568750D02*
X92768750Y-67218750D01*
X92768750Y-69818750D02*
X92968750Y-69818750D01*
X92768750Y-70818750D02*
X92768750Y-69818750D01*
D12*
X92968750Y-67418750D02*
X94368750Y-67418750D01*
D10*
X92968750Y-67568750D02*
X92768750Y-67568750D01*
D12*
X92968750Y-69918750D02*
X92968750Y-70618750D01*
D10*
X92988750Y-69818750D02*
X92988750Y-67568750D01*
D13*
X93068750Y-70518750D02*
X94468750Y-70518750D01*
D14*
X93468750Y-67818750D02*
X93468750Y-70318750D01*
D15*
X94768750Y-69018750D02*
X101468750Y-69018750D01*
D10*
X97768750Y-70818750D02*
X92768750Y-70818750D01*
D16*
X101538750Y-68718750D02*
X101538750Y-70958750D01*
D17*
X102668750Y-72218750D02*
X102668750Y-70418750D01*
D10*
X103038750Y-70118750D02*
X103038750Y-72358750D01*
X103068750Y-72358750D02*
X103268750Y-72358750D01*
D13*
X103068750Y-72518750D02*
X100368750Y-72518750D01*
D18*
X103168749Y-70018750D02*
X103168750Y-69118751D01*
D10*
X103268750Y-69118750D02*
X103268750Y-70118750D01*
X103268750Y-70118750D02*
X103068750Y-70118750D01*
X103268750Y-72718750D02*
X99988750Y-72718750D01*
X103268750Y-72718750D02*
X103268750Y-72358750D01*
X97768750Y-70818750D02*
G75*
G02*
X99985068Y-72697279I65000J-2170000D01*
G01*
D14*
X98168750Y-70418750D02*
G75*
G02*
X100385068Y-72297279I65000J-2170000D01*
G01*
D10*
X101168750Y-67218749D02*
G75*
G02*
X103268751Y-69118750I100000J-2000001D01*
G01*
G04 #@! TO.C,S27*
X140231378Y-128970800D02*
X140543147Y-129150800D01*
X140231378Y-128970800D02*
X141871378Y-126130237D01*
D13*
X140504583Y-128897595D02*
X141854583Y-126559326D01*
D10*
X140643147Y-128977595D02*
X140543147Y-129150800D01*
D17*
X140964391Y-128701185D02*
X142523236Y-129601185D01*
D10*
X142483044Y-130270800D02*
X142583044Y-130097595D01*
X142598044Y-130071614D02*
X140658147Y-128951614D01*
D18*
X142619647Y-130234196D02*
X143399069Y-130684197D01*
D10*
X143349069Y-130770800D02*
X142483044Y-130270800D01*
D16*
X144560480Y-129472576D02*
X142620583Y-128352576D01*
D10*
X144626826Y-125157660D02*
X147126826Y-120827533D01*
X147126826Y-120827533D02*
X147992852Y-121327533D01*
D13*
X147236634Y-121237341D02*
X146536634Y-122449776D01*
D15*
X147685672Y-123459584D02*
X144335672Y-129261954D01*
D12*
X147806249Y-121450738D02*
X147200031Y-121100738D01*
D10*
X147882852Y-121518059D02*
X149831409Y-122643059D01*
X147992852Y-121327533D02*
X147892852Y-121500738D01*
D14*
X149374902Y-122933751D02*
X147209839Y-121683751D01*
D10*
X149841409Y-122625738D02*
X149941409Y-122452533D01*
X149941409Y-122452533D02*
X150244518Y-122627533D01*
D12*
X149971313Y-122700738D02*
X149271313Y-123913174D01*
D10*
X150244518Y-122627533D02*
X146044519Y-129902147D01*
X144626826Y-125157660D02*
G75*
G02*
X141891813Y-126137783I-1911775J1028708D01*
G01*
D14*
X144773236Y-125704070D02*
G75*
G02*
X142038224Y-126684194I-1911775J1028708D01*
G01*
D10*
X146044519Y-129902147D02*
G75*
G02*
X143349069Y-130770801I-1782052J913398D01*
G01*
G04 #@! TO.C,S14*
X54668750Y-71981250D02*
X63068750Y-71981249D01*
X54668750Y-72331250D02*
X54668750Y-71981250D01*
X54668750Y-74581250D02*
X54868750Y-74581250D01*
X54668750Y-75581250D02*
X54668750Y-74581250D01*
D12*
X54868750Y-72181250D02*
X56268750Y-72181250D01*
D10*
X54868750Y-72331250D02*
X54668750Y-72331250D01*
D12*
X54868750Y-74681250D02*
X54868750Y-75381250D01*
D10*
X54888750Y-74581250D02*
X54888750Y-72331250D01*
D13*
X54968750Y-75281250D02*
X56368750Y-75281250D01*
D14*
X55368750Y-72581250D02*
X55368750Y-75081250D01*
D15*
X56668750Y-73781250D02*
X63368750Y-73781250D01*
D10*
X59668750Y-75581250D02*
X54668750Y-75581250D01*
D16*
X63438750Y-73481250D02*
X63438750Y-75721250D01*
D17*
X64568750Y-76981250D02*
X64568750Y-75181250D01*
D10*
X64938750Y-74881250D02*
X64938750Y-77121250D01*
X64968750Y-77121250D02*
X65168750Y-77121250D01*
D13*
X64968750Y-77281250D02*
X62268750Y-77281250D01*
D18*
X65068749Y-74781250D02*
X65068750Y-73881251D01*
D10*
X65168750Y-73881250D02*
X65168750Y-74881250D01*
X65168750Y-74881250D02*
X64968750Y-74881250D01*
X65168750Y-77481250D02*
X61888750Y-77481250D01*
X65168750Y-77481250D02*
X65168750Y-77121250D01*
X59668750Y-75581250D02*
G75*
G02*
X61885068Y-77459779I65000J-2170000D01*
G01*
D14*
X60068750Y-75181250D02*
G75*
G02*
X62285068Y-77059779I65000J-2170000D01*
G01*
D10*
X63068750Y-71981249D02*
G75*
G02*
X65168751Y-73881250I100000J-2000001D01*
G01*
G04 #@! TO.C,S7*
X35618750Y-52931250D02*
X44018750Y-52931249D01*
X35618750Y-53281250D02*
X35618750Y-52931250D01*
X35618750Y-55531250D02*
X35818750Y-55531250D01*
X35618750Y-56531250D02*
X35618750Y-55531250D01*
D12*
X35818750Y-53131250D02*
X37218750Y-53131250D01*
D10*
X35818750Y-53281250D02*
X35618750Y-53281250D01*
D12*
X35818750Y-55631250D02*
X35818750Y-56331250D01*
D10*
X35838750Y-55531250D02*
X35838750Y-53281250D01*
D13*
X35918750Y-56231250D02*
X37318750Y-56231250D01*
D14*
X36318750Y-53531250D02*
X36318750Y-56031250D01*
D15*
X37618750Y-54731250D02*
X44318750Y-54731250D01*
D10*
X40618750Y-56531250D02*
X35618750Y-56531250D01*
D16*
X44388750Y-54431250D02*
X44388750Y-56671250D01*
D17*
X45518750Y-57931250D02*
X45518750Y-56131250D01*
D10*
X45888750Y-55831250D02*
X45888750Y-58071250D01*
X45918750Y-58071250D02*
X46118750Y-58071250D01*
D13*
X45918750Y-58231250D02*
X43218750Y-58231250D01*
D18*
X46018749Y-55731250D02*
X46018750Y-54831251D01*
D10*
X46118750Y-54831250D02*
X46118750Y-55831250D01*
X46118750Y-55831250D02*
X45918750Y-55831250D01*
X46118750Y-58431250D02*
X42838750Y-58431250D01*
X46118750Y-58431250D02*
X46118750Y-58071250D01*
X40618750Y-56531250D02*
G75*
G02*
X42835068Y-58409779I65000J-2170000D01*
G01*
D14*
X41018750Y-56131250D02*
G75*
G02*
X43235068Y-58009779I65000J-2170000D01*
G01*
D10*
X44018750Y-52931249D02*
G75*
G02*
X46118751Y-54831250I100000J-2000001D01*
G01*
G04 #@! TO.C,S22*
X92768750Y-86268750D02*
X101168750Y-86268749D01*
X92768750Y-86618750D02*
X92768750Y-86268750D01*
X92768750Y-88868750D02*
X92968750Y-88868750D01*
X92768750Y-89868750D02*
X92768750Y-88868750D01*
D12*
X92968750Y-86468750D02*
X94368750Y-86468750D01*
D10*
X92968750Y-86618750D02*
X92768750Y-86618750D01*
D12*
X92968750Y-88968750D02*
X92968750Y-89668750D01*
D10*
X92988750Y-88868750D02*
X92988750Y-86618750D01*
D13*
X93068750Y-89568750D02*
X94468750Y-89568750D01*
D14*
X93468750Y-86868750D02*
X93468750Y-89368750D01*
D15*
X94768750Y-88068750D02*
X101468750Y-88068750D01*
D10*
X97768750Y-89868750D02*
X92768750Y-89868750D01*
D16*
X101538750Y-87768750D02*
X101538750Y-90008750D01*
D17*
X102668750Y-91268750D02*
X102668750Y-89468750D01*
D10*
X103038750Y-89168750D02*
X103038750Y-91408750D01*
X103068750Y-91408750D02*
X103268750Y-91408750D01*
D13*
X103068750Y-91568750D02*
X100368750Y-91568750D01*
D18*
X103168749Y-89068750D02*
X103168750Y-88168751D01*
D10*
X103268750Y-88168750D02*
X103268750Y-89168750D01*
X103268750Y-89168750D02*
X103068750Y-89168750D01*
X103268750Y-91768750D02*
X99988750Y-91768750D01*
X103268750Y-91768750D02*
X103268750Y-91408750D01*
X97768750Y-89868750D02*
G75*
G02*
X99985068Y-91747279I65000J-2170000D01*
G01*
D14*
X98168750Y-89468750D02*
G75*
G02*
X100385068Y-91347279I65000J-2170000D01*
G01*
D10*
X101168750Y-86268749D02*
G75*
G02*
X103268751Y-88168750I100000J-2000001D01*
G01*
G04 #@! TO.C,S19*
X35618750Y-91031250D02*
X44018750Y-91031249D01*
X35618750Y-91381250D02*
X35618750Y-91031250D01*
X35618750Y-93631250D02*
X35818750Y-93631250D01*
X35618750Y-94631250D02*
X35618750Y-93631250D01*
D12*
X35818750Y-91231250D02*
X37218750Y-91231250D01*
D10*
X35818750Y-91381250D02*
X35618750Y-91381250D01*
D12*
X35818750Y-93731250D02*
X35818750Y-94431250D01*
D10*
X35838750Y-93631250D02*
X35838750Y-91381250D01*
D13*
X35918750Y-94331250D02*
X37318750Y-94331250D01*
D14*
X36318750Y-91631250D02*
X36318750Y-94131250D01*
D15*
X37618750Y-92831250D02*
X44318750Y-92831250D01*
D10*
X40618750Y-94631250D02*
X35618750Y-94631250D01*
D16*
X44388750Y-92531250D02*
X44388750Y-94771250D01*
D17*
X45518750Y-96031250D02*
X45518750Y-94231250D01*
D10*
X45888750Y-93931250D02*
X45888750Y-96171250D01*
X45918750Y-96171250D02*
X46118750Y-96171250D01*
D13*
X45918750Y-96331250D02*
X43218750Y-96331250D01*
D18*
X46018749Y-93831250D02*
X46018750Y-92931251D01*
D10*
X46118750Y-92931250D02*
X46118750Y-93931250D01*
X46118750Y-93931250D02*
X45918750Y-93931250D01*
X46118750Y-96531250D02*
X42838750Y-96531250D01*
X46118750Y-96531250D02*
X46118750Y-96171250D01*
X40618750Y-94631250D02*
G75*
G02*
X42835068Y-96509779I65000J-2170000D01*
G01*
D14*
X41018750Y-94231250D02*
G75*
G02*
X43235068Y-96109779I65000J-2170000D01*
G01*
D10*
X44018750Y-91031249D02*
G75*
G02*
X46118751Y-92931250I100000J-2000001D01*
G01*
D11*
G04 #@! TO.C,D17*
X115818752Y-85325001D02*
X116418752Y-85725001D01*
X115818752Y-85725001D02*
X115318752Y-85725001D01*
X115818752Y-86125001D02*
X115818752Y-85325001D01*
X116418752Y-85725001D02*
X115818752Y-86125001D01*
X116418752Y-86275001D02*
X116418752Y-85175001D01*
X116818752Y-85725001D02*
X116418752Y-85725001D01*
G04 #@! TO.C,D2*
X59018749Y-49606250D02*
X59618749Y-50006250D01*
X59018749Y-50006250D02*
X58518749Y-50006250D01*
X59018749Y-50406250D02*
X59018749Y-49606250D01*
X59618749Y-50006250D02*
X59018749Y-50406250D01*
X59618749Y-50556250D02*
X59618749Y-49456250D01*
X60018749Y-50006250D02*
X59618749Y-50006250D01*
G04 #@! TO.C,D19*
X39618752Y-106756251D02*
X40218752Y-107156251D01*
X39618752Y-107156251D02*
X39118752Y-107156251D01*
X39618752Y-107556251D02*
X39618752Y-106756251D01*
X40218752Y-107156251D02*
X39618752Y-107556251D01*
X40218752Y-107706251D02*
X40218752Y-106606251D01*
X40618752Y-107156251D02*
X40218752Y-107156251D01*
D10*
G04 #@! TO.C,S20*
X54668750Y-91031250D02*
X63068750Y-91031249D01*
X54668750Y-91381250D02*
X54668750Y-91031250D01*
X54668750Y-93631250D02*
X54868750Y-93631250D01*
X54668750Y-94631250D02*
X54668750Y-93631250D01*
D12*
X54868750Y-91231250D02*
X56268750Y-91231250D01*
D10*
X54868750Y-91381250D02*
X54668750Y-91381250D01*
D12*
X54868750Y-93731250D02*
X54868750Y-94431250D01*
D10*
X54888750Y-93631250D02*
X54888750Y-91381250D01*
D13*
X54968750Y-94331250D02*
X56368750Y-94331250D01*
D14*
X55368750Y-91631250D02*
X55368750Y-94131250D01*
D15*
X56668750Y-92831250D02*
X63368750Y-92831250D01*
D10*
X59668750Y-94631250D02*
X54668750Y-94631250D01*
D16*
X63438750Y-92531250D02*
X63438750Y-94771250D01*
D17*
X64568750Y-96031250D02*
X64568750Y-94231250D01*
D10*
X64938750Y-93931250D02*
X64938750Y-96171250D01*
X64968750Y-96171250D02*
X65168750Y-96171250D01*
D13*
X64968750Y-96331250D02*
X62268750Y-96331250D01*
D18*
X65068749Y-93831250D02*
X65068750Y-92931251D01*
D10*
X65168750Y-92931250D02*
X65168750Y-93931250D01*
X65168750Y-93931250D02*
X64968750Y-93931250D01*
X65168750Y-96531250D02*
X61888750Y-96531250D01*
X65168750Y-96531250D02*
X65168750Y-96171250D01*
X59668750Y-94631250D02*
G75*
G02*
X61885068Y-96509779I65000J-2170000D01*
G01*
D14*
X60068750Y-94231250D02*
G75*
G02*
X62285068Y-96109779I65000J-2170000D01*
G01*
D10*
X63068750Y-91031249D02*
G75*
G02*
X65168751Y-92931250I100000J-2000001D01*
G01*
D11*
G04 #@! TO.C,D10*
X96768752Y-63893751D02*
X97368752Y-64293751D01*
X96768752Y-64293751D02*
X96268752Y-64293751D01*
X96768752Y-64693751D02*
X96768752Y-63893751D01*
X97368752Y-64293751D02*
X96768752Y-64693751D01*
X97368752Y-64843751D02*
X97368752Y-63743751D01*
X97768752Y-64293751D02*
X97368752Y-64293751D01*
G04 #@! TO.C,D22*
X97381249Y-101993751D02*
X97981249Y-102393751D01*
X97381249Y-102393751D02*
X96881249Y-102393751D01*
X97381249Y-102793751D02*
X97381249Y-101993751D01*
X97981249Y-102393751D02*
X97381249Y-102793751D01*
X97981249Y-102943751D02*
X97981249Y-101843751D01*
X98381249Y-102393751D02*
X97981249Y-102393751D01*
D10*
G04 #@! TO.C,S2*
X54668750Y-33881250D02*
X63068750Y-33881249D01*
X54668750Y-34231250D02*
X54668750Y-33881250D01*
X54668750Y-36481250D02*
X54868750Y-36481250D01*
X54668750Y-37481250D02*
X54668750Y-36481250D01*
D12*
X54868750Y-34081250D02*
X56268750Y-34081250D01*
D10*
X54868750Y-34231250D02*
X54668750Y-34231250D01*
D12*
X54868750Y-36581250D02*
X54868750Y-37281250D01*
D10*
X54888750Y-36481250D02*
X54888750Y-34231250D01*
D13*
X54968750Y-37181250D02*
X56368750Y-37181250D01*
D14*
X55368750Y-34481250D02*
X55368750Y-36981250D01*
D15*
X56668750Y-35681250D02*
X63368750Y-35681250D01*
D10*
X59668750Y-37481250D02*
X54668750Y-37481250D01*
D16*
X63438750Y-35381250D02*
X63438750Y-37621250D01*
D17*
X64568750Y-38881250D02*
X64568750Y-37081250D01*
D10*
X64938750Y-36781250D02*
X64938750Y-39021250D01*
X64968750Y-39021250D02*
X65168750Y-39021250D01*
D13*
X64968750Y-39181250D02*
X62268750Y-39181250D01*
D18*
X65068749Y-36681250D02*
X65068750Y-35781251D01*
D10*
X65168750Y-35781250D02*
X65168750Y-36781250D01*
X65168750Y-36781250D02*
X64968750Y-36781250D01*
X65168750Y-39381250D02*
X61888750Y-39381250D01*
X65168750Y-39381250D02*
X65168750Y-39021250D01*
X59668750Y-37481250D02*
G75*
G02*
X61885068Y-39359779I65000J-2170000D01*
G01*
D14*
X60068750Y-37081250D02*
G75*
G02*
X62285068Y-38959779I65000J-2170000D01*
G01*
D10*
X63068750Y-33881249D02*
G75*
G02*
X65168751Y-35781250I100000J-2000001D01*
G01*
D11*
G04 #@! TO.C,D15*
X77518751Y-85325000D02*
X78118751Y-85725000D01*
X77518751Y-85725000D02*
X77018751Y-85725000D01*
X77518751Y-86125000D02*
X77518751Y-85325000D01*
X78118751Y-85725000D02*
X77518751Y-86125000D01*
X78118751Y-86275000D02*
X78118751Y-85175000D01*
X78518751Y-85725000D02*
X78118751Y-85725000D01*
G04 #@! TO.C,D23*
X116168749Y-104375001D02*
X116768749Y-104775001D01*
X116168749Y-104775001D02*
X115668749Y-104775001D01*
X116168749Y-105175001D02*
X116168749Y-104375001D01*
X116768749Y-104775001D02*
X116168749Y-105175001D01*
X116768749Y-105325001D02*
X116768749Y-104225001D01*
X117168749Y-104775001D02*
X116768749Y-104775001D01*
D10*
G04 #@! TO.C,S21*
X73718750Y-88650000D02*
X82118750Y-88649999D01*
X73718750Y-89000000D02*
X73718750Y-88650000D01*
X73718750Y-91250000D02*
X73918750Y-91250000D01*
X73718750Y-92250000D02*
X73718750Y-91250000D01*
D12*
X73918750Y-88850000D02*
X75318750Y-88850000D01*
D10*
X73918750Y-89000000D02*
X73718750Y-89000000D01*
D12*
X73918750Y-91350000D02*
X73918750Y-92050000D01*
D10*
X73938750Y-91250000D02*
X73938750Y-89000000D01*
D13*
X74018750Y-91950000D02*
X75418750Y-91950000D01*
D14*
X74418750Y-89250000D02*
X74418750Y-91750000D01*
D15*
X75718750Y-90450000D02*
X82418750Y-90450000D01*
D10*
X78718750Y-92250000D02*
X73718750Y-92250000D01*
D16*
X82488750Y-90150000D02*
X82488750Y-92390000D01*
D17*
X83618750Y-93650000D02*
X83618750Y-91850000D01*
D10*
X83988750Y-91550000D02*
X83988750Y-93790000D01*
X84018750Y-93790000D02*
X84218750Y-93790000D01*
D13*
X84018750Y-93950000D02*
X81318750Y-93950000D01*
D18*
X84118749Y-91450000D02*
X84118750Y-90550001D01*
D10*
X84218750Y-90550000D02*
X84218750Y-91550000D01*
X84218750Y-91550000D02*
X84018750Y-91550000D01*
X84218750Y-94150000D02*
X80938750Y-94150000D01*
X84218750Y-94150000D02*
X84218750Y-93790000D01*
X78718750Y-92250000D02*
G75*
G02*
X80935068Y-94128529I65000J-2170000D01*
G01*
D14*
X79118750Y-91850000D02*
G75*
G02*
X81335068Y-93728529I65000J-2170000D01*
G01*
D10*
X82118750Y-88649999D02*
G75*
G02*
X84218751Y-90550000I100000J-2000001D01*
G01*
G04 #@! TO.C,S12*
X130868750Y-52931250D02*
X139268750Y-52931249D01*
X130868750Y-53281250D02*
X130868750Y-52931250D01*
X130868750Y-55531250D02*
X131068750Y-55531250D01*
X130868750Y-56531250D02*
X130868750Y-55531250D01*
D12*
X131068750Y-53131250D02*
X132468750Y-53131250D01*
D10*
X131068750Y-53281250D02*
X130868750Y-53281250D01*
D12*
X131068750Y-55631250D02*
X131068750Y-56331250D01*
D10*
X131088750Y-55531250D02*
X131088750Y-53281250D01*
D13*
X131168750Y-56231250D02*
X132568750Y-56231250D01*
D14*
X131568750Y-53531250D02*
X131568750Y-56031250D01*
D15*
X132868750Y-54731250D02*
X139568750Y-54731250D01*
D10*
X135868750Y-56531250D02*
X130868750Y-56531250D01*
D16*
X139638750Y-54431250D02*
X139638750Y-56671250D01*
D17*
X140768750Y-57931250D02*
X140768750Y-56131250D01*
D10*
X141138750Y-55831250D02*
X141138750Y-58071250D01*
X141168750Y-58071250D02*
X141368750Y-58071250D01*
D13*
X141168750Y-58231250D02*
X138468750Y-58231250D01*
D18*
X141268749Y-55731250D02*
X141268750Y-54831251D01*
D10*
X141368750Y-54831250D02*
X141368750Y-55831250D01*
X141368750Y-55831250D02*
X141168750Y-55831250D01*
X141368750Y-58431250D02*
X138088750Y-58431250D01*
X141368750Y-58431250D02*
X141368750Y-58071250D01*
X135868750Y-56531250D02*
G75*
G02*
X138085068Y-58409779I65000J-2170000D01*
G01*
D14*
X136268750Y-56131250D02*
G75*
G02*
X138485068Y-58009779I65000J-2170000D01*
G01*
D10*
X139268750Y-52931249D02*
G75*
G02*
X141368751Y-54831250I100000J-2000001D01*
G01*
G04 #@! TO.C,S18*
X130868750Y-71981250D02*
X139268750Y-71981249D01*
X130868750Y-72331250D02*
X130868750Y-71981250D01*
X130868750Y-74581250D02*
X131068750Y-74581250D01*
X130868750Y-75581250D02*
X130868750Y-74581250D01*
D12*
X131068750Y-72181250D02*
X132468750Y-72181250D01*
D10*
X131068750Y-72331250D02*
X130868750Y-72331250D01*
D12*
X131068750Y-74681250D02*
X131068750Y-75381250D01*
D10*
X131088750Y-74581250D02*
X131088750Y-72331250D01*
D13*
X131168750Y-75281250D02*
X132568750Y-75281250D01*
D14*
X131568750Y-72581250D02*
X131568750Y-75081250D01*
D15*
X132868750Y-73781250D02*
X139568750Y-73781250D01*
D10*
X135868750Y-75581250D02*
X130868750Y-75581250D01*
D16*
X139638750Y-73481250D02*
X139638750Y-75721250D01*
D17*
X140768750Y-76981250D02*
X140768750Y-75181250D01*
D10*
X141138750Y-74881250D02*
X141138750Y-77121250D01*
X141168750Y-77121250D02*
X141368750Y-77121250D01*
D13*
X141168750Y-77281250D02*
X138468750Y-77281250D01*
D18*
X141268749Y-74781250D02*
X141268750Y-73881251D01*
D10*
X141368750Y-73881250D02*
X141368750Y-74881250D01*
X141368750Y-74881250D02*
X141168750Y-74881250D01*
X141368750Y-77481250D02*
X138088750Y-77481250D01*
X141368750Y-77481250D02*
X141368750Y-77121250D01*
X135868750Y-75581250D02*
G75*
G02*
X138085068Y-77459779I65000J-2170000D01*
G01*
D14*
X136268750Y-75181250D02*
G75*
G02*
X138485068Y-77059779I65000J-2170000D01*
G01*
D10*
X139268750Y-71981249D02*
G75*
G02*
X141368751Y-73881250I100000J-2000001D01*
G01*
D11*
G04 #@! TO.C,D4*
X97118749Y-44843751D02*
X97718749Y-45243751D01*
X97118749Y-45243751D02*
X96618749Y-45243751D01*
X97118749Y-45643751D02*
X97118749Y-44843751D01*
X97718749Y-45243751D02*
X97118749Y-45643751D01*
X97718749Y-45793751D02*
X97718749Y-44693751D01*
X98118749Y-45243751D02*
X97718749Y-45243751D01*
G04 #@! TO.C,D26*
X118116917Y-126437329D02*
X118323972Y-125664588D01*
X118220444Y-126050959D02*
X117737481Y-125921549D01*
X118323972Y-125664588D02*
X118800000Y-126206250D01*
X118657649Y-126737509D02*
X118942350Y-125674991D01*
X118800000Y-126206250D02*
X118116917Y-126437329D01*
X119186370Y-126309778D02*
X118800000Y-126206250D01*
G04 #@! TO.C,D20*
X58668750Y-106756250D02*
X59268750Y-107156250D01*
X58668750Y-107156250D02*
X58168750Y-107156250D01*
X58668750Y-107556250D02*
X58668750Y-106756250D01*
X59268750Y-107156250D02*
X58668750Y-107556250D01*
X59268750Y-107706250D02*
X59268750Y-106606250D01*
X59668750Y-107156250D02*
X59268750Y-107156250D01*
G04 #@! TO.C,D24*
X136433750Y-106756250D02*
X137033750Y-107156250D01*
X136433750Y-107156250D02*
X135933750Y-107156250D01*
X136433750Y-107556250D02*
X136433750Y-106756250D01*
X137033750Y-107156250D02*
X136433750Y-107556250D01*
X137033750Y-107706250D02*
X137033750Y-106606250D01*
X137433750Y-107156250D02*
X137033750Y-107156250D01*
D10*
G04 #@! TO.C,S4*
X92768750Y-29118750D02*
X101168750Y-29118749D01*
X92768750Y-29468750D02*
X92768750Y-29118750D01*
X92768750Y-31718750D02*
X92968750Y-31718750D01*
X92768750Y-32718750D02*
X92768750Y-31718750D01*
D12*
X92968750Y-29318750D02*
X94368750Y-29318750D01*
D10*
X92968750Y-29468750D02*
X92768750Y-29468750D01*
D12*
X92968750Y-31818750D02*
X92968750Y-32518750D01*
D10*
X92988750Y-31718750D02*
X92988750Y-29468750D01*
D13*
X93068750Y-32418750D02*
X94468750Y-32418750D01*
D14*
X93468750Y-29718750D02*
X93468750Y-32218750D01*
D15*
X94768750Y-30918750D02*
X101468750Y-30918750D01*
D10*
X97768750Y-32718750D02*
X92768750Y-32718750D01*
D16*
X101538750Y-30618750D02*
X101538750Y-32858750D01*
D17*
X102668750Y-34118750D02*
X102668750Y-32318750D01*
D10*
X103038750Y-32018750D02*
X103038750Y-34258750D01*
X103068750Y-34258750D02*
X103268750Y-34258750D01*
D13*
X103068750Y-34418750D02*
X100368750Y-34418750D01*
D18*
X103168749Y-31918750D02*
X103168750Y-31018751D01*
D10*
X103268750Y-31018750D02*
X103268750Y-32018750D01*
X103268750Y-32018750D02*
X103068750Y-32018750D01*
X103268750Y-34618750D02*
X99988750Y-34618750D01*
X103268750Y-34618750D02*
X103268750Y-34258750D01*
X97768750Y-32718750D02*
G75*
G02*
X99985068Y-34597279I65000J-2170000D01*
G01*
D14*
X98168750Y-32318750D02*
G75*
G02*
X100385068Y-34197279I65000J-2170000D01*
G01*
D10*
X101168750Y-29118749D02*
G75*
G02*
X103268751Y-31018750I100000J-2000001D01*
G01*
G04 #@! TO.C,S24*
X130868750Y-91031250D02*
X139268750Y-91031249D01*
X130868750Y-91381250D02*
X130868750Y-91031250D01*
X130868750Y-93631250D02*
X131068750Y-93631250D01*
X130868750Y-94631250D02*
X130868750Y-93631250D01*
D12*
X131068750Y-91231250D02*
X132468750Y-91231250D01*
D10*
X131068750Y-91381250D02*
X130868750Y-91381250D01*
D12*
X131068750Y-93731250D02*
X131068750Y-94431250D01*
D10*
X131088750Y-93631250D02*
X131088750Y-91381250D01*
D13*
X131168750Y-94331250D02*
X132568750Y-94331250D01*
D14*
X131568750Y-91631250D02*
X131568750Y-94131250D01*
D15*
X132868750Y-92831250D02*
X139568750Y-92831250D01*
D10*
X135868750Y-94631250D02*
X130868750Y-94631250D01*
D16*
X139638750Y-92531250D02*
X139638750Y-94771250D01*
D17*
X140768750Y-96031250D02*
X140768750Y-94231250D01*
D10*
X141138750Y-93931250D02*
X141138750Y-96171250D01*
X141168750Y-96171250D02*
X141368750Y-96171250D01*
D13*
X141168750Y-96331250D02*
X138468750Y-96331250D01*
D18*
X141268749Y-93831250D02*
X141268750Y-92931251D01*
D10*
X141368750Y-92931250D02*
X141368750Y-93931250D01*
X141368750Y-93931250D02*
X141168750Y-93931250D01*
X141368750Y-96531250D02*
X138088750Y-96531250D01*
X141368750Y-96531250D02*
X141368750Y-96171250D01*
X135868750Y-94631250D02*
G75*
G02*
X138085068Y-96509779I65000J-2170000D01*
G01*
D14*
X136268750Y-94231250D02*
G75*
G02*
X138485068Y-96109779I65000J-2170000D01*
G01*
D10*
X139268750Y-91031249D02*
G75*
G02*
X141368751Y-92931250I100000J-2000001D01*
G01*
G04 #@! TO.C,S9*
X73718750Y-50550000D02*
X82118750Y-50549999D01*
X73718750Y-50900000D02*
X73718750Y-50550000D01*
X73718750Y-53150000D02*
X73918750Y-53150000D01*
X73718750Y-54150000D02*
X73718750Y-53150000D01*
D12*
X73918750Y-50750000D02*
X75318750Y-50750000D01*
D10*
X73918750Y-50900000D02*
X73718750Y-50900000D01*
D12*
X73918750Y-53250000D02*
X73918750Y-53950000D01*
D10*
X73938750Y-53150000D02*
X73938750Y-50900000D01*
D13*
X74018750Y-53850000D02*
X75418750Y-53850000D01*
D14*
X74418750Y-51150000D02*
X74418750Y-53650000D01*
D15*
X75718750Y-52350000D02*
X82418750Y-52350000D01*
D10*
X78718750Y-54150000D02*
X73718750Y-54150000D01*
D16*
X82488750Y-52050000D02*
X82488750Y-54290000D01*
D17*
X83618750Y-55550000D02*
X83618750Y-53750000D01*
D10*
X83988750Y-53450000D02*
X83988750Y-55690000D01*
X84018750Y-55690000D02*
X84218750Y-55690000D01*
D13*
X84018750Y-55850000D02*
X81318750Y-55850000D01*
D18*
X84118749Y-53350000D02*
X84118750Y-52450001D01*
D10*
X84218750Y-52450000D02*
X84218750Y-53450000D01*
X84218750Y-53450000D02*
X84018750Y-53450000D01*
X84218750Y-56050000D02*
X80938750Y-56050000D01*
X84218750Y-56050000D02*
X84218750Y-55690000D01*
X78718750Y-54150000D02*
G75*
G02*
X80935068Y-56028529I65000J-2170000D01*
G01*
D14*
X79118750Y-53750000D02*
G75*
G02*
X81335068Y-55628529I65000J-2170000D01*
G01*
D10*
X82118750Y-50549999D02*
G75*
G02*
X84218751Y-52450000I100000J-2000001D01*
G01*
D11*
G04 #@! TO.C,D13*
X39618752Y-87706251D02*
X40218752Y-88106251D01*
X39618752Y-88106251D02*
X39118752Y-88106251D01*
X39618752Y-88506251D02*
X39618752Y-87706251D01*
X40218752Y-88106251D02*
X39618752Y-88506251D01*
X40218752Y-88656251D02*
X40218752Y-87556251D01*
X40618752Y-88106251D02*
X40218752Y-88106251D01*
D10*
G04 #@! TO.C,S15*
X73718750Y-69600000D02*
X82118750Y-69599999D01*
X73718750Y-69950000D02*
X73718750Y-69600000D01*
X73718750Y-72200000D02*
X73918750Y-72200000D01*
X73718750Y-73200000D02*
X73718750Y-72200000D01*
D12*
X73918750Y-69800000D02*
X75318750Y-69800000D01*
D10*
X73918750Y-69950000D02*
X73718750Y-69950000D01*
D12*
X73918750Y-72300000D02*
X73918750Y-73000000D01*
D10*
X73938750Y-72200000D02*
X73938750Y-69950000D01*
D13*
X74018750Y-72900000D02*
X75418750Y-72900000D01*
D14*
X74418750Y-70200000D02*
X74418750Y-72700000D01*
D15*
X75718750Y-71400000D02*
X82418750Y-71400000D01*
D10*
X78718750Y-73200000D02*
X73718750Y-73200000D01*
D16*
X82488750Y-71100000D02*
X82488750Y-73340000D01*
D17*
X83618750Y-74600000D02*
X83618750Y-72800000D01*
D10*
X83988750Y-72500000D02*
X83988750Y-74740000D01*
X84018750Y-74740000D02*
X84218750Y-74740000D01*
D13*
X84018750Y-74900000D02*
X81318750Y-74900000D01*
D18*
X84118749Y-72400000D02*
X84118750Y-71500001D01*
D10*
X84218750Y-71500000D02*
X84218750Y-72500000D01*
X84218750Y-72500000D02*
X84018750Y-72500000D01*
X84218750Y-75100000D02*
X80938750Y-75100000D01*
X84218750Y-75100000D02*
X84218750Y-74740000D01*
X78718750Y-73200000D02*
G75*
G02*
X80935068Y-75078529I65000J-2170000D01*
G01*
D14*
X79118750Y-72800000D02*
G75*
G02*
X81335068Y-74678529I65000J-2170000D01*
G01*
D10*
X82118750Y-69599999D02*
G75*
G02*
X84218751Y-71500000I100000J-2000001D01*
G01*
D11*
G04 #@! TO.C,D8*
X59018749Y-68656251D02*
X59618749Y-69056251D01*
X59018749Y-69056251D02*
X58518749Y-69056251D01*
X59018749Y-69456251D02*
X59018749Y-68656251D01*
X59618749Y-69056251D02*
X59018749Y-69456251D01*
X59618749Y-69606251D02*
X59618749Y-68506251D01*
X60018749Y-69056251D02*
X59618749Y-69056251D01*
G04 #@! TO.C,D12*
X134868752Y-68656251D02*
X135468752Y-69056251D01*
X134868752Y-69056251D02*
X134368752Y-69056251D01*
X134868752Y-69456251D02*
X134868752Y-68656251D01*
X135468752Y-69056251D02*
X134868752Y-69456251D01*
X135468752Y-69606251D02*
X135468752Y-68506251D01*
X135868752Y-69056251D02*
X135468752Y-69056251D01*
G04 #@! TO.C,D6*
X135718750Y-49606250D02*
X136318750Y-50006250D01*
X135718750Y-50006250D02*
X135218750Y-50006250D01*
X135718750Y-50406250D02*
X135718750Y-49606250D01*
X136318750Y-50006250D02*
X135718750Y-50406250D01*
X136318750Y-50556250D02*
X136318750Y-49456250D01*
X136718750Y-50006250D02*
X136318750Y-50006250D01*
G04 #@! TO.C,D11*
X116168749Y-66275001D02*
X116768749Y-66675001D01*
X116168749Y-66675001D02*
X115668749Y-66675001D01*
X116168749Y-67075001D02*
X116168749Y-66275001D01*
X116768749Y-66675001D02*
X116168749Y-67075001D01*
X116768749Y-67225001D02*
X116768749Y-66125001D01*
X117168749Y-66675001D02*
X116768749Y-66675001D01*
D10*
G04 #@! TO.C,S1*
X35618750Y-33881250D02*
X44018750Y-33881249D01*
X35618750Y-34231250D02*
X35618750Y-33881250D01*
X35618750Y-36481250D02*
X35818750Y-36481250D01*
X35618750Y-37481250D02*
X35618750Y-36481250D01*
D12*
X35818750Y-34081250D02*
X37218750Y-34081250D01*
D10*
X35818750Y-34231250D02*
X35618750Y-34231250D01*
D12*
X35818750Y-36581250D02*
X35818750Y-37281250D01*
D10*
X35838750Y-36481250D02*
X35838750Y-34231250D01*
D13*
X35918750Y-37181250D02*
X37318750Y-37181250D01*
D14*
X36318750Y-34481250D02*
X36318750Y-36981250D01*
D15*
X37618750Y-35681250D02*
X44318750Y-35681250D01*
D10*
X40618750Y-37481250D02*
X35618750Y-37481250D01*
D16*
X44388750Y-35381250D02*
X44388750Y-37621250D01*
D17*
X45518750Y-38881250D02*
X45518750Y-37081250D01*
D10*
X45888750Y-36781250D02*
X45888750Y-39021250D01*
X45918750Y-39021250D02*
X46118750Y-39021250D01*
D13*
X45918750Y-39181250D02*
X43218750Y-39181250D01*
D18*
X46018749Y-36681250D02*
X46018750Y-35781251D01*
D10*
X46118750Y-35781250D02*
X46118750Y-36781250D01*
X46118750Y-36781250D02*
X45918750Y-36781250D01*
X46118750Y-39381250D02*
X42838750Y-39381250D01*
X46118750Y-39381250D02*
X46118750Y-39021250D01*
X40618750Y-37481250D02*
G75*
G02*
X42835068Y-39359779I65000J-2170000D01*
G01*
D14*
X41018750Y-37081250D02*
G75*
G02*
X43235068Y-38959779I65000J-2170000D01*
G01*
D10*
X44018750Y-33881249D02*
G75*
G02*
X46118751Y-35781250I100000J-2000001D01*
G01*
G04 #@! TD*
%LPC*%
D20*
G04 #@! TO.C,D18*
X138928750Y-88106250D03*
D21*
X131308750Y-88106250D03*
G04 #@! TD*
D20*
G04 #@! TO.C,D9*
X82378750Y-66675000D03*
D21*
X74758750Y-66675000D03*
G04 #@! TD*
D20*
G04 #@! TO.C,D5*
X120228749Y-47625001D03*
D21*
X112608749Y-47625001D03*
G04 #@! TD*
D22*
G04 #@! TO.C,S25*
X94670000Y-114300000D03*
D23*
X95250000Y-114300000D03*
D24*
X95940000Y-111760000D03*
X97210000Y-109220000D03*
D25*
X99750000Y-114300000D03*
D24*
X102290000Y-109220000D03*
X103560000Y-111759999D03*
D23*
X104250000Y-114300000D03*
D22*
X104830000Y-114300000D03*
D26*
X106750000Y-111720000D03*
X94050000Y-109180000D03*
G04 #@! TD*
D27*
G04 #@! TO.C,D27*
X134817500Y-116066052D03*
D28*
X131007500Y-122665166D03*
G04 #@! TD*
D22*
G04 #@! TO.C,S11*
X111338750Y-57150000D03*
D23*
X111918750Y-57150000D03*
D24*
X112608750Y-54610000D03*
X113878750Y-52070000D03*
D25*
X116418750Y-57150000D03*
D24*
X118958750Y-52070000D03*
X120228750Y-54609999D03*
D23*
X120918750Y-57150000D03*
D22*
X121498750Y-57150000D03*
D26*
X123418750Y-54570000D03*
X110718750Y-52030000D03*
G04 #@! TD*
D22*
G04 #@! TO.C,S5*
X111338750Y-38100000D03*
D23*
X111918750Y-38100000D03*
D24*
X112608750Y-35560000D03*
X113878750Y-33020000D03*
D25*
X116418750Y-38100000D03*
D24*
X118958750Y-33020000D03*
X120228750Y-35559999D03*
D23*
X120918750Y-38100000D03*
D22*
X121498750Y-38100000D03*
D26*
X123418750Y-35520000D03*
X110718750Y-32980000D03*
G04 #@! TD*
D22*
G04 #@! TO.C,S6*
X130388750Y-40481250D03*
D23*
X130968750Y-40481250D03*
D24*
X131658750Y-37941250D03*
X132928750Y-35401250D03*
D25*
X135468750Y-40481250D03*
D24*
X138008750Y-35401250D03*
X139278750Y-37941249D03*
D23*
X139968750Y-40481250D03*
D22*
X140548750Y-40481250D03*
D26*
X142468750Y-37901250D03*
X129768750Y-35361250D03*
G04 #@! TD*
D22*
G04 #@! TO.C,S10*
X92288750Y-54768750D03*
D23*
X92868750Y-54768750D03*
D24*
X93558750Y-52228750D03*
X94828750Y-49688750D03*
D25*
X97368750Y-54768750D03*
D24*
X99908750Y-49688750D03*
X101178750Y-52228749D03*
D23*
X101868750Y-54768750D03*
D22*
X102448750Y-54768750D03*
D26*
X104368750Y-52188750D03*
X91668750Y-49648750D03*
G04 #@! TD*
D20*
G04 #@! TO.C,D25*
X103210002Y-123825001D03*
D21*
X95590002Y-123825001D03*
G04 #@! TD*
D22*
G04 #@! TO.C,S23*
X111338750Y-95250000D03*
D23*
X111918750Y-95250000D03*
D24*
X112608750Y-92710000D03*
X113878750Y-90170000D03*
D25*
X116418750Y-95250000D03*
D24*
X118958750Y-90170000D03*
X120228750Y-92709999D03*
D23*
X120918750Y-95250000D03*
D22*
X121498750Y-95250000D03*
D26*
X123418750Y-92670000D03*
X110718750Y-90130000D03*
G04 #@! TD*
D20*
G04 #@! TO.C,D16*
X100828750Y-83343750D03*
D21*
X93208750Y-83343750D03*
G04 #@! TD*
D20*
G04 #@! TO.C,D21*
X81778752Y-104775001D03*
D21*
X74158752Y-104775001D03*
G04 #@! TD*
D20*
G04 #@! TO.C,D14*
X62728750Y-88106250D03*
D21*
X55108750Y-88106250D03*
G04 #@! TD*
D22*
G04 #@! TO.C,S3*
X73238750Y-38100000D03*
D23*
X73818750Y-38100000D03*
D24*
X74508750Y-35560000D03*
X75778750Y-33020000D03*
D25*
X78318750Y-38100000D03*
D24*
X80858750Y-33020000D03*
X82128750Y-35559999D03*
D23*
X82818750Y-38100000D03*
D22*
X83398750Y-38100000D03*
D26*
X85318750Y-35520000D03*
X72618750Y-32980000D03*
G04 #@! TD*
D22*
G04 #@! TO.C,S26*
X116191847Y-115766449D03*
D23*
X116752084Y-115916564D03*
D24*
X118075973Y-113641698D03*
X119960099Y-111516946D03*
D25*
X121098750Y-117081250D03*
D24*
X124867002Y-112831747D03*
X125436328Y-115613898D03*
D23*
X125445416Y-118245936D03*
D22*
X126005653Y-118396051D03*
D29*
X128527984Y-116400895D03*
X116918126Y-110660441D03*
G04 #@! TD*
D22*
G04 #@! TO.C,S17*
X111338750Y-76200000D03*
D23*
X111918750Y-76200000D03*
D24*
X112608750Y-73660000D03*
X113878750Y-71120000D03*
D25*
X116418750Y-76200000D03*
D24*
X118958750Y-71120000D03*
X120228750Y-73659999D03*
D23*
X120918750Y-76200000D03*
D22*
X121498750Y-76200000D03*
D26*
X123418750Y-73620000D03*
X110718750Y-71080000D03*
G04 #@! TD*
D22*
G04 #@! TO.C,S8*
X54188750Y-59531250D03*
D23*
X54768750Y-59531250D03*
D24*
X55458750Y-56991250D03*
X56728750Y-54451250D03*
D25*
X59268750Y-59531250D03*
D24*
X61808750Y-54451250D03*
X63078750Y-56991249D03*
D23*
X63768750Y-59531250D03*
D22*
X64348750Y-59531250D03*
D26*
X66268750Y-56951250D03*
X53568750Y-54411250D03*
G04 #@! TD*
D30*
G04 #@! TO.C,J1*
X155925412Y-102814968D03*
X157425409Y-100216893D03*
X147746245Y-103981696D03*
X153925410Y-106279070D03*
G04 #@! TD*
D20*
G04 #@! TO.C,D3*
X82128749Y-47625000D03*
D21*
X74508749Y-47625000D03*
G04 #@! TD*
D20*
G04 #@! TO.C,D1*
X44028749Y-50006251D03*
D21*
X36408749Y-50006251D03*
G04 #@! TD*
D20*
G04 #@! TO.C,D7*
X44528750Y-69056250D03*
D21*
X36908750Y-69056250D03*
G04 #@! TD*
D22*
G04 #@! TO.C,S13*
X35138750Y-78581250D03*
D23*
X35718750Y-78581250D03*
D24*
X36408750Y-76041250D03*
X37678750Y-73501250D03*
D25*
X40218750Y-78581250D03*
D24*
X42758750Y-73501250D03*
X44028750Y-76041249D03*
D23*
X44718750Y-78581250D03*
D22*
X45298750Y-78581250D03*
D26*
X47218750Y-76001250D03*
X34518750Y-73461250D03*
G04 #@! TD*
D22*
G04 #@! TO.C,S16*
X92288750Y-73818750D03*
D23*
X92868750Y-73818750D03*
D24*
X93558750Y-71278750D03*
X94828750Y-68738750D03*
D25*
X97368750Y-73818750D03*
D24*
X99908750Y-68738750D03*
X101178750Y-71278749D03*
D23*
X101868750Y-73818750D03*
D22*
X102448750Y-73818750D03*
D26*
X104368750Y-71238750D03*
X91668750Y-68698750D03*
G04 #@! TD*
D22*
G04 #@! TO.C,S27*
X144768750Y-118911841D03*
D23*
X144478750Y-119414136D03*
D24*
X146333455Y-121281693D03*
X147898159Y-123651545D03*
D25*
X142228750Y-123311250D03*
D24*
X145358159Y-128050955D03*
X142523455Y-127880807D03*
D23*
X139978750Y-127208364D03*
D22*
X139688750Y-127710659D03*
D31*
X140963096Y-130663428D03*
X149512800Y-120934905D03*
G04 #@! TD*
D22*
G04 #@! TO.C,S14*
X54188750Y-78581250D03*
D23*
X54768750Y-78581250D03*
D24*
X55458750Y-76041250D03*
X56728750Y-73501250D03*
D25*
X59268750Y-78581250D03*
D24*
X61808750Y-73501250D03*
X63078750Y-76041249D03*
D23*
X63768750Y-78581250D03*
D22*
X64348750Y-78581250D03*
D26*
X66268750Y-76001250D03*
X53568750Y-73461250D03*
G04 #@! TD*
D22*
G04 #@! TO.C,S7*
X35138750Y-59531250D03*
D23*
X35718750Y-59531250D03*
D24*
X36408750Y-56991250D03*
X37678750Y-54451250D03*
D25*
X40218750Y-59531250D03*
D24*
X42758750Y-54451250D03*
X44028750Y-56991249D03*
D23*
X44718750Y-59531250D03*
D22*
X45298750Y-59531250D03*
D26*
X47218750Y-56951250D03*
X34518750Y-54411250D03*
G04 #@! TD*
D22*
G04 #@! TO.C,S22*
X92288750Y-92868750D03*
D23*
X92868750Y-92868750D03*
D24*
X93558750Y-90328750D03*
X94828750Y-87788750D03*
D25*
X97368750Y-92868750D03*
D24*
X99908750Y-87788750D03*
X101178750Y-90328749D03*
D23*
X101868750Y-92868750D03*
D22*
X102448750Y-92868750D03*
D26*
X104368750Y-90288750D03*
X91668750Y-87748750D03*
G04 #@! TD*
D22*
G04 #@! TO.C,S19*
X35138750Y-97631250D03*
D23*
X35718750Y-97631250D03*
D24*
X36408750Y-95091250D03*
X37678750Y-92551250D03*
D25*
X40218750Y-97631250D03*
D24*
X42758750Y-92551250D03*
X44028750Y-95091249D03*
D23*
X44718750Y-97631250D03*
D22*
X45298750Y-97631250D03*
D26*
X47218750Y-95051250D03*
X34518750Y-92511250D03*
G04 #@! TD*
D20*
G04 #@! TO.C,D17*
X119878752Y-85725001D03*
D21*
X112258752Y-85725001D03*
G04 #@! TD*
D20*
G04 #@! TO.C,D2*
X63078749Y-50006250D03*
D21*
X55458749Y-50006250D03*
G04 #@! TD*
D20*
G04 #@! TO.C,D19*
X43678752Y-107156251D03*
D21*
X36058752Y-107156251D03*
G04 #@! TD*
D32*
G04 #@! TO.C,U1*
X163828750Y-32731250D03*
X163828750Y-35271250D03*
X163828750Y-37811250D03*
X163828750Y-40351250D03*
X163828750Y-42891250D03*
X163828750Y-45431250D03*
X163828750Y-47971250D03*
X163828750Y-50511250D03*
X163828750Y-53051250D03*
D33*
X160788750Y-53551250D03*
X158248750Y-53551250D03*
X155708750Y-53551250D03*
X153168750Y-53551250D03*
X150628750Y-53551250D03*
D32*
X147588750Y-53051250D03*
X147588750Y-50511250D03*
X147588750Y-47971250D03*
X147588750Y-45431250D03*
X147588750Y-42891250D03*
X147588750Y-40351250D03*
X147588750Y-37811250D03*
X147588750Y-35271250D03*
X147588750Y-32731250D03*
G04 #@! TD*
D22*
G04 #@! TO.C,S20*
X54188750Y-97631250D03*
D23*
X54768750Y-97631250D03*
D24*
X55458750Y-95091250D03*
X56728750Y-92551250D03*
D25*
X59268750Y-97631250D03*
D24*
X61808750Y-92551250D03*
X63078750Y-95091249D03*
D23*
X63768750Y-97631250D03*
D22*
X64348750Y-97631250D03*
D26*
X66268750Y-95051250D03*
X53568750Y-92511250D03*
G04 #@! TD*
D20*
G04 #@! TO.C,D10*
X100828752Y-64293751D03*
D21*
X93208752Y-64293751D03*
G04 #@! TD*
D20*
G04 #@! TO.C,D22*
X101441249Y-102393751D03*
D21*
X93821249Y-102393751D03*
G04 #@! TD*
D22*
G04 #@! TO.C,S2*
X54188750Y-40481250D03*
D23*
X54768750Y-40481250D03*
D24*
X55458750Y-37941250D03*
X56728750Y-35401250D03*
D25*
X59268750Y-40481250D03*
D24*
X61808750Y-35401250D03*
X63078750Y-37941249D03*
D23*
X63768750Y-40481250D03*
D22*
X64348750Y-40481250D03*
D26*
X66268750Y-37901250D03*
X53568750Y-35361250D03*
G04 #@! TD*
D20*
G04 #@! TO.C,D15*
X81578751Y-85725000D03*
D21*
X73958751Y-85725000D03*
G04 #@! TD*
D20*
G04 #@! TO.C,D23*
X120228749Y-104775001D03*
D21*
X112608749Y-104775001D03*
G04 #@! TD*
D22*
G04 #@! TO.C,S21*
X73238750Y-95250000D03*
D23*
X73818750Y-95250000D03*
D24*
X74508750Y-92710000D03*
X75778750Y-90170000D03*
D25*
X78318750Y-95250000D03*
D24*
X80858750Y-90170000D03*
X82128750Y-92709999D03*
D23*
X82818750Y-95250000D03*
D22*
X83398750Y-95250000D03*
D26*
X85318750Y-92670000D03*
X72618750Y-90130000D03*
G04 #@! TD*
D22*
G04 #@! TO.C,S12*
X130388750Y-59531250D03*
D23*
X130968750Y-59531250D03*
D24*
X131658750Y-56991250D03*
X132928750Y-54451250D03*
D25*
X135468750Y-59531250D03*
D24*
X138008750Y-54451250D03*
X139278750Y-56991249D03*
D23*
X139968750Y-59531250D03*
D22*
X140548750Y-59531250D03*
D26*
X142468750Y-56951250D03*
X129768750Y-54411250D03*
G04 #@! TD*
D22*
G04 #@! TO.C,S18*
X130388750Y-78581250D03*
D23*
X130968750Y-78581250D03*
D24*
X131658750Y-76041250D03*
X132928750Y-73501250D03*
D25*
X135468750Y-78581250D03*
D24*
X138008750Y-73501250D03*
X139278750Y-76041249D03*
D23*
X139968750Y-78581250D03*
D22*
X140548750Y-78581250D03*
D26*
X142468750Y-76001250D03*
X129768750Y-73461250D03*
G04 #@! TD*
D20*
G04 #@! TO.C,D4*
X101178749Y-45243751D03*
D21*
X93558749Y-45243751D03*
G04 #@! TD*
D34*
G04 #@! TO.C,D26*
X122142103Y-127101764D03*
D35*
X114781748Y-125129563D03*
G04 #@! TD*
D20*
G04 #@! TO.C,D20*
X62728750Y-107156250D03*
D21*
X55108750Y-107156250D03*
G04 #@! TD*
D20*
G04 #@! TO.C,D24*
X140493750Y-107156250D03*
D21*
X132873750Y-107156250D03*
G04 #@! TD*
D22*
G04 #@! TO.C,S4*
X92288750Y-35718750D03*
D23*
X92868750Y-35718750D03*
D24*
X93558750Y-33178750D03*
X94828750Y-30638750D03*
D25*
X97368750Y-35718750D03*
D24*
X99908750Y-30638750D03*
X101178750Y-33178749D03*
D23*
X101868750Y-35718750D03*
D22*
X102448750Y-35718750D03*
D26*
X104368750Y-33138750D03*
X91668750Y-30598750D03*
G04 #@! TD*
D22*
G04 #@! TO.C,S24*
X130388750Y-97631250D03*
D23*
X130968750Y-97631250D03*
D24*
X131658750Y-95091250D03*
X132928750Y-92551250D03*
D25*
X135468750Y-97631250D03*
D24*
X138008750Y-92551250D03*
X139278750Y-95091249D03*
D23*
X139968750Y-97631250D03*
D22*
X140548750Y-97631250D03*
D26*
X142468750Y-95051250D03*
X129768750Y-92511250D03*
G04 #@! TD*
D22*
G04 #@! TO.C,S9*
X73238750Y-57150000D03*
D23*
X73818750Y-57150000D03*
D24*
X74508750Y-54610000D03*
X75778750Y-52070000D03*
D25*
X78318750Y-57150000D03*
D24*
X80858750Y-52070000D03*
X82128750Y-54609999D03*
D23*
X82818750Y-57150000D03*
D22*
X83398750Y-57150000D03*
D26*
X85318750Y-54570000D03*
X72618750Y-52030000D03*
G04 #@! TD*
D20*
G04 #@! TO.C,D13*
X43678752Y-88106251D03*
D21*
X36058752Y-88106251D03*
G04 #@! TD*
D22*
G04 #@! TO.C,S15*
X73238750Y-76200000D03*
D23*
X73818750Y-76200000D03*
D24*
X74508750Y-73660000D03*
X75778750Y-71120000D03*
D25*
X78318750Y-76200000D03*
D24*
X80858750Y-71120000D03*
X82128750Y-73659999D03*
D23*
X82818750Y-76200000D03*
D22*
X83398750Y-76200000D03*
D26*
X85318750Y-73620000D03*
X72618750Y-71080000D03*
G04 #@! TD*
D20*
G04 #@! TO.C,D8*
X63078749Y-69056251D03*
D21*
X55458749Y-69056251D03*
G04 #@! TD*
D20*
G04 #@! TO.C,D12*
X138928752Y-69056251D03*
D21*
X131308752Y-69056251D03*
G04 #@! TD*
D20*
G04 #@! TO.C,D6*
X139778750Y-50006250D03*
D21*
X132158750Y-50006250D03*
G04 #@! TD*
D20*
G04 #@! TO.C,D11*
X120228749Y-66675001D03*
D21*
X112608749Y-66675001D03*
G04 #@! TD*
D22*
G04 #@! TO.C,S1*
X35138750Y-40481250D03*
D23*
X35718750Y-40481250D03*
D24*
X36408750Y-37941250D03*
X37678750Y-35401250D03*
D25*
X40218750Y-40481250D03*
D24*
X42758750Y-35401250D03*
X44028750Y-37941249D03*
D23*
X44718750Y-40481250D03*
D22*
X45298750Y-40481250D03*
D26*
X47218750Y-37901250D03*
X34518750Y-35361250D03*
G04 #@! TD*
D36*
G04 #@! TO.C,J2*
X155400000Y-97200000D03*
X151900000Y-103262178D03*
G04 #@! TD*
%LPD*%
M02*
