M48
; DRILL file {KiCad 8.0.4} date 2024-09-10T03:21:52+0300
; FORMAT={-:-/ absolute / metric / decimal}
; #@! TF.CreationDate,2024-09-10T03:21:52+03:00
; #@! TF.GenerationSoftware,Kicad,Pcbnew,8.0.4
; #@! TF.FileFunction,NonPlated,1,2,NPTH
FMAT,2
METRIC
; #@! TA.AperFunction,NonPlated,NPTH,ComponentDrill
T1C1.500
; #@! TA.AperFunction,NonPlated,NPTH,ComponentDrill
T2C1.700
; #@! TA.AperFunction,NonPlated,NPTH,ComponentDrill
T3C1.900
; #@! TA.AperFunction,NonPlated,NPTH,ComponentDrill
T4C3.000
; #@! TA.AperFunction,NonPlated,NPTH,ComponentDrill
T5C4.100
%
G90
G05
T1
X151.9Y-103.262
X155.4Y-97.2
T2
X35.719Y-40.481
X35.719Y-59.531
X35.719Y-78.581
X35.719Y-97.631
X44.719Y-40.481
X44.719Y-59.531
X44.719Y-78.581
X44.719Y-97.631
X54.769Y-40.481
X54.769Y-59.531
X54.769Y-78.581
X54.769Y-97.631
X63.769Y-40.481
X63.769Y-59.531
X63.769Y-78.581
X63.769Y-97.631
X73.819Y-38.1
X73.819Y-57.15
X73.819Y-76.2
X73.819Y-95.25
X82.819Y-38.1
X82.819Y-57.15
X82.819Y-76.2
X82.819Y-95.25
X92.869Y-35.719
X92.869Y-54.769
X92.869Y-73.819
X92.869Y-92.869
X95.25Y-114.3
X101.869Y-35.719
X101.869Y-54.769
X101.869Y-73.819
X101.869Y-92.869
X104.25Y-114.3
X111.919Y-38.1
X111.919Y-57.15
X111.919Y-76.2
X111.919Y-95.25
X116.752Y-115.917
X120.919Y-38.1
X120.919Y-57.15
X120.919Y-76.2
X120.919Y-95.25
X125.445Y-118.246
X130.969Y-40.481
X130.969Y-59.531
X130.969Y-78.581
X130.969Y-97.631
X139.969Y-40.481
X139.969Y-59.531
X139.969Y-78.581
X139.969Y-97.631
X139.979Y-127.208
X144.479Y-119.414
T3
X35.139Y-40.481
X35.139Y-59.531
X35.139Y-78.581
X35.139Y-97.631
X45.299Y-40.481
X45.299Y-59.531
X45.299Y-78.581
X45.299Y-97.631
X54.189Y-40.481
X54.189Y-59.531
X54.189Y-78.581
X54.189Y-97.631
X64.349Y-40.481
X64.349Y-59.531
X64.349Y-78.581
X64.349Y-97.631
X73.239Y-38.1
X73.239Y-57.15
X73.239Y-76.2
X73.239Y-95.25
X83.399Y-38.1
X83.399Y-57.15
X83.399Y-76.2
X83.399Y-95.25
X92.289Y-35.719
X92.289Y-54.769
X92.289Y-73.819
X92.289Y-92.869
X94.67Y-114.3
X102.449Y-35.719
X102.449Y-54.769
X102.449Y-73.819
X102.449Y-92.869
X104.83Y-114.3
X111.339Y-38.1
X111.339Y-57.15
X111.339Y-76.2
X111.339Y-95.25
X116.192Y-115.766
X121.499Y-38.1
X121.499Y-57.15
X121.499Y-76.2
X121.499Y-95.25
X126.006Y-118.396
X130.389Y-40.481
X130.389Y-59.531
X130.389Y-78.581
X130.389Y-97.631
X139.689Y-127.711
X140.549Y-40.481
X140.549Y-59.531
X140.549Y-78.581
X140.549Y-97.631
X144.769Y-118.912
T4
X36.409Y-37.941
X36.409Y-56.991
X36.409Y-76.041
X36.409Y-95.091
X37.679Y-35.401
X37.679Y-54.451
X37.679Y-73.501
X37.679Y-92.551
X42.759Y-35.401
X42.759Y-54.451
X42.759Y-73.501
X42.759Y-92.551
X44.029Y-37.941
X44.029Y-56.991
X44.029Y-76.041
X44.029Y-95.091
X55.459Y-37.941
X55.459Y-56.991
X55.459Y-76.041
X55.459Y-95.091
X56.729Y-35.401
X56.729Y-54.451
X56.729Y-73.501
X56.729Y-92.551
X61.809Y-35.401
X61.809Y-54.451
X61.809Y-73.501
X61.809Y-92.551
X63.079Y-37.941
X63.079Y-56.991
X63.079Y-76.041
X63.079Y-95.091
X74.509Y-35.56
X74.509Y-54.61
X74.509Y-73.66
X74.509Y-92.71
X75.779Y-33.02
X75.779Y-52.07
X75.779Y-71.12
X75.779Y-90.17
X80.859Y-33.02
X80.859Y-52.07
X80.859Y-71.12
X80.859Y-90.17
X82.129Y-35.56
X82.129Y-54.61
X82.129Y-73.66
X82.129Y-92.71
X93.559Y-33.179
X93.559Y-52.229
X93.559Y-71.279
X93.559Y-90.329
X94.829Y-30.639
X94.829Y-49.689
X94.829Y-68.739
X94.829Y-87.789
X95.94Y-111.76
X97.21Y-109.22
X99.909Y-30.639
X99.909Y-49.689
X99.909Y-68.739
X99.909Y-87.789
X101.179Y-33.179
X101.179Y-52.229
X101.179Y-71.279
X101.179Y-90.329
X102.29Y-109.22
X103.56Y-111.76
X112.609Y-35.56
X112.609Y-54.61
X112.609Y-73.66
X112.609Y-92.71
X113.879Y-33.02
X113.879Y-52.07
X113.879Y-71.12
X113.879Y-90.17
X118.076Y-113.642
X118.959Y-33.02
X118.959Y-52.07
X118.959Y-71.12
X118.959Y-90.17
X119.96Y-111.517
X120.229Y-35.56
X120.229Y-54.61
X120.229Y-73.66
X120.229Y-92.71
X124.867Y-112.832
X125.436Y-115.614
X131.659Y-37.941
X131.659Y-56.991
X131.659Y-76.041
X131.659Y-95.091
X132.929Y-35.401
X132.929Y-54.451
X132.929Y-73.501
X132.929Y-92.551
X138.009Y-35.401
X138.009Y-54.451
X138.009Y-73.501
X138.009Y-92.551
X139.279Y-37.941
X139.279Y-56.991
X139.279Y-76.041
X139.279Y-95.091
X142.523Y-127.881
X145.358Y-128.051
X146.333Y-121.282
X147.898Y-123.652
T5
X40.219Y-40.481
X40.219Y-59.531
X40.219Y-78.581
X40.219Y-97.631
X59.269Y-40.481
X59.269Y-59.531
X59.269Y-78.581
X59.269Y-97.631
X78.319Y-38.1
X78.319Y-57.15
X78.319Y-76.2
X78.319Y-95.25
X97.369Y-35.719
X97.369Y-54.769
X97.369Y-73.819
X97.369Y-92.869
X99.75Y-114.3
X116.419Y-38.1
X116.419Y-57.15
X116.419Y-76.2
X116.419Y-95.25
X121.099Y-117.081
X135.469Y-40.481
X135.469Y-59.531
X135.469Y-78.581
X135.469Y-97.631
X142.229Y-123.311
M30
