G04 #@! TF.GenerationSoftware,KiCad,Pcbnew,8.0.4*
G04 #@! TF.CreationDate,2024-09-10T03:21:52+03:00*
G04 #@! TF.ProjectId,silakka54,73696c61-6b6b-4613-9534-2e6b69636164,rev?*
G04 #@! TF.SameCoordinates,Original*
G04 #@! TF.FileFunction,Paste,Bot*
G04 #@! TF.FilePolarity,Positive*
%FSLAX46Y46*%
G04 Gerber Fmt 4.6, Leading zero omitted, Abs format (unit mm)*
G04 Created by KiCad (PCBNEW 8.0.4) date 2024-09-10 03:21:52*
%MOMM*%
%LPD*%
G01*
G04 APERTURE LIST*
G04 Aperture macros list*
%AMRotRect*
0 Rectangle, with rotation*
0 The origin of the aperture is its center*
0 $1 length*
0 $2 width*
0 $3 Rotation angle, in degrees counterclockwise*
0 Add horizontal line*
21,1,$1,$2,0,0,$3*%
G04 Aperture macros list end*
%ADD10R,2.300000X2.000000*%
%ADD11RotRect,2.300000X2.000000X165.000000*%
%ADD12RotRect,2.300000X2.000000X60.000000*%
%ADD13RotRect,1.200000X2.500000X240.000000*%
G04 APERTURE END LIST*
D10*
G04 #@! TO.C,S25*
X92750000Y-111720000D03*
X105450000Y-109180000D03*
G04 #@! TD*
G04 #@! TO.C,S11*
X109418750Y-54570000D03*
X122118750Y-52030000D03*
G04 #@! TD*
G04 #@! TO.C,S5*
X109418750Y-35520000D03*
X122118750Y-32980000D03*
G04 #@! TD*
G04 #@! TO.C,S6*
X128468750Y-37901250D03*
X141168750Y-35361250D03*
G04 #@! TD*
G04 #@! TO.C,S10*
X90368750Y-52188750D03*
X103068750Y-49648750D03*
G04 #@! TD*
G04 #@! TO.C,S23*
X109418750Y-92670000D03*
X122118750Y-90130000D03*
G04 #@! TD*
G04 #@! TO.C,S3*
X71318750Y-35520000D03*
X84018750Y-32980000D03*
G04 #@! TD*
D11*
G04 #@! TO.C,S26*
X115005022Y-112777428D03*
X127929681Y-113610978D03*
G04 #@! TD*
D10*
G04 #@! TO.C,S17*
X109418750Y-73620000D03*
X122118750Y-71080000D03*
G04 #@! TD*
G04 #@! TO.C,S8*
X52268750Y-56951250D03*
X64968750Y-54411250D03*
G04 #@! TD*
G04 #@! TO.C,S13*
X33218750Y-76001250D03*
X45918750Y-73461250D03*
G04 #@! TD*
G04 #@! TO.C,S16*
X90368750Y-71238750D03*
X103068750Y-68698750D03*
G04 #@! TD*
D12*
G04 #@! TO.C,S27*
X147963096Y-118539072D03*
X143812800Y-130807595D03*
G04 #@! TD*
D10*
G04 #@! TO.C,S14*
X52268750Y-76001250D03*
X64968750Y-73461250D03*
G04 #@! TD*
G04 #@! TO.C,S7*
X33218750Y-56951250D03*
X45918750Y-54411250D03*
G04 #@! TD*
G04 #@! TO.C,S22*
X90368750Y-90288750D03*
X103068750Y-87748750D03*
G04 #@! TD*
G04 #@! TO.C,S19*
X33218750Y-95051250D03*
X45918750Y-92511250D03*
G04 #@! TD*
G04 #@! TO.C,S20*
X52268750Y-95051250D03*
X64968750Y-92511250D03*
G04 #@! TD*
G04 #@! TO.C,S2*
X52268750Y-37901250D03*
X64968750Y-35361250D03*
G04 #@! TD*
G04 #@! TO.C,S21*
X71318750Y-92670000D03*
X84018750Y-90130000D03*
G04 #@! TD*
G04 #@! TO.C,S12*
X128468750Y-56951250D03*
X141168750Y-54411250D03*
G04 #@! TD*
G04 #@! TO.C,S18*
X128468750Y-76001250D03*
X141168750Y-73461250D03*
G04 #@! TD*
G04 #@! TO.C,S4*
X90368750Y-33138750D03*
X103068750Y-30598750D03*
G04 #@! TD*
G04 #@! TO.C,S24*
X128468750Y-95051250D03*
X141168750Y-92511250D03*
G04 #@! TD*
G04 #@! TO.C,S9*
X71318750Y-54570000D03*
X84018750Y-52030000D03*
G04 #@! TD*
G04 #@! TO.C,S15*
X71318750Y-73620000D03*
X84018750Y-71080000D03*
G04 #@! TD*
G04 #@! TO.C,S1*
X33218750Y-37901250D03*
X45918750Y-35361250D03*
G04 #@! TD*
D13*
G04 #@! TO.C,J2*
X150285415Y-99558717D03*
X151785418Y-96960642D03*
X153364582Y-107225446D03*
X148285422Y-103022820D03*
G04 #@! TD*
M02*
