G04 #@! TF.GenerationSoftware,KiCad,Pcbnew,8.0.4*
G04 #@! TF.CreationDate,2024-09-10T03:21:52+03:00*
G04 #@! TF.ProjectId,silakka54,73696c61-6b6b-4613-9534-2e6b69636164,rev?*
G04 #@! TF.SameCoordinates,Original*
G04 #@! TF.FileFunction,AssemblyDrawing,Top*
%FSLAX46Y46*%
G04 Gerber Fmt 4.6, Leading zero omitted, Abs format (unit mm)*
G04 Created by KiCad (PCBNEW 8.0.4) date 2024-09-10 03:21:52*
%MOMM*%
%LPD*%
G01*
G04 APERTURE LIST*
%ADD10C,0.150000*%
%ADD11C,0.100000*%
%ADD12C,0.120000*%
G04 APERTURE END LIST*
D10*
X29361160Y-107420444D02*
X29361160Y-106420444D01*
X29361160Y-106420444D02*
X29694493Y-107134729D01*
X29694493Y-107134729D02*
X30027826Y-106420444D01*
X30027826Y-106420444D02*
X30027826Y-107420444D01*
X30456398Y-106515682D02*
X30504017Y-106468063D01*
X30504017Y-106468063D02*
X30599255Y-106420444D01*
X30599255Y-106420444D02*
X30837350Y-106420444D01*
X30837350Y-106420444D02*
X30932588Y-106468063D01*
X30932588Y-106468063D02*
X30980207Y-106515682D01*
X30980207Y-106515682D02*
X31027826Y-106610920D01*
X31027826Y-106610920D02*
X31027826Y-106706158D01*
X31027826Y-106706158D02*
X30980207Y-106849015D01*
X30980207Y-106849015D02*
X30408779Y-107420444D01*
X30408779Y-107420444D02*
X31027826Y-107420444D01*
X31218303Y-107515682D02*
X31980207Y-107515682D01*
X32218303Y-107420444D02*
X32218303Y-106420444D01*
X32646874Y-107420444D02*
X32646874Y-106896634D01*
X32646874Y-106896634D02*
X32599255Y-106801396D01*
X32599255Y-106801396D02*
X32504017Y-106753777D01*
X32504017Y-106753777D02*
X32361160Y-106753777D01*
X32361160Y-106753777D02*
X32265922Y-106801396D01*
X32265922Y-106801396D02*
X32218303Y-106849015D01*
X33265922Y-107420444D02*
X33170684Y-107372825D01*
X33170684Y-107372825D02*
X33123065Y-107325205D01*
X33123065Y-107325205D02*
X33075446Y-107229967D01*
X33075446Y-107229967D02*
X33075446Y-106944253D01*
X33075446Y-106944253D02*
X33123065Y-106849015D01*
X33123065Y-106849015D02*
X33170684Y-106801396D01*
X33170684Y-106801396D02*
X33265922Y-106753777D01*
X33265922Y-106753777D02*
X33408779Y-106753777D01*
X33408779Y-106753777D02*
X33504017Y-106801396D01*
X33504017Y-106801396D02*
X33551636Y-106849015D01*
X33551636Y-106849015D02*
X33599255Y-106944253D01*
X33599255Y-106944253D02*
X33599255Y-107229967D01*
X33599255Y-107229967D02*
X33551636Y-107325205D01*
X33551636Y-107325205D02*
X33504017Y-107372825D01*
X33504017Y-107372825D02*
X33408779Y-107420444D01*
X33408779Y-107420444D02*
X33265922Y-107420444D01*
X34170684Y-107420444D02*
X34075446Y-107372825D01*
X34075446Y-107372825D02*
X34027827Y-107277586D01*
X34027827Y-107277586D02*
X34027827Y-106420444D01*
X34932589Y-107372825D02*
X34837351Y-107420444D01*
X34837351Y-107420444D02*
X34646875Y-107420444D01*
X34646875Y-107420444D02*
X34551637Y-107372825D01*
X34551637Y-107372825D02*
X34504018Y-107277586D01*
X34504018Y-107277586D02*
X34504018Y-106896634D01*
X34504018Y-106896634D02*
X34551637Y-106801396D01*
X34551637Y-106801396D02*
X34646875Y-106753777D01*
X34646875Y-106753777D02*
X34837351Y-106753777D01*
X34837351Y-106753777D02*
X34932589Y-106801396D01*
X34932589Y-106801396D02*
X34980208Y-106896634D01*
X34980208Y-106896634D02*
X34980208Y-106991872D01*
X34980208Y-106991872D02*
X34504018Y-107087110D01*
X30813541Y-108920444D02*
X30480208Y-108444253D01*
X30242113Y-108920444D02*
X30242113Y-107920444D01*
X30242113Y-107920444D02*
X30623065Y-107920444D01*
X30623065Y-107920444D02*
X30718303Y-107968063D01*
X30718303Y-107968063D02*
X30765922Y-108015682D01*
X30765922Y-108015682D02*
X30813541Y-108110920D01*
X30813541Y-108110920D02*
X30813541Y-108253777D01*
X30813541Y-108253777D02*
X30765922Y-108349015D01*
X30765922Y-108349015D02*
X30718303Y-108396634D01*
X30718303Y-108396634D02*
X30623065Y-108444253D01*
X30623065Y-108444253D02*
X30242113Y-108444253D01*
X31242113Y-108396634D02*
X31575446Y-108396634D01*
X31718303Y-108920444D02*
X31242113Y-108920444D01*
X31242113Y-108920444D02*
X31242113Y-107920444D01*
X31242113Y-107920444D02*
X31718303Y-107920444D01*
X32480208Y-108396634D02*
X32146875Y-108396634D01*
X32146875Y-108920444D02*
X32146875Y-107920444D01*
X32146875Y-107920444D02*
X32623065Y-107920444D01*
X33146875Y-107920444D02*
X33146875Y-108158539D01*
X32908780Y-108063301D02*
X33146875Y-108158539D01*
X33146875Y-108158539D02*
X33384970Y-108063301D01*
X33004018Y-108349015D02*
X33146875Y-108158539D01*
X33146875Y-108158539D02*
X33289732Y-108349015D01*
X33908780Y-107920444D02*
X33908780Y-108158539D01*
X33670685Y-108063301D02*
X33908780Y-108158539D01*
X33908780Y-108158539D02*
X34146875Y-108063301D01*
X33765923Y-108349015D02*
X33908780Y-108158539D01*
X33908780Y-108158539D02*
X34051637Y-108349015D01*
X85320535Y-70511069D02*
X85320535Y-69511069D01*
X85320535Y-69511069D02*
X85653868Y-70225354D01*
X85653868Y-70225354D02*
X85987201Y-69511069D01*
X85987201Y-69511069D02*
X85987201Y-70511069D01*
X86415773Y-69606307D02*
X86463392Y-69558688D01*
X86463392Y-69558688D02*
X86558630Y-69511069D01*
X86558630Y-69511069D02*
X86796725Y-69511069D01*
X86796725Y-69511069D02*
X86891963Y-69558688D01*
X86891963Y-69558688D02*
X86939582Y-69606307D01*
X86939582Y-69606307D02*
X86987201Y-69701545D01*
X86987201Y-69701545D02*
X86987201Y-69796783D01*
X86987201Y-69796783D02*
X86939582Y-69939640D01*
X86939582Y-69939640D02*
X86368154Y-70511069D01*
X86368154Y-70511069D02*
X86987201Y-70511069D01*
X87177678Y-70606307D02*
X87939582Y-70606307D01*
X88177678Y-70511069D02*
X88177678Y-69511069D01*
X88606249Y-70511069D02*
X88606249Y-69987259D01*
X88606249Y-69987259D02*
X88558630Y-69892021D01*
X88558630Y-69892021D02*
X88463392Y-69844402D01*
X88463392Y-69844402D02*
X88320535Y-69844402D01*
X88320535Y-69844402D02*
X88225297Y-69892021D01*
X88225297Y-69892021D02*
X88177678Y-69939640D01*
X89225297Y-70511069D02*
X89130059Y-70463450D01*
X89130059Y-70463450D02*
X89082440Y-70415830D01*
X89082440Y-70415830D02*
X89034821Y-70320592D01*
X89034821Y-70320592D02*
X89034821Y-70034878D01*
X89034821Y-70034878D02*
X89082440Y-69939640D01*
X89082440Y-69939640D02*
X89130059Y-69892021D01*
X89130059Y-69892021D02*
X89225297Y-69844402D01*
X89225297Y-69844402D02*
X89368154Y-69844402D01*
X89368154Y-69844402D02*
X89463392Y-69892021D01*
X89463392Y-69892021D02*
X89511011Y-69939640D01*
X89511011Y-69939640D02*
X89558630Y-70034878D01*
X89558630Y-70034878D02*
X89558630Y-70320592D01*
X89558630Y-70320592D02*
X89511011Y-70415830D01*
X89511011Y-70415830D02*
X89463392Y-70463450D01*
X89463392Y-70463450D02*
X89368154Y-70511069D01*
X89368154Y-70511069D02*
X89225297Y-70511069D01*
X90130059Y-70511069D02*
X90034821Y-70463450D01*
X90034821Y-70463450D02*
X89987202Y-70368211D01*
X89987202Y-70368211D02*
X89987202Y-69511069D01*
X90891964Y-70463450D02*
X90796726Y-70511069D01*
X90796726Y-70511069D02*
X90606250Y-70511069D01*
X90606250Y-70511069D02*
X90511012Y-70463450D01*
X90511012Y-70463450D02*
X90463393Y-70368211D01*
X90463393Y-70368211D02*
X90463393Y-69987259D01*
X90463393Y-69987259D02*
X90511012Y-69892021D01*
X90511012Y-69892021D02*
X90606250Y-69844402D01*
X90606250Y-69844402D02*
X90796726Y-69844402D01*
X90796726Y-69844402D02*
X90891964Y-69892021D01*
X90891964Y-69892021D02*
X90939583Y-69987259D01*
X90939583Y-69987259D02*
X90939583Y-70082497D01*
X90939583Y-70082497D02*
X90463393Y-70177735D01*
X86772916Y-72011069D02*
X86439583Y-71534878D01*
X86201488Y-72011069D02*
X86201488Y-71011069D01*
X86201488Y-71011069D02*
X86582440Y-71011069D01*
X86582440Y-71011069D02*
X86677678Y-71058688D01*
X86677678Y-71058688D02*
X86725297Y-71106307D01*
X86725297Y-71106307D02*
X86772916Y-71201545D01*
X86772916Y-71201545D02*
X86772916Y-71344402D01*
X86772916Y-71344402D02*
X86725297Y-71439640D01*
X86725297Y-71439640D02*
X86677678Y-71487259D01*
X86677678Y-71487259D02*
X86582440Y-71534878D01*
X86582440Y-71534878D02*
X86201488Y-71534878D01*
X87201488Y-71487259D02*
X87534821Y-71487259D01*
X87677678Y-72011069D02*
X87201488Y-72011069D01*
X87201488Y-72011069D02*
X87201488Y-71011069D01*
X87201488Y-71011069D02*
X87677678Y-71011069D01*
X88439583Y-71487259D02*
X88106250Y-71487259D01*
X88106250Y-72011069D02*
X88106250Y-71011069D01*
X88106250Y-71011069D02*
X88582440Y-71011069D01*
X89106250Y-71011069D02*
X89106250Y-71249164D01*
X88868155Y-71153926D02*
X89106250Y-71249164D01*
X89106250Y-71249164D02*
X89344345Y-71153926D01*
X88963393Y-71439640D02*
X89106250Y-71249164D01*
X89106250Y-71249164D02*
X89249107Y-71439640D01*
X89868155Y-71011069D02*
X89868155Y-71249164D01*
X89630060Y-71153926D02*
X89868155Y-71249164D01*
X89868155Y-71249164D02*
X90106250Y-71153926D01*
X89725298Y-71439640D02*
X89868155Y-71249164D01*
X89868155Y-71249164D02*
X90011012Y-71439640D01*
X88892410Y-124089194D02*
X88892410Y-123089194D01*
X88892410Y-123089194D02*
X89225743Y-123803479D01*
X89225743Y-123803479D02*
X89559076Y-123089194D01*
X89559076Y-123089194D02*
X89559076Y-124089194D01*
X89987648Y-123184432D02*
X90035267Y-123136813D01*
X90035267Y-123136813D02*
X90130505Y-123089194D01*
X90130505Y-123089194D02*
X90368600Y-123089194D01*
X90368600Y-123089194D02*
X90463838Y-123136813D01*
X90463838Y-123136813D02*
X90511457Y-123184432D01*
X90511457Y-123184432D02*
X90559076Y-123279670D01*
X90559076Y-123279670D02*
X90559076Y-123374908D01*
X90559076Y-123374908D02*
X90511457Y-123517765D01*
X90511457Y-123517765D02*
X89940029Y-124089194D01*
X89940029Y-124089194D02*
X90559076Y-124089194D01*
X90749553Y-124184432D02*
X91511457Y-124184432D01*
X91749553Y-124089194D02*
X91749553Y-123089194D01*
X92178124Y-124089194D02*
X92178124Y-123565384D01*
X92178124Y-123565384D02*
X92130505Y-123470146D01*
X92130505Y-123470146D02*
X92035267Y-123422527D01*
X92035267Y-123422527D02*
X91892410Y-123422527D01*
X91892410Y-123422527D02*
X91797172Y-123470146D01*
X91797172Y-123470146D02*
X91749553Y-123517765D01*
X92797172Y-124089194D02*
X92701934Y-124041575D01*
X92701934Y-124041575D02*
X92654315Y-123993955D01*
X92654315Y-123993955D02*
X92606696Y-123898717D01*
X92606696Y-123898717D02*
X92606696Y-123613003D01*
X92606696Y-123613003D02*
X92654315Y-123517765D01*
X92654315Y-123517765D02*
X92701934Y-123470146D01*
X92701934Y-123470146D02*
X92797172Y-123422527D01*
X92797172Y-123422527D02*
X92940029Y-123422527D01*
X92940029Y-123422527D02*
X93035267Y-123470146D01*
X93035267Y-123470146D02*
X93082886Y-123517765D01*
X93082886Y-123517765D02*
X93130505Y-123613003D01*
X93130505Y-123613003D02*
X93130505Y-123898717D01*
X93130505Y-123898717D02*
X93082886Y-123993955D01*
X93082886Y-123993955D02*
X93035267Y-124041575D01*
X93035267Y-124041575D02*
X92940029Y-124089194D01*
X92940029Y-124089194D02*
X92797172Y-124089194D01*
X93701934Y-124089194D02*
X93606696Y-124041575D01*
X93606696Y-124041575D02*
X93559077Y-123946336D01*
X93559077Y-123946336D02*
X93559077Y-123089194D01*
X94463839Y-124041575D02*
X94368601Y-124089194D01*
X94368601Y-124089194D02*
X94178125Y-124089194D01*
X94178125Y-124089194D02*
X94082887Y-124041575D01*
X94082887Y-124041575D02*
X94035268Y-123946336D01*
X94035268Y-123946336D02*
X94035268Y-123565384D01*
X94035268Y-123565384D02*
X94082887Y-123470146D01*
X94082887Y-123470146D02*
X94178125Y-123422527D01*
X94178125Y-123422527D02*
X94368601Y-123422527D01*
X94368601Y-123422527D02*
X94463839Y-123470146D01*
X94463839Y-123470146D02*
X94511458Y-123565384D01*
X94511458Y-123565384D02*
X94511458Y-123660622D01*
X94511458Y-123660622D02*
X94035268Y-123755860D01*
X90344791Y-125589194D02*
X90011458Y-125113003D01*
X89773363Y-125589194D02*
X89773363Y-124589194D01*
X89773363Y-124589194D02*
X90154315Y-124589194D01*
X90154315Y-124589194D02*
X90249553Y-124636813D01*
X90249553Y-124636813D02*
X90297172Y-124684432D01*
X90297172Y-124684432D02*
X90344791Y-124779670D01*
X90344791Y-124779670D02*
X90344791Y-124922527D01*
X90344791Y-124922527D02*
X90297172Y-125017765D01*
X90297172Y-125017765D02*
X90249553Y-125065384D01*
X90249553Y-125065384D02*
X90154315Y-125113003D01*
X90154315Y-125113003D02*
X89773363Y-125113003D01*
X90773363Y-125065384D02*
X91106696Y-125065384D01*
X91249553Y-125589194D02*
X90773363Y-125589194D01*
X90773363Y-125589194D02*
X90773363Y-124589194D01*
X90773363Y-124589194D02*
X91249553Y-124589194D01*
X92011458Y-125065384D02*
X91678125Y-125065384D01*
X91678125Y-125589194D02*
X91678125Y-124589194D01*
X91678125Y-124589194D02*
X92154315Y-124589194D01*
X92678125Y-124589194D02*
X92678125Y-124827289D01*
X92440030Y-124732051D02*
X92678125Y-124827289D01*
X92678125Y-124827289D02*
X92916220Y-124732051D01*
X92535268Y-125017765D02*
X92678125Y-124827289D01*
X92678125Y-124827289D02*
X92820982Y-125017765D01*
X93440030Y-124589194D02*
X93440030Y-124827289D01*
X93201935Y-124732051D02*
X93440030Y-124827289D01*
X93440030Y-124827289D02*
X93678125Y-124732051D01*
X93297173Y-125017765D02*
X93440030Y-124827289D01*
X93440030Y-124827289D02*
X93582887Y-125017765D01*
X85320535Y-108611069D02*
X85320535Y-107611069D01*
X85320535Y-107611069D02*
X85653868Y-108325354D01*
X85653868Y-108325354D02*
X85987201Y-107611069D01*
X85987201Y-107611069D02*
X85987201Y-108611069D01*
X86415773Y-107706307D02*
X86463392Y-107658688D01*
X86463392Y-107658688D02*
X86558630Y-107611069D01*
X86558630Y-107611069D02*
X86796725Y-107611069D01*
X86796725Y-107611069D02*
X86891963Y-107658688D01*
X86891963Y-107658688D02*
X86939582Y-107706307D01*
X86939582Y-107706307D02*
X86987201Y-107801545D01*
X86987201Y-107801545D02*
X86987201Y-107896783D01*
X86987201Y-107896783D02*
X86939582Y-108039640D01*
X86939582Y-108039640D02*
X86368154Y-108611069D01*
X86368154Y-108611069D02*
X86987201Y-108611069D01*
X87177678Y-108706307D02*
X87939582Y-108706307D01*
X88177678Y-108611069D02*
X88177678Y-107611069D01*
X88606249Y-108611069D02*
X88606249Y-108087259D01*
X88606249Y-108087259D02*
X88558630Y-107992021D01*
X88558630Y-107992021D02*
X88463392Y-107944402D01*
X88463392Y-107944402D02*
X88320535Y-107944402D01*
X88320535Y-107944402D02*
X88225297Y-107992021D01*
X88225297Y-107992021D02*
X88177678Y-108039640D01*
X89225297Y-108611069D02*
X89130059Y-108563450D01*
X89130059Y-108563450D02*
X89082440Y-108515830D01*
X89082440Y-108515830D02*
X89034821Y-108420592D01*
X89034821Y-108420592D02*
X89034821Y-108134878D01*
X89034821Y-108134878D02*
X89082440Y-108039640D01*
X89082440Y-108039640D02*
X89130059Y-107992021D01*
X89130059Y-107992021D02*
X89225297Y-107944402D01*
X89225297Y-107944402D02*
X89368154Y-107944402D01*
X89368154Y-107944402D02*
X89463392Y-107992021D01*
X89463392Y-107992021D02*
X89511011Y-108039640D01*
X89511011Y-108039640D02*
X89558630Y-108134878D01*
X89558630Y-108134878D02*
X89558630Y-108420592D01*
X89558630Y-108420592D02*
X89511011Y-108515830D01*
X89511011Y-108515830D02*
X89463392Y-108563450D01*
X89463392Y-108563450D02*
X89368154Y-108611069D01*
X89368154Y-108611069D02*
X89225297Y-108611069D01*
X90130059Y-108611069D02*
X90034821Y-108563450D01*
X90034821Y-108563450D02*
X89987202Y-108468211D01*
X89987202Y-108468211D02*
X89987202Y-107611069D01*
X90891964Y-108563450D02*
X90796726Y-108611069D01*
X90796726Y-108611069D02*
X90606250Y-108611069D01*
X90606250Y-108611069D02*
X90511012Y-108563450D01*
X90511012Y-108563450D02*
X90463393Y-108468211D01*
X90463393Y-108468211D02*
X90463393Y-108087259D01*
X90463393Y-108087259D02*
X90511012Y-107992021D01*
X90511012Y-107992021D02*
X90606250Y-107944402D01*
X90606250Y-107944402D02*
X90796726Y-107944402D01*
X90796726Y-107944402D02*
X90891964Y-107992021D01*
X90891964Y-107992021D02*
X90939583Y-108087259D01*
X90939583Y-108087259D02*
X90939583Y-108182497D01*
X90939583Y-108182497D02*
X90463393Y-108277735D01*
X86772916Y-110111069D02*
X86439583Y-109634878D01*
X86201488Y-110111069D02*
X86201488Y-109111069D01*
X86201488Y-109111069D02*
X86582440Y-109111069D01*
X86582440Y-109111069D02*
X86677678Y-109158688D01*
X86677678Y-109158688D02*
X86725297Y-109206307D01*
X86725297Y-109206307D02*
X86772916Y-109301545D01*
X86772916Y-109301545D02*
X86772916Y-109444402D01*
X86772916Y-109444402D02*
X86725297Y-109539640D01*
X86725297Y-109539640D02*
X86677678Y-109587259D01*
X86677678Y-109587259D02*
X86582440Y-109634878D01*
X86582440Y-109634878D02*
X86201488Y-109634878D01*
X87201488Y-109587259D02*
X87534821Y-109587259D01*
X87677678Y-110111069D02*
X87201488Y-110111069D01*
X87201488Y-110111069D02*
X87201488Y-109111069D01*
X87201488Y-109111069D02*
X87677678Y-109111069D01*
X88439583Y-109587259D02*
X88106250Y-109587259D01*
X88106250Y-110111069D02*
X88106250Y-109111069D01*
X88106250Y-109111069D02*
X88582440Y-109111069D01*
X89106250Y-109111069D02*
X89106250Y-109349164D01*
X88868155Y-109253926D02*
X89106250Y-109349164D01*
X89106250Y-109349164D02*
X89344345Y-109253926D01*
X88963393Y-109539640D02*
X89106250Y-109349164D01*
X89106250Y-109349164D02*
X89249107Y-109539640D01*
X89868155Y-109111069D02*
X89868155Y-109349164D01*
X89630060Y-109253926D02*
X89868155Y-109349164D01*
X89868155Y-109349164D02*
X90106250Y-109253926D01*
X89725298Y-109539640D02*
X89868155Y-109349164D01*
X89868155Y-109349164D02*
X90011012Y-109539640D01*
X145694920Y-101672904D02*
X145933015Y-101260511D01*
X145894737Y-101898240D02*
X145195378Y-101109565D01*
X145195378Y-101109565D02*
X146228070Y-101320890D01*
X146031672Y-100327727D02*
X146609023Y-100661061D01*
X145817387Y-100698881D02*
X146271019Y-100960786D01*
X146271019Y-100960786D02*
X146377307Y-100967166D01*
X146377307Y-100967166D02*
X146466166Y-100908496D01*
X146466166Y-100908496D02*
X146537594Y-100784779D01*
X146537594Y-100784779D02*
X146543974Y-100678490D01*
X146543974Y-100678490D02*
X146526544Y-100613442D01*
X147061404Y-99877514D02*
X146195378Y-99377514D01*
X147020164Y-99853704D02*
X147013785Y-99959992D01*
X147013785Y-99959992D02*
X146918547Y-100124950D01*
X146918547Y-100124950D02*
X146829688Y-100183619D01*
X146829688Y-100183619D02*
X146764639Y-100201048D01*
X146764639Y-100201048D02*
X146658351Y-100194669D01*
X146658351Y-100194669D02*
X146410915Y-100051812D01*
X146410915Y-100051812D02*
X146352246Y-99962953D01*
X146352246Y-99962953D02*
X146334817Y-99897904D01*
X146334817Y-99897904D02*
X146341196Y-99791616D01*
X146341196Y-99791616D02*
X146436434Y-99626659D01*
X146436434Y-99626659D02*
X146525293Y-99567990D01*
X147299499Y-99465121D02*
X146722149Y-99131787D01*
X146433474Y-98965121D02*
X146450903Y-99030169D01*
X146450903Y-99030169D02*
X146515952Y-99012740D01*
X146515952Y-99012740D02*
X146498522Y-98947691D01*
X146498522Y-98947691D02*
X146433474Y-98965121D01*
X146433474Y-98965121D02*
X146515952Y-99012740D01*
X147609023Y-98929010D02*
X147520164Y-98987679D01*
X147520164Y-98987679D02*
X147455115Y-99005109D01*
X147455115Y-99005109D02*
X147348827Y-98998729D01*
X147348827Y-98998729D02*
X147101391Y-98855872D01*
X147101391Y-98855872D02*
X147042722Y-98767014D01*
X147042722Y-98767014D02*
X147025293Y-98701965D01*
X147025293Y-98701965D02*
X147031672Y-98595677D01*
X147031672Y-98595677D02*
X147103101Y-98471959D01*
X147103101Y-98471959D02*
X147191959Y-98413290D01*
X147191959Y-98413290D02*
X147257008Y-98395860D01*
X147257008Y-98395860D02*
X147363296Y-98402240D01*
X147363296Y-98402240D02*
X147610732Y-98545097D01*
X147610732Y-98545097D02*
X147669401Y-98633955D01*
X147669401Y-98633955D02*
X147686831Y-98699004D01*
X147686831Y-98699004D02*
X147680451Y-98805292D01*
X147680451Y-98805292D02*
X147609023Y-98929010D01*
X147266807Y-97521745D02*
X147885396Y-97878888D01*
X147885396Y-97878888D02*
X147985305Y-97991556D01*
X147985305Y-97991556D02*
X148020164Y-98121654D01*
X148020164Y-98121654D02*
X147989975Y-98269181D01*
X147989975Y-98269181D02*
X147942356Y-98351660D01*
X148585213Y-97238198D02*
X148131581Y-96976293D01*
X148131581Y-96976293D02*
X148025293Y-96969914D01*
X148025293Y-96969914D02*
X147936434Y-97028583D01*
X147936434Y-97028583D02*
X147841196Y-97193540D01*
X147841196Y-97193540D02*
X147834817Y-97299828D01*
X148543974Y-97214389D02*
X148537594Y-97320677D01*
X148537594Y-97320677D02*
X148418547Y-97526873D01*
X148418547Y-97526873D02*
X148329688Y-97585542D01*
X148329688Y-97585542D02*
X148223400Y-97579163D01*
X148223400Y-97579163D02*
X148140921Y-97531544D01*
X148140921Y-97531544D02*
X148082252Y-97442685D01*
X148082252Y-97442685D02*
X148088632Y-97336397D01*
X148088632Y-97336397D02*
X148207680Y-97130201D01*
X148207680Y-97130201D02*
X148214059Y-97023913D01*
X148996355Y-96430842D02*
X148989975Y-96537130D01*
X148989975Y-96537130D02*
X148894737Y-96702087D01*
X148894737Y-96702087D02*
X148805879Y-96760756D01*
X148805879Y-96760756D02*
X148740830Y-96778186D01*
X148740830Y-96778186D02*
X148634542Y-96771806D01*
X148634542Y-96771806D02*
X148387106Y-96628949D01*
X148387106Y-96628949D02*
X148328437Y-96540091D01*
X148328437Y-96540091D02*
X148311007Y-96475042D01*
X148311007Y-96475042D02*
X148317387Y-96368754D01*
X148317387Y-96368754D02*
X148412625Y-96203797D01*
X148412625Y-96203797D02*
X148501483Y-96145128D01*
X149251880Y-96083498D02*
X148385855Y-95583498D01*
X148969585Y-95810543D02*
X149442356Y-95753583D01*
X148865006Y-95420250D02*
X149004444Y-95940640D01*
X149293577Y-94677942D02*
X149870928Y-95011275D01*
X148844615Y-94693662D02*
X149344157Y-95257002D01*
X149344157Y-95257002D02*
X149653681Y-94720891D01*
X152982019Y-100322704D02*
X153600609Y-100679847D01*
X153600609Y-100679847D02*
X153700517Y-100792515D01*
X153700517Y-100792515D02*
X153735377Y-100922613D01*
X153735377Y-100922613D02*
X153705187Y-101070140D01*
X153705187Y-101070140D02*
X153657568Y-101152619D01*
X154348045Y-99956679D02*
X154062330Y-100451550D01*
X154205188Y-100204115D02*
X153339162Y-99704115D01*
X153339162Y-99704115D02*
X153415261Y-99858022D01*
X153415261Y-99858022D02*
X153450121Y-99988119D01*
X153450121Y-99988119D02*
X153443741Y-100094407D01*
X123420535Y-35982944D02*
X123420535Y-34982944D01*
X123420535Y-34982944D02*
X123753868Y-35697229D01*
X123753868Y-35697229D02*
X124087201Y-34982944D01*
X124087201Y-34982944D02*
X124087201Y-35982944D01*
X124515773Y-35078182D02*
X124563392Y-35030563D01*
X124563392Y-35030563D02*
X124658630Y-34982944D01*
X124658630Y-34982944D02*
X124896725Y-34982944D01*
X124896725Y-34982944D02*
X124991963Y-35030563D01*
X124991963Y-35030563D02*
X125039582Y-35078182D01*
X125039582Y-35078182D02*
X125087201Y-35173420D01*
X125087201Y-35173420D02*
X125087201Y-35268658D01*
X125087201Y-35268658D02*
X125039582Y-35411515D01*
X125039582Y-35411515D02*
X124468154Y-35982944D01*
X124468154Y-35982944D02*
X125087201Y-35982944D01*
X125277678Y-36078182D02*
X126039582Y-36078182D01*
X126277678Y-35982944D02*
X126277678Y-34982944D01*
X126706249Y-35982944D02*
X126706249Y-35459134D01*
X126706249Y-35459134D02*
X126658630Y-35363896D01*
X126658630Y-35363896D02*
X126563392Y-35316277D01*
X126563392Y-35316277D02*
X126420535Y-35316277D01*
X126420535Y-35316277D02*
X126325297Y-35363896D01*
X126325297Y-35363896D02*
X126277678Y-35411515D01*
X127325297Y-35982944D02*
X127230059Y-35935325D01*
X127230059Y-35935325D02*
X127182440Y-35887705D01*
X127182440Y-35887705D02*
X127134821Y-35792467D01*
X127134821Y-35792467D02*
X127134821Y-35506753D01*
X127134821Y-35506753D02*
X127182440Y-35411515D01*
X127182440Y-35411515D02*
X127230059Y-35363896D01*
X127230059Y-35363896D02*
X127325297Y-35316277D01*
X127325297Y-35316277D02*
X127468154Y-35316277D01*
X127468154Y-35316277D02*
X127563392Y-35363896D01*
X127563392Y-35363896D02*
X127611011Y-35411515D01*
X127611011Y-35411515D02*
X127658630Y-35506753D01*
X127658630Y-35506753D02*
X127658630Y-35792467D01*
X127658630Y-35792467D02*
X127611011Y-35887705D01*
X127611011Y-35887705D02*
X127563392Y-35935325D01*
X127563392Y-35935325D02*
X127468154Y-35982944D01*
X127468154Y-35982944D02*
X127325297Y-35982944D01*
X128230059Y-35982944D02*
X128134821Y-35935325D01*
X128134821Y-35935325D02*
X128087202Y-35840086D01*
X128087202Y-35840086D02*
X128087202Y-34982944D01*
X128991964Y-35935325D02*
X128896726Y-35982944D01*
X128896726Y-35982944D02*
X128706250Y-35982944D01*
X128706250Y-35982944D02*
X128611012Y-35935325D01*
X128611012Y-35935325D02*
X128563393Y-35840086D01*
X128563393Y-35840086D02*
X128563393Y-35459134D01*
X128563393Y-35459134D02*
X128611012Y-35363896D01*
X128611012Y-35363896D02*
X128706250Y-35316277D01*
X128706250Y-35316277D02*
X128896726Y-35316277D01*
X128896726Y-35316277D02*
X128991964Y-35363896D01*
X128991964Y-35363896D02*
X129039583Y-35459134D01*
X129039583Y-35459134D02*
X129039583Y-35554372D01*
X129039583Y-35554372D02*
X128563393Y-35649610D01*
X124872916Y-37482944D02*
X124539583Y-37006753D01*
X124301488Y-37482944D02*
X124301488Y-36482944D01*
X124301488Y-36482944D02*
X124682440Y-36482944D01*
X124682440Y-36482944D02*
X124777678Y-36530563D01*
X124777678Y-36530563D02*
X124825297Y-36578182D01*
X124825297Y-36578182D02*
X124872916Y-36673420D01*
X124872916Y-36673420D02*
X124872916Y-36816277D01*
X124872916Y-36816277D02*
X124825297Y-36911515D01*
X124825297Y-36911515D02*
X124777678Y-36959134D01*
X124777678Y-36959134D02*
X124682440Y-37006753D01*
X124682440Y-37006753D02*
X124301488Y-37006753D01*
X125301488Y-36959134D02*
X125634821Y-36959134D01*
X125777678Y-37482944D02*
X125301488Y-37482944D01*
X125301488Y-37482944D02*
X125301488Y-36482944D01*
X125301488Y-36482944D02*
X125777678Y-36482944D01*
X126539583Y-36959134D02*
X126206250Y-36959134D01*
X126206250Y-37482944D02*
X126206250Y-36482944D01*
X126206250Y-36482944D02*
X126682440Y-36482944D01*
X127206250Y-36482944D02*
X127206250Y-36721039D01*
X126968155Y-36625801D02*
X127206250Y-36721039D01*
X127206250Y-36721039D02*
X127444345Y-36625801D01*
X127063393Y-36911515D02*
X127206250Y-36721039D01*
X127206250Y-36721039D02*
X127349107Y-36911515D01*
X127968155Y-36482944D02*
X127968155Y-36721039D01*
X127730060Y-36625801D02*
X127968155Y-36721039D01*
X127968155Y-36721039D02*
X128206250Y-36625801D01*
X127825298Y-36911515D02*
X127968155Y-36721039D01*
X127968155Y-36721039D02*
X128111012Y-36911515D01*
X140089285Y-90751694D02*
X140089285Y-89751694D01*
X140089285Y-89751694D02*
X140422618Y-90465979D01*
X140422618Y-90465979D02*
X140755951Y-89751694D01*
X140755951Y-89751694D02*
X140755951Y-90751694D01*
X141184523Y-89846932D02*
X141232142Y-89799313D01*
X141232142Y-89799313D02*
X141327380Y-89751694D01*
X141327380Y-89751694D02*
X141565475Y-89751694D01*
X141565475Y-89751694D02*
X141660713Y-89799313D01*
X141660713Y-89799313D02*
X141708332Y-89846932D01*
X141708332Y-89846932D02*
X141755951Y-89942170D01*
X141755951Y-89942170D02*
X141755951Y-90037408D01*
X141755951Y-90037408D02*
X141708332Y-90180265D01*
X141708332Y-90180265D02*
X141136904Y-90751694D01*
X141136904Y-90751694D02*
X141755951Y-90751694D01*
X141946428Y-90846932D02*
X142708332Y-90846932D01*
X142946428Y-90751694D02*
X142946428Y-89751694D01*
X143374999Y-90751694D02*
X143374999Y-90227884D01*
X143374999Y-90227884D02*
X143327380Y-90132646D01*
X143327380Y-90132646D02*
X143232142Y-90085027D01*
X143232142Y-90085027D02*
X143089285Y-90085027D01*
X143089285Y-90085027D02*
X142994047Y-90132646D01*
X142994047Y-90132646D02*
X142946428Y-90180265D01*
X143994047Y-90751694D02*
X143898809Y-90704075D01*
X143898809Y-90704075D02*
X143851190Y-90656455D01*
X143851190Y-90656455D02*
X143803571Y-90561217D01*
X143803571Y-90561217D02*
X143803571Y-90275503D01*
X143803571Y-90275503D02*
X143851190Y-90180265D01*
X143851190Y-90180265D02*
X143898809Y-90132646D01*
X143898809Y-90132646D02*
X143994047Y-90085027D01*
X143994047Y-90085027D02*
X144136904Y-90085027D01*
X144136904Y-90085027D02*
X144232142Y-90132646D01*
X144232142Y-90132646D02*
X144279761Y-90180265D01*
X144279761Y-90180265D02*
X144327380Y-90275503D01*
X144327380Y-90275503D02*
X144327380Y-90561217D01*
X144327380Y-90561217D02*
X144279761Y-90656455D01*
X144279761Y-90656455D02*
X144232142Y-90704075D01*
X144232142Y-90704075D02*
X144136904Y-90751694D01*
X144136904Y-90751694D02*
X143994047Y-90751694D01*
X144898809Y-90751694D02*
X144803571Y-90704075D01*
X144803571Y-90704075D02*
X144755952Y-90608836D01*
X144755952Y-90608836D02*
X144755952Y-89751694D01*
X145660714Y-90704075D02*
X145565476Y-90751694D01*
X145565476Y-90751694D02*
X145375000Y-90751694D01*
X145375000Y-90751694D02*
X145279762Y-90704075D01*
X145279762Y-90704075D02*
X145232143Y-90608836D01*
X145232143Y-90608836D02*
X145232143Y-90227884D01*
X145232143Y-90227884D02*
X145279762Y-90132646D01*
X145279762Y-90132646D02*
X145375000Y-90085027D01*
X145375000Y-90085027D02*
X145565476Y-90085027D01*
X145565476Y-90085027D02*
X145660714Y-90132646D01*
X145660714Y-90132646D02*
X145708333Y-90227884D01*
X145708333Y-90227884D02*
X145708333Y-90323122D01*
X145708333Y-90323122D02*
X145232143Y-90418360D01*
X141541666Y-92251694D02*
X141208333Y-91775503D01*
X140970238Y-92251694D02*
X140970238Y-91251694D01*
X140970238Y-91251694D02*
X141351190Y-91251694D01*
X141351190Y-91251694D02*
X141446428Y-91299313D01*
X141446428Y-91299313D02*
X141494047Y-91346932D01*
X141494047Y-91346932D02*
X141541666Y-91442170D01*
X141541666Y-91442170D02*
X141541666Y-91585027D01*
X141541666Y-91585027D02*
X141494047Y-91680265D01*
X141494047Y-91680265D02*
X141446428Y-91727884D01*
X141446428Y-91727884D02*
X141351190Y-91775503D01*
X141351190Y-91775503D02*
X140970238Y-91775503D01*
X141970238Y-91727884D02*
X142303571Y-91727884D01*
X142446428Y-92251694D02*
X141970238Y-92251694D01*
X141970238Y-92251694D02*
X141970238Y-91251694D01*
X141970238Y-91251694D02*
X142446428Y-91251694D01*
X143208333Y-91727884D02*
X142875000Y-91727884D01*
X142875000Y-92251694D02*
X142875000Y-91251694D01*
X142875000Y-91251694D02*
X143351190Y-91251694D01*
X143875000Y-91251694D02*
X143875000Y-91489789D01*
X143636905Y-91394551D02*
X143875000Y-91489789D01*
X143875000Y-91489789D02*
X144113095Y-91394551D01*
X143732143Y-91680265D02*
X143875000Y-91489789D01*
X143875000Y-91489789D02*
X144017857Y-91680265D01*
X144636905Y-91251694D02*
X144636905Y-91489789D01*
X144398810Y-91394551D02*
X144636905Y-91489789D01*
X144636905Y-91489789D02*
X144875000Y-91394551D01*
X144494048Y-91680265D02*
X144636905Y-91489789D01*
X144636905Y-91489789D02*
X144779762Y-91680265D01*
X123420535Y-100276694D02*
X123420535Y-99276694D01*
X123420535Y-99276694D02*
X123753868Y-99990979D01*
X123753868Y-99990979D02*
X124087201Y-99276694D01*
X124087201Y-99276694D02*
X124087201Y-100276694D01*
X124515773Y-99371932D02*
X124563392Y-99324313D01*
X124563392Y-99324313D02*
X124658630Y-99276694D01*
X124658630Y-99276694D02*
X124896725Y-99276694D01*
X124896725Y-99276694D02*
X124991963Y-99324313D01*
X124991963Y-99324313D02*
X125039582Y-99371932D01*
X125039582Y-99371932D02*
X125087201Y-99467170D01*
X125087201Y-99467170D02*
X125087201Y-99562408D01*
X125087201Y-99562408D02*
X125039582Y-99705265D01*
X125039582Y-99705265D02*
X124468154Y-100276694D01*
X124468154Y-100276694D02*
X125087201Y-100276694D01*
X125277678Y-100371932D02*
X126039582Y-100371932D01*
X126277678Y-100276694D02*
X126277678Y-99276694D01*
X126706249Y-100276694D02*
X126706249Y-99752884D01*
X126706249Y-99752884D02*
X126658630Y-99657646D01*
X126658630Y-99657646D02*
X126563392Y-99610027D01*
X126563392Y-99610027D02*
X126420535Y-99610027D01*
X126420535Y-99610027D02*
X126325297Y-99657646D01*
X126325297Y-99657646D02*
X126277678Y-99705265D01*
X127325297Y-100276694D02*
X127230059Y-100229075D01*
X127230059Y-100229075D02*
X127182440Y-100181455D01*
X127182440Y-100181455D02*
X127134821Y-100086217D01*
X127134821Y-100086217D02*
X127134821Y-99800503D01*
X127134821Y-99800503D02*
X127182440Y-99705265D01*
X127182440Y-99705265D02*
X127230059Y-99657646D01*
X127230059Y-99657646D02*
X127325297Y-99610027D01*
X127325297Y-99610027D02*
X127468154Y-99610027D01*
X127468154Y-99610027D02*
X127563392Y-99657646D01*
X127563392Y-99657646D02*
X127611011Y-99705265D01*
X127611011Y-99705265D02*
X127658630Y-99800503D01*
X127658630Y-99800503D02*
X127658630Y-100086217D01*
X127658630Y-100086217D02*
X127611011Y-100181455D01*
X127611011Y-100181455D02*
X127563392Y-100229075D01*
X127563392Y-100229075D02*
X127468154Y-100276694D01*
X127468154Y-100276694D02*
X127325297Y-100276694D01*
X128230059Y-100276694D02*
X128134821Y-100229075D01*
X128134821Y-100229075D02*
X128087202Y-100133836D01*
X128087202Y-100133836D02*
X128087202Y-99276694D01*
X128991964Y-100229075D02*
X128896726Y-100276694D01*
X128896726Y-100276694D02*
X128706250Y-100276694D01*
X128706250Y-100276694D02*
X128611012Y-100229075D01*
X128611012Y-100229075D02*
X128563393Y-100133836D01*
X128563393Y-100133836D02*
X128563393Y-99752884D01*
X128563393Y-99752884D02*
X128611012Y-99657646D01*
X128611012Y-99657646D02*
X128706250Y-99610027D01*
X128706250Y-99610027D02*
X128896726Y-99610027D01*
X128896726Y-99610027D02*
X128991964Y-99657646D01*
X128991964Y-99657646D02*
X129039583Y-99752884D01*
X129039583Y-99752884D02*
X129039583Y-99848122D01*
X129039583Y-99848122D02*
X128563393Y-99943360D01*
X124872916Y-101776694D02*
X124539583Y-101300503D01*
X124301488Y-101776694D02*
X124301488Y-100776694D01*
X124301488Y-100776694D02*
X124682440Y-100776694D01*
X124682440Y-100776694D02*
X124777678Y-100824313D01*
X124777678Y-100824313D02*
X124825297Y-100871932D01*
X124825297Y-100871932D02*
X124872916Y-100967170D01*
X124872916Y-100967170D02*
X124872916Y-101110027D01*
X124872916Y-101110027D02*
X124825297Y-101205265D01*
X124825297Y-101205265D02*
X124777678Y-101252884D01*
X124777678Y-101252884D02*
X124682440Y-101300503D01*
X124682440Y-101300503D02*
X124301488Y-101300503D01*
X125301488Y-101252884D02*
X125634821Y-101252884D01*
X125777678Y-101776694D02*
X125301488Y-101776694D01*
X125301488Y-101776694D02*
X125301488Y-100776694D01*
X125301488Y-100776694D02*
X125777678Y-100776694D01*
X126539583Y-101252884D02*
X126206250Y-101252884D01*
X126206250Y-101776694D02*
X126206250Y-100776694D01*
X126206250Y-100776694D02*
X126682440Y-100776694D01*
X127206250Y-100776694D02*
X127206250Y-101014789D01*
X126968155Y-100919551D02*
X127206250Y-101014789D01*
X127206250Y-101014789D02*
X127444345Y-100919551D01*
X127063393Y-101205265D02*
X127206250Y-101014789D01*
X127206250Y-101014789D02*
X127349107Y-101205265D01*
X127968155Y-100776694D02*
X127968155Y-101014789D01*
X127730060Y-100919551D02*
X127968155Y-101014789D01*
X127968155Y-101014789D02*
X128206250Y-100919551D01*
X127825298Y-101205265D02*
X127968155Y-101014789D01*
X127968155Y-101014789D02*
X128111012Y-101205265D01*
X29361160Y-70511069D02*
X29361160Y-69511069D01*
X29361160Y-69511069D02*
X29694493Y-70225354D01*
X29694493Y-70225354D02*
X30027826Y-69511069D01*
X30027826Y-69511069D02*
X30027826Y-70511069D01*
X30456398Y-69606307D02*
X30504017Y-69558688D01*
X30504017Y-69558688D02*
X30599255Y-69511069D01*
X30599255Y-69511069D02*
X30837350Y-69511069D01*
X30837350Y-69511069D02*
X30932588Y-69558688D01*
X30932588Y-69558688D02*
X30980207Y-69606307D01*
X30980207Y-69606307D02*
X31027826Y-69701545D01*
X31027826Y-69701545D02*
X31027826Y-69796783D01*
X31027826Y-69796783D02*
X30980207Y-69939640D01*
X30980207Y-69939640D02*
X30408779Y-70511069D01*
X30408779Y-70511069D02*
X31027826Y-70511069D01*
X31218303Y-70606307D02*
X31980207Y-70606307D01*
X32218303Y-70511069D02*
X32218303Y-69511069D01*
X32646874Y-70511069D02*
X32646874Y-69987259D01*
X32646874Y-69987259D02*
X32599255Y-69892021D01*
X32599255Y-69892021D02*
X32504017Y-69844402D01*
X32504017Y-69844402D02*
X32361160Y-69844402D01*
X32361160Y-69844402D02*
X32265922Y-69892021D01*
X32265922Y-69892021D02*
X32218303Y-69939640D01*
X33265922Y-70511069D02*
X33170684Y-70463450D01*
X33170684Y-70463450D02*
X33123065Y-70415830D01*
X33123065Y-70415830D02*
X33075446Y-70320592D01*
X33075446Y-70320592D02*
X33075446Y-70034878D01*
X33075446Y-70034878D02*
X33123065Y-69939640D01*
X33123065Y-69939640D02*
X33170684Y-69892021D01*
X33170684Y-69892021D02*
X33265922Y-69844402D01*
X33265922Y-69844402D02*
X33408779Y-69844402D01*
X33408779Y-69844402D02*
X33504017Y-69892021D01*
X33504017Y-69892021D02*
X33551636Y-69939640D01*
X33551636Y-69939640D02*
X33599255Y-70034878D01*
X33599255Y-70034878D02*
X33599255Y-70320592D01*
X33599255Y-70320592D02*
X33551636Y-70415830D01*
X33551636Y-70415830D02*
X33504017Y-70463450D01*
X33504017Y-70463450D02*
X33408779Y-70511069D01*
X33408779Y-70511069D02*
X33265922Y-70511069D01*
X34170684Y-70511069D02*
X34075446Y-70463450D01*
X34075446Y-70463450D02*
X34027827Y-70368211D01*
X34027827Y-70368211D02*
X34027827Y-69511069D01*
X34932589Y-70463450D02*
X34837351Y-70511069D01*
X34837351Y-70511069D02*
X34646875Y-70511069D01*
X34646875Y-70511069D02*
X34551637Y-70463450D01*
X34551637Y-70463450D02*
X34504018Y-70368211D01*
X34504018Y-70368211D02*
X34504018Y-69987259D01*
X34504018Y-69987259D02*
X34551637Y-69892021D01*
X34551637Y-69892021D02*
X34646875Y-69844402D01*
X34646875Y-69844402D02*
X34837351Y-69844402D01*
X34837351Y-69844402D02*
X34932589Y-69892021D01*
X34932589Y-69892021D02*
X34980208Y-69987259D01*
X34980208Y-69987259D02*
X34980208Y-70082497D01*
X34980208Y-70082497D02*
X34504018Y-70177735D01*
X30813541Y-72011069D02*
X30480208Y-71534878D01*
X30242113Y-72011069D02*
X30242113Y-71011069D01*
X30242113Y-71011069D02*
X30623065Y-71011069D01*
X30623065Y-71011069D02*
X30718303Y-71058688D01*
X30718303Y-71058688D02*
X30765922Y-71106307D01*
X30765922Y-71106307D02*
X30813541Y-71201545D01*
X30813541Y-71201545D02*
X30813541Y-71344402D01*
X30813541Y-71344402D02*
X30765922Y-71439640D01*
X30765922Y-71439640D02*
X30718303Y-71487259D01*
X30718303Y-71487259D02*
X30623065Y-71534878D01*
X30623065Y-71534878D02*
X30242113Y-71534878D01*
X31242113Y-71487259D02*
X31575446Y-71487259D01*
X31718303Y-72011069D02*
X31242113Y-72011069D01*
X31242113Y-72011069D02*
X31242113Y-71011069D01*
X31242113Y-71011069D02*
X31718303Y-71011069D01*
X32480208Y-71487259D02*
X32146875Y-71487259D01*
X32146875Y-72011069D02*
X32146875Y-71011069D01*
X32146875Y-71011069D02*
X32623065Y-71011069D01*
X33146875Y-71011069D02*
X33146875Y-71249164D01*
X32908780Y-71153926D02*
X33146875Y-71249164D01*
X33146875Y-71249164D02*
X33384970Y-71153926D01*
X33004018Y-71439640D02*
X33146875Y-71249164D01*
X33146875Y-71249164D02*
X33289732Y-71439640D01*
X33908780Y-71011069D02*
X33908780Y-71249164D01*
X33670685Y-71153926D02*
X33908780Y-71249164D01*
X33908780Y-71249164D02*
X34146875Y-71153926D01*
X33765923Y-71439640D02*
X33908780Y-71249164D01*
X33908780Y-71249164D02*
X34051637Y-71439640D01*
X126992410Y-130042319D02*
X126992410Y-129042319D01*
X126992410Y-129042319D02*
X127325743Y-129756604D01*
X127325743Y-129756604D02*
X127659076Y-129042319D01*
X127659076Y-129042319D02*
X127659076Y-130042319D01*
X128087648Y-129137557D02*
X128135267Y-129089938D01*
X128135267Y-129089938D02*
X128230505Y-129042319D01*
X128230505Y-129042319D02*
X128468600Y-129042319D01*
X128468600Y-129042319D02*
X128563838Y-129089938D01*
X128563838Y-129089938D02*
X128611457Y-129137557D01*
X128611457Y-129137557D02*
X128659076Y-129232795D01*
X128659076Y-129232795D02*
X128659076Y-129328033D01*
X128659076Y-129328033D02*
X128611457Y-129470890D01*
X128611457Y-129470890D02*
X128040029Y-130042319D01*
X128040029Y-130042319D02*
X128659076Y-130042319D01*
X128849553Y-130137557D02*
X129611457Y-130137557D01*
X129849553Y-130042319D02*
X129849553Y-129042319D01*
X130278124Y-130042319D02*
X130278124Y-129518509D01*
X130278124Y-129518509D02*
X130230505Y-129423271D01*
X130230505Y-129423271D02*
X130135267Y-129375652D01*
X130135267Y-129375652D02*
X129992410Y-129375652D01*
X129992410Y-129375652D02*
X129897172Y-129423271D01*
X129897172Y-129423271D02*
X129849553Y-129470890D01*
X130897172Y-130042319D02*
X130801934Y-129994700D01*
X130801934Y-129994700D02*
X130754315Y-129947080D01*
X130754315Y-129947080D02*
X130706696Y-129851842D01*
X130706696Y-129851842D02*
X130706696Y-129566128D01*
X130706696Y-129566128D02*
X130754315Y-129470890D01*
X130754315Y-129470890D02*
X130801934Y-129423271D01*
X130801934Y-129423271D02*
X130897172Y-129375652D01*
X130897172Y-129375652D02*
X131040029Y-129375652D01*
X131040029Y-129375652D02*
X131135267Y-129423271D01*
X131135267Y-129423271D02*
X131182886Y-129470890D01*
X131182886Y-129470890D02*
X131230505Y-129566128D01*
X131230505Y-129566128D02*
X131230505Y-129851842D01*
X131230505Y-129851842D02*
X131182886Y-129947080D01*
X131182886Y-129947080D02*
X131135267Y-129994700D01*
X131135267Y-129994700D02*
X131040029Y-130042319D01*
X131040029Y-130042319D02*
X130897172Y-130042319D01*
X131801934Y-130042319D02*
X131706696Y-129994700D01*
X131706696Y-129994700D02*
X131659077Y-129899461D01*
X131659077Y-129899461D02*
X131659077Y-129042319D01*
X132563839Y-129994700D02*
X132468601Y-130042319D01*
X132468601Y-130042319D02*
X132278125Y-130042319D01*
X132278125Y-130042319D02*
X132182887Y-129994700D01*
X132182887Y-129994700D02*
X132135268Y-129899461D01*
X132135268Y-129899461D02*
X132135268Y-129518509D01*
X132135268Y-129518509D02*
X132182887Y-129423271D01*
X132182887Y-129423271D02*
X132278125Y-129375652D01*
X132278125Y-129375652D02*
X132468601Y-129375652D01*
X132468601Y-129375652D02*
X132563839Y-129423271D01*
X132563839Y-129423271D02*
X132611458Y-129518509D01*
X132611458Y-129518509D02*
X132611458Y-129613747D01*
X132611458Y-129613747D02*
X132135268Y-129708985D01*
X128444791Y-131542319D02*
X128111458Y-131066128D01*
X127873363Y-131542319D02*
X127873363Y-130542319D01*
X127873363Y-130542319D02*
X128254315Y-130542319D01*
X128254315Y-130542319D02*
X128349553Y-130589938D01*
X128349553Y-130589938D02*
X128397172Y-130637557D01*
X128397172Y-130637557D02*
X128444791Y-130732795D01*
X128444791Y-130732795D02*
X128444791Y-130875652D01*
X128444791Y-130875652D02*
X128397172Y-130970890D01*
X128397172Y-130970890D02*
X128349553Y-131018509D01*
X128349553Y-131018509D02*
X128254315Y-131066128D01*
X128254315Y-131066128D02*
X127873363Y-131066128D01*
X128873363Y-131018509D02*
X129206696Y-131018509D01*
X129349553Y-131542319D02*
X128873363Y-131542319D01*
X128873363Y-131542319D02*
X128873363Y-130542319D01*
X128873363Y-130542319D02*
X129349553Y-130542319D01*
X130111458Y-131018509D02*
X129778125Y-131018509D01*
X129778125Y-131542319D02*
X129778125Y-130542319D01*
X129778125Y-130542319D02*
X130254315Y-130542319D01*
X130778125Y-130542319D02*
X130778125Y-130780414D01*
X130540030Y-130685176D02*
X130778125Y-130780414D01*
X130778125Y-130780414D02*
X131016220Y-130685176D01*
X130635268Y-130970890D02*
X130778125Y-130780414D01*
X130778125Y-130780414D02*
X130920982Y-130970890D01*
X131540030Y-130542319D02*
X131540030Y-130780414D01*
X131301935Y-130685176D02*
X131540030Y-130780414D01*
X131540030Y-130780414D02*
X131778125Y-130685176D01*
X131397173Y-130970890D02*
X131540030Y-130780414D01*
X131540030Y-130780414D02*
X131682887Y-130970890D01*
X29361160Y-33601694D02*
X29361160Y-32601694D01*
X29361160Y-32601694D02*
X29694493Y-33315979D01*
X29694493Y-33315979D02*
X30027826Y-32601694D01*
X30027826Y-32601694D02*
X30027826Y-33601694D01*
X30456398Y-32696932D02*
X30504017Y-32649313D01*
X30504017Y-32649313D02*
X30599255Y-32601694D01*
X30599255Y-32601694D02*
X30837350Y-32601694D01*
X30837350Y-32601694D02*
X30932588Y-32649313D01*
X30932588Y-32649313D02*
X30980207Y-32696932D01*
X30980207Y-32696932D02*
X31027826Y-32792170D01*
X31027826Y-32792170D02*
X31027826Y-32887408D01*
X31027826Y-32887408D02*
X30980207Y-33030265D01*
X30980207Y-33030265D02*
X30408779Y-33601694D01*
X30408779Y-33601694D02*
X31027826Y-33601694D01*
X31218303Y-33696932D02*
X31980207Y-33696932D01*
X32218303Y-33601694D02*
X32218303Y-32601694D01*
X32646874Y-33601694D02*
X32646874Y-33077884D01*
X32646874Y-33077884D02*
X32599255Y-32982646D01*
X32599255Y-32982646D02*
X32504017Y-32935027D01*
X32504017Y-32935027D02*
X32361160Y-32935027D01*
X32361160Y-32935027D02*
X32265922Y-32982646D01*
X32265922Y-32982646D02*
X32218303Y-33030265D01*
X33265922Y-33601694D02*
X33170684Y-33554075D01*
X33170684Y-33554075D02*
X33123065Y-33506455D01*
X33123065Y-33506455D02*
X33075446Y-33411217D01*
X33075446Y-33411217D02*
X33075446Y-33125503D01*
X33075446Y-33125503D02*
X33123065Y-33030265D01*
X33123065Y-33030265D02*
X33170684Y-32982646D01*
X33170684Y-32982646D02*
X33265922Y-32935027D01*
X33265922Y-32935027D02*
X33408779Y-32935027D01*
X33408779Y-32935027D02*
X33504017Y-32982646D01*
X33504017Y-32982646D02*
X33551636Y-33030265D01*
X33551636Y-33030265D02*
X33599255Y-33125503D01*
X33599255Y-33125503D02*
X33599255Y-33411217D01*
X33599255Y-33411217D02*
X33551636Y-33506455D01*
X33551636Y-33506455D02*
X33504017Y-33554075D01*
X33504017Y-33554075D02*
X33408779Y-33601694D01*
X33408779Y-33601694D02*
X33265922Y-33601694D01*
X34170684Y-33601694D02*
X34075446Y-33554075D01*
X34075446Y-33554075D02*
X34027827Y-33458836D01*
X34027827Y-33458836D02*
X34027827Y-32601694D01*
X34932589Y-33554075D02*
X34837351Y-33601694D01*
X34837351Y-33601694D02*
X34646875Y-33601694D01*
X34646875Y-33601694D02*
X34551637Y-33554075D01*
X34551637Y-33554075D02*
X34504018Y-33458836D01*
X34504018Y-33458836D02*
X34504018Y-33077884D01*
X34504018Y-33077884D02*
X34551637Y-32982646D01*
X34551637Y-32982646D02*
X34646875Y-32935027D01*
X34646875Y-32935027D02*
X34837351Y-32935027D01*
X34837351Y-32935027D02*
X34932589Y-32982646D01*
X34932589Y-32982646D02*
X34980208Y-33077884D01*
X34980208Y-33077884D02*
X34980208Y-33173122D01*
X34980208Y-33173122D02*
X34504018Y-33268360D01*
X30813541Y-35101694D02*
X30480208Y-34625503D01*
X30242113Y-35101694D02*
X30242113Y-34101694D01*
X30242113Y-34101694D02*
X30623065Y-34101694D01*
X30623065Y-34101694D02*
X30718303Y-34149313D01*
X30718303Y-34149313D02*
X30765922Y-34196932D01*
X30765922Y-34196932D02*
X30813541Y-34292170D01*
X30813541Y-34292170D02*
X30813541Y-34435027D01*
X30813541Y-34435027D02*
X30765922Y-34530265D01*
X30765922Y-34530265D02*
X30718303Y-34577884D01*
X30718303Y-34577884D02*
X30623065Y-34625503D01*
X30623065Y-34625503D02*
X30242113Y-34625503D01*
X31242113Y-34577884D02*
X31575446Y-34577884D01*
X31718303Y-35101694D02*
X31242113Y-35101694D01*
X31242113Y-35101694D02*
X31242113Y-34101694D01*
X31242113Y-34101694D02*
X31718303Y-34101694D01*
X32480208Y-34577884D02*
X32146875Y-34577884D01*
X32146875Y-35101694D02*
X32146875Y-34101694D01*
X32146875Y-34101694D02*
X32623065Y-34101694D01*
X33146875Y-34101694D02*
X33146875Y-34339789D01*
X32908780Y-34244551D02*
X33146875Y-34339789D01*
X33146875Y-34339789D02*
X33384970Y-34244551D01*
X33004018Y-34530265D02*
X33146875Y-34339789D01*
X33146875Y-34339789D02*
X33289732Y-34530265D01*
X33908780Y-34101694D02*
X33908780Y-34339789D01*
X33670685Y-34244551D02*
X33908780Y-34339789D01*
X33908780Y-34339789D02*
X34146875Y-34244551D01*
X33765923Y-34530265D02*
X33908780Y-34339789D01*
X33908780Y-34339789D02*
X34051637Y-34530265D01*
D11*
G04 #@! TO.C,J1*
X147724354Y-104719610D02*
X153624353Y-94500513D01*
X152747304Y-107619613D02*
X147724354Y-104719610D01*
X153624353Y-94500513D02*
X154143971Y-94800514D01*
X154143971Y-94800514D02*
X155143968Y-93068463D01*
X155143968Y-93068463D02*
X159127686Y-95368464D01*
X158127686Y-97100513D02*
X158647302Y-97400510D01*
X158647302Y-97400510D02*
X152747304Y-107619613D01*
X159127686Y-95368464D02*
X158127686Y-97100513D01*
D12*
X153363441Y-105894022D02*
G75*
G02*
X152853537Y-105894022I-254952J0D01*
G01*
X152853537Y-105894022D02*
G75*
G02*
X153363441Y-105894022I254952J0D01*
G01*
G04 #@! TD*
M02*
