G04 #@! TF.GenerationSoftware,KiCad,Pcbnew,8.0.4*
G04 #@! TF.CreationDate,2024-09-10T03:21:52+03:00*
G04 #@! TF.ProjectId,silakka54,73696c61-6b6b-4613-9534-2e6b69636164,rev?*
G04 #@! TF.SameCoordinates,Original*
G04 #@! TF.FileFunction,Profile,NP*
%FSLAX46Y46*%
G04 Gerber Fmt 4.6, Leading zero omitted, Abs format (unit mm)*
G04 Created by KiCad (PCBNEW 8.0.4) date 2024-09-10 03:21:52*
%MOMM*%
%LPD*%
G01*
G04 APERTURE LIST*
G04 #@! TA.AperFunction,Profile*
%ADD10C,0.050000*%
G04 #@! TD*
G04 #@! TA.AperFunction,Profile*
%ADD11C,0.100000*%
G04 #@! TD*
G04 APERTURE END LIST*
D10*
X109537500Y-26193750D02*
X130968750Y-26193750D01*
X133350000Y-28575000D01*
X145256250Y-28575000D01*
X146446875Y-30956250D01*
X165496875Y-30956250D01*
X166687500Y-32146875D01*
X166687500Y-55959375D01*
X165496875Y-57150000D01*
X148828125Y-57150000D01*
X148200000Y-57800000D01*
X148200000Y-91000000D01*
X149400000Y-92200000D01*
X154400000Y-92200000D01*
X159600000Y-95200000D01*
X159543750Y-117871875D01*
X157162500Y-119062500D01*
X146446875Y-138112500D01*
X145256250Y-139303125D01*
X142875000Y-139303125D01*
X126206250Y-129778125D01*
X125015625Y-129778125D01*
X120253125Y-129778125D01*
X107156250Y-126206250D01*
X89296875Y-126206250D01*
X88106250Y-125015625D01*
X88106250Y-111918750D01*
X86915625Y-110728125D01*
X80962500Y-110728125D01*
X77390625Y-108346875D01*
X67865625Y-108346875D01*
X65484375Y-110728125D01*
X32146875Y-110728125D01*
X28575000Y-107156250D01*
X28575000Y-32146875D01*
X32146875Y-28575000D01*
X66675000Y-28575000D01*
X67865625Y-27384375D01*
X76200000Y-27384375D01*
X78581250Y-25003125D01*
X108346875Y-25003125D01*
X109537500Y-26193750D01*
D11*
G04 #@! TO.C,REF\u002A\u002A*
X33146875Y-105965625D02*
G75*
G02*
X31146875Y-105965625I-1000000J0D01*
G01*
X31146875Y-105965625D02*
G75*
G02*
X33146875Y-105965625I1000000J0D01*
G01*
X89106250Y-69056250D02*
G75*
G02*
X87106250Y-69056250I-1000000J0D01*
G01*
X87106250Y-69056250D02*
G75*
G02*
X89106250Y-69056250I1000000J0D01*
G01*
X92678125Y-122634375D02*
G75*
G02*
X90678125Y-122634375I-1000000J0D01*
G01*
X90678125Y-122634375D02*
G75*
G02*
X92678125Y-122634375I1000000J0D01*
G01*
X89106250Y-107156250D02*
G75*
G02*
X87106250Y-107156250I-1000000J0D01*
G01*
X87106250Y-107156250D02*
G75*
G02*
X89106250Y-107156250I1000000J0D01*
G01*
X127206250Y-34528125D02*
G75*
G02*
X125206250Y-34528125I-1000000J0D01*
G01*
X125206250Y-34528125D02*
G75*
G02*
X127206250Y-34528125I1000000J0D01*
G01*
X143875000Y-89296875D02*
G75*
G02*
X141875000Y-89296875I-1000000J0D01*
G01*
X141875000Y-89296875D02*
G75*
G02*
X143875000Y-89296875I1000000J0D01*
G01*
X127206250Y-98821875D02*
G75*
G02*
X125206250Y-98821875I-1000000J0D01*
G01*
X125206250Y-98821875D02*
G75*
G02*
X127206250Y-98821875I1000000J0D01*
G01*
X33146875Y-69056250D02*
G75*
G02*
X31146875Y-69056250I-1000000J0D01*
G01*
X31146875Y-69056250D02*
G75*
G02*
X33146875Y-69056250I1000000J0D01*
G01*
X130778125Y-128587500D02*
G75*
G02*
X128778125Y-128587500I-1000000J0D01*
G01*
X128778125Y-128587500D02*
G75*
G02*
X130778125Y-128587500I1000000J0D01*
G01*
X33146875Y-32146875D02*
G75*
G02*
X31146875Y-32146875I-1000000J0D01*
G01*
X31146875Y-32146875D02*
G75*
G02*
X33146875Y-32146875I1000000J0D01*
G01*
G04 #@! TD*
M02*
