G04 #@! TF.GenerationSoftware,KiCad,Pcbnew,8.0.4*
G04 #@! TF.CreationDate,2024-09-10T03:21:52+03:00*
G04 #@! TF.ProjectId,silakka54,73696c61-6b6b-4613-9534-2e6b69636164,rev?*
G04 #@! TF.SameCoordinates,Original*
G04 #@! TF.FileFunction,Other,User*
%FSLAX46Y46*%
G04 Gerber Fmt 4.6, Leading zero omitted, Abs format (unit mm)*
G04 Created by KiCad (PCBNEW 8.0.4) date 2024-09-10 03:21:52*
%MOMM*%
%LPD*%
G01*
G04 APERTURE LIST*
%ADD10C,0.050000*%
G04 APERTURE END LIST*
D10*
G04 #@! TO.C,D18*
X130258750Y-86856250D02*
X130258750Y-89356250D01*
X130258750Y-89356250D02*
X139978750Y-89356250D01*
X139978750Y-86856250D02*
X130258750Y-86856250D01*
X139978750Y-89356250D02*
X139978750Y-86856250D01*
G04 #@! TO.C,D9*
X73708750Y-65425000D02*
X73708750Y-67925000D01*
X73708750Y-67925000D02*
X83428750Y-67925000D01*
X83428750Y-65425000D02*
X73708750Y-65425000D01*
X83428750Y-67925000D02*
X83428750Y-65425000D01*
G04 #@! TO.C,D5*
X111558749Y-46375001D02*
X111558749Y-48875001D01*
X111558749Y-48875001D02*
X121278749Y-48875001D01*
X121278749Y-46375001D02*
X111558749Y-46375001D01*
X121278749Y-48875001D02*
X121278749Y-46375001D01*
G04 #@! TO.C,D27*
X129399968Y-122949492D02*
X131565032Y-124199492D01*
X131565032Y-124199492D02*
X136425032Y-115781725D01*
X134259968Y-114531725D02*
X129399968Y-122949492D01*
X136425032Y-115781725D02*
X134259968Y-114531725D01*
G04 #@! TO.C,D25*
X94540002Y-122575001D02*
X94540002Y-125075001D01*
X94540002Y-125075001D02*
X104260002Y-125075001D01*
X104260002Y-122575001D02*
X94540002Y-122575001D01*
X104260002Y-125075001D02*
X104260002Y-122575001D01*
G04 #@! TO.C,D16*
X92158750Y-82093750D02*
X92158750Y-84593750D01*
X92158750Y-84593750D02*
X101878750Y-84593750D01*
X101878750Y-82093750D02*
X92158750Y-82093750D01*
X101878750Y-84593750D02*
X101878750Y-82093750D01*
G04 #@! TO.C,D21*
X73108752Y-103525001D02*
X73108752Y-106025001D01*
X73108752Y-106025001D02*
X82828752Y-106025001D01*
X82828752Y-103525001D02*
X73108752Y-103525001D01*
X82828752Y-106025001D02*
X82828752Y-103525001D01*
G04 #@! TO.C,D14*
X54058750Y-86856250D02*
X54058750Y-89356250D01*
X54058750Y-89356250D02*
X63778750Y-89356250D01*
X63778750Y-86856250D02*
X54058750Y-86856250D01*
X63778750Y-89356250D02*
X63778750Y-86856250D01*
G04 #@! TO.C,J1*
X145658200Y-104098296D02*
X154318454Y-109098293D01*
X153058202Y-91281119D02*
X145658200Y-104098296D01*
X153058202Y-91281119D02*
X161718455Y-96281121D01*
X161718455Y-96281121D02*
X154318454Y-109098293D01*
G04 #@! TO.C,D3*
X73458749Y-46375000D02*
X73458749Y-48875000D01*
X73458749Y-48875000D02*
X83178749Y-48875000D01*
X83178749Y-46375000D02*
X73458749Y-46375000D01*
X83178749Y-48875000D02*
X83178749Y-46375000D01*
G04 #@! TO.C,D1*
X35358749Y-48756251D02*
X35358749Y-51256251D01*
X35358749Y-51256251D02*
X45078749Y-51256251D01*
X45078749Y-48756251D02*
X35358749Y-48756251D01*
X45078749Y-51256251D02*
X45078749Y-48756251D01*
G04 #@! TO.C,D7*
X35858750Y-67806250D02*
X35858750Y-70306250D01*
X35858750Y-70306250D02*
X45578750Y-70306250D01*
X45578750Y-67806250D02*
X35858750Y-67806250D01*
X45578750Y-70306250D02*
X45578750Y-67806250D01*
G04 #@! TO.C,D17*
X111208752Y-84475001D02*
X111208752Y-86975001D01*
X111208752Y-86975001D02*
X120928752Y-86975001D01*
X120928752Y-84475001D02*
X111208752Y-84475001D01*
X120928752Y-86975001D02*
X120928752Y-84475001D01*
G04 #@! TO.C,D2*
X54408749Y-48756250D02*
X54408749Y-51256250D01*
X54408749Y-51256250D02*
X64128749Y-51256250D01*
X64128749Y-48756250D02*
X54408749Y-48756250D01*
X64128749Y-51256250D02*
X64128749Y-48756250D01*
G04 #@! TO.C,D19*
X35008752Y-105906251D02*
X35008752Y-108406251D01*
X35008752Y-108406251D02*
X44728752Y-108406251D01*
X44728752Y-105906251D02*
X35008752Y-105906251D01*
X44728752Y-108406251D02*
X44728752Y-105906251D01*
G04 #@! TO.C,D10*
X92158752Y-63043751D02*
X92158752Y-65543751D01*
X92158752Y-65543751D02*
X101878752Y-65543751D01*
X101878752Y-63043751D02*
X92158752Y-63043751D01*
X101878752Y-65543751D02*
X101878752Y-63043751D01*
G04 #@! TO.C,D22*
X92771249Y-101143751D02*
X92771249Y-103643751D01*
X92771249Y-103643751D02*
X102491249Y-103643751D01*
X102491249Y-101143751D02*
X92771249Y-101143751D01*
X102491249Y-103643751D02*
X102491249Y-101143751D01*
G04 #@! TO.C,D15*
X72908751Y-84475000D02*
X72908751Y-86975000D01*
X72908751Y-86975000D02*
X82628751Y-86975000D01*
X82628751Y-84475000D02*
X72908751Y-84475000D01*
X82628751Y-86975000D02*
X82628751Y-84475000D01*
G04 #@! TO.C,D23*
X111558749Y-103525001D02*
X111558749Y-106025001D01*
X111558749Y-106025001D02*
X121278749Y-106025001D01*
X121278749Y-103525001D02*
X111558749Y-103525001D01*
X121278749Y-106025001D02*
X121278749Y-103525001D01*
G04 #@! TO.C,D4*
X92508749Y-43993751D02*
X92508749Y-46493751D01*
X92508749Y-46493751D02*
X102228749Y-46493751D01*
X102228749Y-43993751D02*
X92508749Y-43993751D01*
X102228749Y-46493751D02*
X102228749Y-43993751D01*
G04 #@! TO.C,D26*
X113444002Y-126065210D02*
X122832801Y-128580931D01*
X114091050Y-123650396D02*
X113444002Y-126065210D01*
X122832801Y-128580931D02*
X123479849Y-126166117D01*
X123479849Y-126166117D02*
X114091050Y-123650396D01*
G04 #@! TO.C,D20*
X54058750Y-105906250D02*
X54058750Y-108406250D01*
X54058750Y-108406250D02*
X63778750Y-108406250D01*
X63778750Y-105906250D02*
X54058750Y-105906250D01*
X63778750Y-108406250D02*
X63778750Y-105906250D01*
G04 #@! TO.C,D24*
X131823750Y-105906250D02*
X131823750Y-108406250D01*
X131823750Y-108406250D02*
X141543750Y-108406250D01*
X141543750Y-105906250D02*
X131823750Y-105906250D01*
X141543750Y-108406250D02*
X141543750Y-105906250D01*
G04 #@! TO.C,D13*
X35008752Y-86856251D02*
X35008752Y-89356251D01*
X35008752Y-89356251D02*
X44728752Y-89356251D01*
X44728752Y-86856251D02*
X35008752Y-86856251D01*
X44728752Y-89356251D02*
X44728752Y-86856251D01*
G04 #@! TO.C,D8*
X54408749Y-67806251D02*
X54408749Y-70306251D01*
X54408749Y-70306251D02*
X64128749Y-70306251D01*
X64128749Y-67806251D02*
X54408749Y-67806251D01*
X64128749Y-70306251D02*
X64128749Y-67806251D01*
G04 #@! TO.C,D12*
X130258752Y-67806251D02*
X130258752Y-70306251D01*
X130258752Y-70306251D02*
X139978752Y-70306251D01*
X139978752Y-67806251D02*
X130258752Y-67806251D01*
X139978752Y-70306251D02*
X139978752Y-67806251D01*
G04 #@! TO.C,D6*
X131108750Y-48756250D02*
X131108750Y-51256250D01*
X131108750Y-51256250D02*
X140828750Y-51256250D01*
X140828750Y-48756250D02*
X131108750Y-48756250D01*
X140828750Y-51256250D02*
X140828750Y-48756250D01*
G04 #@! TO.C,D11*
X111558749Y-65425001D02*
X111558749Y-67925001D01*
X111558749Y-67925001D02*
X121278749Y-67925001D01*
X121278749Y-65425001D02*
X111558749Y-65425001D01*
X121278749Y-67925001D02*
X121278749Y-65425001D01*
G04 #@! TD*
M02*
