G04 #@! TF.GenerationSoftware,KiCad,Pcbnew,8.0.4*
G04 #@! TF.CreationDate,2024-09-10T03:21:52+03:00*
G04 #@! TF.ProjectId,silakka54,73696c61-6b6b-4613-9534-2e6b69636164,rev?*
G04 #@! TF.SameCoordinates,Original*
G04 #@! TF.FileFunction,Paste,Top*
G04 #@! TF.FilePolarity,Positive*
%FSLAX46Y46*%
G04 Gerber Fmt 4.6, Leading zero omitted, Abs format (unit mm)*
G04 Created by KiCad (PCBNEW 8.0.4) date 2024-09-10 03:21:52*
%MOMM*%
%LPD*%
G01*
G04 APERTURE LIST*
G04 Aperture macros list*
%AMRotRect*
0 Rectangle, with rotation*
0 The origin of the aperture is its center*
0 $1 length*
0 $2 width*
0 $3 Rotation angle, in degrees counterclockwise*
0 Add horizontal line*
21,1,$1,$2,0,0,$3*%
G04 Aperture macros list end*
%ADD10R,2.300000X2.000000*%
%ADD11RotRect,2.300000X2.000000X165.000000*%
%ADD12RotRect,1.200000X2.500000X240.000000*%
%ADD13RotRect,2.300000X2.000000X60.000000*%
G04 APERTURE END LIST*
D10*
G04 #@! TO.C,S25*
X106750000Y-111720000D03*
X94050000Y-109180000D03*
G04 #@! TD*
G04 #@! TO.C,S11*
X123418750Y-54570000D03*
X110718750Y-52030000D03*
G04 #@! TD*
G04 #@! TO.C,S5*
X123418750Y-35520000D03*
X110718750Y-32980000D03*
G04 #@! TD*
G04 #@! TO.C,S6*
X142468750Y-37901250D03*
X129768750Y-35361250D03*
G04 #@! TD*
G04 #@! TO.C,S10*
X104368750Y-52188750D03*
X91668750Y-49648750D03*
G04 #@! TD*
G04 #@! TO.C,S23*
X123418750Y-92670000D03*
X110718750Y-90130000D03*
G04 #@! TD*
G04 #@! TO.C,S3*
X85318750Y-35520000D03*
X72618750Y-32980000D03*
G04 #@! TD*
D11*
G04 #@! TO.C,S26*
X128527984Y-116400895D03*
X116918126Y-110660441D03*
G04 #@! TD*
D10*
G04 #@! TO.C,S17*
X123418750Y-73620000D03*
X110718750Y-71080000D03*
G04 #@! TD*
G04 #@! TO.C,S8*
X66268750Y-56951250D03*
X53568750Y-54411250D03*
G04 #@! TD*
D12*
G04 #@! TO.C,J1*
X155925412Y-102814968D03*
X157425409Y-100216893D03*
X147746245Y-103981696D03*
X153925410Y-106279070D03*
G04 #@! TD*
D10*
G04 #@! TO.C,S13*
X47218750Y-76001250D03*
X34518750Y-73461250D03*
G04 #@! TD*
G04 #@! TO.C,S16*
X104368750Y-71238750D03*
X91668750Y-68698750D03*
G04 #@! TD*
D13*
G04 #@! TO.C,S27*
X140963096Y-130663428D03*
X149512800Y-120934905D03*
G04 #@! TD*
D10*
G04 #@! TO.C,S14*
X66268750Y-76001250D03*
X53568750Y-73461250D03*
G04 #@! TD*
G04 #@! TO.C,S7*
X47218750Y-56951250D03*
X34518750Y-54411250D03*
G04 #@! TD*
G04 #@! TO.C,S22*
X104368750Y-90288750D03*
X91668750Y-87748750D03*
G04 #@! TD*
G04 #@! TO.C,S19*
X47218750Y-95051250D03*
X34518750Y-92511250D03*
G04 #@! TD*
G04 #@! TO.C,S20*
X66268750Y-95051250D03*
X53568750Y-92511250D03*
G04 #@! TD*
G04 #@! TO.C,S2*
X66268750Y-37901250D03*
X53568750Y-35361250D03*
G04 #@! TD*
G04 #@! TO.C,S21*
X85318750Y-92670000D03*
X72618750Y-90130000D03*
G04 #@! TD*
G04 #@! TO.C,S12*
X142468750Y-56951250D03*
X129768750Y-54411250D03*
G04 #@! TD*
G04 #@! TO.C,S18*
X142468750Y-76001250D03*
X129768750Y-73461250D03*
G04 #@! TD*
G04 #@! TO.C,S4*
X104368750Y-33138750D03*
X91668750Y-30598750D03*
G04 #@! TD*
G04 #@! TO.C,S24*
X142468750Y-95051250D03*
X129768750Y-92511250D03*
G04 #@! TD*
G04 #@! TO.C,S9*
X85318750Y-54570000D03*
X72618750Y-52030000D03*
G04 #@! TD*
G04 #@! TO.C,S15*
X85318750Y-73620000D03*
X72618750Y-71080000D03*
G04 #@! TD*
G04 #@! TO.C,S1*
X47218750Y-37901250D03*
X34518750Y-35361250D03*
G04 #@! TD*
M02*
